<?xml version="1.0" encoding="utf-8" ?>
<svg baseProfile="full" height="300mm" version="1.1" viewBox="0,0,200,300" width="200mm" xmlns="http://www.w3.org/2000/svg" xmlns:ev="http://www.w3.org/2001/xml-events" xmlns:xlink="http://www.w3.org/1999/xlink"><defs /><rect fill="#222222" height="300" width="200" x="0" y="0" /><text fill="#FFFFFF" style="font-size:12px; font-family:Arial; font-weight:bold;" x="10" y="20">Over 10km Runs</text><text fill="#FFFFFF" style="font-size:4px; font-family:Arial" x="10" y="280">ATHLETE</text><text fill="#FFFFFF" style="font-size:9px; font-family:Arial" x="10" y="290">RealTiny656</text><text fill="#FFFFFF" style="font-size:4px; font-family:Arial" x="120" y="280">STATISTICS</text><text fill="#FFFFFF" style="font-size:3px; font-family:Arial" x="120" y="285">Number: 3</text><text fill="#FFFFFF" style="font-size:3px; font-family:Arial" x="120" y="290">Weekly: 1.0</text><text fill="#FFFFFF" style="font-size:3px; font-family:Arial" x="141" y="285">Total: 33.4 km</text><text fill="#FFFFFF" style="font-size:3px; font-family:Arial" x="141" y="290">Avg: 11.1 km</text><text fill="#FFFFFF" style="font-size:3px; font-family:Arial" x="167" y="285">Min: 10.1 km</text><text fill="#FFFFFF" style="font-size:3px; font-family:Arial" x="167" y="290">Max: 11.9 km</text><polyline fill="none" points="51.63956834515557,46.80596986194723 54.669784172670916,49.032553418539464 57.699999999953434,50.350321917940164 60.30287769786082,48.66903036180884 64.22661870508455,49.21431483147899 71.41366906487383,48.26006655473611 79.76618705037981,49.62327772894059 84.81654676259495,48.85079192862031 86.79784172656946,46.760529260965995 88.77913669054396,46.94229163619457 91.84820143901743,51.531766097527 94.72302158270031,58.84755954708089 95.5,65.20901769219199 94.60647482005879,72.34282644529594 92.54748201440088,77.65902719515725 89.28417266183533,83.11147238107515 85.3604316546116,86.88270644523436 81.78633093531244,89.60887910990277 67.41223021573387,96.92402352721547 60.380575539311394,103.28491733892588 37.73165467614308,98.33251528214896 32.525899280561134,96.28792896165396 32.75899280584417,92.10785550851142 33.924460431793705,91.19913850151352 30.777697841636837,86.56465183978435 21.104316546814516,83.15690913333674 17.025179856223986,78.74952177380328 15.626618704758584,74.38752683441271 14.577697841683403,68.02620474348078 16.98633093503304,64.70919225129182 16.597841726616025,61.80110541326576 17.530215827282518,59.66546659139567 16.364748201332986,57.98421153132222 20.249640287831426,52.75864699509111 25.766187050379813,51.75896652849042 27.82517985603772,53.076726655330276 29.495683453278616,51.168245157954516 31.321582733886316,50.66840336317546 31.865467625902966,48.66903036180884 36.294244604418054,47.3966972376802 42.5877697840333,48.487268717755796 46.35611510789022,50.39576213888358 47.71582733816467,52.25880705300369 49.26978417276405,53.076726655330276 51.05683453241363,51.80440660013119 53.34892086335458,52.486007098836126 54.51438848930411,52.16792700087535 60.497122302185744,48.75991115474608 64.61510791350156,49.21431483147899 69.16043165465817,48.98711305332836 71.29712230223231,48.26006655473611 79.41654676268809,49.714158319926355 84.58345323754475,48.98711305332836 87.0309352518525,46.66964804424788 88.46834532381035,46.85141045821365 91.42086330940947,50.895604251127224 94.80071942461655,59.07475610461552 95.3446043166332,67.88988966692705 93.24676259001717,76.25046759683755 89.40071942447685,83.2932193611341 84.85539568355307,87.47337865870213 80.6985611510463,90.2904195706069 68.4223021583166,96.33336431902717 60.264028776902705,103.33035195572302 38.62517985608429,98.51425581713556 32.91438848921098,96.51510570044047 32.720143884886056,92.10785550851142 33.84676258987747,91.19913850151352 30.894244604278356,86.74639735737583 21.298561151139438,83.47496626400971 17.06402877694927,78.79495898773894 17.335971223190427,78.15883755430696 15.548920863308012,74.29665146840853 14.5,68.61690290900879 14.655395683366805,67.43550576511188 16.908633093582466,64.70919225129182 16.597841726616025,61.80110541326576 17.569064748240635,59.71090582583565 16.44244604301639,57.93877211402287 20.133093525189906,52.894966878404375 25.68848920869641,51.84984666714445 27.592086330987513,53.122166587476386 29.301438848953694,51.350005666317884 31.39928057556972,50.532082772639114 31.671223021578044,48.85079192862031 35.78920863312669,47.62389985792106 42.39352517994121,48.305506996955955 46.00647482019849,50.25944146164693 47.87122302153148,52.62232706861687 49.03669064748101,53.122166587476386 50.86258992808871,51.89528672918095 54.32014388474636,52.25880705300369 58.59352517989464,49.532397118833615 61.1964028775692,48.805351544113364 60.65251798555255,48.39638786701835 58.82661870517768,49.30519550907775 57.699999999953434,49.032553418539464" stroke="#4dd2ff" stroke-linecap="round" stroke-linejoin="round" stroke-width="0.5"><title>2023-01-31 11.9km</title></polyline><polyline fill="none" points="143.18421052629128,46.46727670406108 142.47368421056308,45.451478627859615 141.56578947370872,46.74431213233038 141.36842105258256,48.86824456686736 139.35526315798052,48.822072232695064 138.13157894741744,49.653173500235425 140.10526315798052,56.57895578577882 141.52631578966975,57.91792767026345 148.27631578966975,61.75013482029317 152.4605263157282,60.50351691362448 157.7894736842718,61.75013482029317 165.05263157910667,60.642030190327205 168.05263157910667,60.872885553806555 171.2894736842718,62.258015167928534 175.6710526314564,60.45734581165016 178.0,62.16567333051353 175.63157894741744,64.01250636207988 175.63157894741744,65.21294363791822 179.4605263157282,67.65997861878714 182.1447368422523,70.75338054512395 183.56578947370872,75.73971357138362 185.02631578943692,77.77116623483016 185.5,77.4941505198949 183.3289473685436,75.18567938433262 182.4210526314564,71.12274050246924 181.67105263168924,70.29168015831965 183.17105263168924,66.5980594647699 182.4210526314564,64.24335994117428 175.27631578966975,60.18031909671845 169.43421052629128,60.872885553806555 161.9342105265241,59.44158032987616 158.81578947370872,60.27266135442187 150.6447368422523,59.81094986968674 144.2894736842718,63.41228648496326 140.85526315798052,62.95057832475868 139.35526315798052,64.19718923507025 137.81578947370872,63.41228648496326 136.0394736842718,61.10374079499161 131.89473684201948,59.25689544258057 130.0789473685436,59.90329220579588 123.60526315798052,60.18031909671845 116.61842105258256,64.38187202980043 112.0,64.98209057239 110.18421052629128,63.82782341106213 106.35526315774769,69.32210775493877 107.57894736831076,71.12274050246924 106.7105263157282,73.43123314756667 106.86842105281539,75.83205253403867 105.64473684201948,79.20241129232454 105.68421052629128,83.8654674431018 108.56578947370872,89.31333127300604 113.61842105281539,93.93011175046558 116.81578947370872,95.8229776188964 121.39473684201948,97.39266503433464 123.56578947370872,99.23934887815267 125.06578947370872,102.93269310725736 124.31578947370872,104.54852137216949 123.17105263168924,100.94752447170322 121.0789473685436,98.36217502740328 110.93421052629128,94.71495957110892 107.18421052629128,90.55986681868671 105.64473684201948,86.12772424556897 104.5,79.66410224430729 106.98684210539795,76.2475776244828 106.35526315774769,69.46061823022319 110.4210526314564,63.735481906100176 116.06578947370872,62.99674916284857 117.76315789483488,64.19718923507025 124.23684210539795,60.18031909671845 130.67105263168924,60.041805673216004 132.17105263168924,59.39540911532822 136.67105263168924,61.51927992122364 138.28947368450463,63.64314038169687 139.98684210539795,64.19718923507025 141.88157894741744,62.99674916284857 144.68421052629128,63.50462805837742 152.02631578966975,60.50351691362448 157.8684210528154,61.703963850217406 164.9342105265241,60.68820127286017 168.09210526314564,60.96522766497219 171.3289473685436,62.258015167928534 175.55263157910667,60.27266135442187 168.88157894741744,60.82671449080226 161.5,59.39540911532822 158.81578947370872,60.27266135442187 150.44736842112616,59.90329220579588 144.36842105258256,63.458457274129614 141.36842105258256,62.99674916284857 139.27631578966975,64.19718923507025 136.1578947370872,61.19608285726281 131.93421052629128,59.25689544258057 126.1710526314564,58.6566690186155 122.10526315798052,59.90329220579588 121.15789473685436,60.642030190327205 121.39473684201948,61.75013482029317 124.23684210539795,60.1341479603725 127.27631578943692,59.81094986968674 127.94736842112616,58.93369670159882 132.76315789483488,59.58009394397959" stroke="#4dd2ff" stroke-linecap="round" stroke-linejoin="round" stroke-width="0.5"><title>2023-01-02 10.1km</title></polyline><polyline fill="none" points="14.852532641874859,232.74775110847986 14.822529863857199,232.5986009746921 14.785026391298743,232.71265698350908 14.680016668164171,232.58105388245167 14.747522918769391,230.87896827149234 14.5,228.58899379304057 14.55250486152363,227.6413996285628 95.46999722195324,218.03323542647558 95.5,217.25224889152014 93.57232151119388,217.93670939974982 93.16728400773718,217.76120724469365" stroke="#4dd2ff" stroke-linecap="round" stroke-linejoin="round" stroke-width="0.5"><title>2018-05-03 11.4km</title></polyline></svg>