<?xml version="1.0" encoding="utf-8" ?>
<svg baseProfile="full" height="300mm" version="1.1" viewBox="0,0,200,300" width="200mm" xmlns="http://www.w3.org/2000/svg" xmlns:ev="http://www.w3.org/2001/xml-events" xmlns:xlink="http://www.w3.org/1999/xlink"><defs /><rect fill="#222222" height="300" width="200" x="0" y="0" /><text fill="#FFFFFF" style="font-size:12px; font-family:Arial; font-weight:bold;" x="10" y="20">Over 10km Runs</text><text fill="#FFFFFF" style="font-size:4px; font-family:Arial" x="10" y="280">ATHLETE</text><text fill="#FFFFFF" style="font-size:9px; font-family:Arial" x="10" y="290">RealTiny656</text><text fill="#FFFFFF" style="font-size:4px; font-family:Arial" x="120" y="280">STATISTICS</text><text fill="#FFFFFF" style="font-size:3px; font-family:Arial" x="120" y="285">Number: 2</text><text fill="#FFFFFF" style="font-size:3px; font-family:Arial" x="120" y="290">Weekly: 1.0</text><text fill="#FFFFFF" style="font-size:3px; font-family:Arial" x="141" y="285">Total: 21.5 km</text><text fill="#FFFFFF" style="font-size:3px; font-family:Arial" x="141" y="290">Avg: 10.7 km</text><text fill="#FFFFFF" style="font-size:3px; font-family:Arial" x="167" y="285">Min: 10.1 km</text><text fill="#FFFFFF" style="font-size:3px; font-family:Arial" x="167" y="290">Max: 11.4 km</text><polyline fill="none" points="97.57894736831076,51.9563689387287 96.63157894741744,50.60197150375461 95.4210526314564,52.32574950973503 95.15789473662153,55.15765942243161 92.47368421056308,55.09609631024068 90.84210526314564,56.20423133356962 93.47368421056308,65.43860771431355 95.36842105258256,67.22390356031246 104.36842105258256,72.33351309370482 109.94736842089333,70.67135588475503 117.05263157887384,72.33351309370482 126.73684210539795,70.8560402537114 130.73684210516512,71.1638474049978 135.05263157887384,73.01068689051317 140.89473684201948,70.60979441547533 144.0,72.8875644406653 140.84210526314564,75.35000848275376 140.84210526314564,76.95059151720488 145.94736842089333,80.21330482501071 149.52631578943692,84.33784072677372 151.4210526314564,90.98628476180602 153.36842105258256,93.69488831306808 154.0,93.32553402648773 151.10526315798052,90.24757251242409 149.89473684201948,84.83032066992018 148.89473684201948,83.72224021109287 150.8947368422523,78.797412619635 149.89473684201948,75.65781325486023 140.36842105258256,70.24042546225246 132.57894736831076,71.1638474049978 122.5789473685436,69.25544043979608 118.4210526314564,70.36354847252369 107.52631578943692,69.74793315952411 99.05263157887384,74.54971531324554 94.47368421033025,73.93410443293396 92.47368421056308,75.5962523134076 90.4210526314564,74.54971531324554 88.05263157887384,71.47165439330274 82.52631578920409,69.00919392338255 80.10526315774769,69.8710562743363 71.47368421056308,70.24042546225246 62.15789473662153,75.8424960396951 55.99999999976717,76.64278742979513 53.578947368310764,75.10376454802463 48.47368421033025,82.42947700654622 50.105263157514855,84.83032066992018 48.947368420893326,87.90831086336402 49.15789473685436,91.10940337867942 47.52631578920409,95.60321505641332 47.578947368310764,101.82062325743027 51.421052631689236,109.08444169728318 58.15789473685436,115.24014900054317 62.421052631456405,117.76397015847033 68.52631578943692,119.85688671236858 71.4210526314564,122.31913183751749 73.4210526314564,127.24359080963768 72.42105263168924,129.39802849618718 70.89473684201948,124.59669929556549 68.10526315774769,121.14956670318497 54.578947368310764,116.28661276143976 49.578947368310764,110.74648909154348 47.52631578920409,104.83696566073922 46.0,96.21880299237091 49.31578947370872,91.66343683260493 48.47368421033025,82.61415764025878 53.89473684201948,74.9806425414281 61.421052631456405,73.99566555040656 63.68421052629128,75.5962523134076 72.31578947370872,70.24042546225246 80.89473684225231,70.05574089754373 82.89473684201948,69.19387882039882 88.89473684201948,72.02570656157332 91.05263157910667,74.85752050887095 93.31578947370872,75.5962523134076 95.84210526314564,73.99566555040656 99.57894736831076,74.67283741111169 109.36842105258256,70.67135588475503 117.15789473708719,72.27195180027047 126.5789473685436,70.91760169708868 130.78947368403897,71.28697021992411 135.10526315798052,73.01068689051317 140.73684210539795,70.36354847252369 131.84210526314564,71.10228598769754 121.99999999976717,69.19387882039882 118.4210526314564,70.36354847252369 107.26315789460205,69.8710562743363 99.15789473685436,74.61127636546735 95.15789473662153,73.99566555040656 92.36842105258256,75.5962523134076 88.21052631596103,71.59477714297827 82.57894736831076,69.00919392338255 74.89473684201948,68.20889202476246 69.47368421056308,69.8710562743363 68.2105263157282,70.8560402537114 68.52631578943692,72.33351309370482 72.31578947370872,70.17886394710513 76.36842105234973,69.74793315952411 77.26315789460205,68.57826226874022 83.68421052629128,69.44012525858125" stroke="#4dd2ff" stroke-linecap="round" stroke-linejoin="round" stroke-width="0.5"><title>2023-01-02 10.1km</title></polyline><polyline fill="none" points="46.47004352248041,220.33033481131133 46.43003981845686,220.13146796626097 46.380035188398324,220.28354264468362 46.2400222242577,220.10807184327132 46.330030558339786,217.83862436199706 46.0,214.78532505738985 46.070006482012104,213.52186617142434 153.95999629597645,200.7109805686341 154.0,199.66966518869594 151.42976201494457,200.58227919966885 150.88971201033564,200.34827632626548" stroke="#4dd2ff" stroke-linecap="round" stroke-linejoin="round" stroke-width="0.5"><title>2018-05-03 11.4km</title></polyline></svg>