<?xml version="1.0" encoding="utf-8" ?>
<svg baseProfile="full" height="200mm" version="1.1" viewBox="0,0,200,200" width="200mm" xmlns="http://www.w3.org/2000/svg" xmlns:ev="http://www.w3.org/2001/xml-events" xmlns:xlink="http://www.w3.org/1999/xlink"><defs /><rect fill="#1a1a1a" height="200" width="200" x="0" y="0" /><rect fill="#1a1a1a" height="200" width="180" x="10" y="0" /><text alignment-baseline="middle" fill="#e1ed5e" style="dominant-baseline: central; font-size:9.0px; font-family:Arial;" text-anchor="middle" x="100.0" y="100.0">2026</text><line stroke="#e1ed5e" stroke-width="0.3" x1="100.0" x2="100.0" y1="15.0" y2="10.0" /><path d="M 100.0 14.0 a86.0,86.0 0 0,1 42.46469731375804,11.215312516191453" fill="none" id="id61" stroke="none" /><text fill="#e1ed5e" style="font-size:6.75px; font-family:Arial;" text-anchor="middle"><textPath startOffset="22.20632615414155" xlink:href="#id61">January</textPath></text><path d="M 100.0 79.0 l 0.0 -11.611652686465654 a32.61165268646565,32.61165268646565 0 0,0 0.5613559925225163,0.004831768254053106 l -0.1998755132499879 11.60993229482016" fill="#ff0000" stroke="none" /><path d="M 100.36148047927253 79.00311137660856 l 0.43294068737174507 -25.147713125680568 a46.15143958286103,46.15143958286103 0 0,0 0.7941857625075837,0.020511475169341563 l -0.8657530850741966 25.13653485836887" fill="#ffdd14" stroke="none" /><path d="M 101.08401301168833 79.027996857942 l 1.4118464638742803 -27.314477000934748 a48.35094082974382,48.35094082974382 0 0,0 0.8308025916991388,0.050116281154756685 l -1.8818111044130308 27.286127450399686" fill="#fffe18" stroke="none" /><path d="M 102.52436894288641 79.15227682838746 l 2.0688265083959108 -17.08558586836984 a38.210383133076405,38.210383133076405 0 0,0 0.6522790272038149,0.084684538264484 l -2.3626202641075715 17.04744300694122" fill="#ff6008" stroke="none" /><path d="M 102.88285421437855 79.19881850522331 l 3.1468925509482593 -22.70634524990926 a43.92337338472002,43.92337338472002 0 0,0 0.7480171812662032,0.11023828817295409 l -3.537278712643118 22.648812477575333" fill="#ffbb11" stroke="none" /><path d="M 103.59715602781102 79.31037775812273 l 6.387785800463341 -36.740378830338855 a58.29154386760372,58.29154386760372 0 0,0 0.9870836856078172,0.18038323426469224 l -7.019264607174059 36.62498011472343" fill="#78ff26" stroke="none" /><path d="M 103.95276090670814 79.375362276772 l 4.911603384644582 -25.62766705078502 a47.094082974382225,47.094082974382225 0 0,0 0.7948440438792101,0.1594382376976321 l -5.352013837990918 25.53932485701018" fill="#ffec16" stroke="none" /><path d="M 104.307194497241 79.44645832069477 l 6.471044645934285 -30.879238428645593 a52.549988664701885,52.549988664701885 0 0,0 0.8837338496471001,0.19314999048238063 l -7.001621219734913 30.76327494006734" fill="#c4ff1e" stroke="none" /><path d="M 104.66035177308747 79.52364482259891 l 6.374042676725628 -28.00586052715049 a49.722058490138295,49.722058490138295 0 0,0 0.8329067815378383,0.19712212505118293 l -6.855173145225989 27.891992489958437" fill="#ecff1a" stroke="none" /><path d="M 105.01212808612495 79.60689891045804 l 7.71420031210662 -31.387160121718512 a53.32124234867377,53.32124234867377 0 0,0 0.8894265351910495,0.226734627728107 l -8.253335735982693 31.24972249782154" fill="#b9ff1f" stroke="none" /><path d="M 105.36241919743992 79.69619591428918 l 5.853558928966958 -22.163413437473963 a43.92337338472002,43.92337338472002 0 0,0 0.7293415719841406,0.1993566026607606 l -6.23419839017481 22.05937029398691" fill="#ffbb11" stroke="none" /><path d="M 106.0581310904928 79.89281104454417 l 14.911160564380006 -49.4907618429798 a72.68827930174564,72.68827930174564 0 0,0 1.194907487973873,0.3712635730250909 l -15.760853425064598 49.22675813507219" fill="#3cffa5" stroke="none" /><path d="M 106.40334571778207 80.00007090966166 l 7.92179949715184 -24.742601007929352 a46.97982316934936,46.97982316934936 0 0,0 0.7680466810500622,0.25321291521420475 l -8.34652900044432 24.60257436845591" fill="#ffea16" stroke="none" /><path d="M 106.74666289553966 80.11325718540242 l 11.012462672383927 -32.46079081049707 a55.27794150986171,55.27794150986171 0 0,0 0.8984455340787417,0.3134500053995691 l -11.569590210525943 32.2664199519253" fill="#9fff22" stroke="none" /><path d="M 107.08798089147638 80.2323363322302 l 7.727522128113787 -21.551279659556773 a43.894808433461804,43.894808433461804 0 0,0 0.7090426108312957,0.2611463774259094 l -8.09734706471766 21.41507001432454" fill="#ffbb11" stroke="none" /><path d="M 107.4271985657038 80.35727306442388 l 13.866012284872095 -36.671470486163976 a60.20539560190433,60.20539560190433 0 0,0 0.966201517890322,0.3748711781002369 l -14.495196967762086 36.42735660417319" fill="#5fff29" stroke="none" /><path d="M 107.76421540070413 80.48803036053334 l 10.60868878259892 -26.660313084802898 a49.69349353888008,49.69349353888008 0 0,0 0.7920578030461146,0.32310026524955776 l -11.066030455233422 26.47375193336976" fill="#ecff1a" stroke="none" /><path d="M 108.43124777332544 80.76684994638697 l 20.889845140483715 -47.653388559495994 a73.03105871684426,73.03105871684426 0 0,0 1.1469975748627503,0.5146243776641148 l -21.707024833813247 47.28674385131535" fill="#3dffa9" stroke="none" /><path d="M 108.76106565485865 80.91482961587045 l 10.826698908327936 -23.58496117975295 a46.95125821809114,46.95125821809114 0 0,0 0.7315940331361064,0.3434932081623875 l -11.23107115276364 23.39510298895056" fill="#ffe915" stroke="none" /><path d="M 109.08828744355905 81.06846463323043 l 15.582570377609867 -32.45957877553349 a57.0061210609839,57.0061210609839 0 0,0 0.8809582971700497,0.4322824104614649 l -16.13899994179035 32.186541204937186" fill="#88ff25" stroke="none" /><path d="M 109.41281617654863 81.2277094730956 l 10.262124913403387 -20.466095022417424 a43.894808433461804,43.894808433461804 0 0,0 0.6725092506079515,0.3444853585623997 l -10.612894651600094 20.286417138542525" fill="#ffbb11" stroke="none" /><path d="M 109.73455568895987 81.39251694778311 l 15.498930991513296 -29.626015297147873 a54.435275447744274,54.435275447744274 0 0,0 0.8265217723861461,0.4414993065470287 l -16.006597810427753 29.35483726409909" fill="#aaff21" stroke="none" /><path d="M 110.05341064243156 81.56283822128135 l 13.695521321779921 -25.116505356681113 a49.60779868510542,49.60779868510542 0 0,0 0.7461861237518465,0.4152517699893279 l -14.125831534603803 24.877038189131607" fill="#eeff19" stroke="none" /><line stroke="#e1ed5e" stroke-width="0.3" x1="143.23703022742887" x2="145.7803849466894" y1="26.81831364943548" y2="22.513508569990506" /><path d="M 143.74570117128098 25.957352633546492 a86.0,86.0 0 0,1 28.547481713284135,27.462654790039103" fill="none" id="id62" stroke="none" /><text fill="#e1ed5e" style="font-size:6.75px; font-family:Arial;" text-anchor="middle"><textPath startOffset="19.985693538727396" xlink:href="#id62">February</textPath></text><path d="M 110.68208982089419 81.91981866633111 l 32.04626946268258 -54.24054400100664 a84.0,84.0 0 0,0 1.23855173512945,0.7462135621655417 l -32.97518326402967 53.68088382938249" fill="#4dd2ff" stroke="none" /><path d="M 110.99172775467656 82.1063720568725 l 13.568342240810214 -22.0881442190726 a46.92269326683292,46.92269326683292 0 0,0 0.6845816445746937,0.4286849630290324 l -13.946543037757172 21.85131491472062" fill="#ffe915" stroke="none" /><path d="M 111.2981086023043 82.29822771554956 l 19.40221552084675 -30.399212209184327 a57.06325096350034,57.06325096350034 0 0,0 0.8234307932327404,0.535582293136227 l -19.92261333986377 30.060730991888573" fill="#87ff25" stroke="none" /><path d="M 111.60114157652 82.49532879139004 l 12.663680954646082 -19.107910194844028 a43.92337338472002,43.92337338472002 0 0,0 0.6266303081852743,0.4231035813041192 l -12.9907159572379 18.88709470124124" fill="#ffbb11" stroke="none" /><path d="M 111.90073688211348 82.69761687909136 l 23.15665941037858 -33.667275975234375 a61.86216277488098,61.86216277488098 0 0,0 0.8721647636023667,0.6110071532816642 l -23.732755313564596 33.26368397918878" fill="#4bff2c" stroke="none" /><path d="M 112.19680574252982 82.90503203632743 l 13.297310998827003 -18.63742936687858 a43.894808433461804,43.894808433461804 0 0,0 0.6112972530532914,0.4441334515960685 l -13.616153568234084 18.405776680465838" fill="#ffbb11" stroke="none" /><path d="M 112.48926042617603 83.11751280151076 l 31.640781061554552 -42.77075367107625 a74.20222171843119,74.20222171843119 0 0,0 1.0202941390890599,0.7684643926460809 l -32.372321354402 42.21977268892432" fill="#3effb8" stroke="none" /><path d="M 113.06298171725822 83.55741782278167 l 15.645371211125633 -19.69307677221591 a46.15143958286103,46.15143958286103 0 0,0 0.6177625151475454,0.4995209914127244 l -15.98203712483767 19.420849683539057" fill="#ffdd14" stroke="none" /><path d="M 113.34407831869373 83.78471172551755 l 18.88621195728971 -22.94990811552798 a50.72183178417592,50.72183178417592 0 0,0 0.6693892090767544,0.5605942119986961 l -19.278458703325583 22.621412746135462" fill="#deff1b" stroke="none" /><path d="M 113.6212207817346 84.01681056812373 l 22.372646693191392 -26.252144056663695 a55.49217864429834,55.49217864429834 0 0,0 0.7216789578266417,0.6258328806847226 l -22.8212194496648 25.8631461825593" fill="#9cff22" stroke="none" /><path d="M 113.89432698308785 84.25364557470407 l 21.40375240310177 -24.256739587369285 a53.34980729993199,53.34980729993199 0 0,0 0.683357713216807,0.6135253021381213 l -21.818121103914567 23.884715276461865" fill="#b9ff1f" stroke="none" /><line stroke="#e1ed5e" stroke-width="0.3" x1="172.23445277983987" x2="176.4835382374775" y1="55.19839476539836" y2="52.563006222186495" /><path d="M 173.08426987136738 54.67131705675599 a86.0,86.0 0 0,1 12.851231095245387,41.99856678651699" fill="none" id="id63" stroke="none" /><text fill="#e1ed5e" style="font-size:6.75px; font-family:Arial;" text-anchor="middle"><textPath startOffset="22.20632615414155" xlink:href="#id63">March</textPath></text><line stroke="#e1ed5e" stroke-width="0.3" x1="184.98032266829074" x2="189.97916517819016" y1="98.17113171792111" y2="98.06355123074" /><path d="M 185.9800911702706 98.14961562048488 a86.0,86.0 0 0,1 -9.607161424134198,41.387399972396054" fill="none" id="id64" stroke="none" /><text fill="#e1ed5e" style="font-size:6.75px; font-family:Arial;" text-anchor="middle"><textPath startOffset="21.466115282336823" xlink:href="#id64">April</textPath></text><line stroke="#e1ed5e" stroke-width="0.3" x1="174.80103733775053" x2="179.2010983576182" y1="140.37084112569926" y2="142.7455964860345" /><path d="M 175.68104954172406 140.8457921977663 a86.0,86.0 0 0,1 -30.038265399797805,32.042727171017184" fill="none" id="id65" stroke="none" /><text fill="#e1ed5e" style="font-size:6.75px; font-family:Arial;" text-anchor="middle"><textPath startOffset="22.206326154141568" xlink:href="#id65">May</textPath></text><line stroke="#e1ed5e" stroke-width="0.3" x1="143.8653032363475" x2="146.44561519142675" y1="172.8068346515853" y2="177.08958963109032" /><path d="M 144.38136562736335 173.6633856474863 a86.0,86.0 0 0,1 -40.68145358897372,12.25698825130547" fill="none" id="id66" stroke="none" /><text fill="#e1ed5e" style="font-size:6.75px; font-family:Arial;" text-anchor="middle"><textPath startOffset="21.466115282336833" xlink:href="#id66">June</textPath></text><line stroke="#e1ed5e" stroke-width="0.3" x1="102.19456741930631" x2="102.32365962044197" y1="184.97166512339345" y2="189.96999836594603" /><path d="M 102.22038585953345 185.97133177190398 a86.0,86.0 0 0,1 -42.740103519485714,-10.115201625700543" fill="none" id="id67" stroke="none" /><text fill="#e1ed5e" style="font-size:6.75px; font-family:Arial;" text-anchor="middle"><textPath startOffset="22.20632615414155" xlink:href="#id67">July</textPath></text><line stroke="#e1ed5e" stroke-width="0.3" x1="58.666819895761336" x2="56.23545636021788" y1="174.27360380694188" y2="178.64263932499728" /><path d="M 58.180547188652646 175.14741091055294 a86.0,86.0 0 0,1 -31.652253787137756,-30.449443065178592" fill="none" id="id68" stroke="none" /><text fill="#e1ed5e" style="font-size:6.75px; font-family:Arial;" text-anchor="middle"><textPath startOffset="22.20632615414155" xlink:href="#id68">August</textPath></text><line stroke="#e1ed5e" stroke-width="0.3" x1="26.63291911575756" x2="22.317208475507996" y1="142.92168965132927" y2="145.44649492493687" /><path d="M 25.769776987707644 143.4266507060508 a86.0,86.0 0 0,1 -11.730757126820373,-40.83630448921669" fill="none" id="id69" stroke="none" /><text fill="#e1ed5e" style="font-size:6.75px; font-family:Arial;" text-anchor="middle"><textPath startOffset="21.46611528233685" xlink:href="#id69">September</textPath></text><line stroke="#e1ed5e" stroke-width="0.3" x1="15.007084014347285" x2="10.007500721073583" y1="101.09737516637583" y2="101.16192664675087" /><path d="M 14.007167355692545 101.11028546245083 a86.0,86.0 0 0,1 10.666146001902534,-42.60595125391555" fill="none" id="id70" stroke="none" /><text fill="#e1ed5e" style="font-size:6.75px; font-family:Arial;" text-anchor="middle"><textPath startOffset="22.20632615414155" xlink:href="#id70">October</textPath></text><line stroke="#e1ed5e" stroke-width="0.3" x1="26.266209847984243" x2="21.928928074336255" y1="57.711370442889674" y2="55.22380399835377" /><path d="M 25.398753493254645 57.213857153982495 a86.0,86.0 0 0,1 29.58750427330803,-30.492523968695096" fill="none" id="id71" stroke="none" /><text fill="#e1ed5e" style="font-size:6.75px; font-family:Arial;" text-anchor="middle"><textPath startOffset="21.46611528233685" xlink:href="#id71">November</textPath></text><line stroke="#e1ed5e" stroke-width="0.3" x1="56.762969772571076" x2="54.21961505331055" y1="26.818313649435495" y2="22.513508569990535" /><path d="M 56.25429882871897 25.957352633546506 a86.0,86.0 0 0,1 42.265352541879196,-11.944610805530505" fill="none" id="id72" stroke="none" /><text fill="#e1ed5e" style="font-size:6.75px; font-family:Arial;" text-anchor="middle"><textPath startOffset="22.20632615414155" xlink:href="#id72">December</textPath></text></svg>