<?xml version="1.0" encoding="utf-8" ?>
<svg baseProfile="full" height="200mm" version="1.1" viewBox="0,0,200,200" width="200mm" xmlns="http://www.w3.org/2000/svg" xmlns:ev="http://www.w3.org/2001/xml-events" xmlns:xlink="http://www.w3.org/1999/xlink"><defs /><rect fill="#1a1a1a" height="200" width="200" x="0" y="0" /><rect fill="#1a1a1a" height="200" width="180" x="10" y="0" /><text alignment-baseline="middle" fill="#e1ed5e" style="dominant-baseline: central; font-size:9.0px; font-family:Arial;" text-anchor="middle" x="100.0" y="100.0">2021</text><line stroke="#e1ed5e" stroke-width="0.3" x1="100.0" x2="100.0" y1="15.0" y2="10.0" /><path d="M 100.0 14.0 a86.0,86.0 0 0,1 42.46469731375804,11.215312516191453" fill="none" id="id1" stroke="none" /><text fill="#e1ed5e" style="font-size:6.75px; font-family:Arial;" text-anchor="middle"><textPath startOffset="22.20632615414155" xlink:href="#id1">January</textPath></text><line stroke="#e1ed5e" stroke-width="0.3" x1="143.23703022742887" x2="145.7803849466894" y1="26.81831364943548" y2="22.513508569990506" /><path d="M 143.74570117128098 25.957352633546492 a86.0,86.0 0 0,1 28.547481713284135,27.462654790039103" fill="none" id="id2" stroke="none" /><text fill="#e1ed5e" style="font-size:6.75px; font-family:Arial;" text-anchor="middle"><textPath startOffset="19.985693538727396" xlink:href="#id2">February</textPath></text><line stroke="#e1ed5e" stroke-width="0.3" x1="172.23445277983987" x2="176.4835382374775" y1="55.19839476539836" y2="52.563006222186495" /><path d="M 173.08426987136738 54.67131705675599 a86.0,86.0 0 0,1 12.851231095245387,41.99856678651699" fill="none" id="id3" stroke="none" /><text fill="#e1ed5e" style="font-size:6.75px; font-family:Arial;" text-anchor="middle"><textPath startOffset="22.20632615414155" xlink:href="#id3">March</textPath></text><line stroke="#e1ed5e" stroke-width="0.3" x1="184.98032266829074" x2="189.97916517819016" y1="98.17113171792111" y2="98.06355123074" /><path d="M 185.9800911702706 98.14961562048488 a86.0,86.0 0 0,1 -9.607161424134198,41.387399972396054" fill="none" id="id4" stroke="none" /><text fill="#e1ed5e" style="font-size:6.75px; font-family:Arial;" text-anchor="middle"><textPath startOffset="21.466115282336823" xlink:href="#id4">April</textPath></text><line stroke="#e1ed5e" stroke-width="0.3" x1="174.80103733775053" x2="179.2010983576182" y1="140.37084112569926" y2="142.7455964860345" /><path d="M 175.68104954172406 140.8457921977663 a86.0,86.0 0 0,1 -30.038265399797805,32.042727171017184" fill="none" id="id5" stroke="none" /><text fill="#e1ed5e" style="font-size:6.75px; font-family:Arial;" text-anchor="middle"><textPath startOffset="22.206326154141568" xlink:href="#id5">May</textPath></text><line stroke="#e1ed5e" stroke-width="0.3" x1="143.8653032363475" x2="146.44561519142675" y1="172.8068346515853" y2="177.08958963109032" /><path d="M 144.38136562736335 173.6633856474863 a86.0,86.0 0 0,1 -40.68145358897372,12.25698825130547" fill="none" id="id6" stroke="none" /><text fill="#e1ed5e" style="font-size:6.75px; font-family:Arial;" text-anchor="middle"><textPath startOffset="21.466115282336833" xlink:href="#id6">June</textPath></text><line stroke="#e1ed5e" stroke-width="0.3" x1="102.19456741930631" x2="102.32365962044197" y1="184.97166512339345" y2="189.96999836594603" /><path d="M 102.22038585953345 185.97133177190398 a86.0,86.0 0 0,1 -42.740103519485714,-10.115201625700543" fill="none" id="id7" stroke="none" /><text fill="#e1ed5e" style="font-size:6.75px; font-family:Arial;" text-anchor="middle"><textPath startOffset="22.20632615414155" xlink:href="#id7">July</textPath></text><line stroke="#e1ed5e" stroke-width="0.3" x1="58.666819895761336" x2="56.23545636021788" y1="174.27360380694188" y2="178.64263932499728" /><path d="M 58.180547188652646 175.14741091055294 a86.0,86.0 0 0,1 -31.652253787137756,-30.449443065178592" fill="none" id="id8" stroke="none" /><text fill="#e1ed5e" style="font-size:6.75px; font-family:Arial;" text-anchor="middle"><textPath startOffset="22.20632615414155" xlink:href="#id8">August</textPath></text><line stroke="#e1ed5e" stroke-width="0.3" x1="26.63291911575756" x2="22.317208475507996" y1="142.92168965132927" y2="145.44649492493687" /><path d="M 25.769776987707644 143.4266507060508 a86.0,86.0 0 0,1 -11.730757126820373,-40.83630448921669" fill="none" id="id9" stroke="none" /><text fill="#e1ed5e" style="font-size:6.75px; font-family:Arial;" text-anchor="middle"><textPath startOffset="21.46611528233685" xlink:href="#id9">September</textPath></text><line stroke="#e1ed5e" stroke-width="0.3" x1="15.007084014347285" x2="10.007500721073583" y1="101.09737516637583" y2="101.16192664675087" /><path d="M 14.007167355692545 101.11028546245083 a86.0,86.0 0 0,1 10.666146001902534,-42.60595125391555" fill="none" id="id10" stroke="none" /><text fill="#e1ed5e" style="font-size:6.75px; font-family:Arial;" text-anchor="middle"><textPath startOffset="22.20632615414155" xlink:href="#id10">October</textPath></text><path d="M 79.00486145842228 99.54816195383935 l -17.226995289655495 -0.37074353558000883 a38.2309842283889,38.2309842283889 0 0,0 0.019822411311433953,-0.6578093283352916 l 17.218061183888416 0.6672230113402948" fill="red" stroke="none" /><path d="M 79.01574976396665 99.18683210126434 l -20.09611666645079 -0.7787515292942566 a41.11119984028748,41.11119984028748 0 0,0 0.033488775736137094,-0.7068951264633206 l 20.07973428248115 1.1245577623805862" fill="red" stroke="none" /><path d="M 79.03285615573316 98.82574320788736 l -25.115364956199066 -1.406576313171465 a46.154721501297665,46.154721501297665 0 0,0 0.05125242036981739,-0.7928522582628456 l 25.087431944824836 1.8386876356873225" fill="red" stroke="none" /><path d="M 79.05617556472873 98.46500227214037 l -20.220470147528818 -1.4819822343639821 a41.27470553004592,41.27470553004592 0 0,0 0.05803128504632687,-0.7081286654201282 l 20.191964378662995 1.8298248169918887" fill="red" stroke="none" /><path d="M 81.43458229118936 90.18545643968196 l -23.0557358470067 -12.188334641037809 a47.07915751647035,47.07915751647035 0 0,0 0.3849100019617031,-0.7131797759369131 l 22.842517745826527 12.583395400307195" fill="red" stroke="none" /><path d="M 81.6062741919709 89.86733742301443 l -23.624682568567632 -13.014271249558128 a47.97215012976642,47.97215012976642 0 0,0 0.40466189648859296,-0.7198483604654077 l 23.397163030786608 13.41900311995832" fill="red" stroke="none" /><line stroke="#e1ed5e" stroke-width="0.3" x1="26.266209847984243" x2="21.928928074336255" y1="57.711370442889674" y2="55.22380399835377" /><path d="M 25.398753493254645 57.213857153982495 a86.0,86.0 0 0,1 29.58750427330803,-30.492523968695096" fill="none" id="id11" stroke="none" /><text fill="#e1ed5e" style="font-size:6.75px; font-family:Arial;" text-anchor="middle"><textPath startOffset="21.46611528233685" xlink:href="#id11">November</textPath></text><path d="M 81.96595687620814 89.24020034530311 l -23.519142884042797 -14.032419893053996 a48.38720303453783,48.38720303453783 0 0,0 0.4329138578717563,-0.7115965553065583 l 23.274113227884822 14.435184221567628" fill="red" stroke="none" /><path d="M 82.15384107792192 88.93136811851018 l -27.287628505529252 -16.924466276767923 a53.11000199640647,53.11000199640647 0 0,0 0.4885422261441695,-0.7727564780907002 l 26.99225868313912 17.39167040257284" fill="red" stroke="none" /><path d="M 83.17141714833178 87.43820079747576 l -37.31248575576507 -27.852134546463194 a67.56138949890197,67.56138949890197 0 0,0 0.7036810188238143,-0.9259617362102728 l 36.82752879671714 28.490281058554494" fill="red" stroke="none" /><path d="M 83.39014120810768 87.1503855733568 l -37.23042315551429 -28.801965656845 a68.07077260930325,68.07077260930325 0 0,0 0.7249405011850647,-0.920600817644508 l 36.72912857373525 29.438558868442552" fill="red" stroke="none" /><path d="M 83.6137871275137 86.86637796730984 l -21.64000761658951 -17.344561738120465 a48.733080455180676,48.733080455180676 0 0,0 0.5302658271319651,-0.6500432047266226 l 21.338243297381155 17.71448911245517" fill="red" stroke="none" /><path d="M 84.31358615837235 86.03803664274999 l -22.486782709085126 -20.014749029094382 a51.10391295667798,51.10391295667798 0 0,0 0.5905090223020003,-0.6520548112552899 l 22.13893004616708 20.398856627619228" fill="red" stroke="none" /><path d="M 84.5562425177563 85.77008943001954 l -23.184135433765523 -21.361911066274324 a52.525154721501295,52.525154721501295 0 0,0 0.6183778412244246,-0.6596423658701035 l 22.812990270570644 21.757822849022475" fill="red" stroke="none" /><path d="M 84.80347519578584 85.50635884689758 l -22.121273829093138 -21.098100313005837 a51.569275304451985,51.569275304451985 0 0,0 0.6181823566220388,-0.6370912582622688 l 21.75482720876798 21.475755766818228" fill="red" stroke="none" /><path d="M 86.65592168130627 83.78471172551755 l -20.10003412149015 -24.424905176875633 a52.63206228788181,52.63206228788181 0 0,0 0.7045092302697665,-0.5696641355452301 l 19.676621492655883 24.767275409685" fill="red" stroke="none" /><path d="M 87.22198572758235 83.33499621200491 l -18.2792695685783 -23.839705458750014 a51.041026152924736,51.041026152924736 0 0,0 0.7018234579893156,-0.5285988782313787 l 17.866199956830595 24.15082092648725" fill="red" stroke="none" /><path d="M 87.80319425747018 82.90503203632743 l -18.33903822117456 -25.703883253823108 a52.57546416450389,52.57546416450389 0 0,0 0.741236083859275,-0.5192832460209179 l 17.89387099773163 26.015751342607967" fill="red" stroke="none" /><path d="M 89.00827224532344 82.1063720568725 l -25.256396604601683 -41.115334560077045 a69.25304451986425,69.25304451986425 0 0,0 1.0211128387270438,-0.6152090600235173 l 24.54492169965699 41.54399022955918" fill="red" stroke="none" /><line stroke="#e1ed5e" stroke-width="0.3" x1="56.762969772571076" x2="54.21961505331055" y1="26.818313649435495" y2="22.513508569990535" /><path d="M 56.25429882871897 25.957352633546506 a86.0,86.0 0 0,1 42.265352541879196,-11.944610805530505" fill="none" id="id12" stroke="none" /><text fill="#e1ed5e" style="font-size:6.75px; font-family:Arial;" text-anchor="middle"><textPath startOffset="22.20632615414155" xlink:href="#id12">December</textPath></text><path d="M 89.3179101791058 81.91981866633112 l -16.035930207269708 -27.141929235081474 a52.525154721501295,52.525154721501295 0 0,0 0.7823828583166772,-0.45320665085621753 l 15.56635061648771 27.413940043327738" fill="red" stroke="none" /><path d="M 89.94658935756843 81.56283822128135 l -30.16023192729471 -55.31148533615593 a84.0,84.0 0 0,0 1.2754198138867787,-0.6812850939930022 l 29.20366706687963 55.822449156650684" fill="red" stroke="none" /><path d="M 90.58718382345135 81.22770947309562 l -11.331459681490976 -22.598704706974143 a46.28049510880415,46.28049510880415 0 0,0 0.7152071637995424,-0.35094904916582464 l 10.940781250681008 22.790408916274796" fill="red" stroke="none" /><path d="M 91.23893434514133 80.91482961587045 l -13.123233301737798 -28.58774873070953 a52.45597923737273,52.45597923737273 0 0,0 0.8238533307533877,-0.3696389747608685 l 12.629197852517636 28.809408035986927" fill="red" stroke="none" /><path d="M 91.56875222667455 80.76684994638697 l -12.631722682156283 -28.81516761376301 a52.46226791774805,52.46226791774805 0 0,0 0.8301935110582905,-0.3554455354038082 l 12.133845413307684 29.028332677129605" fill="red" stroke="none" /><path d="M 92.91201910852362 80.23233633223022 l -10.659564794468276 -29.72845087029543 a52.58175284487922,52.58175284487922 0 0,0 0.8546237382787534,-0.29816144130847366 l 10.146259052126238 29.907533164776112" fill="red" stroke="none" /><path d="M 93.25333710446033 80.11325718540243 l -10.128075792176189 -29.85393543509013 a52.525154721501295,52.525154721501295 0 0,0 0.8587041847746006,-0.28310126883972614 l 9.612688785159179 30.02385042818909" fill="red" stroke="none" /><path d="M 93.94186890950719 79.89281104454417 l -9.112595069139159 -30.245081889575133 a52.58804152525454,52.58804152525454 0 0,0 0.8689792780966789,-0.25367888025719726 l 8.590625573319057 30.39745909875103" fill="red" stroke="none" /><path d="M 94.63758080256005 79.69619591428918 l -8.058081313461871 -30.51042790040834 a52.556598123377924,52.556598123377924 0 0,0 0.8766718649320918,-0.2234831782845141 l 7.531700559844779 30.644614074861718" fill="red" stroke="none" /><path d="M 96.04723909329186 79.375362276772 l -4.743076348526508 -24.748330013068866 a46.198742263924935,46.198742263924935 0 0,0 0.7823094356172224,-0.14296204896297912 l 4.316371791806392 24.82630754338258" fill="red" stroke="none" /><path d="M 96.75951476605007 79.25152402106235 l -6.148447127861856 -39.36784102691623 a60.8450788580555,60.8450788580555 0 0,0 1.0361946470431265,-0.1527081555943018 l 5.469883500390081 39.4678436666715" fill="red" stroke="none" /><path d="M 98.19473922651362 79.07773832637324 l -2.710594185943515 -31.414719514343556 a52.53144340187662,52.53144340187662 0 0,0 0.9015641699520768,-0.06997873123948269 l 2.1694398266291044 31.456723507771503" fill="red" stroke="none" /><path d="M 98.55514903715128 79.0497635885617 l -2.1793913854668525 -31.60102040459614 a52.676083050509085,52.676083050509085 0 0,0 0.9051204706237886,-0.054599338564811355 l 1.6351088660034412 31.633853012541262" fill="red" stroke="none" /></svg>