<?xml version="1.0" encoding="utf-8" ?>
<svg baseProfile="full" height="200mm" version="1.1" viewBox="0,0,200,200" width="200mm" xmlns="http://www.w3.org/2000/svg" xmlns:ev="http://www.w3.org/2001/xml-events" xmlns:xlink="http://www.w3.org/1999/xlink"><defs /><rect fill="#1a1a1a" height="200" width="200" x="0" y="0" /><text alignment-baseline="middle" fill="#e1ed5e" style="dominant-baseline: central; font-size:9.0px; font-family:Arial;" text-anchor="middle" x="100.0" y="100.0">2023</text><line stroke="#e1ed5e" stroke-width="0.3" x1="100.0" x2="100.0" y1="15.0" y2="10.0" /><path d="M 100.0 14.0 a86.0,86.0 0 0,1 42.46469731375804,11.215312516191453" fill="none" id="id61" stroke="none" /><text fill="#e1ed5e" style="font-size:6.75px; font-family:Arial;" text-anchor="middle"><textPath startOffset="22.20632615414155" xlink:href="#id61">January</textPath></text><path d="M 100.36148047927253 79.00311137660856 l 0.9180248480478461 -53.32422244973874 a74.33212417943668,74.33212417943668 0 0,0 1.2791261822779028,0.03303605549841034 l -1.8357776655206166 53.30051960209797" fill="#3fffbd" stroke="none" /><path d="M 101.08401301168833 79.027996857942 l 1.1356752530359535 -21.97149362435458 a43.00082476557213,43.00082476557213 0 0,0 0.7388728336483773,0.04457082709985512 l -1.5137101355239428 21.948689527874418" fill="#ffbc11" stroke="none" /><path d="M 103.2404852339499 79.25152402106235 l 4.186946888730514 -26.80856744408661 a48.13355510531546,48.13355510531546 0 0,0 0.8175158719414791,0.13489712361663442 l -4.6477919668108685 26.73252405753035" fill="#f7ff19" stroke="none" /><path d="M 103.95276090670814 79.375362276772 l 3.7691504061016117 -19.66659848266497 a41.024524729994866,41.024524729994866 0 0,0 0.6924033142836566,0.13888959105311277 l -4.107120129852394 19.59880493553465" fill="#ff9e0e" stroke="none" /><path d="M 105.36241919743992 79.69619591428918 l 4.5448213887556115 -17.208121872660794 a38.798170126168515,38.798170126168515 0 0,0 0.6442382770120251,0.17609465734928936 l -4.840357554991347 17.12734067448521" fill="#ff7b0b" stroke="none" /><path d="M 106.0581310904928 79.89281104454417 l 9.121255637516299 -30.273826676081107 a52.618062654412,52.618062654412 0 0,0 0.8649773756155673,0.26875268109787204 l -9.641018385842585 30.112333860100716" fill="#b9ff1f" stroke="none" /><path d="M 107.08798089147638 80.2323363322302 l 8.806938240760134 -24.5616623057662 a47.092861406887884,47.092861406887884 0 0,0 0.7607014723409,0.2801727720869628 l -9.22842203887361 24.40642626587291" fill="#fff917" stroke="none" /><path d="M 107.4271985657038 80.35727306442388 l 10.549106178893139 -27.8992422584788 a50.82702398448177,50.82702398448177 0 0,0 0.8156934645588599,0.31647639169053154 l -11.027782808451667 27.713523162897722" fill="#d1ff1c" stroke="none" /><path d="M 108.09893153111575 80.62456947434976 l 12.141897220718286 -29.04759537054675 a52.48314572798429,52.48314572798429 0 0,0 0.8305238936984289,0.3555869880083449 l -12.640104872207031 28.83428885457561" fill="#bbff1f" stroke="none" /><path d="M 108.43124777332544 80.76684994638697 l 12.628583700687662 -28.808007048301754 a52.454449548200294,52.454449548200294 0 0,0 0.823829306046599,0.36962819557523646 l -13.122595125201041 28.586358522209988" fill="#bbff1f" stroke="none" /><path d="M 108.76106565485865 80.91482961587045 l 13.84543768797469 -30.161004120692095 a54.18708053354491,54.18708053354491 0 0,0 0.8443425436494905,0.39643014564089196 l -14.362558442923778 29.9182089924112" fill="#a4ff21" stroke="none" /><path d="M 109.08828744355905 81.06846463323043 l 14.553881682000874 -30.316748617127836 a54.629164704580504,54.629164704580504 0 0,0 0.8442254098026643,0.4142577421594672 l -15.07357835881397 30.06173571483354" fill="#9eff22" stroke="none" /><path d="M 109.41281617654863 81.2277094730956 l 14.943261829445689 -29.80184115151952 a54.33842842912321,54.33842842912321 0 0,0 0.832515212760924,0.42644662704243924 l -15.454037529795368 29.54020199916458" fill="#a2ff22" stroke="none" /><path d="M 109.73455568895987 81.39251694778311 l 15.537046755797462 -29.698873110139203 a54.517501188244715,54.517501188244715 0 0,0 0.8277702526081195,0.4421662014439987 l -16.04596205493389 29.42702818219345" fill="#a0ff22" stroke="none" /><path d="M 110.05341064243156 81.56283822128135 l 14.686757817337925 -26.934354868610814 a51.67833645055409,51.67833645055409 0 0,0 0.7773305524552679,0.43258361084342445 l -15.14821245886523 26.67755586020721" fill="#c5ff1e" stroke="none" /><path d="M 110.36928655335952 81.73862282372117 l 31.107859660078564 -54.7841315288365 a84.0,84.0 0 0,0 1.2512130701386868,0.7247833704398019 l -32.04626946268258 54.24054400100664" fill="#4dd2ff" stroke="none" /><line stroke="#e1ed5e" stroke-width="0.3" x1="143.23703022742887" x2="145.7803849466894" y1="26.81831364943548" y2="22.513508569990506" /><path d="M 143.74570117128098 25.957352633546492 a86.0,86.0 0 0,1 28.547481713284135,27.462654790039103" fill="none" id="id62" stroke="none" /><text fill="#e1ed5e" style="font-size:6.75px; font-family:Arial;" text-anchor="middle"><textPath startOffset="19.985693538727396" xlink:href="#id62">February</textPath></text><path d="M 110.99172775467656 82.1063720568725 l 14.963021996887425 -24.358568051617002 a49.58726752952428,49.58726752952428 0 0,0 0.7234566217732856,0.4530284701843934 l -15.380097771032975 24.097395240109662" fill="#e2ff1b" stroke="none" /><path d="M 111.2981086023043 82.29822771554956 l 5.5746343802392255 -8.734285696982672 a31.361674339114373,31.361674339114373 0 0,0 0.4525534024460309,0.2943533215427603 l -5.724154808469537 8.637033451280384" fill="#ff0000" stroke="none" /><path d="M 111.90073688211348 82.69761687909136 l 18.729581965080033 -27.23078461984483 a54.05015690732843,54.05015690732843 0 0,0 0.7620270648036945,0.5338486568365466 l -19.195540169467378 26.904351120244346" fill="#a6ff21" stroke="none" /><path d="M 112.48926042617603 83.11751280151076 l 10.50745023985006 -14.20355474302055 a38.667695884888516,38.667695884888516 0 0,0 0.5316879005744146,0.4004563036664889 l -10.750384294182858 14.020581849848213" fill="#ff790b" stroke="none" /><line stroke="#e1ed5e" stroke-width="0.3" x1="172.23445277983987" x2="176.4835382374775" y1="55.19839476539836" y2="52.563006222186495" /><path d="M 173.08426987136738 54.67131705675599 a86.0,86.0 0 0,1 12.851231095245387,41.99856678651699" fill="none" id="id63" stroke="none" /><text fill="#e1ed5e" style="font-size:6.75px; font-family:Arial;" text-anchor="middle"><textPath startOffset="22.20632615414155" xlink:href="#id63">March</textPath></text><line stroke="#e1ed5e" stroke-width="0.3" x1="184.98032266829074" x2="189.97916517819016" y1="98.17113171792111" y2="98.06355123074" /><path d="M 185.9800911702706 98.14961562048488 a86.0,86.0 0 0,1 -9.607161424134198,41.387399972396054" fill="none" id="id64" stroke="none" /><text fill="#e1ed5e" style="font-size:6.75px; font-family:Arial;" text-anchor="middle"><textPath startOffset="21.466115282336823" xlink:href="#id64">April</textPath></text><line stroke="#e1ed5e" stroke-width="0.3" x1="174.80103733775053" x2="179.2010983576182" y1="140.37084112569926" y2="142.7455964860345" /><path d="M 175.68104954172406 140.8457921977663 a86.0,86.0 0 0,1 -30.038265399797805,32.042727171017184" fill="none" id="id65" stroke="none" /><text fill="#e1ed5e" style="font-size:6.75px; font-family:Arial;" text-anchor="middle"><textPath startOffset="22.206326154141568" xlink:href="#id65">May</textPath></text><line stroke="#e1ed5e" stroke-width="0.3" x1="143.8653032363475" x2="146.44561519142675" y1="172.8068346515853" y2="177.08958963109032" /><path d="M 144.38136562736335 173.6633856474863 a86.0,86.0 0 0,1 -40.68145358897372,12.25698825130547" fill="none" id="id66" stroke="none" /><text fill="#e1ed5e" style="font-size:6.75px; font-family:Arial;" text-anchor="middle"><textPath startOffset="21.466115282336833" xlink:href="#id66">June</textPath></text><line stroke="#e1ed5e" stroke-width="0.3" x1="102.19456741930631" x2="102.32365962044197" y1="184.97166512339345" y2="189.96999836594603" /><path d="M 102.22038585953345 185.97133177190398 a86.0,86.0 0 0,1 -42.740103519485714,-10.115201625700543" fill="none" id="id67" stroke="none" /><text fill="#e1ed5e" style="font-size:6.75px; font-family:Arial;" text-anchor="middle"><textPath startOffset="22.20632615414155" xlink:href="#id67">July</textPath></text><line stroke="#e1ed5e" stroke-width="0.3" x1="58.666819895761336" x2="56.23545636021788" y1="174.27360380694188" y2="178.64263932499728" /><path d="M 58.180547188652646 175.14741091055294 a86.0,86.0 0 0,1 -31.652253787137756,-30.449443065178592" fill="none" id="id68" stroke="none" /><text fill="#e1ed5e" style="font-size:6.75px; font-family:Arial;" text-anchor="middle"><textPath startOffset="22.20632615414155" xlink:href="#id68">August</textPath></text><line stroke="#e1ed5e" stroke-width="0.3" x1="26.63291911575756" x2="22.317208475507996" y1="142.92168965132927" y2="145.44649492493687" /><path d="M 25.769776987707644 143.4266507060508 a86.0,86.0 0 0,1 -11.730757126820373,-40.83630448921669" fill="none" id="id69" stroke="none" /><text fill="#e1ed5e" style="font-size:6.75px; font-family:Arial;" text-anchor="middle"><textPath startOffset="21.46611528233685" xlink:href="#id69">September</textPath></text><line stroke="#e1ed5e" stroke-width="0.3" x1="15.007084014347285" x2="10.007500721073583" y1="101.09737516637583" y2="101.16192664675087" /><path d="M 14.007167355692545 101.11028546245083 a86.0,86.0 0 0,1 10.666146001902534,-42.60595125391555" fill="none" id="id70" stroke="none" /><text fill="#e1ed5e" style="font-size:6.75px; font-family:Arial;" text-anchor="middle"><textPath startOffset="22.20632615414155" xlink:href="#id70">October</textPath></text><line stroke="#e1ed5e" stroke-width="0.3" x1="26.266209847984243" x2="21.928928074336255" y1="57.711370442889674" y2="55.22380399835377" /><path d="M 25.398753493254645 57.213857153982495 a86.0,86.0 0 0,1 29.58750427330803,-30.492523968695096" fill="none" id="id71" stroke="none" /><text fill="#e1ed5e" style="font-size:6.75px; font-family:Arial;" text-anchor="middle"><textPath startOffset="21.46611528233685" xlink:href="#id71">November</textPath></text><line stroke="#e1ed5e" stroke-width="0.3" x1="56.762969772571076" x2="54.21961505331055" y1="26.818313649435495" y2="22.513508569990535" /><path d="M 56.25429882871897 25.957352633546506 a86.0,86.0 0 0,1 42.265352541879196,-11.944610805530505" fill="none" id="id72" stroke="none" /><text fill="#e1ed5e" style="font-size:6.75px; font-family:Arial;" text-anchor="middle"><textPath startOffset="22.20632615414155" xlink:href="#id72">December</textPath></text></svg>