<?xml version="1.0" encoding="utf-8" ?>
<svg baseProfile="full" height="200mm" version="1.1" viewBox="0,0,200,200" width="200mm" xmlns="http://www.w3.org/2000/svg" xmlns:ev="http://www.w3.org/2001/xml-events" xmlns:xlink="http://www.w3.org/1999/xlink"><defs /><rect fill="#1a1a1a" height="200" width="200" x="0" y="0" /><text alignment-baseline="middle" fill="#e1ed5e" style="dominant-baseline: central; font-size:9.0px; font-family:Arial;" text-anchor="middle" x="100.0" y="100.0">2023</text><line stroke="#e1ed5e" stroke-width="0.3" x1="100.0" x2="100.0" y1="15.0" y2="10.0" /><path d="M 100.0 14.0 a86.0,86.0 0 0,1 42.46469731375804,11.215312516191453" fill="none" id="id61" stroke="none" /><text fill="#e1ed5e" style="font-size:6.75px; font-family:Arial;" text-anchor="middle"><textPath startOffset="22.20632615414155" xlink:href="#id61">January</textPath></text><path d="M 100.36148047927253 79.00311137660856 l 0.48010816550874397 -27.887474584119254 a48.891607026675345,48.891607026675345 0 0,0 0.8413392639028531,0.02172931099400147 l -0.9600740646064648 27.875078480982893" fill="#c3ff1e" stroke="none" /><path d="M 101.08401301168833 79.027996857942 l 0.585663243269999 -11.330612497830161 a32.34573845152895,32.34573845152895 0 0,0 0.5557890472199758,0.03352671312236052 l -0.7806143393295866 11.318852515327498" fill="#ff5a08" stroke="none" /><path d="M 103.2404852339499 79.25152402106235 l 2.1825311087735466 -13.974510301493982 a35.14391672088484,35.14391672088484 0 0,0 0.5968956512489169,0.09849289685536593 l -2.4227559661613385 13.934871141698991" fill="#ff830c" stroke="none" /><path d="M 103.95276090670814 79.375362276772 l 2.012127607943032 -10.49883965820013 a31.689915419648667,31.689915419648667 0 0,0 0.5348557383747231,0.10728702945642356 l -2.1925497557848805 10.462648672666496" fill="#ff5007" stroke="none" /><path d="M 105.36241919743992 79.69619591428918 l 2.366860887145899 -8.96167904472754 a30.26896551724138,30.26896551724138 0 0,0 0.5026120079465134,0.13738284805037676 l -2.520770784316123 8.919609655850868" fill="#ff3b05" stroke="none" /><path d="M 106.0581310904928 79.89281104454417 l 4.738506959655452 -15.727301601983728 a37.425634352635,37.425634352635 0 0,0 0.6152322101957063,0.19115564250474926 l -5.008524542561877 15.643405824596456" fill="#ffa30f" stroke="none" /><path d="M 107.08798089147638 80.2323363322302 l 4.619869393026048 -12.884349682740256 a34.68757319453481,34.68757319453481 0 0,0 0.5603160906496961,0.2063691448882907 l -4.840967809448321 12.80291727004564" fill="#ff7c0b" stroke="none" /><path d="M 107.4271985657038 80.35727306442388 l 5.5300494720829105 -14.625332924575996 a36.635914118412494,36.635914118412494 0 0,0 0.5879485630253044,0.22811490812484567 l -5.780981200107882 14.527975312560605" fill="#ff980e" stroke="none" /><path d="M 108.09893153111575 80.62456947434976 l 6.350574028172219 -15.192757885174801 a37.46662329212752,37.46662329212752 0 0,0 0.5928936886059841,0.2538461356021047 l -6.611151474568518 15.081192221609907" fill="#ffa40f" stroke="none" /><path d="M 108.43124777332544 80.76684994638697 l 6.602374638890366 -15.061170725132495 a37.44476252439818,37.44476252439818 0 0,0 0.5880929643005479,0.26386017058321043 l -6.860649721657694 14.945290224032753" fill="#ffa40f" stroke="none" /><path d="M 108.76106565485865 80.91482961587045 l 7.264217352343439 -15.8244249430935 a38.4121014964216,38.4121014964216 0 0,0 0.5985369790190698,0.2810211371541287 l -7.535532542662107 15.69703882329937" fill="#ffb110" stroke="none" /><path d="M 109.08828744355905 81.06846463323043 l 7.6206798030311695 -15.874406493619134 a38.60884840598568,38.60884840598568 0 0,0 0.5966514597800402,0.2927742800852256 l -7.892802529821641 15.740877053399077" fill="#ffb410" stroke="none" /><path d="M 109.41281617654863 81.2277094730956 l 7.805839621749429 -15.567444050482978 a38.414834092387764,38.414834092387764 0 0,0 0.5885509519163661,0.30147865701455656 l -8.07265106125455 15.430772868155922" fill="#ffb110" stroke="none" /><path d="M 109.73455568895987 81.39251694778311 l 8.137252536874195 -15.554257791469269 a38.55419648666233,38.55419648666233 0 0,0 0.5853903108044317,0.312695230681425 l -8.403787894206937 15.41188383428609" fill="#ffb310" stroke="none" /><path d="M 110.05341064243156 81.56283822128135 l 7.724839276975713 -14.166745647798784 a37.13597918022121,37.13597918022121 0 0,0 0.5585886310359198,0.3108539684004106 l -7.9675519970836675 14.031676281838193" fill="#ff9f0e" stroke="none" /><path d="M 110.36928655335952 81.73862282372117 l 16.252186927158807 -28.62176813120085 a53.91411841249187,53.91411841249187 0 0,0 0.8030720193180315,0.46519114830114805 l -16.742455678942168 28.33777282550965" fill="#87ff25" stroke="none" /><line stroke="#e1ed5e" stroke-width="0.3" x1="143.23703022742887" x2="145.7803849466894" y1="26.81831364943548" y2="22.513508569990506" /><path d="M 143.74570117128098 25.957352633546492 a86.0,86.0 0 0,1 28.547481713284135,27.462654790039103" fill="none" id="id62" stroke="none" /><text fill="#e1ed5e" style="font-size:6.75px; font-family:Arial;" text-anchor="middle"><textPath startOffset="19.985693538727396" xlink:href="#id62">February</textPath></text><path d="M 110.99172775467656 82.1063720568725 l 7.20004652141077 -11.72108302741754 a34.755888093689,34.755888093689 0 0,0 0.5070732597237715,0.3175292287200354 l -7.400738933506805 11.59540945737456" fill="#ff7d0b" stroke="none" /><path d="M 111.2981086023043 82.29822771554956 l 2.9491224276151478 -4.620657801250173 a26.481587508132726,26.481587508132726 0 0,0 0.38213305831158634,0.2485499708484078 l -3.0282225117110144 4.569208906242237" fill="#ff0000" stroke="none" /><path d="M 111.90073688211348 82.69761687909136 l 9.37192708009769 -13.625767423258178 a37.53767078724789,37.53767078724789 0 0,0 0.5292254958411695,0.37075628041012587 l -9.60508371552251 13.462426300084118" fill="#ffa50f" stroke="none" /><path d="M 112.48926042617603 83.11751280151076 l 10.920992851516324 -14.762565253591122 a39.36304489264802,39.36304489264802 0 0,0 0.5412490767873122,0.4076575833660728 l -11.173488082062018 14.572391080719202" fill="#ffbe11" stroke="none" /><path d="M 112.77801427241765 83.33499621200491 l 6.667512977539982 -8.695727415726783 a31.957709824333115,31.957709824333115 0 0,0 0.43366223388555136,0.3384802521840461 l -6.816207766584964 8.579668774319513" fill="#ff5407" stroke="none" /><path d="M 113.6212207817346 84.01681056812373 l 8.941972523598064 -10.492542704465295 a34.785946649316855,34.785946649316855 0 0,0 0.45239322618434513,0.39231094779018677 l -9.121259548429174 10.337066763255438" fill="#ff7e0b" stroke="none" /><path d="M 114.16331599549186 84.49514656593476 l 18.475893670111365 -20.225914857059728 a48.39427456083279,48.39427456083279 0 0,0 0.6102105891988631,0.5671242395078877 l -18.821312143105075 19.904886031477197" fill="#c9ff1d" stroke="none" /><path d="M 114.42810811169701 84.74124197986012 l 6.167382582553632 -6.522448938992777 a29.976577748861416,29.976577748861416 0 0,0 0.37187622870159687,0.3577446373737863 l -6.278742054867647 6.4153212148566885" fill="#ff3605" stroke="none" /><path d="M 115.68641384162765 86.03803664274999 l 12.522595825424295 -11.145952530478707 a37.76447625243982,37.76447625243982 0 0,0 0.42801202932389565,0.4892917388777179 l -12.712599718326038 10.928745235398042" fill="#ffa80f" stroke="none" /><path d="M 115.9244219780498 86.31012108654704 l 10.723342060690667 -9.218623731570474 a35.141184124918674,35.141184124918674 0 0,0 0.3903840612304063,0.4620915950253337 l -10.88043673540819 9.032673186916034" fill="#ff830c" stroke="none" /><path d="M 116.15771136456269 86.58626213691792 l 13.214211571408786 -10.970116131355992 a38.17436564736499,38.17436564736499 0 0,0 0.4153761959261637,0.5092021015712206 l -13.401086259411358 10.74102986017667" fill="#ffae10" stroke="none" /><path d="M 117.04232023915458 87.72973835380427 l 39.994566755127245 -28.795597760460655 a70.28236824983735,70.28236824983735 0 0,0 0.6984306335255864,0.987880600060674 l -40.48431000845672 28.102890660068187" fill="#3bff98" stroke="none" /><path d="M 117.45458315368197 88.32363383020206 l 10.459122371204348 -6.996703475851591 a33.58360442420299,33.58360442420299 0 0,0 0.3172904816462072,0.4832551715958863 l -10.578009488208481 6.815630240278031" fill="#ff6c0a" stroke="none" /><line stroke="#e1ed5e" stroke-width="0.3" x1="172.23445277983987" x2="176.4835382374775" y1="55.19839476539836" y2="52.563006222186495" /><path d="M 173.08426987136738 54.67131705675599 a86.0,86.0 0 0,1 12.851231095245387,41.99856678651699" fill="none" id="id63" stroke="none" /><text fill="#e1ed5e" style="font-size:6.75px; font-family:Arial;" text-anchor="middle"><textPath startOffset="22.20632615414155" xlink:href="#id63">March</textPath></text><path d="M 118.03404312379186 89.2402003453031 l 14.678326576358895 -8.75765085753144 a38.092387768379965,38.092387768379965 0 0,0 0.33111413635440956,0.5659813912539622 l -14.826900387183633 8.503690053923583" fill="#ffad10" stroke="none" /><path d="M 118.3937258080291 89.86733742301442 l 12.17073464330878 -6.704565934153769 a34.895250487963565,34.895250487963565 0 0,0 0.28529675640601226,0.52861156055231 l -12.284339498933257 6.494073390269" fill="#ff7f0b" stroke="none" /><path d="M 118.56541770881063 90.18545643968196 l 12.139391540243778 -6.417447155575561 a34.73129472999349,34.73129472999349 0 0,0 0.2748577884886039,0.5309377618830211 l -12.2480587618925 6.2075366714321945" fill="#ff7d0b" stroke="none" /><path d="M 118.89224826269711 90.83032412892265 l 9.894768933943512 -4.802595365138101 a31.998698763825637,31.998698763825637 0 0,0 0.23624457385986145,0.49759132242671084 l -9.975971701645129 4.63156162707085" fill="#ff5507" stroke="none" /><path d="M 119.34039704204932 91.81776055985345 l 12.721627462271874 -5.382071616127624 a34.81327260897853,34.81327260897853 0 0,0 0.22873698231227652,0.5539047459238671 l -12.812386131470348 5.162292299750455" fill="#ff7e0b" stroke="none" /><path d="M 119.61058180528143 92.48833698450437 l 54.82541965991822 -21.00040076615793 a79.70982433311646,79.70982433311646 0 0,0 0.4797598117641628,1.2855177739563237 l -55.178784060184 20.053559855172274" fill="#47fdff" stroke="none" /><path d="M 119.85752413597 93.16781622104841 l 10.374490488733835 -3.5694493002590244 a31.971372804163956,31.971372804163956 0 0,0 0.17456781559795578,0.521935549226926 l -10.434395598103562 3.3903406481097846" fill="#ff5407" stroke="none" /><path d="M 120.08093135843002 93.85539295169968 l 13.130342235017675 -4.017781446676524 a34.73129472999349,34.73129472999349 0 0,0 0.17000820399613062,0.5731831482695647 l -13.197556336125508 3.7911689116604292" fill="#ff7d0b" stroke="none" /><path d="M 120.37134235888165 94.90015583598534 l 7.700552967150449 -1.9277875467095058 a28.938191281717632,28.938191281717632 0 0,0 0.11680997335561773,0.48425275168859977 l -7.732595740766886 1.7949495633615" fill="#ff2603" stroke="none" /><path d="M 120.73433829027371 96.67025291283417 l 14.043231073633661 -2.2552158215612423 a35.22316200390371,35.22316200390371 0 0,0 0.0909832834830741,0.5994661602167939 l -14.079970250556036 2.0131505489523662" fill="#ff840c" stroke="none" /><path d="M 120.78858239683441 97.02765380044208 l 10.860918454559554 -1.5528913456376081 a31.971372804163956,31.971372804163956 0 0,0 0.07320531047798523,0.5454645930830745 l -10.886039764095376 1.3657084104898694" fill="#ff5407" stroke="none" /><path d="M 120.83666639777658 97.38593545837742 l 58.0091707977137 -7.277542077815878 a79.46389069616134,79.46389069616134 0 0,0 0.15858588609702462,1.3586670253107718 l -58.125847036814314 6.277931314180253" fill="#47fffe" stroke="none" /><path d="M 120.91429891909075 98.10471618934814 l 13.64804282098115 -1.2368052453375535 a34.70396877033181,34.70396877033181 0 0,0 0.048792980545532424,0.5953979507431797 l -13.667310285346177 1.001693377386605" fill="#ff7c0b" stroke="none" /><path d="M 120.96714384426684 98.82574320788733 l 20.530612547574243 -1.1498090254584037 a41.562784645413146,41.562784645413146 0 0,0 0.033856632240535936,0.7146599958704195 l -20.547362788048275 0.7962379229649843" fill="#ffdc14" stroke="none" /><path d="M 120.98425023603335 99.18683210126433 l 13.830218275277678 -0.535939545490717 a34.84059856864021,34.84059856864021 0 0,0 0.018064527741122376,0.5994737306872169 l -13.837394497474445 0.29779566737850105" fill="#ff7e0b" stroke="none" /><line stroke="#e1ed5e" stroke-width="0.3" x1="184.98032266829074" x2="189.97916517819016" y1="98.17113171792111" y2="98.06355123074" /><path d="M 185.9800911702706 98.14961562048488 a86.0,86.0 0 0,1 -9.607161424134198,41.387399972396054" fill="none" id="id64" stroke="none" /><text fill="#e1ed5e" style="font-size:6.75px; font-family:Arial;" text-anchor="middle"><textPath startOffset="21.466115282336823" xlink:href="#id64">April</textPath></text><path d="M 120.99513854157772 99.54816195383933 l 14.738942411426379 -0.31719795172892645 a35.7423552374756,35.7423552374756 0 0,0 0.007943300832827663,0.6152174033271499 l -14.742218719376922 0.06344429034131381" fill="#ff8b0c" stroke="none" /><path d="M 120.9904718944345 100.63252640178507 l 13.656780673021798 0.4115331176220367 a34.6629798308393,34.6629798308393 0 0,0 -0.02310513269778627,0.5962408095806547 l -13.647673407472809 -0.6465511742166976" fill="#ff7c0b" stroke="none" /><path d="M 120.9764740272857 100.99374915477107 l 57.688715493387555 2.7329718134139807 a78.7534157449577,78.7534157449577 0 0,0 -0.07580447201319526,1.3535397703595444 l -57.633124670486836 -3.7255833001089482" fill="#46fff7" stroke="none" /><path d="M 120.92983693683757 101.71520430193887 l 22.78179388115111 1.86697254205838 a43.85816525699414,43.85816525699414 0 0,0 -0.06813763562172294,0.7518931312681122 l -22.74628164925231 -2.2588470618750627" fill="#fffb17" stroke="none" /><path d="M 120.89721153311464 102.0752229133903 l 8.198450588463329 0.8141570701199423 a29.2387768379961,29.2387768379961 0 0,0 -0.05404676303692191,0.500405901865027 l -8.183221523925356 -0.9551592938697607" fill="#ff2b04" stroke="none" /><path d="M 120.8583938346157 102.4346265915055 l 10.897391183602087 1.2719617130637106 a31.971372804163956,31.971372804163956 0 0,0 -0.06850778683303539,0.5460744664720207 l -10.873881887522202 -1.4593539338231265" fill="#ff5407" stroke="none" /><path d="M 120.81339534386255 102.79330883721812 l 13.90719389599664 1.866446438401433 a35.03188028627196,35.03188028627196 0 0,0 -0.0853542571199962,0.596967475499174 l -13.873005587860042 -2.1055593858810164" fill="#ff810b" stroke="none" /><path d="M 120.49622156327973 104.57218783832717 l 13.80194490435558 3.078864289309446 a35.141184124918674,35.141184124918674 0 0,0 -0.13678192870957587,0.5892529689651861 l -13.746902409715451 -3.315985915623197" fill="#ff830c" stroke="none" /><path d="M 120.41448212921028 104.9243191809786 l 18.767510246307182 4.527041641329061 a40.30579050097593,40.30579050097593 0 0,0 -0.16849487497044274,0.673053268560626 l -18.68680405704168 -4.849422749287083" fill="#ffcb13" stroke="none" /><path d="M 120.23288151984713 105.62410040840565 l 13.256025823348118 3.6847554399899143 a34.758620689655174,34.758620689655174 0 0,0 -0.1651983941195596,0.5750772819234505 l -13.19063479234246 -3.912390197417947" fill="#ff7d0b" stroke="none" /><path d="M 120.02730092923936 106.31721596034902 l 13.121335091570616 4.138865629194186 a34.758620689655174,34.758620689655174 0 0,0 -0.1848955845248326,0.5690500965884768 l -13.048147256029536 -4.3641146257604575" fill="#ff7d0b" stroke="none" /><path d="M 119.79798401119884 107.00284435728193 l 59.393952033596506 21.00853307184577 a84.0,84.0 0 0,0 -0.49390295597909306,1.3590088119754755 l -59.02352481661219 -22.027789680827375" fill="#4dd2ff" stroke="none" /><line stroke="#e1ed5e" stroke-width="0.3" x1="174.80103733775053" x2="179.2010983576182" y1="140.37084112569926" y2="142.7455964860345" /><path d="M 175.68104954172406 140.8457921977663 a86.0,86.0 0 0,1 -30.038265399797805,32.042727171017184" fill="none" id="id65" stroke="none" /><text fill="#e1ed5e" style="font-size:6.75px; font-family:Arial;" text-anchor="middle"><textPath startOffset="22.206326154141568" xlink:href="#id65">May</textPath></text><line stroke="#e1ed5e" stroke-width="0.3" x1="143.8653032363475" x2="146.44561519142675" y1="172.8068346515853" y2="177.08958963109032" /><path d="M 144.38136562736335 173.6633856474863 a86.0,86.0 0 0,1 -40.68145358897372,12.25698825130547" fill="none" id="id66" stroke="none" /><text fill="#e1ed5e" style="font-size:6.75px; font-family:Arial;" text-anchor="middle"><textPath startOffset="21.466115282336833" xlink:href="#id66">June</textPath></text><line stroke="#e1ed5e" stroke-width="0.3" x1="102.19456741930631" x2="102.32365962044197" y1="184.97166512339345" y2="189.96999836594603" /><path d="M 102.22038585953345 185.97133177190398 a86.0,86.0 0 0,1 -42.740103519485714,-10.115201625700543" fill="none" id="id67" stroke="none" /><text fill="#e1ed5e" style="font-size:6.75px; font-family:Arial;" text-anchor="middle"><textPath startOffset="22.20632615414155" xlink:href="#id67">July</textPath></text><line stroke="#e1ed5e" stroke-width="0.3" x1="58.666819895761336" x2="56.23545636021788" y1="174.27360380694188" y2="178.64263932499728" /><path d="M 58.180547188652646 175.14741091055294 a86.0,86.0 0 0,1 -31.652253787137756,-30.449443065178592" fill="none" id="id68" stroke="none" /><text fill="#e1ed5e" style="font-size:6.75px; font-family:Arial;" text-anchor="middle"><textPath startOffset="22.20632615414155" xlink:href="#id68">August</textPath></text><line stroke="#e1ed5e" stroke-width="0.3" x1="26.63291911575756" x2="22.317208475507996" y1="142.92168965132927" y2="145.44649492493687" /><path d="M 25.769776987707644 143.4266507060508 a86.0,86.0 0 0,1 -11.730757126820373,-40.83630448921669" fill="none" id="id69" stroke="none" /><text fill="#e1ed5e" style="font-size:6.75px; font-family:Arial;" text-anchor="middle"><textPath startOffset="21.46611528233685" xlink:href="#id69">September</textPath></text><line stroke="#e1ed5e" stroke-width="0.3" x1="15.007084014347285" x2="10.007500721073583" y1="101.09737516637583" y2="101.16192664675087" /><path d="M 14.007167355692545 101.11028546245083 a86.0,86.0 0 0,1 10.666146001902534,-42.60595125391555" fill="none" id="id70" stroke="none" /><text fill="#e1ed5e" style="font-size:6.75px; font-family:Arial;" text-anchor="middle"><textPath startOffset="22.20632615414155" xlink:href="#id70">October</textPath></text><line stroke="#e1ed5e" stroke-width="0.3" x1="26.266209847984243" x2="21.928928074336255" y1="57.711370442889674" y2="55.22380399835377" /><path d="M 25.398753493254645 57.213857153982495 a86.0,86.0 0 0,1 29.58750427330803,-30.492523968695096" fill="none" id="id71" stroke="none" /><text fill="#e1ed5e" style="font-size:6.75px; font-family:Arial;" text-anchor="middle"><textPath startOffset="21.46611528233685" xlink:href="#id71">November</textPath></text><line stroke="#e1ed5e" stroke-width="0.3" x1="56.762969772571076" x2="54.21961505331055" y1="26.818313649435495" y2="22.513508569990535" /><path d="M 56.25429882871897 25.957352633546506 a86.0,86.0 0 0,1 42.265352541879196,-11.944610805530505" fill="none" id="id72" stroke="none" /><text fill="#e1ed5e" style="font-size:6.75px; font-family:Arial;" text-anchor="middle"><textPath startOffset="22.20632615414155" xlink:href="#id72">December</textPath></text></svg>