<?xml version="1.0" encoding="utf-8" ?>
<svg baseProfile="full" height="200mm" version="1.1" viewBox="0,0,200,200" width="200mm" xmlns="http://www.w3.org/2000/svg" xmlns:ev="http://www.w3.org/2001/xml-events" xmlns:xlink="http://www.w3.org/1999/xlink"><defs /><rect fill="#1a1a1a" height="200" width="200" x="0" y="0" /><text alignment-baseline="middle" fill="#e1ed5e" style="dominant-baseline: central; font-size:9.0px; font-family: system-ui, -apple-system, BlinkMacSystemFont, &quot;Helvetica Neue&quot;, Helvetica, &quot;Segoe UI&quot;, Arial, &quot;PingFang SC&quot;, &quot;Hiragino Sans GB&quot;, &quot;Heiti SC&quot;, &quot;Microsoft YaHei&quot;, &quot;WenQuanYi Micro Hei&quot;, sans-serif;" text-anchor="middle" x="100.0" y="100.0">2024</text><line stroke="#e1ed5e" stroke-width="0.3" x1="100.0" x2="100.0" y1="15.0" y2="10.0" /><path d="M 100.0 14.0 a86.0,86.0 0 0,1 42.35913384403234,11.155469271406648" fill="none" id="id37" stroke="none" /><text fill="#e1ed5e" style="font-size:6.75px; font-family: system-ui, -apple-system, BlinkMacSystemFont, &quot;Helvetica Neue&quot;, Helvetica, &quot;Segoe UI&quot;, Arial, &quot;PingFang SC&quot;, &quot;Hiragino Sans GB&quot;, &quot;Heiti SC&quot;, &quot;Microsoft YaHei&quot;, &quot;WenQuanYi Micro Hei&quot;, sans-serif;" text-anchor="middle"><textPath startOffset="22.145653131862478" xlink:href="#id37">January</textPath></text><path d="M 100.0 79.0 l 0.0 -17.68871550017468 a38.68871550017468,38.68871550017468 0 0,0 0.6641432480620568,0.005700871018511737 l -0.30365032321320207 17.686109027350604" fill="#ffb710" stroke="none" /><path d="M 100.36049292484886 79.00309439819443 l 0.13614516772852406 -7.929773479289094 a28.93094212181204,28.93094212181204 0 0,0 0.4964917310519541,0.012787865814483108 l -0.2722502128512195 7.926267896124565" fill="#ff2803" stroke="none" /><path d="M 100.72087961077811 79.0123766808444 l 0.32262027998373 -9.392737442123558 a30.398276464422963,30.398276464422963 0 0,0 0.5213655287913829,0.022389679104101737 l -0.48381156937594916 9.385815194593626" fill="#ff3e05" stroke="none" /><path d="M 101.08105385017728 79.02784411241856 l 0.5442408052074496 -10.558126225924605 a31.572143938511704,31.572143938511704 0 0,0 0.5410197291219181,0.03254640343347265 l -0.7254048864618301 10.54722784466644" fill="#ff5007" stroke="none" /><path d="M 101.44090949804482 79.04949213459386 l 0.7556091149057648 -10.986390697324309 a32.01234424129498,32.01234424129498 0 0,0 0.547915670011901,0.042412138119802927 l -0.9440937796928993 10.971800792209452" fill="#ff5708" stroke="none" /><path d="M 101.80034050326958 79.07731436759882 l 0.830878003314004 -9.656061856434834 a30.69174333294515,30.69174333294515 0 0,0 0.5245371467937683,0.04967421316058514 l -0.9965147134927851 9.640375887769064" fill="#ff4306" stroke="none" /><path d="M 102.15924093988457 79.11130261209362 l 2.0843074590314647 -20.163783934826586 a41.27122394316991,41.27122394316991 0 0,0 0.7040951350395895,0.07889532848309769 l -2.430138495671851 20.125032845836518" fill="#ffda14" stroke="none" /><path d="M 102.51750503828377 79.15144685158666 l 1.1618577462115511 -9.621848856080364 a30.69174333294515,30.69174333294515 0 0,0 0.5225228060173011,0.06765103850995893 l -1.3268583741196438 9.600486221370009" fill="#ff4306" stroke="none" /><path d="M 102.87502721639298 79.19773525538626 l 1.236459241893476 -8.946403132858803 a30.031442878770235,30.031442878770235 0 0,0 0.510069605582586,0.07496266680909794 l -1.3898539530837437 8.923859392750824" fill="#ff3905" stroke="none" /><path d="M 103.23170211078529 79.25015418208739 l 1.8064714256165637 -11.598842427620891 a32.73867474088739,32.73867474088739 0 0,0 0.554565863121992,0.09125360173966317 l -2.0053147917916263 11.566122827385561" fill="#ff6109" stroke="none" /><path d="M 103.58742460773223 79.30868818359171 l 2.1444335054721697 -12.36852259853543 a33.55304530103645,33.55304530103645 0 0,0 0.5666714167555076,0.1032664089509327 l -2.356439655778731 12.32988801565313" fill="#ff6d0a" stroke="none" /><path d="M 104.29559338865022 79.4440306129975 l 1.9524514959708625 -9.343187203618355 a30.545009898684057,30.545009898684057 0 0,0 0.5123381176693856,0.11166170815300484 l -2.1125520302593825 9.308294037331631" fill="#ff4106" stroke="none" /><path d="M 104.64783097203109 79.52079915486377 l 2.4697860399881026 -10.882332998294709 a32.15907767555608,32.15907767555608 0 0,0 0.5373136343682908,0.12680455468174087 l -2.6562318280962782 10.83833229996674" fill="#ff5908" stroke="none" /><path d="M 104.9986988182912 79.60360301121754 l 4.456741371007036 -18.185025660430714 a39.72318621171539,39.72318621171539 0 0,0 0.6609081427902549,0.16800026543609495 l -4.768254807022685 18.10584016315935" fill="#ffc512" stroke="none" /><path d="M 105.3480935250658 79.69241777938227 l 2.916632348652982 -11.074928093531247 a32.45254454407826,32.45254454407826 0 0,0 0.5375046942583704,0.1464992945973256 l -3.106318443846045 11.023228304789779" fill="#ff5d08" stroke="none" /><path d="M 105.69591212413111 79.78721728523813 l 2.7859358240771708 -9.886303412367516 a31.271340398276465,31.271340398276465 0 0,0 0.5154410180128595,0.1500373682256584 l -2.9552368544716345 9.83702234983934" fill="#ff4c07" stroke="none" /><path d="M 106.04205211174951 79.88797359093562 l 4.118333645052972 -13.708593288954685 a35.31384651216956,35.31384651216956 0 0,0 0.5790787540856714,0.17940007826621893 l -4.353053032010274 13.635876622881819" fill="#ff870c" stroke="none" /><path d="M 106.38641147887787 79.99465700312896 l 3.1705219674457195 -9.931614905748368 a31.425410504250614,31.425410504250614 0 0,0 0.5124994551329347,0.16846875043484605 l -3.3405441602263966 9.875725233911501" fill="#ff4e07" stroke="none" /><path d="M 106.72888874123014 80.10723608172694 l 3.382859286816175 -10.00082238676893 a31.557470595085597,31.557470595085597 0 0,0 0.5116731707850337,0.1779864895929788 l -3.5540382296462267 9.94127746460736" fill="#ff5007" stroke="none" /><path d="M 107.06938296918511 80.22567764915836 l 3.213206210402877 -8.987909646597757 a30.545009898684057,30.545009898684057 0 0,0 0.4922267958355634,0.18075249748236447 l -3.367022157892565 8.93142630010667" fill="#ff4106" stroke="none" /><path d="M 107.40779381753099 80.34994680014964 l 3.247972950157701 -8.615634132693213 a30.207522999883544,30.207522999883544 0 0,0 0.4836479578059821,0.18708542002083983 l -3.3953931704572087 8.558608824534335" fill="#ff3c05" stroke="none" /><path d="M 107.74402155503746 80.48000691201159 l 4.385603449650307 -11.054585581330802 a32.89274484686153,32.89274484686153 0 0,0 0.5230659714671696,0.21272637696616986 l -4.574723882307916 10.977671947785337" fill="#ff6409" stroke="none" /><path d="M 108.07796709384702 80.6158196554323 l 3.9877142786558215 -9.569062592363162 a31.366717130546174,31.366717130546174 0 0,0 0.49524300988285375,0.21138979194928562 l -4.151392363709105 9.499198150754475" fill="#ff4d07" stroke="none" /><path d="M 108.4095320186766 80.7573450057729 l 3.939856447086985 -9.015162576193736 a30.83847676720624,30.83847676720624 0 0,0 0.48326330383026495,0.21615752894221016 l -4.094033153772882 8.946201296341675" fill="#ff4506" stroke="none" /><path d="M 109.3889696526874 81.21577127319529 l 4.313437205060179 -8.629763867153205 a30.647723302666822,30.647723302666822 0 0,0 0.4685785556638442,0.23925954927635323 l -4.460942982437603 8.554446366204019" fill="#ff4206" stroke="none" /><path d="M 110.02825361518725 81.54914285379988 l 5.686219500680882 -10.462003429002952 a32.90741819028764,32.90741819028764 0 0,0 0.4940121351078974,0.2740202037884694 l -5.86497582394488 10.362850309781336" fill="#ff6409" stroke="none" /><path d="M 110.34350942703115 81.72400993836675 l 4.55682964509827 -8.051481355905278 a30.251543030161873,30.251543030161873 0 0,0 0.4497504568029445,0.2596635473033372 l -4.6943725697616125 7.97207091132577" fill="#ff3c05" stroke="none" /><line stroke="#e1ed5e" stroke-width="0.3" x1="143.13028292997686" x2="145.6673583964461" y1="26.7553504044142" y2="22.446841604673864" /><path d="M 143.63769802327073 25.89364864446614 a86.0,86.0 0 0,1 29.32050498858742,28.57503671076993" fill="none" id="id38" stroke="none" /><text fill="#e1ed5e" style="font-size:6.75px; font-family: system-ui, -apple-system, BlinkMacSystemFont, &quot;Helvetica Neue&quot;, Helvetica, &quot;Segoe UI&quot;, Arial, &quot;PingFang SC&quot;, &quot;Hiragino Sans GB&quot;, &quot;Heiti SC&quot;, &quot;Microsoft YaHei&quot;, &quot;WenQuanYi Micro Hei&quot;, sans-serif;" text-anchor="middle"><textPath startOffset="20.669276256404974" xlink:href="#id38">February</textPath></text><path d="M 110.65571695917076 81.90426304109057 l 4.6943725697616125 -7.97207091132577 a30.251543030161873,30.251543030161873 0 0,0 0.4452267149626806,0.2673458499325325 l -4.830532041281727 7.890311060857316" fill="#ff3c05" stroke="none" /><path d="M 110.96478420261332 82.08984904055464 l 3.145017292539491 -5.137149390137871 a27.02340747641784,27.02340747641784 0 0,0 0.3935584461248022,0.2456095778387008 l -3.2327398674540055 5.082404015457626" fill="#ff0b01" stroke="none" /><path d="M 111.27062007382361 82.28071324371311 l 4.768389743589283 -7.4967006854070455 a29.88470944450914,29.88470944450914 0 0,0 0.4305025706089869,0.2790465650842444 l -4.896377946455277 7.413740278618906" fill="#ff3705" stroke="none" /><path d="M 111.5731344415666 82.4767994020092 l 4.4920527650799436 -6.80154042076433 a29.15104227320368,29.15104227320368 0 0,0 0.4151992833217361,0.2793646075741404 l -4.60814833649868 6.723426139133071" fill="#ff2b04" stroke="none" /><path d="M 112.16784306229584 82.88440491214696 l 5.292522864524858 -7.444596209750912 a30.134156282752997,30.134156282752997 0 0,0 0.41903551766297514,0.30334939969034275 l -5.4195393925618 7.352646038687495" fill="#ff3a05" stroke="none" /><path d="M 112.45986205192187 83.09580414077388 l 5.384715043051363 -7.305400120366612 a30.07546290904856,30.07546290904856 0 0,0 0.4129604684261553,0.3098932342735699 l -5.5093285003882855 7.211887858829027" fill="#ff3a05" stroke="none" /><path d="M 112.7482090630111 83.31218511350987 l 7.540253153724629 -9.87043342360351 a33.420985210201465,33.420985210201465 0 0,0 0.45291809672935845,0.35219185146736603 l -7.708581195089214 9.739540520515353" fill="#ff6b09" stroke="none" /><path d="M 113.03279911837588 83.53348406188908 l 4.676144646991508 -5.908156003880253 a28.534761849307092,28.534761849307092 0 0,0 0.38148154320424266,0.30729452754378855 l -4.776876960551011 5.827013182543057" fill="#ff2203" stroke="none" /><path d="M 113.59037401385872 83.9905735841838 l 9.70967096483327 -11.437967981953229 a36.00349365319669,36.00349365319669 0 0,0 0.4677377080390324,0.40402069195928636 l -9.904588152635162 11.269603157529222" fill="#ff910d" stroke="none" /><path d="M 114.13192950727249 84.46653392183569 l 11.893729422273003 -13.073292109804752 a38.67404215674857,38.67404215674857 0 0,0 0.4872381036963967,0.4509803147388637 l -12.116397297283363 12.867194048933513" fill="#ffb610" stroke="none" /><path d="M 114.39649973595853 84.71141617570332 l 6.080832018437355 -6.457632878854553 a29.87003610108303,29.87003610108303 0 0,0 0.3702853450146824,0.354724984330691 l -6.190789849317349 6.352295764218281" fill="#ff3605" stroke="none" /><path d="M 114.65682725009322 84.96080404539774 l 6.835983828650671 -7.014321625501577 a30.794456736927913,30.794456736927913 0 0,0 0.3754109399934217,0.37220231876100157 l -6.955386688774055 6.895939296511916" fill="#ff4406" stroke="none" /><path d="M 114.91283532996326 85.21462403516908 l 7.049167183454155 -6.988918253318818 a30.926516827762896,30.926516827762896 0 0,0 0.3705485632522224,0.38021546944350004 l -7.168102547857189 6.866880091807576" fill="#ff4606" stroke="none" /><path d="M 115.16444852881244 85.47280134310134 l 13.048807520600338 -12.500462428767229 a39.07022242925352,39.07022242925352 0 0,0 0.4598084546674637,0.48830064468693957 l -13.26147180900406 12.274620324135793" fill="#ffbc11" stroke="none" /><path d="M 115.41159269507618 85.73525988315684 l 8.792522721925959 -8.138227766672252 a32.98078490741819,32.98078490741819 0 0,0 0.38101020221805515,0.4187969554010992 l -8.93093062498589 7.98609323571348" fill="#ff6509" stroke="none" /><path d="M 115.6541949942343 86.00192230759917 l 8.318398947093414 -7.438363632284267 a32.15907767555608,32.15907767555608 0 0,0 0.3644526038132688,0.41468016149777964 l -8.444862614865272 7.294471192975189" fill="#ff5908" stroke="none" /><path d="M 115.8921839302757 86.27271002978787 l 6.801417950828373 -5.874902834578964 a29.987422848491907,29.987422848491907 0 0,0 0.3331537512840096,0.3924542813093738 l -6.901266265619495 5.757281770820038" fill="#ff3805" stroke="none" /><path d="M 116.35404254752997 86.82634096563983 l 9.204505372331708 -7.4144979752023685 a32.81937812973099,32.81937812973099 0 0,0 0.34965698157566955,0.4417801738284638 l -9.330428784548937 7.255397857459226" fill="#ff6309" stroke="none" /><path d="M 116.57777611688842 87.10902102172516 l 6.156577155788651 -4.787391634065273 a28.798882030977058,28.798882030977058 0 0,0 0.30012278032790074,0.39287035351989913 l -6.237851913470859 4.681000367304492" fill="#ff2603" stroke="none" /><path d="M 116.7966241395341 87.39550010848427 l 6.554732443411994 -4.918793424533506 a29.195062303482008,29.195062303482008 0 0,0 0.29736975546853245,0.4034391848082183 l -6.6382042184643515 4.805547930456413" fill="#ff2c04" stroke="none" /><path d="M 117.21940702142032 87.97951657250589 l 7.6461626846018005 -5.337615384771752 a30.324909747292416,30.324909747292416 0 0,0 0.2943108493641516,0.4294083248085939 l -7.7366632707812775 5.20557232489311" fill="#ff3d05" stroke="none" /><path d="M 117.42321728460499 88.27688183743584 l 9.258430239857065 -6.229485055989319 a32.15907767555608,32.15907767555608 0 0,0 0.30424870480871957,0.4606713170887829 l -9.364003383586509 6.069633860561478" fill="#ff5908" stroke="none" /><path d="M 117.62189284568427 88.57770195909679 l 7.517059915423488 -4.872467418636135 a29.95807616163969,29.95807616163969 0 0,0 0.2760170347714974,0.43394462387169774 l -7.599594641820874 4.742709120085766" fill="#ff3805" stroke="none" /><path d="M 117.81537515405839 88.88188828441811 l 6.852705733533809 -4.276595201649817 a29.07767555607313,29.07767555607313 0 0,0 0.26063571708690647,0.4257288563268946 l -6.925109415076117 4.158329229198367" fill="#ff2a04" stroke="none" /><line stroke="#e1ed5e" stroke-width="0.3" x1="172.87174338648825" x2="177.1583165268699" y1="56.24261187166439" y2="53.66864786411523" /><path d="M 173.72905801456457 55.72781907015455 a86.0,86.0 0 0,1 12.242430191666344,42.057860355516425" fill="none" id="id39" stroke="none" /><text fill="#e1ed5e" style="font-size:6.75px; font-family: system-ui, -apple-system, BlinkMacSystemFont, &quot;Helvetica Neue&quot;, Helvetica, &quot;Segoe UI&quot;, Arial, &quot;PingFang SC&quot;, &quot;Hiragino Sans GB&quot;, &quot;Heiti SC&quot;, &quot;Microsoft YaHei&quot;, &quot;WenQuanYi Micro Hei&quot;, sans-serif;" text-anchor="middle"><textPath startOffset="22.145653131862474" xlink:href="#id39">March</textPath></text><path d="M 118.00360718960297 89.18935116829356 l 8.963016272918683 -5.382033743512874 a31.45475719110283,31.45475719110283 0 0,0 0.27399533484464045,0.4653039796679022 l -9.05408531789309 5.227378595551415" fill="#ff4e07" stroke="none" /><path d="M 118.36410011445183 89.81374322990088 l 27.093837702339616 -15.028495053031996 a51.98276464422965,51.98276464422965 0 0,0 0.4261464130169216,0.7840614020803345 l -27.347829464971877 14.561178817477058" fill="#9cff22" stroke="none" /><path d="M 118.53625476483649 90.13048839642627 l 5.251974827395736 -2.7963807769296456 a26.950040759287294,26.950040759287294 0 0,0 0.21392163501759762,0.4102229417710993 l -5.299204531388278 2.705811592054048" fill="#ff0901" stroke="none" /><path d="M 118.70294669586156 90.45014215332178 l 11.637340654010508 -5.942109057272822 a34.06661232095027,34.06661232095027 0 0,0 0.26146950145108927,0.5231141543774258 l -11.737630068673333 5.741463046731646" fill="#ff750a" stroke="none" /><path d="M 118.8641267826498 90.77261029715802 l 8.178775359474237 -4.00064887197865 a30.104809595900782,30.104809595900782 0 0,0 0.22309203848998296,0.4661765575379732 l -8.24624665592413 3.8596598123755737" fill="#ff3a05" stroke="none" /><path d="M 119.71291397450082 92.76114493625339 l 6.887008492314252 -2.52900491338533 a28.336671713054617,28.336671713054617 0 0,0 0.16375874574366248,0.458062357099606 l -6.929407408101858 2.4104075999048074" fill="#ff1f03" stroke="none" /><path d="M 120.05942366710727 93.78553927170692 l 11.275979741600883 -3.4933273477897617 a32.80470478630488,32.80470478630488 0 0,0 0.1620297476966744,0.5393443327627852 l -11.334285809301186 3.299245411436253" fill="#ff6209" stroke="none" /><path d="M 120.16314734710363 94.1308016681162 l 9.178728657252606 -2.671794139901453 a30.559683242110168,30.559683242110168 0 0,0 0.14229390043507895,0.5049508539545764 l -9.223241049762267 2.513835362043863" fill="#ff4106" stroke="none" /><path d="M 120.26092885502905 94.47779374421319 l 11.67239024639906 -3.181361866469938 a33.09817165482706,33.09817165482706 0 0,0 0.14470287257351583,0.5494603765946832 l -11.725282599777305 2.9805209855024564" fill="#ff6709" stroke="none" /><path d="M 120.35273937422433 94.82641323984039 l 8.184233033561966 -2.080400032937131 a29.444509141725867,29.444509141725867 0 0,0 0.12031934095072248,0.49094397015471497 l -8.21873990102898 1.9396002381743207" fill="#ff3004" stroke="none" /><path d="M 120.43855184770803 95.1765574152323 l 7.261910060248888 -1.7137910010628006 a28.461395132176545,28.461395132176545 0 0,0 0.10813858078396162,0.476478539841343 l -7.290259502590516 1.5888781272824313" fill="#ff2103" stroke="none" /><path d="M 120.51834098615036 95.52812308129327 l 7.93541521078437 -1.7294868111127357 a29.121695586351464,29.121695586351464 0 0,0 0.10226192843873765,0.4893603468141847 l -7.963934850047475 1.5930100130131466" fill="#ff2b04" stroke="none" /><path d="M 120.65975698304385 96.23510406497455 l 8.091156717593623 -1.4744782845569573 a29.224408990334226,29.224408990334226 0 0,0 0.08570431244530102,0.49431969914975166 l -8.115275847531159 1.3353655524866128" fill="#ff2d04" stroke="none" /><path d="M 120.7213421655516 96.59031103205396 l 9.114301777022062 -1.4997548890103891 a30.236869686735766,30.236869686735766 0 0,0 0.079880781553801,0.5128919201816304 l -9.138704050714129 1.3430747868973174" fill="#ff3c05" stroke="none" /><path d="M 120.77682067341334 96.94652285012252 l 6.757850255134908 -0.9931712681504383 a27.830441364853847,27.830441364853847 0 0,0 0.06540880419257963,0.47326552377815595 l -6.7739035758827 0.8770174361721967" fill="#ff1702" stroke="none" /><path d="M 120.82617615685814 97.30363454192243 l 8.825719696611943 -1.1426661117904136 a29.899382787935252,29.899382787935252 0 0,0 0.061532806962775376,0.5095799121852048 l -8.844034589834381 0.9909925226817958" fill="#ff3705" stroke="none" /><path d="M 120.86939407059847 97.66154086499901 l 10.798033988083032 -1.2099422309082766 a31.86561080703389,31.86561080703389 0 0,0 0.056246759748910115,0.5441363776235477 l -10.817213140313608 1.0244013310017974" fill="#ff5407" stroke="none" /><path d="M 120.9064616781168 98.02013634271609 l 7.603456366689039 -0.720055223209231 a28.637475253289857,28.637475253289857 0 0,0 0.042146695960108914,0.4898084936800976 l -7.614696685346888 0.5894256821534715" fill="#ff2403" stroke="none" /><path d="M 120.93736805541906 98.37931529534042 l 7.380623396268021 -0.5713069291958238 a28.40270175847211,28.40270175847211 0 0,0 0.03345573017688628,0.48643897424846433 l -7.389343087609973 0.4445245307930254" fill="#ff2003" stroke="none" /><path d="M 120.96210409425399 98.7389718711861 l 12.164220880594813 -0.7317693217514522 a33.18621171538372,33.18621171538372 0 0,0 0.029327778161675654,0.5689510613576063 l -12.174990248213062 0.5228464670171152" fill="#ff6809" stroke="none" /><path d="M 120.98066250479742 99.09900007780936 l 11.793834623344262 -0.5064780044735332 a32.80470478630488,32.80470478630488 0 0,0 0.01933183284316748,0.5628252203490037 l -11.800791143184277 0.3039465195604094" fill="#ff6209" stroke="none" /><line stroke="#e1ed5e" stroke-width="0.3" x1="184.99686870605535" x2="189.99668451229388" y1="99.2704041080226" y2="99.22748670261217" /><path d="M 185.99683186730306 99.26182062694052 a86.0,86.0 0 0,1 -10.086455211305974,41.156179273409016" fill="none" id="id40" stroke="none" /><text fill="#e1ed5e" style="font-size:6.75px; font-family: system-ui, -apple-system, BlinkMacSystemFont, &quot;Helvetica Neue&quot;, Helvetica, &quot;Segoe UI&quot;, Arial, &quot;PingFang SC&quot;, &quot;Hiragino Sans GB&quot;, &quot;Heiti SC&quot;, &quot;Microsoft YaHei&quot;, &quot;WenQuanYi Micro Hei&quot;, sans-serif;" text-anchor="middle"><textPath startOffset="21.40746469413373" xlink:href="#id40">April</textPath></text><path d="M 120.99922638620191 99.81974689727618 l 10.938574545881115 -0.09389450663604092 a31.938977524164436,31.938977524164436 0 0,0 0.0,0.5482952187197343 l -10.938574545881115 -0.0938945066360396" fill="#ff5607" stroke="none" /><path d="M 120.99303781780057 100.54070618675476 l 6.76950293670546 0.1743583825694556 a27.77174799114941,27.77174799114941 0 0,0 -0.01636590828739013,0.4764755630150179 l -6.765512341421224 -0.2905402101485842" fill="#ff1602" stroke="none" /><path d="M 120.98066250479742 100.90099992219065 l 9.477581210680006 0.40700811670868847 a30.48631652497962,30.48631652497962 0 0,0 -0.026941789429878314,0.5226635173827502 l -9.469197831793554 -0.5696434274681693" fill="#ff4006" stroke="none" /><path d="M 120.93736805541906 101.62068470465957 l 31.139062237773004 2.4103603543970378 a52.2322114824735,52.2322114824735 0 0,0 -0.07687183025755817,0.8933671911203808 l -31.093096784817707 -2.9445485928930757" fill="#9aff23" stroke="none" /><path d="M 120.9064616781168 101.97986365728391 l 10.671133286967034 1.0105674170112249 a31.718877372772795,31.718877372772795 0 0,0 -0.055987757017909756,0.5416307611494561 l -10.65221313746746 -1.1936027004436123" fill="#ff5207" stroke="none" /><path d="M 120.86939407059847 102.33845913500097 l 8.173258677002753 0.915830682544346 a29.224408990334226,29.224408990334226 0 0,0 -0.06014371365983688,0.4980762269436669 l -8.156332877083253 -1.0560005864114215" fill="#ff2d04" stroke="none" /><path d="M 120.82617615685814 102.69636545807757 l 9.84435181328603 1.2745484330193158 a30.926516827762896,30.926516827762896 0 0,0 -0.07268538996655545,0.5259152736114736 l -9.821021906764265 -1.4433520148308745" fill="#ff4606" stroke="none" /><path d="M 120.51834098615036 104.47187691870673 l 61.555022958451104 13.415630756120176 a84.0,84.0 0 0,0 -0.3191565537693437,1.4062626642439322 l -61.315655543124095 -14.470327754303124" fill="#4dd2ff" stroke="none" /><path d="M 120.43855184770803 104.8234425847677 l 5.790962693079496 1.3666514275928534 a26.950040759287294,26.950040759287294 0 0,0 -0.11012617419243269,0.4493523713542264 l -5.766648992370768 -1.4658596235551795" fill="#ff0901" stroke="none" /><path d="M 120.35273937422433 105.17358676015961 l 7.5442843167760625 1.917727571630143 a28.78420868755095,28.78420868755095 0 0,0 -0.12584253067757362,0.477844586413428 l -7.510252305293759 -2.0469526624163743" fill="#ff2603" stroke="none" /><path d="M 120.16314734710363 105.8691983318838 l 11.545614941854963 3.360760241978878 a33.024804937696516,33.024804937696516 0 0,0 -0.16311687139524686,0.5429630139875241 l -11.486221750456085 -3.558460859557125" fill="#ff6609" stroke="none" /><path d="M 120.05942366710727 106.21446072829308 l 5.655510038205041 1.7520914665421603 a26.920694072435076,26.920694072435076 0 0,0 -0.14054561648119002,0.4402571418569058 l -5.624599705946596 -1.8489176420904496" fill="#ff0901" stroke="none" /><path d="M 119.94978838288452 106.5578916946017 l 10.40585794421099 3.420612192863744 a31.953650867590543,31.953650867590543 0 0,0 -0.17576726234255027,0.5196246793199742 l -10.345605260296074 -3.5987385466578785" fill="#ff5607" stroke="none" /><path d="M 119.83427380445688 106.89939002012753 l 20.102210890903493 6.992592447323849 a42.28368463957145,42.28368463957145 0 0,0 -0.24435908465590095,0.6835158500260706 l -19.97921163620365 -7.336643253730841" fill="#ffe715" stroke="none" /><path d="M 119.71291397450082 107.23885506374661 l 9.73134299964004 3.5734839426134704 a31.366717130546174,31.366717130546174 0 0,0 -0.1899468556417823,0.5038566016338323 l -9.668565460183816 -3.7400088244414618" fill="#ff4d07" stroke="none" /><path d="M 119.58574465831526 107.57618678355244 l 6.945218642665658 2.6865597712725293 a28.446721788750438,28.446721788750438 0 0,0 -0.18008308987935726,0.45392702547709585 l -6.898076877820176 -2.8053878139631894" fill="#ff2103" stroke="none" /><path d="M 119.4528033332814 107.91128576633889 l 8.270896118529214 3.363701447875074 a29.928729474787467,29.928729474787467 0 0,0 -0.19763529923867357,0.47425277156837564 l -8.211934974754055 -3.5051867288847274" fill="#ff3705" stroke="none" /><path d="M 119.31412917781788 108.2440532568976 l 4.919063760555225 2.099655813769078 a26.348433678816818,26.348433678816818 0 0,0 -0.1811343373878202,0.4144708117194654 l -4.882295541150439 -2.183788695264388" fill="#ff0000" stroke="none" /><path d="M 119.16976305983485 108.57439118712176 l 10.990187905388021 4.915771260533415 a33.039478281122626,33.039478281122626 0 0,0 -0.23602071501201727,0.5157478572585947 l -10.904182725520949 -5.103708100006698" fill="#ff6609" stroke="none" /><path d="M 119.0197475246899 108.90220220490707 l 7.183072228085402 3.362040497323121 a28.93094212181204,28.93094212181204 0 0,0 -0.21439308004358232,0.4479990800710173 l -7.124299890081908 -3.4848520794592415" fill="#ff2803" stroke="none" /><path d="M 118.8641267826498 109.22738970284198 l 15.29648477787244 7.482277221484643 a38.028415045999765,38.028415045999765 0 0,0 -0.2918772970254527,0.5839501149008679 l -15.165787567635254 -7.743759192549256" fill="#ffad10" stroke="none" /><path d="M 118.70294669586154 109.54985784667822 l 10.487328326606887 5.354904568738284 a32.77535809945266,32.77535809945266 0 0,0 -0.260161320554062,0.49889363571834777 l -10.393858937077876 -5.534144447561135" fill="#ff6209" stroke="none" /><line stroke="#e1ed5e" stroke-width="0.3" x1="174.33088141563837" x2="178.70328620479359" y1="141.23008692659167" y2="143.65538615756765" /><path d="M 175.20536237346943 141.71514677278685 a86.0,86.0 0 0,1 -30.301960400862466,31.631185727798858" fill="none" id="id41" stroke="none" /><text fill="#e1ed5e" style="font-size:6.75px; font-family: system-ui, -apple-system, BlinkMacSystemFont, &quot;Helvetica Neue&quot;, Helvetica, &quot;Segoe UI&quot;, Arial, &quot;PingFang SC&quot;, &quot;Hiragino Sans GB&quot;, &quot;Heiti SC&quot;, &quot;Microsoft YaHei&quot;, &quot;WenQuanYi Micro Hei&quot;, sans-serif;" text-anchor="middle"><textPath startOffset="22.145653131862474" xlink:href="#id41">May</textPath></text><path d="M 118.36410011445183 110.18625677009912 l 8.090298210431035 4.487552039278556 a30.251543030161873,30.251543030161873 0 0,0 -0.2557935570846105,0.45196270570325514 l -8.012071288325046 -4.625771515080935" fill="#ff3c05" stroke="none" /><path d="M 118.00360718960297 110.81064883170644 l 15.16479455018031 9.10602340744529 a38.68871550017468,38.68871550017468 0 0,0 -0.3467836033906484,0.56644495433906 l -15.006242982334257 -9.365005477908907" fill="#ffb710" stroke="none" /><path d="M 117.81537515405839 111.11811171558189 l 7.5373538994636196 4.703866293549435 a29.88470944450914,29.88470944450914 0 0,0 -0.2753410746863427,0.4328819023438487 l -7.455495133151387 -4.832561870571956" fill="#ff3705" stroke="none" /><path d="M 117.62189284568427 111.42229804090321 l 16.38238856260598 10.618866339877764 a40.522883428438334,40.522883428438334 0 0,0 -0.38337650484261776,0.5804808915711841 l -16.197687618842632 -10.89852710978801" fill="#ffd013" stroke="none" /><path d="M 117.423217284605 111.72311816256416 l 7.5540512344921895 5.0827027971615655 a30.104809595900782,30.104809595900782 0 0,0 -0.29217472223167656,0.426291651483377 l -7.465686775445192 -5.211629183714987" fill="#ff3a05" stroke="none" /><path d="M 117.21940702142032 112.02048342749411 l 6.094069865854937 4.254134055683545 a28.432048445324327,28.432048445324327 0 0,0 -0.28281074467109324,0.3978087297397585 l -6.020144022653883 -4.358120012132808" fill="#ff2003" stroke="none" /><path d="M 116.79662413953412 112.60449989151573 l 9.477075108424684 7.111773841201084 a32.84872481658321,32.84872481658321 0 0,0 -0.34232754631151546,0.44811774698364226 l -9.353595584758864 -7.273412501425605" fill="#ff6309" stroke="none" /><path d="M 116.57777611688842 112.89097897827486 l 6.550412759357446 5.0936405814937205 a29.297775707464773,29.297775707464773 0 0,0 -0.3121379015854305,0.3943760419124373 l -6.462008427130454 -5.205336567320841" fill="#ff2e04" stroke="none" /><path d="M 116.35404254752997 113.17365903436017 l 11.46706535212274 9.23705613670462 a35.724700128100615,35.724700128100615 0 0,0 -0.3888092307630288,0.4742840420342862 l -11.306809302121083 -9.4325424604374" fill="#ff8d0d" stroke="none" /><path d="M 116.1254893667686 113.45245675266167 l 5.075951759447482 4.234539490211309 a27.61034121346221,27.61034121346221 0 0,0 -0.3067448908821098,0.36134471016006814 l -5.002512305058258 -4.321050982820934" fill="#ff1402" stroke="none" /><path d="M 115.89218393027572 113.72728997021213 l 9.744072247921471 8.416697530355984 a33.87585885641086,33.87585885641086 0 0,0 -0.3839085527012546,0.4368174598530299 l -9.598152631261632 -8.582727268020308" fill="#ff720a" stroke="none" /><path d="M 115.41159269507618 114.26474011684316 l 7.575676343998667 7.011932925724345 a31.322697100267845,31.322697100267845 0 0,0 -0.36862961237987446,0.39147187388271576 l -7.454190897882532 -7.1409462595515585" fill="#ff4c07" stroke="none" /><path d="M 115.16444852881244 114.52719865689866 l 5.472764177336644 5.242784282954344 a28.57878187958542,28.57878187958542 0 0,0 -0.34241898704456364,0.35135204617403304 l -5.381958389141273 -5.335959021196114" fill="#ff2303" stroke="none" /><path d="M 114.91283532996324 114.78537596483092 l 12.87397790858479 12.76394457054753 a39.12891580295796,39.12891580295796 0 0,0 -0.4770151715291211,0.47293814327954026 l -12.652970816925704 -12.983062724055731" fill="#ffbd11" stroke="none" /><path d="M 114.65682725009322 115.03919595460226 l 5.801625226862332 5.952978578047408 a29.312449050890883,29.312449050890883 0 0,0 -0.36337319021991027,0.3481032963965665 l -5.69857955077711 -6.051694004749555" fill="#ff2e04" stroke="none" /><path d="M 114.39649973595853 115.28858382429668 l 15.204594864959574 16.14675284762392 a43.17875858856411,43.17875858856411 0 0,0 -0.5439911444835908,0.5035100820177834 l -14.925173949162017 -16.40538067577408" fill="#fff316" stroke="none" /><path d="M 114.13192950727249 115.5334660781643 l 8.941280192501624 9.828033213306933 a34.28671247234191,34.28671247234191 0 0,0 -0.43876375031282655,0.3923452510812757 l -8.77125141536542 -9.980073994271596" fill="#ff780b" stroke="none" /><path d="M 113.59037401385872 116.0094264158162 l 9.120918299972965 10.744418823145306 a35.09374636077792,35.09374636077792 0 0,0 -0.4626118906226629,0.38592729251946695 l -8.935132075188406 -10.899408299576642" fill="#ff840c" stroke="none" /><path d="M 113.03279911837588 116.46651593811092 l 7.972667260839463 10.073204637579677 a33.846512169558636,33.846512169558636 0 0,0 -0.4586847986780491,0.35667607378225485 l -7.798572517526184 -10.208581762982725" fill="#ff720a" stroke="none" /><path d="M 112.7482090630111 116.68781488649013 l 5.8389083783419915 7.643318498726643 a30.618376615814604,30.618376615814604 0 0,0 -0.42041511340831555,0.3154873388441288 l -5.70684027602291 -7.742424864834786" fill="#ff4206" stroke="none" /><path d="M 112.45986205192187 116.90419585922612 l 15.718840760273624 21.325626382088792 a47.49272155584022,47.49272155584022 0 0,0 -0.660417931586997,0.4780916524903742 l -15.35044181831266 -21.592318805952242" fill="#d3ff1c" stroke="none" /><path d="M 112.16784306229584 117.11559508785304 l 7.868642427498405 11.068230991364612 a34.5801793408641,34.5801793408641 0 0,0 -0.48676527434529593,0.3397999655893298 l -7.677482061979351 -11.201675772759064" fill="#ff7c0b" stroke="none" /><path d="M 111.8722381534696 117.32195027204791 l 6.59906750978344 9.628236712295879 a32.6726446954699,32.6726446954699 0 0,0 -0.4653575860048953,0.31311335211329466 l -6.4328136356815415 -9.740099738466295" fill="#ff6008" stroke="none" /><path d="M 111.5731344415666 117.5232005979908 l 8.583823600598308 12.997002982252631 a36.57575404681495,36.57575404681495 0 0,0 -0.526890052866445,0.34152376656300815 l -8.359447915474853 -13.142440590519534" fill="#ff990e" stroke="none" /><path d="M 110.96478420261333 117.91015095944535 l 7.205575550873062 11.76976614232562 a34.80027949225573,34.80027949225573 0 0,0 -0.5121726882715357,0.30754498339045183 l -7.00247010604409 -11.891725126251995" fill="#ff800b" stroke="none" /><line stroke="#e1ed5e" stroke-width="0.3" x1="143.1302829299769" x2="145.66735839644613" y1="173.24464959558577" y2="177.55315839532614" /><path d="M 143.63769802327073 174.10635135553383 a86.0,86.0 0 0,1 -40.68552437913181,11.842963189579606" fill="none" id="id42" stroke="none" /><text fill="#e1ed5e" style="font-size:6.75px; font-family: system-ui, -apple-system, BlinkMacSystemFont, &quot;Helvetica Neue&quot;, Helvetica, &quot;Segoe UI&quot;, Arial, &quot;PingFang SC&quot;, &quot;Hiragino Sans GB&quot;, &quot;Heiti SC&quot;, &quot;Microsoft YaHei&quot;, &quot;WenQuanYi Micro Hei&quot;, sans-serif;" text-anchor="middle"><textPath startOffset="21.407464694133747" xlink:href="#id42">June</textPath></text><path d="M 110.65571695917076 118.09573695890943 l 6.079231091531101 10.323863440281505 a32.98078490741819,32.98078490741819 0 0,0 -0.49032616495104986,0.2830899433252066 l -5.901112458719653 -10.426700280882883" fill="#ff6509" stroke="none" /><path d="M 110.34350942703117 118.27599006163325 l 12.926074258934596 22.839134663023927 a47.243274717596364,47.243274717596364 0 0,0 -0.7092246154885952,0.3933949388217689 l -12.532105455289907 -23.05766251727884" fill="#d6ff1c" stroke="none" /><path d="M 110.02825361518725 118.45085714620011 l 5.83336750994065 10.732739192415231 a33.21555840223594,33.21555840223594 0 0,0 -0.5033124844517326,0.2679855487821212 l -5.648266209702363 -10.83129520891992" fill="#ff6809" stroke="none" /><path d="M 109.06512990194946 118.94263497670748 l 5.716510820898606 11.945309001848264 a34.242692442063586,34.242692442063586 0 0,0 -0.5324107404647921,0.2491951095317793 l -5.510611366562308 -12.041680342950576" fill="#ff770b" stroke="none" /><path d="M 108.73861861582097 119.09545874513695 l 5.528929188279411 12.08170808924293 a34.28671247234191,34.28671247234191 0 0,0 -0.537299882609073,0.2403274033124373 l -5.320715902814712 -12.174839243465218" fill="#ff780b" stroke="none" /><path d="M 108.4095320186766 119.2426549942271 l 3.7283205304648646 8.531127001633 a30.31023640386631,30.31023640386631 0 0,0 -0.47856244070544735,0.20426984885540328 l -3.581323014588986 -8.593871500147806" fill="#ff3d05" stroke="none" /><path d="M 108.07796709384702 119.3841803445677 l 7.114669282725638 17.072616274131303 a39.49574938861069,39.49574938861069 0 0,0 -0.6280680623936625,0.255429813234476 l -6.820546759141534 -17.19223334394507" fill="#ffc212" stroke="none" /><path d="M 107.74402155503746 119.51999308798841 l 5.446156535562043 13.727872162380574 a35.76872015837895,35.76872015837895 0 0,0 -0.5726874215406591,0.2215277973789471 l -5.2096968515278546 -13.819339847897563" fill="#ff8d0d" stroke="none" /><path d="M 107.06938296918513 119.77432235084164 l 5.263137920344765 14.721933479554052 a36.63444742051939,36.63444742051939 0 0,0 -0.5939913281431901,0.20662101783189882 l -5.009640820156553 -14.810112929954542" fill="#ff9a0e" stroke="none" /><path d="M 106.38641147887787 120.00534299687104 l 6.586474910555781 20.6320388471282 a42.65785489693723,42.65785489693723 0 0,0 -0.6995062816839708,0.21670883415496708 l -6.231327996000186 -20.742064269089813" fill="#ffec16" stroke="none" /><path d="M 106.0420521117495 120.11202640906438 l 2.839138263760247 9.450567900381367 a30.86782345405846,30.86782345405846 0 0,0 -0.508789906104502,0.14810132648347668 l -2.676488345274138 -9.497912921167362" fill="#ff4606" stroke="none" /><path d="M 105.69591212413111 120.21278271476187 l 7.408599337885217 26.29050543160304 a48.31442878770234,48.31442878770234 0 0,0 -0.8002217588370983,0.21810399879915332 l -6.956196178113424 -26.41380992454634" fill="#c9ff1d" stroke="none" /><line stroke="#e1ed5e" stroke-width="0.3" x1="101.45913802915013" x2="101.54496967792366" y1="184.9874750549273" y2="189.98673829345242" /><path d="M 101.47630435890484 185.9873277026323 a86.0,86.0 0 0,1 -42.54439059252881,-10.42667462771756" fill="none" id="id43" stroke="none" /><text fill="#e1ed5e" style="font-size:6.75px; font-family: system-ui, -apple-system, BlinkMacSystemFont, &quot;Helvetica Neue&quot;, Helvetica, &quot;Segoe UI&quot;, Arial, &quot;PingFang SC&quot;, &quot;Hiragino Sans GB&quot;, &quot;Heiti SC&quot;, &quot;Microsoft YaHei&quot;, &quot;WenQuanYi Micro Hei&quot;, sans-serif;" text-anchor="middle"><textPath startOffset="22.145653131862474" xlink:href="#id43">July</textPath></text><line stroke="#e1ed5e" stroke-width="0.3" x1="58.13341422392154" x2="55.67067388415222" y1="173.97424548756322" y2="178.32567169271397" /><path d="M 57.64086615596768 174.84453072859336 a86.0,86.0 0 0,1 -31.369924170532247,-30.572349798747897" fill="none" id="id44" stroke="none" /><text fill="#e1ed5e" style="font-size:6.75px; font-family: system-ui, -apple-system, BlinkMacSystemFont, &quot;Helvetica Neue&quot;, Helvetica, &quot;Segoe UI&quot;, Arial, &quot;PingFang SC&quot;, &quot;Hiragino Sans GB&quot;, &quot;Heiti SC&quot;, &quot;Microsoft YaHei&quot;, &quot;WenQuanYi Micro Hei&quot;, sans-serif;" text-anchor="middle"><textPath startOffset="22.145653131862474" xlink:href="#id44">August</textPath></text><line stroke="#e1ed5e" stroke-width="0.3" x1="26.387840678322732" x2="22.057713659400548" y1="142.50000000000003" y2="145.00000000000006" /><path d="M 25.521815274538298 143.00000000000003 a86.0,86.0 0 0,1 -11.493303480769221,-40.785679425670985" fill="none" id="id45" stroke="none" /><text fill="#e1ed5e" style="font-size:6.75px; font-family: system-ui, -apple-system, BlinkMacSystemFont, &quot;Helvetica Neue&quot;, Helvetica, &quot;Segoe UI&quot;, Arial, &quot;PingFang SC&quot;, &quot;Hiragino Sans GB&quot;, &quot;Heiti SC&quot;, &quot;Microsoft YaHei&quot;, &quot;WenQuanYi Micro Hei&quot;, sans-serif;" text-anchor="middle"><textPath startOffset="21.40746469413373" xlink:href="#id45">September</textPath></text><line stroke="#e1ed5e" stroke-width="0.3" x1="15.003131293944662" x2="10.003315487706104" y1="100.72959589197737" y2="100.7725132973878" /><path d="M 14.003168132696942 100.73817937305945 a86.0,86.0 0 0,1 10.791469493833604,-42.45332614584628" fill="none" id="id46" stroke="none" /><text fill="#e1ed5e" style="font-size:6.75px; font-family: system-ui, -apple-system, BlinkMacSystemFont, &quot;Helvetica Neue&quot;, Helvetica, &quot;Segoe UI&quot;, Arial, &quot;PingFang SC&quot;, &quot;Hiragino Sans GB&quot;, &quot;Heiti SC&quot;, &quot;Microsoft YaHei&quot;, &quot;WenQuanYi Micro Hei&quot;, sans-serif;" text-anchor="middle"><textPath startOffset="22.145653131862435" xlink:href="#id46">October</textPath></text><line stroke="#e1ed5e" stroke-width="0.3" x1="26.387840678322718" x2="22.05771365940052" y1="57.49999999999999" y2="54.99999999999999" /><path d="M 25.521815274538284 56.99999999999999 a86.0,86.0 0 0,1 29.574782752854787,-30.34633250058573" fill="none" id="id47" stroke="none" /><text fill="#e1ed5e" style="font-size:6.75px; font-family: system-ui, -apple-system, BlinkMacSystemFont, &quot;Helvetica Neue&quot;, Helvetica, &quot;Segoe UI&quot;, Arial, &quot;PingFang SC&quot;, &quot;Hiragino Sans GB&quot;, &quot;Heiti SC&quot;, &quot;Microsoft YaHei&quot;, &quot;WenQuanYi Micro Hei&quot;, sans-serif;" text-anchor="middle"><textPath startOffset="21.40746469413373" xlink:href="#id47">November</textPath></text><line stroke="#e1ed5e" stroke-width="0.3" x1="56.869717070023135" x2="54.33264160355391" y1="26.7553504044142" y2="22.446841604673864" /><path d="M 56.362301976729285 25.89364864446614 a86.0,86.0 0 0,1 42.16139366436587,-11.88097634709845" fill="none" id="id48" stroke="none" /><text fill="#e1ed5e" style="font-size:6.75px; font-family: system-ui, -apple-system, BlinkMacSystemFont, &quot;Helvetica Neue&quot;, Helvetica, &quot;Segoe UI&quot;, Arial, &quot;PingFang SC&quot;, &quot;Hiragino Sans GB&quot;, &quot;Heiti SC&quot;, &quot;Microsoft YaHei&quot;, &quot;WenQuanYi Micro Hei&quot;, sans-serif;" text-anchor="middle"><textPath startOffset="22.145653131862474" xlink:href="#id48">December</textPath></text></svg>