<?xml version="1.0" encoding="utf-8" ?>
<svg baseProfile="full" height="200mm" version="1.1" viewBox="0,0,200,200" width="200mm" xmlns="http://www.w3.org/2000/svg" xmlns:ev="http://www.w3.org/2001/xml-events" xmlns:xlink="http://www.w3.org/1999/xlink"><defs /><rect fill="#1a1a1a" height="200" width="200" x="0" y="0" /><text alignment-baseline="middle" fill="#e1ed5e" style="dominant-baseline: central; font-size:9.0px; font-family: system-ui, -apple-system, BlinkMacSystemFont, &quot;Helvetica Neue&quot;, Helvetica, &quot;Segoe UI&quot;, Arial, &quot;PingFang SC&quot;, &quot;Hiragino Sans GB&quot;, &quot;Heiti SC&quot;, &quot;Microsoft YaHei&quot;, &quot;WenQuanYi Micro Hei&quot;, sans-serif;" text-anchor="middle" x="100.0" y="100.0">2024</text><line stroke="#e1ed5e" stroke-width="0.3" x1="100.0" x2="100.0" y1="15.0" y2="10.0" /><path d="M 100.0 14.0 a86.0,86.0 0 0,1 42.35913384403234,11.155469271406648" fill="none" id="id37" stroke="none" /><text fill="#e1ed5e" style="font-size:6.75px; font-family: system-ui, -apple-system, BlinkMacSystemFont, &quot;Helvetica Neue&quot;, Helvetica, &quot;Segoe UI&quot;, Arial, &quot;PingFang SC&quot;, &quot;Hiragino Sans GB&quot;, &quot;Heiti SC&quot;, &quot;Microsoft YaHei&quot;, &quot;WenQuanYi Micro Hei&quot;, sans-serif;" text-anchor="middle"><textPath startOffset="22.145653131862478" xlink:href="#id37">January</textPath></text><path d="M 100.0 79.0 l 0.0 -35.96803220459389 a56.96803220459389,56.96803220459389 0 0,0 0.9779320263008479,0.008394370285447867 l -0.617439101451993 35.96273223250288" fill="#8cff24" stroke="none" /><path d="M 100.36049292484886 79.00309439819443 l 0.2768360301408563 -16.124310884834347 a37.12668718920199,37.12668718920199 0 0,0 0.6371411312213698,0.016410495445077732 l -0.5535904754329675 16.117182672039224" fill="#ff4606" stroke="none" /><path d="M 100.72087961077811 79.0123766808444 l 0.6560123950320366 -19.09908510904926 a40.1103480937722,40.1103480937722 0 0,0 0.6879387674623857,0.02954305069316784 l -0.9837769230952585 19.08500948993026" fill="#ff780b" stroke="none" /><path d="M 101.08105385017728 79.02784411241856 l 1.1066530415146507 -21.468773360647546 a42.49727681742837,42.49727681742837 0 0,0 0.7282326229400845,0.04380866623494776 l -1.4750300165871975 21.446612716587907" fill="#ff9f0e" stroke="none" /><path d="M 101.44090949804482 79.04949213459386 l 1.536446949963486 -22.33960144871509 a43.39237508879943,43.39237508879943 0 0,0 0.7426935712979665,0.057489179540886066 l -1.919709516036686 22.30993450217915" fill="#ffad10" stroke="none" /><path d="M 101.80034050326958 79.07731436759882 l 1.6894978485572698 -19.634525967607363 a40.70708027468624,40.70708027468624 0 0,0 0.6957042325669628,0.06588391414505475 l -2.0263016445092457 19.602630297957127" fill="#ff820c" stroke="none" /><path d="M 102.15924093988457 79.11130261209362 l 4.238206997561731 -41.000808109958776 a62.219275396637464,62.219275396637464 0 0,0 1.0614729810965742,0.11894026155263572 l -4.941415880259101 40.92201208789917" fill="#49ff2c" stroke="none" /><path d="M 102.51750503828377 79.15144685158666 l 2.362508280065969 -19.56495764318306 a40.70708027468624,40.70708027468624 0 0,0 0.6930325716320103,0.0897269413932157 l -2.698018673588771 19.521519105589448" fill="#ff820c" stroke="none" /><path d="M 102.87502721639298 79.19773525538626 l 2.5142021099074765 -18.19151401891038 a39.364432867629645,39.364432867629645 0 0,0 0.668585949327395,0.09825911052949249 l -2.8261131648425537 18.145673835082004" fill="#ff6c09" stroke="none" /><path d="M 103.23170211078529 79.25015418208739 l 3.6732583783493804 -23.584953806767842 a44.86928723656169,44.86928723656169 0 0,0 0.7600483281913675,0.1250656631715805 l -4.077584209593819 23.51842214510059" fill="#ffc412" stroke="none" /><path d="M 103.58742460773223 79.30868818359171 l 4.360466614134388 -25.150012681416943 a46.52521903859815,46.52521903859815 0 0,0 0.7857561527104764,0.14319094593846557 l -4.7915575003959185 25.07145356154711" fill="#ffde14" stroke="none" /><path d="M 104.29559338865022 79.4440306129975 l 3.970092587236988 -18.998330219623686 a40.408714184229225,40.408714184229225 0 0,0 0.6777841824657629,0.14771990793402828 l -4.295639186321885 18.92737885355594" fill="#ff7d0b" stroke="none" /><path d="M 104.64783097203109 79.52079915486377 l 5.022034744347105 -22.128011711190293 a43.69074117925645,43.69074117925645 0 0,0 0.7299845837654204,0.1722743741236669 l -5.401151481852411 22.0385411934204" fill="#ffb210" stroke="none" /><path d="M 104.9986988182912 79.60360301121754 l 9.062287035954869 -36.9772236197297 a59.07151314231589,59.07151314231589 0 0,0 0.9828225720519866,0.249829654517844 l -9.695714901232249 36.816208733376584" fill="#71ff27" stroke="none" /><path d="M 105.3480935250658 79.69241777938227 l 5.930646928222391 -22.51963237962416 a44.287473360170495,44.287473360170495 0 0,0 0.7335241400131721,0.19992526619755407 l -6.316352469170256 22.414506619282463" fill="#ffbb11" stroke="none" /><path d="M 105.69591212413111 79.78721728523813 l 5.664890106879153 -20.10269651953584 a41.885626331991475,41.885626331991475 0 0,0 0.6903947704735367,0.2009638557636534 l -6.009144889734294 20.00248896946967" fill="#ff950d" stroke="none" /><path d="M 106.04205211174951 79.88797359093562 l 8.37417262847972 -27.87489712816809 a50.105612124082406,50.105612124082406 0 0,0 0.8216350895537425,0.25454465102065543 l -8.851448350905093 27.72703588934079" fill="#ebff1a" stroke="none" /><path d="M 106.38641147887787 79.99465700312896 l 6.446903181258913 -20.19483239300526 a42.19891072697135,42.19891072697135 0 0,0 0.6881984485724031,0.2262244994038468 l -6.792624367479058 20.081186972199394" fill="#ff9a0e" stroke="none" /><path d="M 106.72888874123014 80.10723608172694 l 6.8786674629151054 -20.33555809499995 a42.46744020838267,42.46744020838267 0 0,0 0.688567536522743,0.23951953252764327 l -7.226740771482866 20.214480129903716" fill="#ff9e0e" stroke="none" /><path d="M 107.06938296918511 80.22567764915836 l 6.533696833703413 -18.275912890204822 a40.408714184229225,40.408714184229225 0 0,0 0.6511784403643341,0.23912174306301825 l -6.846464425721871 18.16106029813308" fill="#ff7d0b" stroke="none" /><path d="M 107.40779381753099 80.34994680014964 l 6.604391125504186 -17.518932109267496 a39.72247217617807,39.72247217617807 0 0,0 0.6359903308552487,0.24601472260320875 l -6.904153718852961 17.402977498526248" fill="#ff720a" stroke="none" /><path d="M 107.74402155503746 80.48000691201159 l 8.917635998614065 -22.47826814749885 a45.18257163154156,45.18257163154156 0 0,0 0.7185008680141286,0.29220804800391625 l -9.302191327818633 22.32187284291564" fill="#ffc912" stroke="none" /><path d="M 108.07796709384702 80.6158196554323 l 8.108572699696316 -19.4576226570264 a42.07956429078854,42.07956429078854 0 0,0 0.6643860748064934,0.2835869084968373 l -8.441393849673238 19.31556109887016" fill="#ff980e" stroke="none" /><path d="M 108.4095320186766 80.7573450057729 l 8.011259131218551 -18.331328686188876 a41.005446365143264,41.005446365143264 0 0,0 0.6425877527948051,0.28742132843887175 l -8.324760286868989 18.19110360684015" fill="#ff870c" stroke="none" /><path d="M 109.3889696526874 81.21577127319529 l 8.77089398054742 -17.547663350046072 a40.617570447549134,40.617570447549134 0 0,0 0.6210093424209064,0.31709179510686536 l -9.070830544681906 17.394513603266372" fill="#ff800b" stroke="none" /><path d="M 110.02825361518725 81.54914285379988 l 11.56229383195518 -21.273318362502568 a45.21240824058726,45.21240824058726 0 0,0 0.678736879300198,0.3764839054894237 l -11.92577489941148 21.07170154158" fill="#ffca12" stroke="none" /><path d="M 110.34350942703115 81.72400993836675 l 9.265805390115759 -16.371790292010093 a39.81198200331518,39.81198200331518 0 0,0 0.5918857452781574,0.3417253943658465 l -9.545483603254315 16.210318000368076" fill="#ff730a" stroke="none" /><line stroke="#e1ed5e" stroke-width="0.3" x1="143.13028292997686" x2="145.6673583964461" y1="26.7553504044142" y2="22.446841604673864" /><path d="M 143.63769802327073 25.89364864446614 a86.0,86.0 0 0,1 29.32050498858742,28.57503671076993" fill="none" id="id38" stroke="none" /><text fill="#e1ed5e" style="font-size:6.75px; font-family: system-ui, -apple-system, BlinkMacSystemFont, &quot;Helvetica Neue&quot;, Helvetica, &quot;Segoe UI&quot;, Arial, &quot;PingFang SC&quot;, &quot;Hiragino Sans GB&quot;, &quot;Heiti SC&quot;, &quot;Microsoft YaHei&quot;, &quot;WenQuanYi Micro Hei&quot;, sans-serif;" text-anchor="middle"><textPath startOffset="20.669276256404974" xlink:href="#id38">February</textPath></text><path d="M 110.65571695917076 81.90426304109057 l 9.545483603254315 -16.210318000368076 a39.81198200331518,39.81198200331518 0 0,0 0.5859323587499837,0.3518355462252939 l -9.822348718561733 16.04406845360686" fill="#ff730a" stroke="none" /><path d="M 110.96478420261332 82.08984904055464 l 6.395042266406966 -10.445820936091385 a33.24792801326072,33.24792801326072 0 0,0 0.484209953803453,0.30218282318669853 l -6.573416349000132 10.33450231606314" fill="#ff0300" stroke="none" /><path d="M 111.27062007382361 82.28071324371311 l 9.695989279706644 -15.243705608711885 a39.06606677717262,39.06606677717262 0 0,0 0.5627641186334241,0.36477690257499484 l -9.956239030597077 15.075014864432996" fill="#ff6709" stroke="none" /><path d="M 111.5731344415666 82.4767994020092 l 9.134088821629526 -13.830174660929035 a37.57423632488752,37.57423632488752 0 0,0 0.5351711217473504,0.36008701463992665 l -9.370156231473876 13.67133797223199" fill="#ff4e07" stroke="none" /><path d="M 112.16784306229584 82.88440491214696 l 10.761755585525682 -15.137756962616884 a39.57328913094956,39.57328913094956 0 0,0 0.5502929480094633,0.39836965697681065 l -11.020029543909114 14.950786534266998" fill="#ff6f0a" stroke="none" /><path d="M 112.45986205192187 83.09580414077388 l 10.949218109088815 -14.854717223203433 a39.45394269476675,39.45394269476675 0 0,0 0.5417345929391381,0.4065277380268306 l -11.202605690938718 14.664570457912589" fill="#ff6d0a" stroke="none" /><path d="M 112.7482090630111 83.31218511350987 l 15.332264700694624 -20.070426665518198 a46.25668955718683,46.25668955718683 0 0,0 0.6268663734319506,0.48745508354804723 l -15.6745410187618 19.80427053034936" fill="#ffda14" stroke="none" /><path d="M 113.03279911837588 83.53348406188908 l 9.50841915314139 -12.013576984447015 a36.32109874496803,36.32109874496803 0 0,0 0.4855771663095393,0.39114659297488663 l -9.713247089806188 11.84858209767872" fill="#ff3805" stroke="none" /><path d="M 113.59037401385872 83.9905735841838 l 19.743534116747167 -23.257833545117776 a51.507932749230406,51.507932749230406 0 0,0 0.6691629051897452,0.5780069798556549 l -20.139876501699774 22.915482432797404" fill="#d7ff1c" stroke="none" /><path d="M 114.13192950727249 84.46653392183569 l 24.184573655945606 -26.583082961613407 a56.93819559554819,56.93819559554819 0 0,0 0.7173405442706847,0.6639596985044535 l -24.637343971530253 26.16400551697658" fill="#8cff24" stroke="none" /><path d="M 114.39649973595853 84.71141617570332 l 12.364694421577449 -13.130876990462715 a39.03623016812692,39.03623016812692 0 0,0 0.4839145124218091,0.4635791563109627 l -12.58828141986457 12.916685703846172" fill="#ff6609" stroke="none" /><path d="M 114.65682725009322 84.96080404539774 l 13.900211493398846 -14.262841534023693 a40.91593653800616,40.91593653800616 0 0,0 0.49880049281806027,0.49453726636007345 l -14.143003906346868 14.022124257434958" fill="#ff850c" stroke="none" /><path d="M 114.91283532996326 85.21462403516908 l 14.33369609384817 -14.211186606973405 a41.18446601941747,41.18446601941747 0 0,0 0.49345501133530106,0.5063283126438457 l -14.575537906334283 13.963035602261817" fill="#ff8a0c" stroke="none" /><path d="M 115.16444852881244 85.47280134310134 l 26.53329627738459 -25.418297626290364 a57.74378403978215,57.74378403978215 0 0,0 0.679573303020258,0.7216832979219812 l -26.965725414141108 24.959072868423892" fill="#82ff25" stroke="none" /><path d="M 115.41159269507618 85.73525988315684 l 17.87861534766237 -16.54817945356728 a45.36159128581577,45.36159128581577 0 0,0 0.5240393494957123,0.576011043277982 l -18.160052397999962 16.238830834731626" fill="#ffcc13" stroke="none" /><path d="M 115.6541949942343 86.00192230759917 l 16.91453747541821 -15.125083710732882 a43.69074117925645,43.69074117925645 0 0,0 0.495138714671993,0.5633769659365231 l -17.171687254048795 14.832494466985063" fill="#ffb210" stroke="none" /><path d="M 115.8921839302757 86.27271002978787 l 13.829925631959089 -11.945960369531033 a39.27492304049254,39.27492304049254 0 0,0 0.4363358601517471,0.514002546107847 l -14.032956055617948 11.706791040973634" fill="#ff6a09" stroke="none" /><path d="M 116.35404254752997 86.82634096563983 l 18.71633616675642 -15.076555556017695 a45.03338858631305,45.03338858631305 0 0,0 0.4797847985105468,0.6061924195852887 l -18.972387395908527 14.753043192517728" fill="#ffc712" stroke="none" /><path d="M 116.57777611688842 87.10902102172516 l 12.518713719336287 -9.734627506918894 a36.85815770779067,36.85815770779067 0 0,0 0.3841111872720526,0.502813874273877 l -12.683976883962647 9.518292719404135" fill="#ff4206" stroke="none" /><path d="M 116.7966241395341 87.39550010848427 l 13.328318136769784 -10.001818407878103 a37.66374615202463,37.66374615202463 0 0,0 0.3836285350869296,0.5204657858388683 l -13.49804869144054 9.77154631277036" fill="#ff4f07" stroke="none" /><path d="M 117.21940702142032 87.97951657250589 l 15.547619931962037 -10.853446201523811 a39.96116504854369,39.96116504854369 0 0,0 0.3878331221766631,0.5658601157890336 l -15.731642790954027 10.584951350664728" fill="#ff760a" stroke="none" /><path d="M 117.42321728460499 88.27688183743584 l 18.825986376900918 -12.666963811456371 a43.69074117925645,43.69074117925645 0 0,0 0.4133467865599137,0.6258597179524106 l -19.040657602381557 12.341924215164902" fill="#ffb210" stroke="none" /><path d="M 117.62189284568427 88.57770195909679 l 15.28510383465344 -9.907619636236914 a39.215249822401134,39.215249822401134 0 0,0 0.3613074790050277,0.5680353685730506 l -15.452929005284357 9.643770592985192" fill="#ff6909" stroke="none" /><path d="M 117.81537515405839 88.88188828441811 l 13.934213623929631 -8.695979871315886 a37.42505327965901,37.42505327965901 0 0,0 0.33545685519977314,0.5479435624074358 l -14.081438443584807 8.455499192783895" fill="#ff4b07" stroke="none" /><line stroke="#e1ed5e" stroke-width="0.3" x1="172.87174338648825" x2="177.1583165268699" y1="56.24261187166439" y2="53.66864786411523" /><path d="M 173.72905801456457 55.72781907015455 a86.0,86.0 0 0,1 12.242430191666344,42.057860355516425" fill="none" id="id39" stroke="none" /><text fill="#e1ed5e" style="font-size:6.75px; font-family: system-ui, -apple-system, BlinkMacSystemFont, &quot;Helvetica Neue&quot;, Helvetica, &quot;Segoe UI&quot;, Arial, &quot;PingFang SC&quot;, &quot;Hiragino Sans GB&quot;, &quot;Heiti SC&quot;, &quot;Microsoft YaHei&quot;, &quot;WenQuanYi Micro Hei&quot;, sans-serif;" text-anchor="middle"><textPath startOffset="22.145653131862474" xlink:href="#id39">March</textPath></text><path d="M 118.00360718960297 89.18935116829356 l 18.225294988290962 -10.943765985210765 a42.25858394506275,42.25858394506275 0 0,0 0.3681050464876235,0.6251228443858293 l -18.410473744908355 10.629291972531378" fill="#ff9b0e" stroke="none" /><path d="M 118.36410011445183 89.81374322990088 l 55.092300343355504 -30.558770310297362 a84.0,84.0 0 0,0 0.6886186015386349,1.2669806661015868 l -55.60876429450948 29.60853481072117" fill="#4dd2ff" stroke="none" /><path d="M 118.53625476483649 90.13048839642627 l 10.679305669629931 -5.686128754793955 a33.09874496803221,33.09874496803221 0 0,0 0.2627282720584345,0.5038161036932182 l -10.77534201066331 5.50196640799624" fill="#ff0000" stroke="none" /><path d="M 118.70294669586156 90.45014215332178 l 23.663235660901787 -12.082616735685942 a47.569500355197725,47.569500355197725 0 0,0 0.36510743789167033,0.730459451559925 l -23.867163012005197 11.674625427962267" fill="#ffed16" stroke="none" /><path d="M 118.8641267826498 90.77261029715802 l 16.6306284659733 -8.134873754127554 a39.51361591285816,39.51361591285816 0 0,0 0.2928161061450484,0.6118730425268026 l -16.76782383007826 7.848188209535648" fill="#ff6e0a" stroke="none" /><line stroke="#e1ed5e" stroke-width="0.3" x1="184.99686870605535" x2="189.99668451229388" y1="99.2704041080226" y2="99.22748670261217" /><path d="M 185.99683186730306 99.26182062694052 a86.0,86.0 0 0,1 -10.086455211305974,41.156179273409016" fill="none" id="id40" stroke="none" /><text fill="#e1ed5e" style="font-size:6.75px; font-family: system-ui, -apple-system, BlinkMacSystemFont, &quot;Helvetica Neue&quot;, Helvetica, &quot;Segoe UI&quot;, Arial, &quot;PingFang SC&quot;, &quot;Hiragino Sans GB&quot;, &quot;Heiti SC&quot;, &quot;Microsoft YaHei&quot;, &quot;WenQuanYi Micro Hei&quot;, sans-serif;" text-anchor="middle"><textPath startOffset="21.40746469413373" xlink:href="#id40">April</textPath></text><line stroke="#e1ed5e" stroke-width="0.3" x1="174.33088141563837" x2="178.70328620479359" y1="141.23008692659167" y2="143.65538615756765" /><path d="M 175.20536237346943 141.71514677278685 a86.0,86.0 0 0,1 -30.301960400862466,31.631185727798858" fill="none" id="id41" stroke="none" /><text fill="#e1ed5e" style="font-size:6.75px; font-family: system-ui, -apple-system, BlinkMacSystemFont, &quot;Helvetica Neue&quot;, Helvetica, &quot;Segoe UI&quot;, Arial, &quot;PingFang SC&quot;, &quot;Hiragino Sans GB&quot;, &quot;Heiti SC&quot;, &quot;Microsoft YaHei&quot;, &quot;WenQuanYi Micro Hei&quot;, sans-serif;" text-anchor="middle"><textPath startOffset="22.145653131862474" xlink:href="#id41">May</textPath></text><line stroke="#e1ed5e" stroke-width="0.3" x1="143.1302829299769" x2="145.66735839644613" y1="173.24464959558577" y2="177.55315839532614" /><path d="M 143.63769802327073 174.10635135553383 a86.0,86.0 0 0,1 -40.68552437913181,11.842963189579606" fill="none" id="id42" stroke="none" /><text fill="#e1ed5e" style="font-size:6.75px; font-family: system-ui, -apple-system, BlinkMacSystemFont, &quot;Helvetica Neue&quot;, Helvetica, &quot;Segoe UI&quot;, Arial, &quot;PingFang SC&quot;, &quot;Hiragino Sans GB&quot;, &quot;Heiti SC&quot;, &quot;Microsoft YaHei&quot;, &quot;WenQuanYi Micro Hei&quot;, sans-serif;" text-anchor="middle"><textPath startOffset="21.407464694133747" xlink:href="#id42">June</textPath></text><line stroke="#e1ed5e" stroke-width="0.3" x1="101.45913802915013" x2="101.54496967792366" y1="184.9874750549273" y2="189.98673829345242" /><path d="M 101.47630435890484 185.9873277026323 a86.0,86.0 0 0,1 -42.54439059252881,-10.42667462771756" fill="none" id="id43" stroke="none" /><text fill="#e1ed5e" style="font-size:6.75px; font-family: system-ui, -apple-system, BlinkMacSystemFont, &quot;Helvetica Neue&quot;, Helvetica, &quot;Segoe UI&quot;, Arial, &quot;PingFang SC&quot;, &quot;Hiragino Sans GB&quot;, &quot;Heiti SC&quot;, &quot;Microsoft YaHei&quot;, &quot;WenQuanYi Micro Hei&quot;, sans-serif;" text-anchor="middle"><textPath startOffset="22.145653131862474" xlink:href="#id43">July</textPath></text><line stroke="#e1ed5e" stroke-width="0.3" x1="58.13341422392154" x2="55.67067388415222" y1="173.97424548756322" y2="178.32567169271397" /><path d="M 57.64086615596768 174.84453072859336 a86.0,86.0 0 0,1 -31.369924170532247,-30.572349798747897" fill="none" id="id44" stroke="none" /><text fill="#e1ed5e" style="font-size:6.75px; font-family: system-ui, -apple-system, BlinkMacSystemFont, &quot;Helvetica Neue&quot;, Helvetica, &quot;Segoe UI&quot;, Arial, &quot;PingFang SC&quot;, &quot;Hiragino Sans GB&quot;, &quot;Heiti SC&quot;, &quot;Microsoft YaHei&quot;, &quot;WenQuanYi Micro Hei&quot;, sans-serif;" text-anchor="middle"><textPath startOffset="22.145653131862474" xlink:href="#id44">August</textPath></text><line stroke="#e1ed5e" stroke-width="0.3" x1="26.387840678322732" x2="22.057713659400548" y1="142.50000000000003" y2="145.00000000000006" /><path d="M 25.521815274538298 143.00000000000003 a86.0,86.0 0 0,1 -11.493303480769221,-40.785679425670985" fill="none" id="id45" stroke="none" /><text fill="#e1ed5e" style="font-size:6.75px; font-family: system-ui, -apple-system, BlinkMacSystemFont, &quot;Helvetica Neue&quot;, Helvetica, &quot;Segoe UI&quot;, Arial, &quot;PingFang SC&quot;, &quot;Hiragino Sans GB&quot;, &quot;Heiti SC&quot;, &quot;Microsoft YaHei&quot;, &quot;WenQuanYi Micro Hei&quot;, sans-serif;" text-anchor="middle"><textPath startOffset="21.40746469413373" xlink:href="#id45">September</textPath></text><line stroke="#e1ed5e" stroke-width="0.3" x1="15.003131293944662" x2="10.003315487706104" y1="100.72959589197737" y2="100.7725132973878" /><path d="M 14.003168132696942 100.73817937305945 a86.0,86.0 0 0,1 10.791469493833604,-42.45332614584628" fill="none" id="id46" stroke="none" /><text fill="#e1ed5e" style="font-size:6.75px; font-family: system-ui, -apple-system, BlinkMacSystemFont, &quot;Helvetica Neue&quot;, Helvetica, &quot;Segoe UI&quot;, Arial, &quot;PingFang SC&quot;, &quot;Hiragino Sans GB&quot;, &quot;Heiti SC&quot;, &quot;Microsoft YaHei&quot;, &quot;WenQuanYi Micro Hei&quot;, sans-serif;" text-anchor="middle"><textPath startOffset="22.145653131862435" xlink:href="#id46">October</textPath></text><line stroke="#e1ed5e" stroke-width="0.3" x1="26.387840678322718" x2="22.05771365940052" y1="57.49999999999999" y2="54.99999999999999" /><path d="M 25.521815274538284 56.99999999999999 a86.0,86.0 0 0,1 29.574782752854787,-30.34633250058573" fill="none" id="id47" stroke="none" /><text fill="#e1ed5e" style="font-size:6.75px; font-family: system-ui, -apple-system, BlinkMacSystemFont, &quot;Helvetica Neue&quot;, Helvetica, &quot;Segoe UI&quot;, Arial, &quot;PingFang SC&quot;, &quot;Hiragino Sans GB&quot;, &quot;Heiti SC&quot;, &quot;Microsoft YaHei&quot;, &quot;WenQuanYi Micro Hei&quot;, sans-serif;" text-anchor="middle"><textPath startOffset="21.40746469413373" xlink:href="#id47">November</textPath></text><line stroke="#e1ed5e" stroke-width="0.3" x1="56.869717070023135" x2="54.33264160355391" y1="26.7553504044142" y2="22.446841604673864" /><path d="M 56.362301976729285 25.89364864446614 a86.0,86.0 0 0,1 42.16139366436587,-11.88097634709845" fill="none" id="id48" stroke="none" /><text fill="#e1ed5e" style="font-size:6.75px; font-family: system-ui, -apple-system, BlinkMacSystemFont, &quot;Helvetica Neue&quot;, Helvetica, &quot;Segoe UI&quot;, Arial, &quot;PingFang SC&quot;, &quot;Hiragino Sans GB&quot;, &quot;Heiti SC&quot;, &quot;Microsoft YaHei&quot;, &quot;WenQuanYi Micro Hei&quot;, sans-serif;" text-anchor="middle"><textPath startOffset="22.145653131862474" xlink:href="#id48">December</textPath></text></svg>