<?xml version="1.0" encoding="utf-8" ?>
<svg baseProfile="full" height="200mm" version="1.1" viewBox="0,0,200,200" width="200mm" xmlns="http://www.w3.org/2000/svg" xmlns:ev="http://www.w3.org/2001/xml-events" xmlns:xlink="http://www.w3.org/1999/xlink"><defs /><rect fill="#1a1a1a" height="200" width="200" x="0" y="0" /><text alignment-baseline="middle" fill="#e1ed5e" style="dominant-baseline: central; font-size:9.0px; font-family:Arial;" text-anchor="middle" x="100.0" y="100.0">2023</text><line stroke="#e1ed5e" stroke-width="0.3" x1="100.0" x2="100.0" y1="15.0" y2="10.0" /><path d="M 100.0 14.0 a86.0,86.0 0 0,1 42.46469731375804,11.215312516191453" fill="none" id="id25" stroke="none" /><text fill="#e1ed5e" style="font-size:6.75px; font-family:Arial;" text-anchor="middle"><textPath startOffset="22.20632615414155" xlink:href="#id25">January</textPath></text><path d="M 100.36148047927253 79.00311137660856 l 0.2607820416021696 -15.14773769671031 a36.14998233007421,36.14998233007421 0 0,0 0.6220781310602377,0.016066442816028984 l -0.521486807857275 15.141004461751923" fill="#ffae10" stroke="none" /><path d="M 101.08401301168833 79.027996857942 l 0.3181167646033651 -6.15448865914653 a27.16270467664036,27.16270467664036 0 0,0 0.46673022397588565,0.02815444169518025 l -0.42400903741886264 6.148100948071045" fill="#ff2f04" stroke="none" /><path d="M 103.2404852339499 79.25152402106235 l 1.1854931019619301 -7.590583932169722 a28.682601013075747,28.682601013075747 0 0,0 0.48715457492074427,0.0803846789633912 l -1.3159768830215497 7.569052990266707" fill="#ff4606" stroke="none" /><path d="M 103.95276090670814 79.375362276772 l 1.0929344328219244 -5.702691679109527 a26.806478972788312,26.806478972788312 0 0,0 0.4524341234223508,0.09075402887927378 l -1.1909349657114006 5.683033694153044" fill="#ff2a04" stroke="none" /><path d="M 105.36241919743992 79.69619591428918 l 1.285616156276327 -4.867746739926809 a26.03465661444222,26.03465661444222 0 0,0 0.4323018911805657,0.11816443715819538 l -1.3692159366806036 4.84489576194232" fill="#ff1f03" stroke="none" /><path d="M 106.0581310904928 79.89281104454417 l 2.573831498524124 -8.542653750353042 a29.921969607727647,29.921969607727647 0 0,0 0.49188102789966265,0.1528298297225803 l -2.720497899134505 8.497083785747941" fill="#ff5708" stroke="none" /><path d="M 107.08798089147638 80.2323363322302 l 2.5093907140114395 -6.998437552964463 a28.434727294145365,28.434727294145365 0 0,0 0.4593124790481443,0.1691686623308966 l -2.62948551883216 6.954205622827241" fill="#ff4206" stroke="none" /><path d="M 107.4271985657038 80.35727306442388 l 3.0037764301772056 -7.944093546380012 a29.493014489339146,29.493014489339146 0 0,0 0.4733163046579067,0.18363937279728154 l -3.1400758998347795 7.891211469692183" fill="#ff5107" stroke="none" /><path d="M 108.09893153111575 80.62456947434976 l 3.449463640464377 -8.252303758810342 a29.9442337142184,29.9442337142184 0 0,0 0.47385501065512425,0.2028799860786432 l -3.5910024089098163 8.191704244768909" fill="#ff5808" stroke="none" /><path d="M 108.43124777332544 80.76684994638697 l 3.5862350641917145 -8.180829098078208 a29.932359524089996,29.932359524089996 0 0,0 0.47010606702505037,0.2109228890111998 l -3.726523249683545 8.117885878550478" fill="#ff5708" stroke="none" /><path d="M 108.76106565485865 80.91482961587045 l 3.9457304996649314 -8.595408577288742 a30.457792437271763,30.457792437271763 0 0,0 0.47459301529474496,0.2228277842784493 l -4.093101726259274 8.52621581037029" fill="#ff5f08" stroke="none" /><path d="M 109.08828744355905 81.06846463323043 l 4.139351463279154 -8.622557231956398 a30.56466014842738,30.56466014842738 0 0,0 0.4723385920107564,0.23177449575569525 l -4.287161322300342 8.55002757606587" fill="#ff6008" stroke="none" /><path d="M 109.41281617654863 81.2277094730956 l 4.239925373528877 -8.455823361618219 a30.459276711037816,30.459276711037816 0 0,0 0.46666442082897525,0.23904364169304318 l -4.3848502819466075 8.381587194612674" fill="#ff5f08" stroke="none" /><path d="M 109.73455568895987 81.39251694778311 l 4.419940092770281 -8.448660934911628 a30.534974673106372,30.534974673106372 0 0,0 0.4636299013644062,0.24765503678857914 l -4.564715040662998 8.371327171621294" fill="#ff6008" stroke="none" /><path d="M 110.05341064243156 81.56283822128135 l 4.195928131244552 -7.69500108163508 a29.76463658852633,29.76463658852633 0 0,0 0.4477110331352661,0.2491507052133249 l -4.327763253451854 7.621634978861574" fill="#ff5507" stroke="none" /><path d="M 110.36928655335952 81.73862282372117 l 8.827757559327278 -15.546586506416197 a38.87807751207445,38.87807751207445 0 0,0 0.5791042705353869,0.33545457208834745 l -9.094058562327993 15.392327776937801" fill="#ffd213" stroke="none" /><line stroke="#e1ed5e" stroke-width="0.3" x1="143.23703022742887" x2="145.7803849466894" y1="26.81831364943548" y2="22.513508569990506" /><path d="M 143.74570117128098 25.957352633546492 a86.0,86.0 0 0,1 28.547481713284135,27.462654790039103" fill="none" id="id26" stroke="none" /><text fill="#e1ed5e" style="font-size:6.75px; font-family:Arial;" text-anchor="middle"><textPath startOffset="19.985693538727396" xlink:href="#id26">February</textPath></text><path d="M 110.99172775467656 82.1063720568725 l 3.9108746036311772 -6.36658191063992 a28.471834138296618,28.471834138296618 0 0,0 0.41539165127655475,0.26011821392127527 l -4.019885407279995 6.298319355395701" fill="#ff4206" stroke="none" /><path d="M 111.2981086023043 82.29822771554956 l 1.601885205999935 -2.5098189564806868 a23.977453174696667,23.977453174696667 0 0,0 0.3459980452212612,0.22504675317367873 l -1.6448502770054763 2.48187327914748" fill="#ff0000" stroke="none" /><path d="M 111.90073688211348 82.69761687909136 l 5.090582608826768 -7.401156035886848 a29.982824832135705,29.982824832135705 0 0,0 0.4227133704815919,0.29613772985422876 l -5.217227118892011 7.3124334632686825" fill="#ff5808" stroke="none" /><path d="M 112.48926042617603 83.11751280151076 l 5.931994114541378 -8.018634513406601 a30.974319707857227,30.974319707857227 0 0,0 0.42590256906482354,0.32078098513338266 l -6.069142837364584 7.915336938767372" fill="#ff6609" stroke="none" /><path d="M 112.77801427241765 83.33499621200491 l 3.6216164847964274 -4.723288857806128 a26.951937801861234,26.951937801861234 0 0,0 0.3657345166142074,0.2854615914021644 l -3.702383556570065 4.660248877180739" fill="#ff2c04" stroke="none" /><path d="M 113.6212207817346 84.01681056812373 l 4.857042679504143 -5.699271340592469 a28.488161149723172,28.488161149723172 0 0,0 0.37049016548284414,0.3212854206360073 l -4.954426643633751 5.614820926536791" fill="#ff4306" stroke="none" /><path d="M 114.16331599549186 84.49514656593476 l 10.03561617538974 -10.986181341253669 a35.87984450465308,35.87984450465308 0 0,0 0.45241428359518693,0.42046977071191116 l -10.223238342779773 10.811806984467117" fill="#ffaa0f" stroke="none" /><path d="M 114.42810811169701 84.74124197986012 l 3.3499588983572623 -3.5428215405460826 a25.87583932147485,25.87583932147485 0 0,0 0.3210042728017558,0.30880585610393707 l -3.4104464147714366 3.484632597679844" fill="#ff1c02" stroke="none" /><path d="M 115.68641384162765 86.03803664274999 l 6.8019424373932615 -6.054186254922523 a30.106019554717868,30.106019554717868 0 0,0 0.3412132194908219,0.3900656945470756 l -6.905147520461932 5.9362050041725" fill="#ff5a08" stroke="none" /><path d="M 115.9244219780498 86.31012108654704 l 5.824635439020456 -5.00731228958316 a28.681116739309694,28.681116739309694 0 0,0 0.318619053743711,0.37714446200967583 l -5.909965106251285 4.906308877944378" fill="#ff4506" stroke="none" /><path d="M 116.15771136456269 86.58626213691792 l 7.177609795708082 -5.958676579300563 a30.328660619625396,30.328660619625396 0 0,0 0.3300068897565352,0.40454942638764085 l -7.279115177541025 5.834242983304821" fill="#ff5d08" stroke="none" /><path d="M 117.04232023915458 87.72973835380427 l 21.72398955211353 -15.641006157790564 a47.768877370715046,47.768877370715046 0 0,0 0.4747029463525764,0.6714336527969224 l -21.990005118269988 15.264746004661847" fill="#beff1f" stroke="none" /><path d="M 117.45458315368197 88.32363383020206 l 5.681118300579959 -3.8004240460774765 a27.83508069266109,27.83508069266109 0 0,0 0.26297969830988677,0.4005361225259998 l -5.74569463424777 3.702069859573803" fill="#ff3905" stroke="none" /><line stroke="#e1ed5e" stroke-width="0.3" x1="172.23445277983987" x2="176.4835382374775" y1="55.19839476539836" y2="52.563006222186495" /><path d="M 173.08426987136738 54.67131705675599 a86.0,86.0 0 0,1 12.851231095245387,41.99856678651699" fill="none" id="id27" stroke="none" /><text fill="#e1ed5e" style="font-size:6.75px; font-family:Arial;" text-anchor="middle"><textPath startOffset="22.20632615414155" xlink:href="#id27">March</textPath></text><path d="M 118.03404312379186 89.2402003453031 l 7.972878294686164 -4.756924031579392 a30.28413240664389,30.28413240664389 0 0,0 0.26324168513773744,0.4499653709463557 l -8.053579654294229 4.618979248279141" fill="#ff5c08" stroke="none" /><path d="M 118.3937258080291 89.86733742301442 l 6.610820761019764 -3.641742669617508 a28.547532100365178,28.547532100365178 0 0,0 0.2333990499492185,0.4324529923834876 l -6.672527910187448 3.527408693901562" fill="#ff4406" stroke="none" /><path d="M 118.56541770881063 90.18545643968196 l 6.593796017441872 -3.485787352380599 a28.458475674402166,28.458475674402166 0 0,0 0.22521572398704456,0.4350450940177869 l -6.652821174589033 3.3717695361024673" fill="#ff4206" stroke="none" /><path d="M 118.89224826269711 90.83032412892265 l 5.374576458288789 -2.608642623236163 a26.974201908351986,26.974201908351986 0 0,0 0.19914899921657328,0.4194585816769405 l -5.418683651347119 2.5157416259186816" fill="#ff2d04" stroke="none" /><path d="M 119.34039704204932 91.81776055985345 l 6.910051151906657 -2.9233987774725505 a28.503003887383674,28.503003887383674 0 0,0 0.1872760188122551,0.45350373415444006 l -6.95934885760511 2.8040204728648073" fill="#ff4306" stroke="none" /><path d="M 119.61058180528143 92.48833698450437 l 29.77971610930415 -11.406861577659823 a52.889621863588175,52.889621863588175 0 0,0 0.3183335961638888,0.852975772212611 l -29.971654293969664 10.892562668417877" fill="#83ff25" stroke="none" /><path d="M 119.85752413597 93.16781622104841 l 5.635148503186681 -1.9388303361402246 a26.959359170691485,26.959359170691485 0 0,0 0.1472015752709683,0.4401139738900485 l -5.667687372229419 1.8415432593278622" fill="#ff2c04" stroke="none" /><path d="M 120.08093135843002 93.85539295169968 l 7.132054193151902 -2.182352485643238 a28.458475674402166,28.458475674402166 0 0,0 0.13930302269136258,0.46966054127316764 l -7.168563112954966 2.0592625576235406" fill="#ff4206" stroke="none" /><path d="M 120.37134235888165 94.90015583598534 l 4.182736450881224 -1.047123144996764 a25.31181529037578,25.31181529037578 0 0,0 0.10217198583240611,0.42356884316891935 l -4.200141236974449 0.9749690701684385" fill="#ff1402" stroke="none" /><path d="M 120.73433829027371 96.67025291283417 l 7.627911235778633 -1.2249735131604298 a28.7256449522912,28.7256449522912 0 0,0 0.07419985456271053,0.4888843334789896 l -7.647866983780643 1.0934900672893582" fill="#ff4606" stroke="none" /><path d="M 120.78858239683441 97.02765380044208 l 5.8993632929643205 -0.843489456324068 a26.959359170691485,26.959359170691485 0 0,0 0.06172923103636485,0.45995447145474005 l -5.913008523058521 0.7418166428046636" fill="#ff2c04" stroke="none" /><path d="M 120.83666639777658 97.38593545837742 l 31.50904541739403 -3.952968137685124 a52.756037224643656,52.756037224643656 0 0,0 0.10528509033401612,0.9020183574607363 l -31.572420860731636 3.410006041899535" fill="#85ff25" stroke="none" /><path d="M 120.91429891909075 98.10471618934814 l 7.413255442047837 -0.6717998570210224 a28.443632936741665,28.443632936741665 0 0,0 0.03999109259552944,0.48799262338851157 l -7.423721018462861 0.5440933164247421" fill="#ff4206" stroke="none" /><path d="M 120.96714384426684 98.82574320788733 l 11.151685057941432 -0.6245458141581691 a32.16916008952762,32.16916008952762 0 0,0 0.026204678823372816,0.5531393532188138 l -11.1607833449983 0.4324953543163555" fill="#ff770b" stroke="none" /><path d="M 120.98425023603335 99.18683210126433 l 7.512208324573608 -0.29110816871924794 a28.517846625044175,28.517846625044175 0 0,0 0.014786239405739629,0.4906833007992238 l -7.516106258434993 0.1617547204950251" fill="#ff4306" stroke="none" /><line stroke="#e1ed5e" stroke-width="0.3" x1="184.98032266829074" x2="189.97916517819016" y1="98.17113171792111" y2="98.06355123074" /><path d="M 185.9800911702706 98.14961562048488 a86.0,86.0 0 0,1 -9.607161424134198,41.387399972396054" fill="none" id="id28" stroke="none" /><text fill="#e1ed5e" style="font-size:6.75px; font-family:Arial;" text-anchor="middle"><textPath startOffset="21.466115282336823" xlink:href="#id28">April</textPath></text><path d="M 120.99513854157772 99.54816195383933 l 8.005803211106967 -0.1722935275559053 a29.007656967840735,29.007656967840735 0 0,0 0.006446596600031505,0.49929601107115257 l -8.007582814824714 0.03446125842429002" fill="#ff4a06" stroke="none" /><path d="M 120.9904718944345 100.63252640178507 l 7.418001611886384 0.22353389154849937 a28.421368830250913,28.421368830250913 0 0,0 -0.018944692622514605,0.48887833773778805 l -7.4130547864126655 -0.3511894763002936" fill="#ff4206" stroke="none" /><path d="M 120.9764740272857 100.99374915477107 l 31.33498258216634 1.4844779163213413 a52.37012604547061,52.37012604547061 0 0,0 -0.05040911199328599,0.9000885575661549 l -31.30478711928553 -2.0236381902229197" fill="#89ff24" stroke="none" /><path d="M 120.92983693683757 101.71520430193887 l 12.374467144067358 1.014090044932406 a33.41595005300978,33.41595005300978 0 0,0 -0.051914707679263324,0.5728744732578525 l -12.35517784011102 -1.2269459067388289" fill="#ff880c" stroke="none" /><path d="M 120.89721153311464 102.0752229133903 l 4.453181253787774 0.44222856052810156 a25.475085404641302,25.475085404641302 0 0,0 -0.047089723070110466,0.4359923521298643 l -4.444909229216611 -0.5188172345427573" fill="#ff1602" stroke="none" /><path d="M 120.8583938346157 102.4346265915055 l 5.919174313533896 0.6908959192998907 a26.959359170691485,26.959359170691485 0 0,0 -0.05776811782634576,0.4604687376341113 l -5.906404686460702 -0.7926824112213969" fill="#ff2c04" stroke="none" /><path d="M 120.81339534386255 102.79330883721812 l 7.554019443331431 1.0138042793578759 a28.62174578866769,28.62174578866769 0 0,0 -0.0697361326113703,0.487734349061923 l -7.5354492597034595 -1.1436841004002083" fill="#ff4506" stroke="none" /><path d="M 120.49622156327973 104.57218783832717 l 7.496850978205155 1.6723575495353813 a28.681116739309694,28.681116739309694 0 0,0 -0.11163705955956772,0.4809295307693177 l -7.466953352715035 -1.8011557376532639" fill="#ff4506" stroke="none" /><path d="M 120.41448212921028 104.9243191809786 l 10.194014577184873 2.4589691374918474 a31.486394157144538,31.486394157144538 0 0,0 -0.13162615050682827,0.5257810413652897 l -10.150177112382984 -2.6340780182545327" fill="#ff6d0a" stroke="none" /><path d="M 120.23288151984713 105.62410040840565 l 7.200322190064572 2.0014615777822464 a28.473318412062667,28.473318412062667 0 0,0 -0.13532603951478334,0.47108769665947237 l -7.164803513663689 -2.1251067499463008" fill="#ff4206" stroke="none" /><path d="M 120.02730092923936 106.31721596034902 l 7.127161751352584 2.248122207116784 a28.473318412062667,28.473318412062667 0 0,0 -0.15146144313853188,0.46615039006426867 l -7.087408057197805 -2.370471497158848" fill="#ff4206" stroke="none" /><path d="M 119.79798401119884 107.00284435728193 l 32.26122191387837 11.411278830755196 a55.21993167628696,55.21993167628696 0 0,0 -0.3246819938557344,0.8933854017233056 l -32.06001565901741 -11.964912029484632" fill="#6aff28" stroke="none" /><path d="M 118.97047184881838 109.00673069616215 l 6.724249003780714 3.192514155348323 a28.443632936741665,28.443632936741665 0 0,0 -0.21379689662433915,0.44048493159515406 l -6.66829885054166 -3.3077880429087525" fill="#ff4206" stroke="none" /><path d="M 118.64920377521936 109.65438752849418 l 27.977100963295854 14.483287215852682 a52.503710684415125,52.503710684415125 0 0,0 -0.4223985823341818,0.7990189327143227 l -27.723649872736782 -14.96272116365314" fill="#88ff25" stroke="none" /><line stroke="#e1ed5e" stroke-width="0.3" x1="174.80103733775053" x2="179.2010983576182" y1="140.37084112569926" y2="142.7455964860345" /><path d="M 175.68104954172406 140.8457921977663 a86.0,86.0 0 0,1 -30.038265399797805,32.042727171017184" fill="none" id="id29" stroke="none" /><text fill="#e1ed5e" style="font-size:6.75px; font-family:Arial;" text-anchor="middle"><textPath startOffset="22.206326154141568" xlink:href="#id29">May</textPath></text><path d="M 118.30583269289576 110.29060199501025 l 6.50160037331614 3.6548668883208717 a28.458475674402166,28.458475674402166 0 0,0 -0.2437238115517759,0.4249530089817343 l -6.437724565611984 -3.766239743160921" fill="#ff4206" stroke="none" /><path d="M 118.12598468904814 110.60418214915192 l 5.195019525085891 3.039224310152744 a27.01873012133349,27.01873012133349 0 0,0 -0.2383040729913962,0.3994113335582484 l -5.141934576396267 -3.1281977375970964" fill="#ff2d04" stroke="none" /><path d="M 117.75023020441432 111.22182372390056 l 9.014164496552029 5.698819893242463 a31.66450700907056,31.66450700907056 0 0,0 -0.2952264988542532,0.45819808234249054 l -8.914733134320725 -5.8531395755064075" fill="#ff700a" stroke="none" /><path d="M 117.35343817320211 111.8261652097733 l 4.789622527955298 3.2640717500882106 a26.796089056425963,26.796089056425963 0 0,0 -0.2630343566521075,0.37892060878668915 l -4.732727264141054 -3.3460336210619195" fill="#ff2a04" stroke="none" /><path d="M 117.14729908036423 112.12312394758627 l 6.102248854020538 4.3142840671054445 a28.473318412062667,28.473318412062667 0 0,0 -0.286387629845307,0.39776736968517845 l -6.027081431799628 -4.418685042241754" fill="#ff4206" stroke="none" /><path d="M 116.0416608686014 113.55231037782055 l 4.552286610020118 3.845861196862966 a26.959359170691485,26.959359170691485 0 0,0 -0.3025321393211984,0.3519132257436292 l -4.485411961128141 -3.9236515217681234" fill="#ff2c04" stroke="none" /><path d="M 115.80600337817218 113.82643327865902 l 5.736635223011954 5.018169505424486 a28.62174578866769,28.62174578866769 0 0,0 -0.32757063371053435,0.368029079526231 l -5.649405739653082 -5.116172754691583" fill="#ff4506" stroke="none" /><path d="M 114.81725581225074 114.88116024355365 l 6.634513999571804 6.663127586965182 a30.402874307927906,30.402874307927906 0 0,0 -0.3740278107317103,0.36606493521988337 l -6.5188362364643 -6.776342625107636" fill="#ff5e08" stroke="none" /><path d="M 114.29624159901734 115.38237550388516 l 5.07753191436415 5.463289214773677 a28.458475674402166,28.458475674402166 0 0,0 -0.3616942847135348,0.3303991533970962 l -4.9827380801837515 -5.549881134757356" fill="#ff4206" stroke="none" /><path d="M 113.20401910651253 116.32954008644616 l 4.885595949293893 6.04206448480709 a28.770173165272706,28.770173165272706 0 0,0 -0.3877705689359414,0.3080683920509347 l -4.7808678876406 -6.125266790863151" fill="#ff4706" stroke="none" /><path d="M 111.45004920935366 117.60387380957326 l 5.499098907590401 8.45458752758042 a31.08564024031099,31.08564024031099 0 0,0 -0.45106477505928516,0.2878908808340226 l -5.3527523304841855 -8.547992837238251" fill="#ff6809" stroke="none" /><path d="M 111.1453310114006 117.79835938074945 l 4.115986891358332 6.572959907957302 a28.755330427612204,28.755330427612204 0 0,0 -0.42177332783447324,0.25908762652690925 l -4.00223436359155 -6.642836001312589" fill="#ff4706" stroke="none" /><line stroke="#e1ed5e" stroke-width="0.3" x1="143.8653032363475" x2="146.44561519142675" y1="172.8068346515853" y2="177.08958963109032" /><path d="M 144.38136562736335 173.6633856474863 a86.0,86.0 0 0,1 -40.68145358897372,12.25698825130547" fill="none" id="id30" stroke="none" /><text fill="#e1ed5e" style="font-size:6.75px; font-family:Arial;" text-anchor="middle"><textPath startOffset="21.466115282336833" xlink:href="#id30">June</textPath></text><path d="M 110.8373102113329 117.98757091392108 l 3.098380478608196 5.14263571776257 a27.00388738367299,27.00388738367299 0 0,0 -0.40021320766335033,0.23645301741564737 l -3.009399399916463 -5.195207307471967" fill="#ff2d04" stroke="none" /><path d="M 109.89434966115114 118.52300852407294 l 3.5211250237174676 6.591825745226092 a28.473318412062667,28.473318412062667 0 0,0 -0.43429823441159565,0.2272043100419731 l -3.4071358867793764 -6.651459474212782" fill="#ff4206" stroke="none" /><path d="M 109.57404056367764 118.69057910512821 l 3.4071358867793764 6.651459474212782 a28.473318412062667,28.473318412062667 0 0,0 -0.438144837150598,0.21969491708492553 l -3.292137141946018 -6.70912223220701" fill="#ff4206" stroke="none" /><path d="M 108.92500713936063 119.00905698771935 l 3.3717160909329165 7.181298829027675 a28.933443279538224,28.933443279538224 0 0,0 -0.4526458147607801,0.2077874926814308 l -3.247602280404717 -7.2382733920431805" fill="#ff4906" stroke="none" /><path d="M 108.59647513512805 119.15986991738527 l 2.4303852425853822 5.416855672249341 a26.93709506420073,26.93709506420073 0 0,0 -0.4246816790731204,0.1861679678615484 l -2.336782888854508 -5.457888193405343" fill="#ff2c04" stroke="none" /><path d="M 107.93186726928326 119.44442032107085 l 2.9909184979356485 7.332028442425229 a28.918600541877723,28.918600541877723 0 0,0 -0.46253087773242824,0.18405058179915826 l -2.864266544161354 -7.382425868630456" fill="#ff4906" stroke="none" /><path d="M 107.59598834532513 119.57807347666477 l 4.313848487785659 11.118611406644 a32.92613971021322,32.92613971021322 0 0,0 -0.5301575405443212,0.2004602180563957 l -4.1218207264810625 -11.191219874807027" fill="#ff820b" stroke="none" /><path d="M 106.91757812671514 119.82793768551818 l 2.6426794516359053 7.574744011560313 a29.02249970550124,29.02249970550124 0 0,0 -0.4731085750006424,0.1605041156450961 l -2.511901143698036 -7.619111114103532" fill="#ff4a06" stroke="none" /><path d="M 106.57524785965236 119.94407469862006 l 1.926333069496458 5.842963102305112 a27.152314760278006,27.152314760278006 0 0,0 -0.4451410668255199,0.142520112505956 l -1.8254706575799977 -5.8752560614707745" fill="#ff2f04" stroke="none" /><path d="M 104.48393922423573 120.51570834832081 l 2.555987973386346 11.69460627842201 a32.970667923194725,32.970667923194725 0 0,0 -0.555490658742991,0.11640846847410286 l -2.354305853213977 -11.736870727622653" fill="#ff820c" stroke="none" /><path d="M 104.13013068566511 120.58985236759428 l 1.4960716054211571 7.458333847373353 a28.606903051007187,28.606903051007187 0 0,0 -0.48363700142452715,0.09269018238877542 l -1.3674669894249256 -7.482981228110597" fill="#ff4406" stroke="none" /><path d="M 103.7750983002368 120.6578951692458 l 1.4448456093143363 7.906408458579295 a29.03734244316174,29.03734244316174 0 0,0 -0.49246092270715963,0.08562064381204258 l -1.3085357151351267 -7.930107680912344" fill="#ff4b06" stroke="none" /><path d="M 102.70371172650421 120.8252237178851 l 0.7672566320118552 5.909761330708587 a26.959359170691485,26.959359170691485 0 0,0 -0.4607130808794979,0.05578593803170287 l -0.6654161280809769 -5.922092797465641" fill="#ff2c04" stroke="none" /><path d="M 101.98527174616119 120.90594882070398 l 0.7261478115008242 7.646715877993385 a28.681116739309694,28.681116739309694 0 0,0 -0.4918889127228844,0.04244224515033295 l -0.5944145810363981 -7.6580823754223815" fill="#ff4506" stroke="none" /><path d="M 101.62511606390274 120.93702456842531 l 0.5783338001001477 7.450907200048635 a28.473318412062667,28.473318412062667 0 0,0 -0.48897804493279673,0.0337227888582351 l -0.4499929943884206 -7.459758333423156" fill="#ff4206" stroke="none" /><path d="M 101.26447882468166 120.96189622390904 l 0.4803798102954839 7.96349573826206 a28.977971492519732,28.977971492519732 0 0,0 -0.4981615934273177,0.025749264175705857 l -0.3432301484546866 -7.970584809199968" fill="#ff4a06" stroke="none" /><line stroke="#e1ed5e" stroke-width="0.3" x1="102.19456741930631" x2="102.32365962044197" y1="184.97166512339345" y2="189.96999836594603" /><path d="M 102.22038585953345 185.97133177190398 a86.0,86.0 0 0,1 -42.740103519485714,-10.115201625700543" fill="none" id="id31" stroke="none" /><text fill="#e1ed5e" style="font-size:6.75px; font-family:Arial;" text-anchor="middle"><textPath startOffset="22.20632615414155" xlink:href="#id31">July</textPath></text><path d="M 100.54218724476979 120.99299961872073 l 0.19256620838507843 7.4559893804267885 a28.458475674402166,28.458475674402166 0 0,0 -0.4898114415684707,0.008432548165926172 l -0.06419507692393978 -7.458199405871874" fill="#ff4206" stroke="none" /><path d="M 99.81925306533755 120.99922214144158 l -0.07773672499147112 9.031471320344352 a30.03180586641536,30.03180586641536 0 0,0 -0.5168907250209697,-0.008898742588173133 l 0.23318713990510867 -9.028795100477017" fill="#ff5908" stroke="none" /><path d="M 99.45781275523022 120.99299961872073 l -0.21517597215565903 8.331418979322672 a29.334197196371775,29.334197196371775 0 0,0 -0.5046594498577079,-0.017381491843960407 l 0.35855577368801006 -8.326480689052618" fill="#ff4f07" stroke="none" /><path d="M 99.09653310690486 120.98055641714683 l -0.2563849387991738 5.9538414900349546 a26.959359170691485,26.959359170691485 0 0,0 -0.4634595394545645,-0.023955564366300364 l 0.3588325466672272 -5.948546118906452" fill="#ff2c04" stroke="none" /><path d="M 98.73552117531835 120.96189622390904 l -0.5992458842848711 9.93399793954365 a30.952055601366474,30.952055601366474 0 0,0 -0.5315458990616123,-0.036658517306189194 l 0.7701545441254135 -9.922211077721174" fill="#ff6609" stroke="none" /><path d="M 98.01472825383883 120.90594882070398 l -0.9885432525648831 10.409876977867324 a31.456708681823535,31.456708681823535 0 0,0 -0.5386098600027418,-0.0558291142321294 l 1.1675857091732182 -10.391318495179434" fill="#ff6d0a" stroke="none" /><path d="M 97.65516085044442 120.86867818915974 l -0.7515970462882249 6.6890886267762575 a27.731181529037578,27.731181529037578 0 0,0 -0.473902884626449,-0.05738303957931939 l 0.8666273539660633 -6.675160058471589" fill="#ff3805" stroke="none" /><path d="M 97.2962882734958 120.8252237178851 l -1.4131663247142312 10.884853061168117 a31.9762044999411,31.9762044999411 0 0,0 -0.545226885418662,-0.07556347820032855 l 1.6003218013197242 -10.858915017475184" fill="#ff740a" stroke="none" /><path d="M 96.93821686468263 120.77559828337769 l -0.948939972790668 6.43899152827974 a27.50854046413005,27.50854046413005 0 0,0 -0.4678601951552938,-0.07307014045237176 l 1.059636031554479 -6.4217030804802615" fill="#ff3405" stroke="none" /><path d="M 96.58105272829116 120.7198165907248 l -0.9750584691727078 5.909138410430527 a26.989044646012488,26.989044646012488 0 0,0 -0.45772266712686244,-0.07958095280195814 l 1.0766301077716203 -5.891478879107563" fill="#ff2d04" stroke="none" /><path d="M 95.86986931433489 120.58985236759428 l -1.4668799643397663 7.31280538205875 a28.458475674402166,28.458475674402166 0 0,0 -0.47946912801464653,-0.10047741756648253 l 1.5925405537837996 -7.286471983765726" fill="#ff4206" stroke="none" /><path d="M 95.51606077576429 120.51570834832081 l -1.2946324700909098 5.923430458444376 a27.063258334314995,27.063258334314995 0 0,0 -0.4542501549819864,-0.10338585636236387 l 1.3964027744657588 -5.900267868504326" fill="#ff2e04" stroke="none" /><path d="M 95.16358092515715 120.4354850818985 l -1.1878824091232585 5.019199716781524 a26.157851337024383,26.157851337024383 0 0,0 -0.43726799000180133,-0.10746983326510157 l 1.2741036838682704 -4.998008625202393" fill="#ff2103" stroke="none" /><path d="M 94.11515582081647 120.15858648285463 l -1.2706937661024176 4.352772885271827 a25.534456355283307,25.534456355283307 0 0,0 -0.420862588506041,-0.1268024455284133 l 1.3454313290487045 -4.330255070637689" fill="#ff1702" stroke="none" /><path d="M 93.42475214034765 119.94407469862007 l -2.0843435022175147 6.3222411372348475 a27.65696784073507,27.65696784073507 0 0,0 -0.4508484374793045,-0.15295226840369708 l 2.192861672634045 -6.285425881933027" fill="#ff3705" stroke="none" /><path d="M 92.7421414339146 119.70592522655815 l -3.9371467424694613 10.689808654529422 a32.39180115443515,32.39180115443515 0 0,0 -0.5215539320726652,-0.19720706951392916 l 4.12057089530241 -10.62045333490886" fill="#ff7a0b" stroke="none" /><path d="M 92.40401165467489 119.57807347666478 l -2.1824261484565857 5.625034893342608 a27.033572858993992,27.033572858993992 0 0,0 -0.43238130298204436,-0.1720534437896695 l 2.2789285274804882 -5.586634605146872" fill="#ff2e04" stroke="none" /><path d="M 92.06813273071674 119.44442032107085 l -4.173830968534376 10.231855998848333 a32.05041818824361,32.05041818824361 0 0,0 -0.5090347238486134,-0.21277655585265962 l 4.349337151880452 -10.1584943999757" fill="#ff750a" stroke="none" /><path d="M 90.42595943632237 118.69057910512821 l -2.0605221003462164 4.022580754513988 a25.519613617622806,25.519613617622806 0 0,0 -0.3892459240825387,-0.20363507058149388 l 2.1294589269552504 -3.9865162649877774" fill="#ff1702" stroke="none" /><line stroke="#e1ed5e" stroke-width="0.3" x1="58.666819895761336" x2="56.23545636021788" y1="174.27360380694188" y2="178.64263932499728" /><path d="M 58.180547188652646 175.14741091055294 a86.0,86.0 0 0,1 -31.652253787137756,-30.449443065178592" fill="none" id="id32" stroke="none" /><text fill="#e1ed5e" style="font-size:6.75px; font-family:Arial;" text-anchor="middle"><textPath startOffset="22.20632615414155" xlink:href="#id32">August</textPath></text><path d="M 89.7882731507175 118.34994917583269 l -4.853848255018831 8.722116259216035 a30.981741076687477,30.981741076687477 0 0,0 -0.4637689766849806,-0.26334012858852807 l 5.003265998625019 -8.637272964832874" fill="#ff6609" stroke="none" /><path d="M 89.4739219176387 118.17145234162733 l -4.52711875117223 7.815287136209374 a30.03180586641536,30.03180586641536 0 0,0 -0.44508870841270365,-0.26296625425301934 l 4.660975330613316 -7.736202309662605" fill="#ff5908" stroke="none" /><path d="M 89.1626897886671 117.98757091392108 l -3.856698568551855 6.401278328537585 a28.473318412062667,28.473318412062667 0 0,0 -0.4176368722793175,-0.25654667767762607 l 3.966314640763481 -6.333943184031581" fill="#ff4206" stroke="none" /><path d="M 88.8546689885994 117.79835938074946 l -5.5811994498131625 8.912807836914354 a31.516079632465544,31.516079632465544 0 0,0 -0.45731061867383616,-0.291877273740692 l 5.733791870533922 -8.815416134349856" fill="#ff6e0a" stroke="none" /><path d="M 87.95078237400918 117.19931262002967 l -5.718729863955356 8.163038113570453 a30.966898339026976,30.966898339026976 0 0,0 -0.43393866297415873,-0.30960371424597277 l 5.858395854778402 -8.063390137480262" fill="#ff6609" stroke="none" /><path d="M 87.65650970185807 116.9893568818739 l -6.5476188965170365 9.012024271301469 a32.13947461420662,32.13947461420662 0 0,0 -0.4447721126542599,-0.32903177594215466 l 6.70177597958986 -8.897982546619547" fill="#ff770a" stroke="none" /><path d="M 87.36589467227662 116.77436683061367 l -5.73736318039505 7.6175266971393185 a30.536458946872422,30.536458946872422 0 0,0 -0.4171444193045588,-0.3198485527721739 l 5.867636328193096 -7.517638802539778" fill="#ff6008" stroke="none" /><path d="M 87.07902340077011 116.55440617244103 l -5.054843124754676 6.476284945067342 a29.21545529508776,29.21545529508776 0 0,0 -0.3937721770535989,-0.3128364325125936 l 5.165572794525633 -6.388314598549618" fill="#ff4d07" stroke="none" /><path d="M 86.79598089348748 116.32954008644616 l -3.812351375905547 4.714772382127404 a27.063258334314995,27.063258334314995 0 0,0 -0.3597220866675821,-0.29602678757243994 l 3.892943591117818 -4.648450475697784" fill="#ff2e04" stroke="none" /><path d="M 86.24171649860922 115.8653595955263 l -6.918849365936769 7.978468619778743 a31.56060784544705,31.56060784544705 0 0,0 -0.4073687668297507,-0.35945557277289897 l 7.055160485673108 -7.858189905233555" fill="#ff6f0a" stroke="none" /><path d="M 85.97065885151581 115.62618273729859 l -7.580703009553185 8.443550502531346 a32.347272941453646,32.347272941453646 0 0,0 -0.41111912959964764,-0.3755475773487964 l 7.724921688619687 -8.311810158595975" fill="#ff7a0b" stroke="none" /><path d="M 85.70375840098266 115.38237550388516 l -5.512027182657998 5.930794560515506 a29.096713393803746,29.096713393803746 0 0,0 -0.36393637835966675,-0.34412456150245757 l 5.6132993954084816 -5.835035362267118" fill="#ff4b07" stroke="none" /><path d="M 85.18274418774928 114.88116024355367 l -9.483113538456614 9.524012675606908 a34.4400989515844,34.4400989515844 0 0,0 -0.41649457156047426,-0.4219068020734111 l 9.645648735072621 -9.359365379552832" fill="#ff960d" stroke="none" /><path d="M 84.9287848128048 114.62390073753433 l -5.682996797527601 5.514325157362159 a28.918600541877723,28.918600541877723 0 0,0 -0.3435714942136867,-0.3602333381023175 l 5.7770748431202446 -5.415684702677341" fill="#ff4906" stroke="none" /><path d="M 84.43433777217949 114.09645910891817 l -4.461215243289821 4.040132525856745 a27.01873012133349,27.01873012133349 0 0,0 -0.30922441325725636,-0.3474169063600285 l 4.530098506195416 -3.962741449755852" fill="#ff2d04" stroke="none" /><path d="M 84.19399662182784 113.82643327865904 l -10.093573367071661 8.829437484227897 a34.4104134762634,34.4104134762634 0 0,0 -0.38614627068800417,-0.44917535053164254 l 10.244062147330443 -8.654385034534725" fill="#ff960d" stroke="none" /><path d="M 83.95833913139862 113.55231037782056 l -11.434572966887385 9.66015197269316 a35.968900930616094,35.968900930616094 0 0,0 -0.3954934811577313,-0.476397375611487 l 11.599162447938653 -9.461893339967913" fill="#ffab0f" stroke="none" /><path d="M 83.72743513129214 113.27417163493432 l -4.675319320859754 3.8138419858175068 a27.033572858993992,27.033572858993992 0 0,0 -0.2910384093608764,-0.3631151648788761 l 4.740275642275491 -3.732798987360371" fill="#ff2e04" stroke="none" /><path d="M 83.50135304334701 112.99209946851258 l -9.159868430522504 7.213071597962045 a32.65897043232418,32.65897043232418 0 0,0 -0.34399721982413245,-0.44466277791457626 l 9.282672467564705 -7.0543308259342155" fill="#ff7e0b" stroke="none" /><path d="M 83.28015986056508 112.70617746262583 l -3.610256446646744 2.7436003403219646 a25.534456355283307,25.534456355283307 0 0,0 -0.2629304046617189,-0.35223824451701297 l 3.656948118003548 -2.6810492162956434" fill="#ff1702" stroke="none" /><path d="M 82.85270091963577 112.12312394758628 l -8.623138152205783 6.096550374866985 a31.56060784544705,31.56060784544705 0 0,0 -0.3098035747939093,-0.4462951557330773 l 8.726802634161826 -5.947213956946896" fill="#ff6f0a" stroke="none" /><path d="M 82.6465618267979 111.8261652097733 l -6.310526992658131 4.300550359591255 a28.63658852632819,28.63658852632819 0 0,0 -0.2740888269248893,-0.40972560739232156 l 6.38361892499375 -4.191287837993113" fill="#ff4506" stroke="none" /><path d="M 82.05923443525364 110.91462005526583 l -8.552983654202913 5.203377001255838 a31.01142655200848,31.01142655200848 0 0,0 -0.27351948901483863,-0.4584343964004843 l 8.641284018915984 -5.0553805109692425" fill="#ff6709" stroke="none" /><line stroke="#e1ed5e" stroke-width="0.3" x1="26.63291911575756" x2="22.317208475507996" y1="142.92168965132927" y2="145.44649492493687" /><path d="M 25.769776987707644 143.4266507060508 a86.0,86.0 0 0,1 -11.730757126820373,-40.83630448921669" fill="none" id="id33" stroke="none" /><text fill="#e1ed5e" style="font-size:6.75px; font-family:Arial;" text-anchor="middle"><textPath startOffset="21.46611528233685" xlink:href="#id33">September</textPath></text><path d="M 81.87401531095188 110.60418214915194 l -6.834877722893516 3.9985848815449825 a28.918600541877723,28.918600541877723 0 0,0 -0.24766440864397576,-0.43182377216590784 l 6.90269412768987 -3.8803412635207675" fill="#ff4906" stroke="none" /><path d="M 81.51974371655577 109.97397251340807 l -15.876606087308145 8.568757396664514 a39.04134762633997,39.04134762633997 0 0,0 -0.3140922741424017,-0.5941442139133887 l 16.021750869675433 -8.294198167664998" fill="#ffd413" stroke="none" /><path d="M 81.35079622478065 109.6543875284942 l -8.033942538105451 4.1590405456123545 a30.046648604075862,30.046648604075862 0 0,0 -0.23382206111155665,-0.4613531092777934 l 8.104343269003275 -4.020133224631875" fill="#ff5908" stroke="none" /><path d="M 81.18737489456691 109.33194174019688 l -8.729288525185643 4.330135294455827 a30.744257274119448,30.744257274119448 0 0,0 -0.23108956611995202,-0.4761129526756321 l 8.802531347920313 -4.17923338581491" fill="#ff6309" stroke="none" /><path d="M 81.02952815118164 109.00673069616217 l -13.508835236907409 6.413674998032781 a35.954058192955586,35.954058192955586 0 0,0 -0.2606247754564682,-0.5613625800647339 l 13.617234629203704 -6.18019235068922" fill="#ffab0f" stroke="none" /><path d="M 80.87730276802145 108.67885076344099 l -8.913713387553194 4.0454956379945815 a30.788785487100952,30.788785487100952 0 0,0 -0.21487480968718228,-0.48448597055152637 l 8.982029281971657 -3.891461330950359" fill="#ff6409" stroke="none" /><path d="M 80.58989483394504 108.01547362559985 l -7.070775028331764 2.919902301779358 a28.64994699022264,28.64994699022264 0 0,0 -0.1843110923830238,-0.45744501605198895 l 7.119988734972176 -2.7977579178845637" fill="#ff4506" stroke="none" /><path d="M 80.45479744820244 107.68017299344265 l -13.913955478975506 5.46740740181089 a35.94960537165744,35.94960537165744 0 0,0 -0.22135664861482005,-0.5778923597676032 l 14.006006407183834 -5.227091475210129" fill="#ffab0f" stroke="none" /><path d="M 80.32549172779594 107.34259656027581 l -8.698130468321573 3.246173270198506 a30.28413240664389,30.28413240664389 0 0,0 -0.1780645537488565,-0.489957176234081 l 8.752719283075653 -3.0959682969583078" fill="#ff5c08" stroke="none" /><path d="M 80.0844068197444 106.66101706037122 l -19.69271871304813 6.586473931529753 a41.76498998704206,41.76498998704206 0 0,0 -0.22216538179911213,-0.683754738093385 l 19.80317634586349 -6.246520293458564" fill="#fff717" stroke="none" /><path d="M 79.86692584326677 105.97154293290107 l -6.3821536760241635 1.8929699649472023 a27.65696784073507,27.65696784073507 0 0,0 -0.13144614437664703,-0.45758127268919985 l 6.413792457286914 -1.7828312167534064" fill="#ff3705" stroke="none" /><path d="M 79.67330655649465 105.27499134158121 l -14.51769847425762 3.767495877489326 a35.9985864059371,35.9985864059371 0 0,0 -0.15048898037204717,-0.6011286701718876 l 14.580398768924724 -3.517039367920046" fill="#ffab0f" stroke="none" /><path d="M 79.58551787078972 104.9243191809786 l -11.636904113941407 2.807018555395861 a32.970667923194725,32.970667923194725 0 0,0 -0.12833351128254927,-0.5528574078051836 l 11.683498191154511 -2.606292490242103" fill="#ff820c" stroke="none" /><path d="M 79.50377843672027 104.57218783832718 l -10.39418468958879 2.3186793078099304 a31.64966427141006,31.64966427141006 0 0,0 -0.11403820338785546,-0.5327485209553069 l 10.432556931701088 -2.1394169674384593" fill="#ff700a" stroke="none" /><path d="M 79.35854240842038 103.8639653848113 l -17.908391466837543 3.3523506960932012 a39.21946047826599,39.21946047826599 0 0,0 -0.11850544270874096,-0.6646414566940311 l 17.963443351885473 -3.0435904886659566" fill="#ffd614" stroke="none" /><path d="M 79.18660465613746 102.79330883721812 l -22.176600410559157 2.9762608590691393 a43.3754270232065,43.3754270232065 0 0,0 -0.09294422627703675,-0.7408569320679205 l 22.224546146083043 -2.5940861727138103" fill="#f3ff19" stroke="none" /><path d="M 79.1416061653843 102.43462659150553 l -9.088844244816052 1.0608650915277376 a30.150547767699376,30.150547767699376 0 0,0 -0.0557321368011756,-0.5160103697571299 l 9.10575868311828 -0.9042583998858255" fill="#ff5b08" stroke="none" /><path d="M 79.10278846688536 102.07522291339032 l -8.086622674788739 0.8030518636455627 a29.12639886912475,29.12639886912475 0 0,0 -0.045250501052387204,-0.4993355084496621 l 8.099247772118202 -0.6637349666473344" fill="#ff4c07" stroke="none" /><path d="M 79.04373962182676 101.35467743843564 l -9.531407859597932 0.6161396618918612 a30.551301684532923,30.551301684532923 0 0,0 -0.02940729962763392,-0.5250870895579391 l 9.540601510113097 -0.4519808559984845" fill="#ff6008" stroke="none" /><path d="M 79.0095281055655 100.63252640178507 l -6.728127461980949 0.20274523963449056 a27.731181529037578,27.731181529037578 0 0,0 -0.010271018647787305,-0.4772538773698499 l 6.730620543313744 -0.08690154647451184" fill="#ff3805" stroke="none" /><line stroke="#e1ed5e" stroke-width="0.3" x1="15.007084014347285" x2="10.007500721073583" y1="101.09737516637583" y2="101.16192664675087" /><path d="M 14.007167355692545 101.11028546245083 a86.0,86.0 0 0,1 10.666146001902534,-42.60595125391555" fill="none" id="id34" stroke="none" /><text fill="#e1ed5e" style="font-size:6.75px; font-family:Arial;" text-anchor="middle"><textPath startOffset="22.20632615414155" xlink:href="#id34">October</textPath></text><path d="M 79.00175016825051 100.2711162175752 l -33.890566726917164 0.4375737185767316 a54.89339144775592,54.89339144775592 0 0,0 -0.0040665618030307615,-0.9449257484580567 l 33.8930775860097 0.1458615080850004" fill="#6eff28" stroke="none" /><path d="M 79.00019446554 99.90962569577889 l -12.875955684634738 -0.05541268152561326 a33.87607492048534,33.87607492048534 0 0,0 0.007528542882554275,-0.5830939429991633 l 12.873094134634467 0.2770428825852485" fill="#ff8f0d" stroke="none" /><path d="M 79.03285615573316 98.82574320788736 l -13.759919702722424 -0.770618987967905 a34.78148191777595,34.78148191777595 0 0,0 0.038623028681582135,-0.597481158746926 l 13.74461608303643 1.0073592109678429" fill="#ff9b0e" stroke="none" /><path d="M 79.05617556472873 98.46500227214037 l -12.960055337316522 -0.9498578235889564 a33.99481682176935,33.99481682176935 0 0,0 0.04779592924401827,-0.5832313994264 l 12.941784924253007 1.172803140223135" fill="#ff900d" stroke="none" /><path d="M 79.08570108090925 98.10471618934814 l -9.142768675785822 -0.8285308306430715 a30.180233243020382,30.180233243020382 0 0,0 0.05133927042959244,-0.5169794469791437 l 9.127152279674 0.9857858083266455" fill="#ff5b08" stroke="none" /><path d="M 79.12142395522702 97.74499172005258 l -23.957852426921157 -2.5875881322850582 a45.097184591824714,45.097184591824714 0 0,0 0.09000033746549348,-0.771067929124487 l 23.909761736452076 2.999599799734407" fill="#deff1b" stroke="none" /><path d="M 79.21141760316559 97.0276538004421 l -7.941733150304397 -1.135506976695286 a29.02249970550124,29.02249970550124 0 0,0 0.0749666460325252,-0.49393653120697095 l 7.921010610832569 1.2720426202943491" fill="#ff4a06" stroke="none" /><path d="M 79.32604984820605 96.31383870115002 l -12.617709475373351 -2.2497351501168286 a33.816703969843324,33.816703969843324 0 0,0 0.10710921830041131,-0.5721817270687515 l 12.577114533163078 2.4665949546481527" fill="#ff8e0d" stroke="none" /><path d="M 79.46518482838121 95.60439243477599 l -9.934796314034445 -2.1266062281040172 a31.1598539286135,31.1598539286135 0 0,0 0.11678359068469014,-0.5235179380785385 l 9.896718336347718 2.297302335732515" fill="#ff6909" stroke="none" /><path d="M 79.54389044137918 95.25157060432595 l -21.723622060427235 -5.0426541408883905 a43.30121333490399,43.30121333490399 0 0,0 0.1747867904623275,-0.724604088235825 l 21.63360246970409 5.415843460783612" fill="#f4ff19" stroke="none" /><path d="M 79.62865764111835 94.90015583598534 l -8.775827424482292 -2.196976099399409 a30.046648604075862,30.046648604075862 0 0,0 0.12992123372638084,-0.5006395117544469 l 8.736709858885604 2.3477120367027196" fill="#ff5908" stroke="none" /><path d="M 79.71946130924805 94.55025226153421 l -7.718979916341096 -2.074229584519138 a28.992814230180233,28.992814230180233 0 0,0 0.13366133219015808,-0.4808509275450575 l 7.6821318135845775 2.206791815483138" fill="#ff4a06" stroke="none" /><path d="M 80.14247586403 93.16781622104843 l -5.0175979822895105 -1.726355778754991 a26.306278713629403,26.306278713629403 0 0,0 0.15100670734697672,-0.42691629645181034 l 4.987138194132724 1.8124697016334124" fill="#ff2303" stroke="none" /><path d="M 80.2630227832202 92.82701384747504 l -59.210931650339425 -21.518958457574875 a84.0,84.0 0 0,0 0.5055816459934896,-1.3547074518826343 l 58.83174541584431 22.534989046486853" fill="#4dd2ff" stroke="none" /><path d="M 80.52162464483688 92.15188598940014 l -5.610157585507579 -2.260412151715943 a27.048415596654493,27.048415596654493 0 0,0 0.1777187979251139,-0.43036016570426366 l 5.5704171006962655 2.356646887873518" fill="#ff2e04" stroke="none" /><path d="M 80.803312248108 91.48605970444005 l -12.801560768460435 -5.677631760297423 a35.00412298268347,35.00412298268347 0 0,0 0.24902547001632394,-0.54869461360404 l 12.701932981480759 5.897148382743534" fill="#ff9e0e" stroke="none" /><path d="M 81.10775173730289 90.83032412892265 l -11.19647791372708 -5.434402085921794 a33.44563552833078,33.44563552833078 0 0,0 0.2558431646683778,-0.5157642082099235 l 11.101274736105289 5.626325882630678" fill="#ff890c" stroke="none" /><path d="M 81.26839172434947 90.50648371742162 l -7.155920089284328 -3.626749122912203 a29.02249970550124,29.02249970550124 0 0,0 0.22967931796036548,-0.4436673368408227 l 7.092431338163849 3.749389182013361" fill="#ff4a06" stroke="none" /><path d="M 81.43458229118936 90.18545643968196 l -10.530390654720609 -5.5668544284287185 a32.91129697255272,32.91129697255272 0 0,0 0.2690763397334729,-0.49855759191244947 l 10.433006215768664 5.747293003673641" fill="#ff810b" stroke="none" /><line stroke="#e1ed5e" stroke-width="0.3" x1="26.266209847984243" x2="21.928928074336255" y1="57.711370442889674" y2="55.22380399835377" /><path d="M 25.398753493254645 57.213857153982495 a86.0,86.0 0 0,1 29.58750427330803,-30.492523968695096" fill="none" id="id35" stroke="none" /><text fill="#e1ed5e" style="font-size:6.75px; font-family:Arial;" text-anchor="middle"><textPath startOffset="21.46611528233685" xlink:href="#id35">November</textPath></text><path d="M 81.78341655067845 89.55222093294921 l -13.525636173998546 -7.757374420970796 a36.592295912357166,36.592295912357166 0 0,0 0.31807474322475593,-0.5436928416139983 l 13.390101756303464 7.989046674938687" fill="#ffb310" stroke="none" /><path d="M 82.15384107792192 88.93136811851018 l -15.394913627798067 -9.548308548492159 a39.11556131464248,39.11556131464248 0 0,0 0.35981176206371046,-0.5691357986032305 l 15.228274269488393 9.811891994809605" fill="#ffd513" stroke="none" /><line stroke="#e1ed5e" stroke-width="0.3" x1="56.762969772571076" x2="54.21961505331055" y1="26.818313649435495" y2="22.513508569990535" /><path d="M 56.25429882871897 25.957352633546506 a86.0,86.0 0 0,1 42.265352541879196,-11.944610805530505" fill="none" id="id36" stroke="none" /><text fill="#e1ed5e" style="font-size:6.75px; font-family:Arial;" text-anchor="middle"><textPath startOffset="22.20632615414155" xlink:href="#id36">December</textPath></text></svg>