<?xml version="1.0" encoding="utf-8" ?>
<svg baseProfile="full" height="200mm" version="1.1" viewBox="0,0,200,200" width="200mm" xmlns="http://www.w3.org/2000/svg" xmlns:ev="http://www.w3.org/2001/xml-events" xmlns:xlink="http://www.w3.org/1999/xlink"><defs /><rect fill="#1a1a1a" height="200" width="200" x="0" y="0" /><text alignment-baseline="middle" fill="#e1ed5e" style="dominant-baseline: central; font-size:9.0px; font-family:Arial;" text-anchor="middle" x="100.0" y="100.0">2021</text><line stroke="#e1ed5e" stroke-width="0.3" x1="100.0" x2="100.0" y1="15.0" y2="10.0" /><path d="M 100.0 14.0 a86.0,86.0 0 0,1 42.46469731375804,11.215312516191453" fill="none" id="id37" stroke="none" /><text fill="#e1ed5e" style="font-size:6.75px; font-family:Arial;" text-anchor="middle"><textPath startOffset="22.20632615414155" xlink:href="#id37">January</textPath></text><line stroke="#e1ed5e" stroke-width="0.3" x1="143.23703022742887" x2="145.7803849466894" y1="26.81831364943548" y2="22.513508569990506" /><path d="M 143.74570117128098 25.957352633546492 a86.0,86.0 0 0,1 28.547481713284135,27.462654790039103" fill="none" id="id38" stroke="none" /><text fill="#e1ed5e" style="font-size:6.75px; font-family:Arial;" text-anchor="middle"><textPath startOffset="19.985693538727396" xlink:href="#id38">February</textPath></text><line stroke="#e1ed5e" stroke-width="0.3" x1="172.23445277983987" x2="176.4835382374775" y1="55.19839476539836" y2="52.563006222186495" /><path d="M 173.08426987136738 54.67131705675599 a86.0,86.0 0 0,1 12.851231095245387,41.99856678651699" fill="none" id="id39" stroke="none" /><text fill="#e1ed5e" style="font-size:6.75px; font-family:Arial;" text-anchor="middle"><textPath startOffset="22.20632615414155" xlink:href="#id39">March</textPath></text><line stroke="#e1ed5e" stroke-width="0.3" x1="184.98032266829074" x2="189.97916517819016" y1="98.17113171792111" y2="98.06355123074" /><path d="M 185.9800911702706 98.14961562048488 a86.0,86.0 0 0,1 -9.607161424134198,41.387399972396054" fill="none" id="id40" stroke="none" /><text fill="#e1ed5e" style="font-size:6.75px; font-family:Arial;" text-anchor="middle"><textPath startOffset="21.466115282336823" xlink:href="#id40">April</textPath></text><line stroke="#e1ed5e" stroke-width="0.3" x1="174.80103733775053" x2="179.2010983576182" y1="140.37084112569926" y2="142.7455964860345" /><path d="M 175.68104954172406 140.8457921977663 a86.0,86.0 0 0,1 -30.038265399797805,32.042727171017184" fill="none" id="id41" stroke="none" /><text fill="#e1ed5e" style="font-size:6.75px; font-family:Arial;" text-anchor="middle"><textPath startOffset="22.206326154141568" xlink:href="#id41">May</textPath></text><line stroke="#e1ed5e" stroke-width="0.3" x1="143.8653032363475" x2="146.44561519142675" y1="172.8068346515853" y2="177.08958963109032" /><path d="M 144.38136562736335 173.6633856474863 a86.0,86.0 0 0,1 -40.68145358897372,12.25698825130547" fill="none" id="id42" stroke="none" /><text fill="#e1ed5e" style="font-size:6.75px; font-family:Arial;" text-anchor="middle"><textPath startOffset="21.466115282336833" xlink:href="#id42">June</textPath></text><line stroke="#e1ed5e" stroke-width="0.3" x1="102.19456741930631" x2="102.32365962044197" y1="184.97166512339345" y2="189.96999836594603" /><path d="M 102.22038585953345 185.97133177190398 a86.0,86.0 0 0,1 -42.740103519485714,-10.115201625700543" fill="none" id="id43" stroke="none" /><text fill="#e1ed5e" style="font-size:6.75px; font-family:Arial;" text-anchor="middle"><textPath startOffset="22.20632615414155" xlink:href="#id43">July</textPath></text><line stroke="#e1ed5e" stroke-width="0.3" x1="58.666819895761336" x2="56.23545636021788" y1="174.27360380694188" y2="178.64263932499728" /><path d="M 58.180547188652646 175.14741091055294 a86.0,86.0 0 0,1 -31.652253787137756,-30.449443065178592" fill="none" id="id44" stroke="none" /><text fill="#e1ed5e" style="font-size:6.75px; font-family:Arial;" text-anchor="middle"><textPath startOffset="22.20632615414155" xlink:href="#id44">August</textPath></text><line stroke="#e1ed5e" stroke-width="0.3" x1="26.63291911575756" x2="22.317208475507996" y1="142.92168965132927" y2="145.44649492493687" /><path d="M 25.769776987707644 143.4266507060508 a86.0,86.0 0 0,1 -11.730757126820373,-40.83630448921669" fill="none" id="id45" stroke="none" /><text fill="#e1ed5e" style="font-size:6.75px; font-family:Arial;" text-anchor="middle"><textPath startOffset="21.46611528233685" xlink:href="#id45">September</textPath></text><line stroke="#e1ed5e" stroke-width="0.3" x1="15.007084014347285" x2="10.007500721073583" y1="101.09737516637583" y2="101.16192664675087" /><path d="M 14.007167355692545 101.11028546245083 a86.0,86.0 0 0,1 10.666146001902534,-42.60595125391555" fill="none" id="id46" stroke="none" /><text fill="#e1ed5e" style="font-size:6.75px; font-family:Arial;" text-anchor="middle"><textPath startOffset="22.20632615414155" xlink:href="#id46">October</textPath></text><path d="M 79.00486145842228 99.54816195383935 l -17.238213299370006 -0.37098495925917047 a38.242204835651776,38.242204835651776 0 0,0 0.019828229092399258,-0.6580023921623439 l 17.22927337582196 0.6676574988465088" fill="#ff0000" stroke="none" /><path d="M 79.01574976396665 99.18683210126434 l -23.912057081645717 -0.9266243488718733 a44.93000431591698,44.93000431591698 0 0,0 0.03659953599517454,-0.7725583589456138 l 23.892563937417044 1.3380938144404961" fill="#ff7f0b" stroke="none" /><path d="M 79.03285615573316 98.82574320788736 l -26.882948791858407 -1.5055691631308097 a47.925075194893175,47.925075194893175 0 0,0 0.05321830617209365,-0.8232636415024065 l 26.8530498946819 1.968091868886228" fill="#ffb510" stroke="none" /><path d="M 79.05617556472873 98.46500227214037 l -23.828273837862216 -1.7464024449296767 a44.89218607812616,44.89218607812616 0 0,0 0.0631173793537077,-0.7701918985746466 l 23.794681974689013 2.156308260712102" fill="#ff7e0b" stroke="none" /><path d="M 81.43458229118936 90.18545643968196 l -24.14164909055366 -12.762398903888194 a48.307472358191575,48.307472358191575 0 0,0 0.3949524643394782,-0.7317869335372219 l 23.91838852699571 13.176066820757889" fill="#ffbb11" stroke="none" /><path d="M 81.6062741919709 89.86733742301443 l -23.95660794902585 -13.197120984082963 a48.35110722972384,48.35110722972384 0 0,0 0.40785853241885184,-0.7255348190951161 l 23.72589177531457 13.607539313112863" fill="#ffbc11" stroke="none" /><line stroke="#e1ed5e" stroke-width="0.3" x1="26.266209847984243" x2="21.928928074336255" y1="57.711370442889674" y2="55.22380399835377" /><path d="M 25.398753493254645 57.213857153982495 a86.0,86.0 0 0,1 29.58750427330803,-30.492523968695096" fill="none" id="id47" stroke="none" /><text fill="#e1ed5e" style="font-size:6.75px; font-family:Arial;" text-anchor="middle"><textPath startOffset="21.46611528233685" xlink:href="#id47">November</textPath></text><path d="M 81.96595687620814 89.24020034530311 l -23.747677408479603 -14.168772328292292 a48.65332333713606,48.65332333713606 0 0,0 0.43529480075811333,-0.7155101993849495 l 23.50026680943527 14.575450300884315" fill="#ffc112" stroke="none" /><path d="M 82.15384107792192 88.93136811851018 l -27.324393905268224 -16.94726909262669 a53.15326471741492,53.15326471741492 0 0,0 0.4889401863256048,-0.7733859555273868 l 27.028626122696654 17.415102695868296" fill="#f1ff19" stroke="none" /><path d="M 83.17141714833178 87.43820079747576 l -37.36442321261819 -27.890903580661107 a67.62620105216996,67.62620105216996 0 0,0 0.7043560591119645,-0.9268500101021454 l 36.87879121328211 28.529938366644277" fill="#31ff44" stroke="none" /><path d="M 83.39014120810768 87.1503855733568 l -36.9855604057485 -28.61253647738239 a67.76119034195781,67.76119034195781 0 0,0 0.7216435101940041,-0.9164139739005382 l 36.487562814960526 29.244942845235975" fill="#32ff46" stroke="none" /><path d="M 83.6137871275137 86.86637796730984 l -21.659487504729 -17.360174954551503 a48.75804520170952,48.75804520170952 0 0,0 0.5305374691427638,-0.6503762057125488 l 21.357451543509846 17.730435329872133" fill="#ffc312" stroke="none" /><path d="M 84.31358615837235 86.03803664274999 l -22.45188376385286 -19.98368662060134 a51.057192408739056,51.057192408739056 0 0,0 0.589969163346225,-0.651458685512553 l 22.10457095989059 20.367198093383447" fill="#ffea16" stroke="none" /><path d="M 84.5562425177563 85.77008943001954 l -23.25703589635016 -21.429081705562222 a52.62428278123919,52.62428278123919 0 0,0 0.6195448743518946,-0.660887275441457 l 22.88472370002781 21.82623839788173" fill="#faff18" stroke="none" /><path d="M 84.80347519578584 85.50635884689758 l -22.18413171174327 -21.158050835017434 a51.65613829139534,51.65613829139534 0 0,0 0.6192236193827593,-0.6381643710667719 l 21.81664382865739 21.53677940163433" fill="#fff417" stroke="none" /><path d="M 86.65592168130627 83.78471172551755 l -20.005333552067512 -24.30982813698787 a52.48302899308396,52.48302899308396 0 0,0 0.7025143372855566,-0.5680510708208403 l 19.583915816217456 24.650585305072845" fill="#fcff18" stroke="none" /><path d="M 87.22198572758235 83.33499621200491 l -18.280449603772688 -23.841244453038577 a51.042965479220186,51.042965479220186 0 0,0 0.7018501240810741,-0.5286189625788452 l 17.867353325933223 24.152380005123277" fill="#ffea16" stroke="none" /><path d="M 87.80319425747018 82.90503203632743 l -18.281534675977515 -25.623286638308166 a52.47645672971896,52.47645672971896 0 0,0 0.7398402258407264,-0.5183053582755153 l 17.83776331055313 25.93417683934762" fill="#fcff18" stroke="none" /><path d="M 89.00827224532344 82.1063720568725 l -25.2730996383302 -41.14252572398961 a69.28495612795058,69.28495612795058 0 0,0 1.0215833646504497,-0.6154925466276189 l 24.561154207462103 41.571464880075844" fill="#34ff5e" stroke="none" /><line stroke="#e1ed5e" stroke-width="0.3" x1="56.762969772571076" x2="54.21961505331055" y1="26.818313649435495" y2="22.513508569990535" /><path d="M 56.25429882871897 25.957352633546506 a86.0,86.0 0 0,1 42.265352541879196,-11.944610805530505" fill="none" id="id48" stroke="none" /><text fill="#e1ed5e" style="font-size:6.75px; font-family:Arial;" text-anchor="middle"><textPath startOffset="22.20632615414155" xlink:href="#id48">December</textPath></text><path d="M 89.3179101791058 81.91981866633112 l -16.056946192159376 -27.17750025386917 a52.566470202842766,52.566470202842766 0 0,0 0.7829982686768382,-0.45356313625881295 l 15.58675119101722 27.44986754751803" fill="#fbff18" stroke="none" /><path d="M 89.94658935756843 81.56283822128135 l -30.16023192729471 -55.31148533615593 a84.0,84.0 0 0,0 1.2754198138867787,-0.6812850939930022 l 29.20366706687963 55.822449156650684" fill="#4dd2ff" stroke="none" /><path d="M 90.58718382345135 81.22770947309562 l -12.737886034683754 -25.403587285325962 a49.41823336514369,49.41823336514369 0 0,0 0.7636969838368178,-0.37474279326913934 l 12.29871778383651 25.61908523872993" fill="#ffce13" stroke="none" /><path d="M 91.23893434514133 80.91482961587045 l -13.110840552953276 -28.56075227486752 a52.42627420664617,52.42627420664617 0 0,0 0.8233867950245728,-0.3694296537785393 l 12.617271639461928 28.782202259162588" fill="#fdff18" stroke="none" /><path d="M 91.56875222667455 80.76684994638697 l -12.812706367467014 -29.228023038063302 a52.913050232976616,52.913050232976616 0 0,0 0.8373269532035925,-0.3584997030512724 l 12.307695656473111 29.44424226907736" fill="#f5ff19" stroke="none" /><path d="M 92.91201910852362 80.23233633223022 l -10.612391538408232 -29.59688941800231 a52.441989717349884,52.441989717349884 0 0,0 0.8523521349171267,-0.29736892349970334 l 10.10135739942782 29.775179194674223" fill="#fdff18" stroke="none" /><path d="M 93.25333710446033 80.11325718540243 l -10.140776651189872 -29.891373012843804 a52.564688049817384,52.564688049817384 0 0,0 0.8593504929034027,-0.28331434646828496 l 9.62474333604406 30.061501083571322" fill="#fbff18" stroke="none" /><path d="M 93.94186890950719 79.89281104454417 l -9.397643960041377 -31.191171009354775 a53.576139441844795,53.576139441844795 0 0,0 0.885306880139723,-0.2584453550258899 l 8.859346862178233 31.348314693299365" fill="#eaff1a" stroke="none" /><path d="M 94.63758080256005 79.69619591428918 l -8.025321460197457 -30.386388801996407 a52.428305855798186,52.428305855798186 0 0,0 0.8745318820281095,-0.22293764899358207 l 7.501080689484348 30.520029447158855" fill="#fdff18" stroke="none" /><path d="M 96.04723909329186 79.375362276772 l -4.862601549473148 -25.371986243866154 a46.83374885276761,46.83374885276761 0 0,0 0.7930623613850446,-0.14492707741607685 l 4.42514406698521 25.451928802632967" fill="#ffa10e" stroke="none" /><path d="M 96.75951476605007 79.25152402106235 l -6.1402686630071655 -39.31547520225382 a60.7920782271163,60.7920782271163 0 0,0 1.0352920437249973,-0.15257513532794725 l 5.462607638853519 39.415344821742735" fill="#7cff26" stroke="none" /><path d="M 98.19473922651362 79.07773832637324 l -2.709022494001171 -31.396504223472007 a52.51316043064389,52.51316043064389 0 0,0 0.9012503907997015,-0.06995437593821356 l 2.1681819138391356 31.438483861598684" fill="#fcff18" stroke="none" /><path d="M 98.55514903715128 79.0497635885617 l -2.1743956362660875 -31.528582395763774 a52.60347297797314,52.60347297797314 0 0,0 0.9038728292043849,-0.054524077427232004 l 1.6313607582220793 31.561339742571313" fill="#faff18" stroke="none" /></svg>