<?xml version="1.0" encoding="utf-8" ?>
<svg baseProfile="full" height="200mm" version="1.1" viewBox="0,0,200,200" width="200mm" xmlns="http://www.w3.org/2000/svg" xmlns:ev="http://www.w3.org/2001/xml-events" xmlns:xlink="http://www.w3.org/1999/xlink"><defs /><rect fill="#1a1a1a" height="200" width="200" x="0" y="0" /><text alignment-baseline="middle" fill="#e1ed5e" style="dominant-baseline: central; font-size:9.0px; font-family:Arial;" text-anchor="middle" x="100.0" y="100.0">2023</text><line stroke="#e1ed5e" stroke-width="0.3" x1="100.0" x2="100.0" y1="15.0" y2="10.0" /><path d="M 100.0 14.0 a86.0,86.0 0 0,1 42.46469731375804,11.215312516191453" fill="none" id="id61" stroke="none" /><text fill="#e1ed5e" style="font-size:6.75px; font-family:Arial;" text-anchor="middle"><textPath startOffset="22.20632615414155" xlink:href="#id61">January</textPath></text><path d="M 100.36148047927253 79.00311137660856 l 1.084441437817585 -62.990665870174325 a84.0,84.0 0 0,0 1.4454934592205289,0.03733283143056143 l -2.1685615322329816 62.9626662466014" fill="#4dd2ff" stroke="none" /><path d="M 101.08401301168833 79.027996857942 l 1.360469147468303 -26.320498857242086 a47.35563576154624,47.35563576154624 0 0,0 0.8137005040044738,0.04908463652123884 l -1.8133317003123888 26.293180951340542" fill="#ff6e0a" stroke="none" /><path d="M 103.2404852339499 79.25152402106235 l 4.962313902982416 -31.773158457037013 a53.15832952141195,53.15832952141195 0 0,0 0.9028582662253937,0.14897934991533174 l -5.508501375346684 31.68303284418206" fill="#ffde14" stroke="none" /><path d="M 103.95276090670814 79.375362276772 l 4.3587563147591775 -22.743032537884407 a44.15694897068096,44.15694897068096 0 0,0 0.7452717128883513,0.14949449445314306 l -4.749594437114654 22.664634087354056" fill="#ff2c04" stroke="none" /><path d="M 105.36241919743992 79.69619591428918 l 5.391539558189252 -20.414062921842437 a42.11403949471682,42.11403949471682 0 0,0 0.6992978316725601,0.19114451352474043 l -5.742135279085523 20.318231867491402" fill="#ff0000" stroke="none" /><path d="M 106.0581310904928 79.89281104454417 l 10.847296933272057 -36.002629496664795 a58.60123909437947,58.60123909437947 0 0,0 0.9633335672693475,0.29931242861810975 l -11.465415873252123 35.810576933164164" fill="#c0ff1e" stroke="none" /><path d="M 107.08798089147638 80.2323363322302 l 10.371356141741302 -28.924666012452636 a51.727859218480674,51.727859218480674 0 0,0 0.8355716236598384,0.3077480806729266 l -10.867710091173716 28.74185466397339" fill="#ffc312" stroke="none" /><path d="M 107.4271985657038 80.35727306442388 l 12.431484507612474 -32.87757199793371 a56.149346331650655,56.149346331650655 0 0,0 0.9011083327633552,0.34961603355428017 l -12.995576005375497 32.658713260488874" fill="#eaff1a" stroke="none" /><path d="M 108.09893153111575 80.62456947434976 l 14.341543922532779 -34.30990703329406 a58.1866858259138,58.1866858259138 0 0,0 0.9207800371572953,0.3942299583615145 l -14.930007717480388 34.05795754696976" fill="#c7ff1e" stroke="none" /><path d="M 108.43124777332544 80.76684994638697 l 14.922692415545344 -34.041270064453904 a58.16846535075211,58.16846535075211 0 0,0 0.9135714292392171,0.40989287033166194 l -15.506445963251341 33.77935686360571" fill="#c7ff1e" stroke="none" /><path d="M 108.76106565485865 80.91482961587045 l 16.301906846968933 -35.51219475088273 a60.0751601771749,60.0751601771749 0 0,0 0.9360905414113492,0.43950706079642243 l -16.91077559967988 35.2263227074463" fill="#a7ff21" stroke="none" /><path d="M 109.08828744355905 81.06846463323043 l 17.170891733439753 -35.768162720355704 a60.676201775262626,60.676201775262626 0 0,0 0.9376748040354937,0.46011295406325337 l -17.784037804485678 35.46729460615762" fill="#9dff22" stroke="none" /><path d="M 109.41281617654863 81.2277094730956 l 17.67312816787039 -35.24610385073176 a60.428762292196566,60.428762292196566 0 0,0 0.9258247864526817,0.47424341485086224 l -18.27721344191183 34.936667910568396" fill="#a2ff22" stroke="none" /><path d="M 109.73455568895987 81.39251694778311 l 18.32679708171155 -35.03144642606725 a60.53572725999423,60.53572725999423 0 0,0 0.9191484047076337,0.49097724566974743 l -18.927090532947496 34.71079045389575" fill="#a0ff22" stroke="none" /><path d="M 110.05341064243156 81.56283822128135 l 17.248547989580704 -31.632475887305013 a57.029514824790546,57.029514824790546 0 0,0 0.8578214259552663,0.4773766948005539 l -17.790493504608005 31.330883794944278" fill="#dbff1b" stroke="none" /><line stroke="#e1ed5e" stroke-width="0.3" x1="143.23703022742887" x2="145.7803849466894" y1="26.81831364943548" y2="22.513508569990506" /><path d="M 143.74570117128098 25.957352633546492 a86.0,86.0 0 0,1 28.547481713284135,27.462654790039103" fill="none" id="id62" stroke="none" /><text fill="#e1ed5e" style="font-size:6.75px; font-family:Arial;" text-anchor="middle"><textPath startOffset="19.985693538727396" xlink:href="#id62">February</textPath></text><line stroke="#e1ed5e" stroke-width="0.3" x1="172.23445277983987" x2="176.4835382374775" y1="55.19839476539836" y2="52.563006222186495" /><path d="M 173.08426987136738 54.67131705675599 a86.0,86.0 0 0,1 12.851231095245387,41.99856678651699" fill="none" id="id63" stroke="none" /><text fill="#e1ed5e" style="font-size:6.75px; font-family:Arial;" text-anchor="middle"><textPath startOffset="22.20632615414155" xlink:href="#id63">March</textPath></text><line stroke="#e1ed5e" stroke-width="0.3" x1="184.98032266829074" x2="189.97916517819016" y1="98.17113171792111" y2="98.06355123074" /><path d="M 185.9800911702706 98.14961562048488 a86.0,86.0 0 0,1 -9.607161424134198,41.387399972396054" fill="none" id="id64" stroke="none" /><text fill="#e1ed5e" style="font-size:6.75px; font-family:Arial;" text-anchor="middle"><textPath startOffset="21.466115282336823" xlink:href="#id64">April</textPath></text><line stroke="#e1ed5e" stroke-width="0.3" x1="174.80103733775053" x2="179.2010983576182" y1="140.37084112569926" y2="142.7455964860345" /><path d="M 175.68104954172406 140.8457921977663 a86.0,86.0 0 0,1 -30.038265399797805,32.042727171017184" fill="none" id="id65" stroke="none" /><text fill="#e1ed5e" style="font-size:6.75px; font-family:Arial;" text-anchor="middle"><textPath startOffset="22.206326154141568" xlink:href="#id65">May</textPath></text><line stroke="#e1ed5e" stroke-width="0.3" x1="143.8653032363475" x2="146.44561519142675" y1="172.8068346515853" y2="177.08958963109032" /><path d="M 144.38136562736335 173.6633856474863 a86.0,86.0 0 0,1 -40.68145358897372,12.25698825130547" fill="none" id="id66" stroke="none" /><text fill="#e1ed5e" style="font-size:6.75px; font-family:Arial;" text-anchor="middle"><textPath startOffset="21.466115282336833" xlink:href="#id66">June</textPath></text><line stroke="#e1ed5e" stroke-width="0.3" x1="102.19456741930631" x2="102.32365962044197" y1="184.97166512339345" y2="189.96999836594603" /><path d="M 102.22038585953345 185.97133177190398 a86.0,86.0 0 0,1 -42.740103519485714,-10.115201625700543" fill="none" id="id67" stroke="none" /><text fill="#e1ed5e" style="font-size:6.75px; font-family:Arial;" text-anchor="middle"><textPath startOffset="22.20632615414155" xlink:href="#id67">July</textPath></text><line stroke="#e1ed5e" stroke-width="0.3" x1="58.666819895761336" x2="56.23545636021788" y1="174.27360380694188" y2="178.64263932499728" /><path d="M 58.180547188652646 175.14741091055294 a86.0,86.0 0 0,1 -31.652253787137756,-30.449443065178592" fill="none" id="id68" stroke="none" /><text fill="#e1ed5e" style="font-size:6.75px; font-family:Arial;" text-anchor="middle"><textPath startOffset="22.20632615414155" xlink:href="#id68">August</textPath></text><line stroke="#e1ed5e" stroke-width="0.3" x1="26.63291911575756" x2="22.317208475507996" y1="142.92168965132927" y2="145.44649492493687" /><path d="M 25.769776987707644 143.4266507060508 a86.0,86.0 0 0,1 -11.730757126820373,-40.83630448921669" fill="none" id="id69" stroke="none" /><text fill="#e1ed5e" style="font-size:6.75px; font-family:Arial;" text-anchor="middle"><textPath startOffset="21.46611528233685" xlink:href="#id69">September</textPath></text><line stroke="#e1ed5e" stroke-width="0.3" x1="15.007084014347285" x2="10.007500721073583" y1="101.09737516637583" y2="101.16192664675087" /><path d="M 14.007167355692545 101.11028546245083 a86.0,86.0 0 0,1 10.666146001902534,-42.60595125391555" fill="none" id="id70" stroke="none" /><text fill="#e1ed5e" style="font-size:6.75px; font-family:Arial;" text-anchor="middle"><textPath startOffset="22.20632615414155" xlink:href="#id70">October</textPath></text><line stroke="#e1ed5e" stroke-width="0.3" x1="26.266209847984243" x2="21.928928074336255" y1="57.711370442889674" y2="55.22380399835377" /><path d="M 25.398753493254645 57.213857153982495 a86.0,86.0 0 0,1 29.58750427330803,-30.492523968695096" fill="none" id="id71" stroke="none" /><text fill="#e1ed5e" style="font-size:6.75px; font-family:Arial;" text-anchor="middle"><textPath startOffset="21.46611528233685" xlink:href="#id71">November</textPath></text><line stroke="#e1ed5e" stroke-width="0.3" x1="56.762969772571076" x2="54.21961505331055" y1="26.818313649435495" y2="22.513508569990535" /><path d="M 56.25429882871897 25.957352633546506 a86.0,86.0 0 0,1 42.265352541879196,-11.944610805530505" fill="none" id="id72" stroke="none" /><text fill="#e1ed5e" style="font-size:6.75px; font-family:Arial;" text-anchor="middle"><textPath startOffset="22.20632615414155" xlink:href="#id72">December</textPath></text></svg>