<?xml version="1.0" encoding="utf-8" ?>
<svg baseProfile="full" height="200mm" version="1.1" viewBox="0,0,200,200" width="200mm" xmlns="http://www.w3.org/2000/svg" xmlns:ev="http://www.w3.org/2001/xml-events" xmlns:xlink="http://www.w3.org/1999/xlink"><defs /><rect fill="#1a1a1a" height="200" width="200" x="0" y="0" /><text alignment-baseline="middle" fill="#e1ed5e" style="dominant-baseline: central; font-size:9.0px; font-family:Arial;" text-anchor="middle" x="100.0" y="100.0">2021</text><line stroke="#e1ed5e" stroke-width="0.3" x1="100.0" x2="100.0" y1="15.0" y2="10.0" /><path d="M 100.0 14.0 a86.0,86.0 0 0,1 42.46469731375804,11.215312516191453" fill="none" id="id37" stroke="none" /><text fill="#e1ed5e" style="font-size:6.75px; font-family:Arial;" text-anchor="middle"><textPath startOffset="22.20632615414155" xlink:href="#id37">January</textPath></text><line stroke="#e1ed5e" stroke-width="0.3" x1="143.23703022742887" x2="145.7803849466894" y1="26.81831364943548" y2="22.513508569990506" /><path d="M 143.74570117128098 25.957352633546492 a86.0,86.0 0 0,1 28.547481713284135,27.462654790039103" fill="none" id="id38" stroke="none" /><text fill="#e1ed5e" style="font-size:6.75px; font-family:Arial;" text-anchor="middle"><textPath startOffset="19.985693538727396" xlink:href="#id38">February</textPath></text><line stroke="#e1ed5e" stroke-width="0.3" x1="172.23445277983987" x2="176.4835382374775" y1="55.19839476539836" y2="52.563006222186495" /><path d="M 173.08426987136738 54.67131705675599 a86.0,86.0 0 0,1 12.851231095245387,41.99856678651699" fill="none" id="id39" stroke="none" /><text fill="#e1ed5e" style="font-size:6.75px; font-family:Arial;" text-anchor="middle"><textPath startOffset="22.20632615414155" xlink:href="#id39">March</textPath></text><line stroke="#e1ed5e" stroke-width="0.3" x1="184.98032266829074" x2="189.97916517819016" y1="98.17113171792111" y2="98.06355123074" /><path d="M 185.9800911702706 98.14961562048488 a86.0,86.0 0 0,1 -9.607161424134198,41.387399972396054" fill="none" id="id40" stroke="none" /><text fill="#e1ed5e" style="font-size:6.75px; font-family:Arial;" text-anchor="middle"><textPath startOffset="21.466115282336823" xlink:href="#id40">April</textPath></text><line stroke="#e1ed5e" stroke-width="0.3" x1="174.80103733775053" x2="179.2010983576182" y1="140.37084112569926" y2="142.7455964860345" /><path d="M 175.68104954172406 140.8457921977663 a86.0,86.0 0 0,1 -30.038265399797805,32.042727171017184" fill="none" id="id41" stroke="none" /><text fill="#e1ed5e" style="font-size:6.75px; font-family:Arial;" text-anchor="middle"><textPath startOffset="22.206326154141568" xlink:href="#id41">May</textPath></text><line stroke="#e1ed5e" stroke-width="0.3" x1="143.8653032363475" x2="146.44561519142675" y1="172.8068346515853" y2="177.08958963109032" /><path d="M 144.38136562736335 173.6633856474863 a86.0,86.0 0 0,1 -40.68145358897372,12.25698825130547" fill="none" id="id42" stroke="none" /><text fill="#e1ed5e" style="font-size:6.75px; font-family:Arial;" text-anchor="middle"><textPath startOffset="21.466115282336833" xlink:href="#id42">June</textPath></text><line stroke="#e1ed5e" stroke-width="0.3" x1="102.19456741930631" x2="102.32365962044197" y1="184.97166512339345" y2="189.96999836594603" /><path d="M 102.22038585953345 185.97133177190398 a86.0,86.0 0 0,1 -42.740103519485714,-10.115201625700543" fill="none" id="id43" stroke="none" /><text fill="#e1ed5e" style="font-size:6.75px; font-family:Arial;" text-anchor="middle"><textPath startOffset="22.20632615414155" xlink:href="#id43">July</textPath></text><line stroke="#e1ed5e" stroke-width="0.3" x1="58.666819895761336" x2="56.23545636021788" y1="174.27360380694188" y2="178.64263932499728" /><path d="M 58.180547188652646 175.14741091055294 a86.0,86.0 0 0,1 -31.652253787137756,-30.449443065178592" fill="none" id="id44" stroke="none" /><text fill="#e1ed5e" style="font-size:6.75px; font-family:Arial;" text-anchor="middle"><textPath startOffset="22.20632615414155" xlink:href="#id44">August</textPath></text><line stroke="#e1ed5e" stroke-width="0.3" x1="26.63291911575756" x2="22.317208475507996" y1="142.92168965132927" y2="145.44649492493687" /><path d="M 25.769776987707644 143.4266507060508 a86.0,86.0 0 0,1 -11.730757126820373,-40.83630448921669" fill="none" id="id45" stroke="none" /><text fill="#e1ed5e" style="font-size:6.75px; font-family:Arial;" text-anchor="middle"><textPath startOffset="21.46611528233685" xlink:href="#id45">September</textPath></text><line stroke="#e1ed5e" stroke-width="0.3" x1="15.007084014347285" x2="10.007500721073583" y1="101.09737516637583" y2="101.16192664675087" /><path d="M 14.007167355692545 101.11028546245083 a86.0,86.0 0 0,1 10.666146001902534,-42.60595125391555" fill="none" id="id46" stroke="none" /><text fill="#e1ed5e" style="font-size:6.75px; font-family:Arial;" text-anchor="middle"><textPath startOffset="22.20632615414155" xlink:href="#id46">October</textPath></text><path d="M 79.00486145842228 99.54816195383935 l -17.232568125053177 -0.37086346901377387 a38.23655835418567,38.23655835418567 0 0,0 0.01982530144404433,-0.6579052377663575 l 17.22363112915349 0.6674388542051257" fill="#ff0000" stroke="none" /><path d="M 79.01574976396665 99.18683210126434 l -21.99178339900214 -0.8522111628895933 a43.00828936866243,43.00828936866243 0 0,0 0.035034126054637516,-0.7395150292460819 l 21.973855664714005 1.2306372987586842" fill="#ff5c08" stroke="none" /><path d="M 79.03285615573316 98.82574320788736 l -25.993457774659323 -1.4557535622923192 a47.034190318062976,47.034190318062976 0 0,0 0.052229024800151444,-0.8079598965447605 l 25.964548158854758 1.9029725230900916" fill="#ffa50f" stroke="none" /><path d="M 79.05617556472873 98.46500227214037 l -22.012739598620776 -1.6133397876915032 a43.071782209582345,43.071782209582345 0 0,0 0.06055793345486292,-0.7389601757700058 l 21.981707181346415 1.9920138806692875" fill="#ff5d08" stroke="none" /><path d="M 81.43458229118936 90.18545643968196 l -23.595191233163128 -12.473515856420203 a47.68935456600448,47.68935456600448 0 0,0 0.3898988539276933,-0.7224233609545904 l 23.376984280016963 12.877820200707266" fill="#ffb110" stroke="none" /><path d="M 81.6062741919709 89.86733742301443 l -23.78957505455053 -13.105106566958352 a48.1604068343504,48.1604068343504 0 0,0 0.4062499077596653,-0.7226732553215862 l 23.560467505498433 13.512663332214723" fill="#ffb911" stroke="none" /><line stroke="#e1ed5e" stroke-width="0.3" x1="26.266209847984243" x2="21.928928074336255" y1="57.711370442889674" y2="55.22380399835377" /><path d="M 25.398753493254645 57.213857153982495 a86.0,86.0 0 0,1 29.58750427330803,-30.492523968695096" fill="none" id="id47" stroke="none" /><text fill="#e1ed5e" style="font-size:6.75px; font-family:Arial;" text-anchor="middle"><textPath startOffset="21.46611528233685" xlink:href="#id47">November</textPath></text><path d="M 81.96595687620814 89.24020034530311 l -23.632673298063207 -14.100156478865017 a48.51940515239144,48.51940515239144 0 0,0 0.43409665260403235,-0.7135407588514855 l 23.386460847172955 14.504865010923577" fill="#ffbf11" stroke="none" /><path d="M 82.15384107792192 88.93136811851018 l -27.305892665241135 -16.93579416314158 a53.1314938678856,53.1314938678856 0 0,0 0.4887399231191598,-0.7730691872281038 l 27.010325145876013 17.4033109980839" fill="#f1ff19" stroke="none" /><path d="M 83.17141714833178 87.43820079747576 l -37.33828702581051 -27.871394063223327 a67.59358630808848,67.59358630808848 0 0,0 0.7040163624817715,-0.9264030091556028 l 36.85299472310463 28.509981848259958" fill="#31ff43" stroke="none" /><path d="M 83.39014120810768 87.1503855733568 l -37.10878127480679 -28.707861830629085 a67.91697964050906,67.91697964050906 0 0,0 0.7233026359515332,-0.9185208951257418 l 36.609124558261286 29.342375119707874" fill="#32ff48" stroke="none" /><path d="M 83.6137871275137 86.86637796730984 l -21.649684752991533 -17.352318005712736 a48.74548233632453,48.74548233632453 0 0,0 0.5304007723006536,-0.6502086315473383 l 21.347785488614484 17.722410806868158" fill="#ffc312" stroke="none" /><path d="M 84.31358615837235 86.03803664274999 l -22.469445758745305 -19.999317977241812 a51.080703320567906,51.080703320567906 0 0,0 0.5902408334543291,-0.6517586704312812 l 22.12186128467493 20.38312943494265" fill="#ffeb16" stroke="none" /><path d="M 84.5562425177563 85.77008943001954 l -23.220350617094653 -21.39527981223148 a52.57439913956381,52.57439913956381 0 0,0 0.6189575950032628,-0.6602608067792048 l 22.848625700120934 21.791810035888734" fill="#fbff18" stroke="none" /><path d="M 84.80347519578584 85.50635884689758 l -22.152500102056937 -21.12788227965394 a51.6124267315505,51.6124267315505 0 0,0 0.6186996307302723,-0.6376243547004813 l 21.785536207623547 21.506070829904544" fill="#fff417" stroke="none" /><path d="M 86.65592168130627 83.78471172551755 l -20.05298917333181 -24.367737691941365 a52.55802615831704,52.55802615831704 0 0,0 0.7035182157743335,-0.5688628040770285 l 19.630567558992976 24.709306593282527" fill="#fbff18" stroke="none" /><path d="M 87.22198572758235 83.33499621200491 l -18.279855781468925 -23.84046999382053 a51.04198956323565,51.04198956323565 0 0,0 0.7018367050575435,-0.5286088556485276 l 17.86677292265299 24.151595438974912" fill="#ffea16" stroke="none" /><path d="M 87.80319425747018 82.90503203632743 l -18.31047185331417 -25.66384480820705 a52.5262796699951,52.5262796699951 0 0,0 0.7405426554193049,-0.5187974550846266 l 17.865998058311202 25.975227106055616" fill="#fbff18" stroke="none" /><path d="M 89.00827224532344 82.1063720568725 l -25.264694267019514 -41.12884247142785 a69.26889743349744,69.26889743349744 0 0,0 1.021346584604273,-0.6153498892991475 l 24.552985616197592 41.55763897018562" fill="#34ff5e" stroke="none" /><line stroke="#e1ed5e" stroke-width="0.3" x1="56.762969772571076" x2="54.21961505331055" y1="26.818313649435495" y2="22.513508569990535" /><path d="M 56.25429882871897 25.957352633546506 a86.0,86.0 0 0,1 42.265352541879196,-11.944610805530505" fill="none" id="id48" stroke="none" /><text fill="#e1ed5e" style="font-size:6.75px; font-family:Arial;" text-anchor="middle"><textPath startOffset="22.20632615414155" xlink:href="#id48">December</textPath></text><path d="M 89.3179101791058 81.91981866633112 l -16.04637043931539 -27.159600055278315 a52.54567925149827,52.54567925149827 0 0,0 0.7826885792713281,-0.4533837441660735 l 15.576485127578742 27.431787956834434" fill="#fbff18" stroke="none" /><path d="M 89.94658935756843 81.56283822128135 l -30.16023192729471 -55.31148533615593 a84.0,84.0 0 0,0 1.2754198138867787,-0.6812850939930022 l 29.20366706687963 55.822449156650684" fill="#4dd2ff" stroke="none" /><path d="M 90.58718382345135 81.22770947309562 l -12.030138214026415 -23.992102405565507 a47.83924744264863,47.83924744264863 0 0,0 0.7392957314160704,-0.3627692046797543 l 11.615371215599918 24.195626770380095" fill="#ffb310" stroke="none" /><path d="M 91.23893434514133 80.91482961587045 l -13.117076884435752 -28.574337545610124 a52.44122249790334,52.44122249790334 0 0,0 0.8236215671081433,-0.3695349891689954 l 12.623273198860835 28.79589286529565" fill="#fdff18" stroke="none" /><path d="M 91.56875222667455 80.76684994638697 l -12.721630991523995 -29.02026418447544 a52.6862056488506,52.6862056488506 0 0,0 0.8337372322625269,-0.35696277188419934 l 12.220210001471159 29.234946484322425" fill="#f9ff18" stroke="none" /><path d="M 92.91201910852362 80.23233633223022 l -10.6361302639334 -29.66309432871917 a52.51232190978398,52.51232190978398 0 0,0 0.8534952607729096,-0.29776773766492143 l 10.123952999097204 29.8417829195563" fill="#fcff18" stroke="none" /><path d="M 93.25333710446033 80.11325718540243 l -10.134385271174128 -29.87253351655187 a52.544793921059394,52.544793921059394 0 0,0 0.8590252549920152,-0.28320712064241715 l 9.618677193939703 30.04255436145352" fill="#fbff18" stroke="none" /><path d="M 93.94186890950719 79.89281104454417 l -9.254200450995308 -30.71507603918332 a53.07890462718475,53.07890462718475 0 0,0 0.8770904351504126,-0.25604674942375355 l 8.724119798121475 30.86982111752577" fill="#f2ff19" stroke="none" /><path d="M 94.63758080256005 79.69619591428918 l -8.041807012178408 -30.44880828196281 a52.492865633550224,52.492865633550224 0 0,0 0.8756087732802529,-0.22321217255173734 l 7.516489350213156 30.58272345068341" fill="#fcff18" stroke="none" /><path d="M 96.04723909329186 79.375362276772 l -4.802453572089493 -25.058147316442664 a46.5141981501402,46.5141981501402 0 0,0 0.7876512285798396,-0.14393822748301607 l 4.370407222406761 25.137101025276415" fill="#ff9c0e" stroke="none" /><path d="M 96.75951476605007 79.25152402106235 l -6.1443842646979965 -39.34182695412309 a60.81874942888632,60.81874942888632 0 0,0 1.0357462555860548,-0.15264207434924898 l 5.466269028683293 39.44176351263331" fill="#7cff26" stroke="none" /><path d="M 98.19473922651362 79.07773832637324 l -2.709813407470912 -31.40567059922123 a52.522360864790855,52.522360864790855 0 0,0 0.9014082920724963,-0.06996663211597612 l 2.1688149260360814 31.44766249352567" fill="#fbff18" stroke="none" /><path d="M 98.55514903715128 79.0497635885617 l -2.1769096183180916 -31.565034957085228 a52.64001212591958,52.64001212591958 0 0,0 0.9045006725987725,-0.0545619506553474 l 1.6332468968796958 31.59783017712088" fill="#faff18" stroke="none" /></svg>