<?xml version="1.0" encoding="utf-8" ?>
<svg baseProfile="full" height="200mm" version="1.1" viewBox="0,0,200,200" width="200mm" xmlns="http://www.w3.org/2000/svg" xmlns:ev="http://www.w3.org/2001/xml-events" xmlns:xlink="http://www.w3.org/1999/xlink"><defs /><rect fill="#1a1a1a" height="200" width="200" x="0" y="0" /><rect fill="#1a1a1a" height="200" width="180" x="10" y="0" /><text alignment-baseline="middle" fill="#e1ed5e" style="dominant-baseline: central; font-size:9.0px; font-family:Arial;" text-anchor="middle" x="100.0" y="100.0">2025</text><line stroke="#e1ed5e" stroke-width="0.3" x1="100.0" x2="100.0" y1="15.0" y2="10.0" /><path d="M 100.0 14.0 a86.0,86.0 0 0,1 42.46469731375804,11.215312516191453" fill="none" id="id49" stroke="none" /><text fill="#e1ed5e" style="font-size:6.75px; font-family:Arial;" text-anchor="middle"><textPath startOffset="22.20632615414155" xlink:href="#id49">January</textPath></text><path d="M 100.0 79.0 l 0.0 -40.08982149639195 a61.08982149639195,61.08982149639195 0 0,0 1.0515608549137603,0.009051116267852889 l -0.690080375641232 40.08388175673265" fill="#30ff34" stroke="none" /><path d="M 100.36148047927253 79.00311137660856 l 0.32949227127006003 -19.138827457705833 a40.141663501709075,40.141663501709075 0 0,0 0.6907680004041893,0.017840499486328872 l -0.6588869068691171 19.130320166077144" fill="#ffe615" stroke="none" /><path d="M 101.08401301168833 79.027996857942 l 3.2520390350649873 -62.916009426173986 a84.0,84.0 0 0,0 1.4433518046415523,0.08706692247878367 l -4.334552888546152 62.8507092343149" fill="#4dd2ff" stroke="none" /><path d="M 101.80526077348638 79.07773832637324 l 1.6455092504243456 -19.070804411965145 a40.141663501709075,40.141663501709075 0 0,0 0.6879036214792256,0.06532473773456439 l -1.9735379989938153 19.039654129715405" fill="#ffe615" stroke="none" /><path d="M 102.16513564639614 79.11191278185805 l 2.4755567274878674 -23.882866148961764 a45.010824154956325,45.010824154956325 0 0,0 0.7699707970918592,0.08651519050082197 l -2.886294228089452 23.83671500499034" fill="#dcff1b" stroke="none" /><path d="M 102.88285421437855 79.19881850522331 l 3.2846800771498987 -23.70054860779721 a44.92707937713635,44.92707937713635 0 0,0 0.7651103430479993,0.11275737589109834 l -3.692159400626554 23.640496747745143" fill="#ddff1b" stroke="none" /><path d="M 103.2404852339499 79.25152402106235 l 4.358594172439646 -27.907606410713136 a49.24591720470946,49.24591720470946 0 0,0 0.8364085897058546,0.13801458392680876 l -4.8383319682843755 27.8284455638467" fill="#aaff21" stroke="none" /><path d="M 103.59715602781102 79.31037775812273 l 2.264445923318185 -13.024325433312411 a34.21971135586783,34.21971135586783 0 0,0 0.5794617291712889,0.10589292717989227 l -2.4883027735923746 12.98341702478178" fill="#ff980e" stroke="none" /><path d="M 103.95276090670814 79.375362276772 l 8.13145820401997 -42.42816187917377 a64.20034181541968,64.20034181541968 0 0,0 1.0835598887179547,0.2173519200746341 l -8.86058450220505 42.28190600302193" fill="#34ff5a" stroke="none" /><path d="M 104.307194497241 79.44645832069477 l 3.9334026466448897 -18.76984085373696 a40.177554120774786,40.177554120774786 0 0,0 0.6756664554031915,0.14767451703078321 l -4.25591182620161 18.699352838610306" fill="#ffe715" stroke="none" /><path d="M 105.01212808612495 79.60689891045804 l 5.7764157528849855 -23.502797286826844 a45.202240789973416,45.202240789973416 0 0,0 0.7539972933450895,0.19221069852371495 l -6.1801219349151 23.399883592134262" fill="#d9ff1c" stroke="none" /><path d="M 105.71112130821622 79.79150937346287 l 12.074043586094023 -42.7233433621796 a65.39669578427649,65.39669578427649 0 0,0 1.0806330078909074,0.31546640791154223 l -12.807666811708359 42.50917862534935" fill="#35ff68" stroke="none" /><path d="M 106.0581310904928 79.89281104454417 l 5.870612030912402 -19.48480540062497 a41.34998101025447,41.34998101025447 0 0,0 0.6797437277558988,0.2111996850366776 l -6.205141131379019 19.380865580705773" fill="#fff517" stroke="none" /><path d="M 106.40334571778207 80.00007090966166 l 4.388468419193978 -13.706749731680798 a35.39213824534751,35.39213824534751 0 0,0 0.5786061436761384,0.1907573484996731 l -4.623757385112534 13.629178658921887" fill="#ffa80f" stroke="none" /><path d="M 106.74666289553966 80.11325718540242 l 8.075240453966279 -23.80291301944712 a46.13539688568173,46.13539688568173 0 0,0 0.7498495812745892,0.26160779522421795 l -8.483772039304142 23.660384371050696" fill="#ceff1d" stroke="none" /><path d="M 107.4271985657038 80.35727306442388 l 10.176080070556957 -26.912699361979044 a49.772312951006455,49.772312951006455 0 0,0 0.7987670181616323,0.3099091934565297 l -10.637830253718256 26.733547464631968" fill="#a4ff21" stroke="none" /><path d="M 107.76421540070413 80.48803036053334 l 7.170030287433386 -18.018744465766495 a40.39289783516901,40.39289783516901 0 0,0 0.6438168790237796,0.26262907023291404 l -7.479131036045554 17.892654509350002" fill="#ffe915" stroke="none" /><path d="M 108.43124777332544 80.76684994638697 l 15.644079375837979 -35.686879827924976 a59.96524876566654,59.96524876566654 0 0,0 0.9417910149287934,0.42255417584939603 l -16.25605250923355 35.412305321559046" fill="#37ff2e" stroke="none" /><path d="M 109.08828744355905 81.06846463323043 l 9.335082943830407 -19.445627572893386 a42.57026205848842,42.57026205848842 0 0,0 0.6578701528035777,0.3228140268820108 l -9.668424363644418 19.282058385876546" fill="#f9ff18" stroke="none" /><path d="M 109.41281617654863 81.2277094730956 l 12.928769351495667 -25.784272195423373 a49.84409418913786,49.84409418913786 0 0,0 0.7636578362377789,0.3911752043522703 l -13.370687675322202 25.557904465758604" fill="#a3ff22" stroke="none" /><path d="M 109.73455568895987 81.39251694778311 l 7.037495918699242 -13.452086589401768 a36.18173186479301,36.18173186479301 0 0,0 0.5493678300130331,0.2934532689801718 l -7.268008795240586 13.328954593919843" fill="#ffb310" stroke="none" /><path d="M 110.05341064243156 81.56283822128135 l 13.797189273234498 -25.302956356779283 a49.82016710976073,49.82016710976073 0 0,0 0.7493805080180528,0.41702944137498527 l -14.230693870324586 25.061711517844117" fill="#a3ff21" stroke="none" /><line stroke="#e1ed5e" stroke-width="0.3" x1="143.23703022742887" x2="145.7803849466894" y1="26.81831364943548" y2="22.513508569990506" /><path d="M 143.74570117128098 25.957352633546492 a86.0,86.0 0 0,1 28.547481713284135,27.462654790039103" fill="none" id="id50" stroke="none" /><text fill="#e1ed5e" style="font-size:6.75px; font-family:Arial;" text-anchor="middle"><textPath startOffset="19.985693538727396" xlink:href="#id50">February</textPath></text><path d="M 110.68208982089419 81.91981866633111 l 21.18364299270757 -35.85479180924879 a62.64508165590581,62.64508165590581 0 0,0 0.9236806497886693,0.5565072563643417 l -21.79768570871388 35.48483794342583" fill="#32ff47" stroke="none" /><path d="M 110.99172775467656 82.1063720568725 l 11.127402328177123 -18.1144949800252 a42.25921002658565,42.25921002658565 0 0,0 0.6165434565725649,0.3860794559439347 l -11.437564937121952 17.92027118275832" fill="#fdff18" stroke="none" /><path d="M 111.2981086023043 82.29822771554956 l 11.695022786016084 -18.32365376424978 a42.73775161412837,42.73775161412837 0 0,0 0.6167118087105715,0.4011265153403605 l -12.008701620510935 18.119628324749893" fill="#f7ff18" stroke="none" /><path d="M 111.60114157652 82.49532879139004 l 7.950725398720228 -11.996649903508045 a35.39213824534751,35.39213824534751 0 0,0 0.5049199272962288,0.34092418882440234 l -8.156050020422999 11.858013802384972" fill="#ffa80f" stroke="none" /><path d="M 111.90073688211348 82.69761687909136 l 12.793405144254532 -18.600226138903114 a43.575199392328145,43.575199392328145 0 0,0 0.6143456965000847,0.4303884206453619 l -13.111681980338266 18.377252875493816" fill="#edff1a" stroke="none" /><path d="M 112.19680574252982 82.90503203632743 l 8.636894913386573 -12.105418825775736 a35.87067983289024,35.87067983289024 0 0,0 0.49954992012868793,0.36294426183517087 l -8.84399014986905 11.95495532912389" fill="#ffaf10" stroke="none" /><path d="M 112.48926042617603 83.11751280151076 l 17.076087175933804 -23.082777787528023 a49.71249525256361,49.71249525256361 0 0,0 0.6835559147831367,0.5148401434143766 l -17.470889244475323 22.7854210546078" fill="#a4ff21" stroke="none" /><path d="M 112.77801427241765 83.33499621200491 l 7.359612094235232 -9.598358619253538 a33.095138625142425,33.095138625142425 0 0,0 0.44909700431672767,0.350527335327851 l -7.52374165371139 9.470252894702464" fill="#ff890c" stroke="none" /><path d="M 113.06298171725822 83.55741782278167 l 15.977718427812418 -20.1114074826174 a46.68571971135587,46.68571971135587 0 0,0 0.6249141498301372,0.5053037826298584 l -16.321535976207045 19.83339760272341" fill="#c8ff1d" stroke="none" /><path d="M 113.34407831869373 83.78471172551755 l 12.626954474373495 -15.343862793723135 a40.87143942271173,40.87143942271173 0 0,0 0.5393910185541219,0.4517244659838103 l -12.889203029886733 15.124237170345504" fill="#ffef16" stroke="none" /><path d="M 113.6212207817346 84.01681056812373 l 16.14836333846737 -18.94854759270861 a45.89612609191037,45.89612609191037 0 0,0 0.5968817454186083,0.517609967856628 l -16.47213888253274 18.66777263143231" fill="#d1ff1c" stroke="none" /><path d="M 113.89432698308785 84.25364557470407 l 12.720195667578144 -14.415718701927787 a40.225408279529056,40.225408279529056 0 0,0 0.5152472784123145,0.4625940939126656 l -12.966453933586449 14.194625599245825" fill="#ffe715" stroke="none" /><path d="M 114.16331599549186 84.49514656593476 l 18.792079160748496 -20.572049172771326 a48.863083934675274,48.863083934675274 0 0,0 0.6161218761606042,0.5726181365034998 l -19.143408920703948 20.245526450193186" fill="#aeff20" stroke="none" /><path d="M 114.42810811169701 84.74124197986012 l 11.59783168188633 -12.26553792237981 a37.88055450056969,37.88055450056969 0 0,0 0.4699294851738775,0.452071792412627 l -11.807244410672626 12.064083043204882" fill="#ffc912" stroke="none" /><path d="M 114.94478906791727 85.2469230424477 l 28.42801976705797 -28.063344451918226 a60.94625902012913,60.94625902012913 0 0,0 0.7305881613796781,0.7529353208142049 l -28.906872192140757 27.569844935553906" fill="#30ff32" stroke="none" /><path d="M 115.19652480421416 85.50635884689758 l 10.48404379295671 -9.99912615063066 a35.487846562856056,35.487846562856056 0 0,0 0.41779787348743835,0.4456776413221022 l -10.65460898841461 9.817179092430504" fill="#ffaa0f" stroke="none" /><path d="M 115.4437574822437 85.77008943001954 l 15.880734289090318 -14.63254191728907 a42.594189137865555,42.594189137865555 0 0,0 0.492178612719355,0.543475917047844 l -16.13025654242571 14.357013212971676" fill="#f9ff18" stroke="none" /><path d="M 115.9244219780498 86.31012108654704 l 18.243835509603976 -15.683828234876898 a45.0586783137106,45.0586783137106 0 0,0 0.5005576867088991,0.5925024170415354 l -18.51110380979999 15.367466868206257" fill="#dbff1b" stroke="none" /><path d="M 116.15771136456269 86.58626213691792 l 11.478541248543301 -9.529204965018993 a35.91853399164451,35.91853399164451 0 0,0 0.39083043711883503,0.47911190359662653 l -11.640870177738545 9.330208891814266" fill="#ffaf10" stroke="none" /><path d="M 116.60985879189232 87.15038557335679 l 32.69297120736117 -25.291730636566058 a62.33402962400304,62.33402962400304 0 0,0 0.6492358105501105,0.8543182241176537 l -33.12348295813539 24.72522763656737" fill="#31ff43" stroke="none" /><path d="M 117.04232023915458 87.72973835380427 l 19.50513940018698 -14.043461249833213 a45.034751234333456,45.034751234333456 0 0,0 0.44753258347032854,0.6330031013583478 l -19.743984603461193 13.705631648143072" fill="#dbff1b" stroke="none" /><path d="M 117.2510076193507 88.02491185347247 l 16.913587607046644 -11.740862153536199 a41.58925180402582,41.58925180402582 0 0,0 0.4031692456401024,0.5916011195049242 l -17.11318131835548 11.447983010760868" fill="#fff817" stroke="none" /><path d="M 117.65298651832404 88.62581576622439 l 16.121004968974617 -10.387096843947385 a40.177554120774786,40.177554120774786 0 0,0 0.36958070030801304,0.5845879128901202 l -16.297413265528586 10.108061283343059" fill="#ffe715" stroke="none" /><line stroke="#e1ed5e" stroke-width="0.3" x1="172.23445277983987" x2="176.4835382374775" y1="55.19839476539836" y2="52.563006222186495" /><path d="M 173.08426987136738 54.67131705675599 a86.0,86.0 0 0,1 12.851231095245387,41.99856678651699" fill="none" id="id51" stroke="none" /><text fill="#e1ed5e" style="font-size:6.75px; font-family:Arial;" text-anchor="middle"><textPath startOffset="22.20632615414155" xlink:href="#id51">March</textPath></text><path d="M 117.84615892207809 88.93136811851018 l 12.291685987538397 -7.623609539339832 a35.46391948347892,35.46391948347892 0 0,0 0.31729096199024126,0.5215429154708364 l -12.421092747814862 7.410898850661915" fill="#ffa90f" stroke="none" /><path d="M 118.03404312379186 89.2402003453031 l 23.496310268199004 -14.018797081442353 a48.36061526775541,48.36061526775541 0 0,0 0.42036964065673016,0.7185479807034394 l -23.734139583326062 13.612269688385018" fill="#b4ff20" stroke="none" /><path d="M 118.21658344932153 89.55222093294921 l 7.005047756338036 -4.017613484766018 a29.075389289783516,29.075389289783516 0 0,0 0.24526109710157065,0.4362921247750508 l -7.07316649473204 3.896437850056174" fill="#ff5107" stroke="none" /><path d="M 118.3937258080291 89.86733742301442 l 14.9531979081224 -8.237358240044681 a38.07197113558678,38.07197113558678 0 0,0 0.311269004322316,0.5767341914403753 l -15.09277501166318 7.978743065271847" fill="#ffcc13" stroke="none" /><path d="M 118.73160827565052 90.50648371742162 l 14.310151935613757 -7.252642613902937 a37.04310672236992,37.04310672236992 0 0,0 0.28336210400223927,0.571240710678552 l -14.432874052569403 7.005242314725436" fill="#ffbe11" stroke="none" /><path d="M 118.89224826269711 90.83032412892265 l 18.737981898227687 -9.09480005215286 a41.82852259779719,41.82852259779719 0 0,0 0.3088176044044473,0.6504486331838915 l -18.891757696473892 8.770909003328427" fill="#fffb17" stroke="none" /><path d="M 119.196687751892 91.48605970444005 l 46.48981369158352 -20.618739192798326 a71.85700721610331,71.85700721610331 0 0,0 0.4917390238026464,1.135001464810863 l -46.83784342522885 19.815438583400862" fill="#3effb2" stroke="none" /><path d="M 119.34039704204932 91.81776055985345 l 10.279865423603507 -4.349048270598212 a32.161982529434106,32.161982529434106 0 0,0 0.21131695694318609,0.5117207727485967 l -10.35320406743289 4.171452927396312" fill="#ff7c0b" stroke="none" /><path d="M 119.47837535516314 92.15188598940014 l 20.096090638929223 -8.097000269576336 a42.66597037599696,42.66597037599696 0 0,0 0.2686055468696709,0.6835718185757697 l -20.232489735680595 7.749879446104782" fill="#f8ff18" stroke="none" /><path d="M 119.7369772167798 92.82701384747503 l 18.13658046942603 -6.5913558663251655 a40.29718951766046,40.29718951766046 0 0,0 0.2313191451608193,0.6539703731407254 l -18.247352695396657 6.2781878667578255" fill="#ffe815" stroke="none" /><path d="M 119.85752413597 93.16781622104841 l 13.880658250001053 -4.775782090831898 a35.67926319787315,35.67926319787315 0 0,0 0.19481337497606785,0.5824671948640442 l -13.96080891874889 4.536141793045539" fill="#ffac0f" stroke="none" /><path d="M 120.08093135843002 93.85539295169968 l 43.6205419310826 -13.347542731771233 a66.61697683251045,66.61697683251045 0 0,0 0.32608725574421066,1.0994041197112074 l -43.843835083938515 12.594709225313496" fill="#37ff76" stroke="none" /><path d="M 120.18372546131832 94.20196356495316 l 21.605708398300674 -6.206519442529258 a43.4794910748196,43.4794910748196 0 0,0 0.20044714024210847,0.7211150130693444 l -21.709342309109147 5.833693126040961" fill="#eeff19" stroke="none" /><path d="M 120.28053869075195 94.5502522615342 l 25.591374781626797 -6.8768654998300836 a47.4992404101785,47.4992404101785 0 0,0 0.2053859648865979,0.7914359049159975 l -25.705957078383697 6.435333169365236" fill="#beff1f" stroke="none" /><path d="M 120.37134235888165 94.90015583598534 l 26.402280972154813 -6.609653706684385 a48.21705279149259,48.21705279149259 0 0,0 0.1946297402290984,0.8068659255613597 l -26.51214351264473 6.154202549463618" fill="#b6ff1f" stroke="none" /><path d="M 120.53481517161879 95.60439243477599 l 28.69648781768756 -6.142665414448072 a50.34656285605773,50.34656285605773 0 0,0 0.1741048972793703,0.8489973112299518 l -28.797972010881928 5.647792447054709" fill="#9dff22" stroke="none" /><path d="M 120.6074358757038 95.95851677861258 l 14.639653932967695 -2.871095467377587 a35.91853399164451,35.91853399164451 0 0,0 0.11376644222254033,0.6077448834589245 l -14.686906099100096 2.6186725064560994" fill="#ffaf10" stroke="none" /><path d="M 120.67395015179393 96.31383870115 l 48.088723017342176 -8.574209979037894 a69.84713254842384,69.84713254842384 0 0,0 0.2008542053690265,1.1854528897926508 l -48.22918908423142 7.745171300929405" fill="#3bff9b" stroke="none" /><path d="M 120.73433829027371 96.67025291283417 l 32.188229305542656 -5.169138328442967 a53.60064565134827,53.60064565134827 0 0,0 0.13845329211590776,0.9122342062928265 l -32.27243849109786 4.614305009758058" fill="#79ff26" stroke="none" /><path d="M 120.78858239683441 97.02765380044208 l 18.250212005424512 -2.609410649554923 a39.43581466008355,39.43581466008355 0 0,0 0.09029674996525976,0.6728156694497786 l -18.292424754447605 2.2948766380404804" fill="#ffdd14" stroke="none" /><path d="M 120.87857604477298 97.74499172005257 l 23.895780064915833 -2.5808839542808877 a45.034751234333456,45.034751234333456 0 0,0 0.0766081313464853,0.7714334279823045 l -23.93666532194455 2.1691749955941484" fill="#dbff1b" stroke="none" /><path d="M 120.91429891909075 98.10471618934814 l 22.53072878237787 -2.041767006803651 a43.623053551082414,43.623053551082414 0 0,0 0.061333008260263375,0.7484180515883436 l -22.56253627445763 1.6536350380075386" fill="#ecff1a" stroke="none" /><path d="M 120.94382443527127 98.46500227214037 l 11.991194582670506 -0.8788488700145833 a33.02335738701102,33.02335738701102 0 0,0 0.03667072272928887,0.5672798497760378 l -12.00454589640421 0.6723099559855101" fill="#ff880c" stroke="none" /><path d="M 120.96714384426684 98.82574320788733 l 47.93456983310456 -2.684557068029703 a69.00968477022408,69.00968477022408 0 0,0 0.05621460492201738,1.1866014621893257 l -47.973678046260076 1.8590444992173778" fill="#3aff92" stroke="none" /><line stroke="#e1ed5e" stroke-width="0.3" x1="184.98032266829074" x2="189.97916517819016" y1="98.17113171792111" y2="98.06355123074" /><path d="M 185.9800911702706 98.14961562048488 a86.0,86.0 0 0,1 -9.607161424134198,41.387399972396054" fill="none" id="id52" stroke="none" /><text fill="#e1ed5e" style="font-size:6.75px; font-family:Arial;" text-anchor="middle"><textPath startOffset="21.466115282336823" xlink:href="#id52">April</textPath></text><path d="M 120.99513854157772 99.54816195383933 l 16.159000476455454 -0.3477591342744368 a37.1627421192556,37.1627421192556 0 0,0 0.008258964426511351,0.639665896531437 l -16.162592447999682 0.06955697968253703" fill="#ffc011" stroke="none" /><path d="M 120.9764740272857 100.99374915477107 l 12.033788081357788 0.570094226464752 a33.04728446638815,33.04728446638815 0 0,0 -0.03180981963445588,0.5679856982013571 l -12.022191910835803 -0.7771516410015326" fill="#ff890c" stroke="none" /><path d="M 120.95626037817324 101.35467743843564 l 19.2331193330253 1.2432882757234052 a40.273262438283325,40.273262438283325 0 0,0 -0.050674199401605356,0.6914091899960344 l -19.208868574959357 -1.5741706022162099" fill="#ffe815" stroke="none" /><path d="M 120.89721153311464 102.0752229133903 l 7.297753894682462 0.7247122935291991 a28.33364982909229,28.33364982909229 0 0,0 -0.0523736703066894,0.4849151410954343 l -7.2841979228747205 -0.8502237565094248" fill="#ff4706" stroke="none" /><path d="M 120.8583938346157 102.4346265915055 l 14.366387094217837 1.6768687138986855 a35.46391948347892,35.46391948347892 0 0,0 -0.07599156442608804,0.6057275372431061 l -14.3353940205449 -1.9239140054291866" fill="#ffa90f" stroke="none" /><path d="M 120.81339534386255 102.79330883721812 l 17.79770589316617 2.3885814078984366 a38.95727307254083,38.95727307254083 0 0,0 -0.09491837364580735,0.6638588842049717 l -17.753953468503763 -2.6945857640838176" fill="#ffd714" stroke="none" /><path d="M 120.76222939487914 103.15116336523771 l 17.87223430440319 2.7125377012196195 a39.07690846942651,39.07690846942651 0 0,0 -0.10665808754533512,0.664160012957897 l -17.822894462496567 -3.0197769438707214" fill="#ffd914" stroke="none" /><path d="M 120.64145759157962 103.86396538481128 l 27.528476389225922 5.153176775072089 a49.00664641093809,49.00664641093809 0 0,0 -0.16235217502128058,0.8278302427007262 l -27.435694281228976 -5.6262707448407605" fill="#adff20" stroke="none" /><path d="M 120.5718875245553 104.21870165774334 l 21.739945703408697 4.458236749969933 a43.19236612229396,43.19236612229396 0 0,0 -0.15562818582900814,0.7270430729022926 l -21.659983478855246 -4.831793642288394" fill="#f2ff19" stroke="none" /><path d="M 120.49622156327973 104.57218783832717 l 20.562388628713798 4.58694803453901 a42.06779339156856,42.06779339156856 0 0,0 -0.16374274401796396,0.7053994556836287 l -20.48038531876528 -4.9402161475712045" fill="#fffe18" stroke="none" /><path d="M 120.41448212921028 104.9243191809786 l 14.014119425958068 3.3804431901324814 a35.41606532472465,35.41606532472465 0 0,0 -0.14805380131894502,0.5914013403554361 l -13.953854310344063 -3.6211723698853135" fill="#ffa90f" stroke="none" /><path d="M 120.32669344350535 105.2749913415812 l 18.747958612819115 4.865293001530557 a40.36897075579187,40.36897075579187 0 0,0 -0.18033765727158926,0.6711035099627658 l -18.66143287920575 -5.187287444668872" fill="#ffe915" stroke="none" /><path d="M 120.13307415673323 105.97154293290107 l 36.783195302303525 10.910029350064804 a59.36707178123813,59.36707178123813 0 0,0 -0.2990212756743643,0.977218830159044 l -36.589947254123025 -11.541575152775904" fill="#3dff2e" stroke="none" /><path d="M 120.02730092923936 106.31721596034902 l 13.314770329142991 4.19988094895213 a34.96145081655906,34.96145081655906 0 0,0 -0.18597452247257173,0.5723707261478673 l -13.240503555654172 -4.428450575077792" fill="#ffa20f" stroke="none" /><path d="M 119.9155931802556 106.66101706037122 l 12.310151120723889 4.117282668345677 a33.98044056209647,33.98044056209647 0 0,0 -0.19030530374719531,0.5531162926274348 l -12.237454986033462 -4.328571664062412" fill="#ff950d" stroke="none" /><path d="M 119.79798401119884 107.00284435728193 l 22.659029554784535 8.01483914571556 a45.034751234333456,45.034751234333456 0 0,0 -0.2647951994811953,0.7286026639593165 l -22.517710094298113 -8.40368960668101" fill="#dbff1b" stroke="none" /><path d="M 119.54520255179757 107.68017299344265 l 22.347448644962622 8.781299201199808 a45.010824154956325,45.010824154956325 0 0,0 -0.2895640320692768,0.718674180622515 l -22.192981998635954 -9.164672749665137" fill="#dcff1b" stroke="none" /><path d="M 119.41010516605496 108.01547362559984 l 18.610258447286647 7.685174009808879 a41.13463729586023,41.13463729586023 0 0,0 -0.2758939667681985,0.6521318396797423 l -18.475213499326138 -8.004380375154785" fill="#fff316" stroke="none" /><path d="M 119.26925614724726 108.34839909993367 l 44.03094554117479 19.076393157900092 a68.98575769084695,68.98575769084695 0 0,0 -0.48145132457913226,1.0855456374882257 l -43.69605313186439 -19.831487131881005" fill="#3aff92" stroke="none" /><path d="M 119.12269723197855 108.67885076344098 l 13.345216925089467 6.056736907642539 a35.65533611849601,35.65533611849601 0 0,0 -0.2584593905877455,0.5566985336991978 l -13.23898291766189 -6.2855555086205674" fill="#ffac0f" stroke="none" /><path d="M 118.97047184881838 109.00673069616215 l 17.518686783289738 8.317457534264442 a40.39289783516901,40.39289783516901 0 0,0 -0.303613684722666,0.6255341179315848 l -17.372919841952356 -8.617780608161302" fill="#ffe915" stroke="none" /><path d="M 118.81262510543309 109.33194174019688 l 18.444660732880937 9.149414205210116 a41.58925180402582,41.58925180402582 0 0,0 -0.3236462310670338,0.6385847182211547 l -18.284435832027633 -9.465553135133964" fill="#fff817" stroke="none" /><path d="M 118.64920377521936 109.65438752849418 l 13.92846913177701 7.210540476560506 a36.684200531712875,36.684200531712875 0 0,0 -0.2951287460765683,0.5582723654049848 l -13.802287877475548 -7.449227857051625" fill="#ffb911" stroke="none" /><line stroke="#e1ed5e" stroke-width="0.3" x1="174.80103733775053" x2="179.2010983576182" y1="140.37084112569926" y2="142.7455964860345" /><path d="M 175.68104954172406 140.8457921977663 a86.0,86.0 0 0,1 -30.038265399797805,32.042727171017184" fill="none" id="id53" stroke="none" /><text fill="#e1ed5e" style="font-size:6.75px; font-family:Arial;" text-anchor="middle"><textPath startOffset="22.206326154141568" xlink:href="#id53">May</textPath></text><path d="M 118.48025628344425 109.97397251340804 l 25.383154899003465 13.699533457933994 a49.84409418913786,49.84409418913786 0 0,0 -0.41399932743364637,0.7515290335256047 l -25.14357916211831 -14.134433009857403" fill="#a3ff22" stroke="none" /><path d="M 117.55443506779139 111.5257021239791 l 13.000815944623316 8.535935868499521 a36.552601595138626,36.552601595138626 0 0,0 -0.34985520998961844,0.5229860699562427 l -12.851957629222976 -8.758458852661573" fill="#ffb811" stroke="none" /><path d="M 117.35343817320211 111.8261652097733 l 21.40345251328288 14.586202627701772 a46.901063425750095,46.901063425750095 0 0,0 -0.460387746081678,0.6632228855712995 l -21.149203860039066 -14.95246677546009" fill="#c5ff1e" stroke="none" /><path d="M 117.14729908036423 112.12312394758627 l 15.131693662448278 10.698092856899624 a39.531522977592104,39.531522977592104 0 0,0 -0.39761221385883966,0.5522485889029504 l -14.945301656213834 -10.956975051253705" fill="#ffde14" stroke="none" /><path d="M 116.93607887273984 112.41649034213515 l 19.42213830468589 14.239116060796452 a45.08260539308773,45.08260539308773 0 0,0 -0.46421930877553824,0.6218976257400672 l -19.17415772921526 -14.571326566045833" fill="#dbff1b" stroke="none" /><path d="M 116.498646956653 112.99209946851258 l 37.79399510788172 29.761431046081878 a69.10539308773262,69.10539308773262 0 0,0 -0.7439757884545074,0.928224187603969 l -37.27610140737236 -30.407583067264095" fill="#3aff93" stroke="none" /><path d="M 116.27256486870786 113.27417163493432 l 16.13968976628582 13.165780184060381 a41.82852259779719,41.82852259779719 0 0,0 -0.45992253268450883,0.5540063186733121 l -15.910671233707767 -13.441647759847463" fill="#fffb17" stroke="none" /><path d="M 116.0416608686014 113.55231037782055 l 22.015397473866752 18.599040467244425 a49.82016710976073,49.82016710976073 0 0,0 -0.5590712168500306,0.6503261299230975 l -21.691983747445942 -18.97524369632905" fill="#a3ff21" stroke="none" /><path d="M 115.80600337817218 113.82643327865902 l 18.108169080993687 15.84027192748764 a45.0586783137106,45.0586783137106 0 0,0 -0.5156883132972704,0.5793812867637581 l -17.83282191804808 -16.149627383992264" fill="#dbff1b" stroke="none" /><path d="M 115.32070863581623 114.36230785411682 l 17.587102868117956 16.48692574594307 a45.10653247246487,45.10653247246487 0 0,0 -0.5358944924710468,0.5618832328779457 l -17.300701824267946 -16.787216095403522" fill="#daff1b" stroke="none" /><path d="M 114.81725581225074 114.88116024355365 l 33.224868331002035 33.36816182223349 a68.08849221420434,68.08849221420434 0 0,0 -0.8376507241047645,0.8198175356437535 l -32.64556765452148 -33.935129460799814" fill="#39ff87" stroke="none" /><path d="M 114.55890576462653 115.13401014063108 l 15.601197347092201 16.21747421640357 a43.50341815419674,43.50341815419674 0 0,0 -0.5441328109818989,0.5145115358410071 l -15.319728701719495 -16.4836203889905" fill="#eeff19" stroke="none" /><path d="M 114.29624159901734 115.38237550388516 l 13.13701350126185 14.135076920489988 a40.29718951766046,40.29718951766046 0 0,0 -0.512158954165845,0.46784506145890226 l -12.89175499762914 -14.359114748535474" fill="#ffe815" stroke="none" /><path d="M 114.0293411484842 115.62618273729858 l 12.843800546305042 14.305702046433048 a40.225408279529056,40.225408279529056 0 0,0 -0.51920973912481,0.45814222729641524 l -12.595648454273643 -14.524667415501753" fill="#ffe715" stroke="none" /><path d="M 113.75828350139079 115.86535959552629 l 12.595648454273643 14.524667415501753 a40.225408279529056,40.225408279529056 0 0,0 -0.5270189779277107,0.44913700642254756 l -12.343763999768885 -14.739328812147248" fill="#ffe715" stroke="none" /><path d="M 112.92097659922987 116.55440617244103 l 31.291533340292194 40.09083591286376 a71.85700721610331,71.85700721610331 0 0,0 -0.9816052869874168,0.7526530762652097 l -30.596799324811283 -40.62352833095634" fill="#3effb2" stroke="none" /><path d="M 112.63410532772338 116.77436683061366 l 9.01853435756023 11.973954598609337 a35.99031522977592,35.99031522977592 0 0,0 -0.4980631678641203,0.36845522457720936 l -8.811086219277545 -12.127419771926316" fill="#ffb010" stroke="none" /><path d="M 112.34349029814194 116.9893568818739 l 14.42261599021408 19.851027894829105 a45.53721990125332,45.53721990125332 0 0,0 -0.6381123515559413,0.45527621990141665 l -14.078776310809253 -20.096348376574742" fill="#d5ff1c" stroke="none" /><path d="M 112.04921762599082 117.19931262002967 l 13.776745029641235 19.665222424078745 a45.010824154956325,45.010824154956325 0 0,0 -0.6383887662858937,0.43908961459099555 l -13.436199378732459 -19.899452828034836" fill="#dcff1b" stroke="none" /><path d="M 111.45004920935366 117.60387380957326 l 11.278276727861279 17.339782273121255 a41.684960121534374,41.684960121534374 0 0,0 -0.6048650442847391,0.3860534894615887 l -10.97812988152961 -17.531350191406652" fill="#fffa17" stroke="none" /><line stroke="#e1ed5e" stroke-width="0.3" x1="143.8653032363475" x2="146.44561519142675" y1="172.8068346515853" y2="177.08958963109032" /><path d="M 144.38136562736335 173.6633856474863 a86.0,86.0 0 0,1 -40.68145358897372,12.25698825130547" fill="none" id="id54" stroke="none" /><text fill="#e1ed5e" style="font-size:6.75px; font-family:Arial;" text-anchor="middle"><textPath startOffset="21.466115282336833" xlink:href="#id54">June</textPath></text><path d="M 110.8373102113329 117.98757091392108 l 21.63963480291788 35.9170733307786 a62.93220660843145,62.93220660843145 0 0,0 -0.9326916496963734,0.5510506666601479 l -21.018175282193123 -36.2842425697325" fill="#32ff4b" stroke="none" /><path d="M 110.5260780823613 118.17145234162733 l 10.596038722863124 18.292227281231764 a42.139574629699965,42.139574629699965 0 0,0 -0.6307917736315399,0.35818003172202073 l -10.279598182310385 -18.471910478748413" fill="#ffff18" stroke="none" /><path d="M 110.21172684928248 118.3499491758327 l 11.757254061374809 21.127182273656217 a45.17831371059628,45.17831371059628 0 0,0 -0.6827888652373868,0.372310929778496 l -11.391842384268772 -21.326433855194484" fill="#daff1c" stroke="none" /><path d="M 109.89434966115114 118.52300852407294 l 6.927547892264386 12.968919944598726 a35.703190277250286,35.703190277250286 0 0,0 -0.5445741264109922,0.28489544477553186 l -6.703282863326898 -13.086244808318973" fill="#ffac10" stroke="none" /><path d="M 109.57404056367764 118.69057910512821 l 11.13214021484963 21.732323558811245 a45.41758450436764,45.41758450436764 0 0,0 -0.6988816645273529,0.3504337751393768 l -10.756404642639517 -21.920725174859925" fill="#d7ff1c" stroke="none" /><path d="M 109.2508944713604 118.85261126421891 l 8.911847256591585 18.161659123316092 a41.23034561336878,41.23034561336878 0 0,0 -0.6398308252080506,0.3071576785550795 l -8.597903763383302 -18.31237107837073" fill="#fff417" stroke="none" /><path d="M 108.59647513512805 119.15986991738527 l 11.866269988083133 26.44760623423349 a49.987656665400685,49.987656665400685 0 0,0 -0.7880895068676522,0.345475279995065 l -11.409259806557728 -26.64794606752301" fill="#a1ff22" stroke="none" /><path d="M 108.2653958097858 119.30500536409082 l 7.566933763573367 17.67364809348307 a40.225408279529056,40.225408279529056 0 0,0 -0.6388724625995271,0.2670487411806932 l -7.261589841476379 -17.801281877683735" fill="#ffe715" stroke="none" /><path d="M 107.93186726928326 119.44442032107085 l 9.051004637509138 22.18790765463629 a44.96296999620205,44.96296999620205 0 0,0 -0.7191482847755332,0.28616394404131656 l -8.667735276691738 -22.340418443083674" fill="#dcff1b" stroke="none" /><path d="M 107.59598834532513 119.57807347666477 l 7.559926873879414 19.485127818306132 a41.9003038359286,41.9003038359286 0 0,0 -0.6746543088628546,0.2550965317374913 l -7.223402344256285 -19.612372600150252" fill="#fffc17" stroke="none" /><path d="M 107.2578585660854 119.70592522655815 l 8.604407715167332 23.361961866578522 a45.89612609191037,45.89612609191037 0 0,0 -0.7436930453308739,0.26666186672447756 l -8.200995109206724 -23.506611274342962" fill="#d1ff1c" stroke="none" /><path d="M 106.91757812671514 119.82793768551818 l 3.6768517236376135 10.539004478117244 a32.161982529434106,32.161982529434106 0 0,0 -0.524286669931877,0.17786650411443936 l -3.494895320768509 -10.600733969129806" fill="#ff7c0b" stroke="none" /><path d="M 106.57524785965236 119.94407469862006 l 11.331252245792863 34.37001099315933 a57.18970755791872,57.18970755791872 0 0,0 -0.9375807425087018,0.3001837459272974 l -10.73795015819322 -34.55996758574634" fill="#53ff2b" stroke="none" /><path d="M 105.88484417918355 120.15858648285463 l 5.81667564615465 19.925074561955633 a41.75674135966578,41.75674135966578 0 0,0 -0.6917080400259539,0.19548360139619583 l -5.472836438024091 -20.022246956690346" fill="#fffb17" stroke="none" /><path d="M 105.53697534728816 120.25689768951611 l 4.905049372407759 17.94501096118357 a39.60330421572351,39.60330421572351 0 0,0 -0.6591301580780515,0.17408226548919628 l -4.595428771518209 -18.02678457597635" fill="#ffdf14" stroke="none" /><path d="M 105.18746579009965 120.34920634021253 l 4.749102273845507 18.629609526427004 a40.225408279529056,40.225408279529056 0 0,0 -0.6724284498281864,0.16526655286486516 l -4.427720539274109 -18.708597337605898" fill="#ffe715" stroke="none" /><path d="M 104.83641907484287 120.43548508189849 l 3.419291343646029 14.44764735281202 a35.8467527535131,35.8467527535131 0 0,0 -0.601678955014729,0.13694017126285507 l -3.170092239238438 -14.50436425765256" fill="#ffae10" stroke="none" /><path d="M 104.48393922423573 120.51570834832081 l 4.196987549612211 19.202796515167734 a40.65609570831751,40.65609570831751 0 0,0 -0.684974943168912,0.14354315922767047 l -3.865821145013921 -19.272195655121944" fill="#ffed16" stroke="none" /><path d="M 104.13013068566511 120.58985236759428 l 4.7363955964169335 23.61225188908124 a45.08260539308773,45.08260539308773 0 0,0 -0.7621802349538325,0.14607365603314998 l -4.329247746891397 -23.69028274346286" fill="#dbff1b" stroke="none" /><path d="M 103.41894727170886 120.7198165907248 l 3.924712544147372 23.784901498467796 a45.10653247246487,45.10653247246487 0 0,0 -0.7671636055305854,0.11981517766746803 l -3.5147130750082693 -23.84893498348237" fill="#daff1b" stroke="none" /><path d="M 103.06178313531738 120.77559828337769 l 1.264598997211412 8.580882314156186 a29.673566274211925,29.673566274211925 0 0,0 -0.50596455620562,0.0701220771305629 l -1.1167058498189617 -8.601378956779351" fill="#ff5a08" stroke="none" /><path d="M 102.34483914955558 120.86867818915974 l 2.953535525826475 26.285974635149365 a47.45138625142423,47.45138625142423 0 0,0 -0.8124748448518675,0.08421633967811067 l -2.500628084369005 -26.332920343283234" fill="#bfff1e" stroke="none" /><path d="M 101.62511606390274 120.93702456842531 l 3.528285597911116 45.45632394432332 a66.5930497531333,66.5930497531333 0 0,0 -1.1436158863943489,0.07887044719380061 l -2.7453069507378367 -45.51032273603341" fill="#37ff76" stroke="none" /><path d="M 101.26447882468166 120.96189622390904 l 1.1648284805413494 19.30994276152349 a40.34504367641473,40.34504367641473 0 0,0 -0.693573435598334,0.035849824342347784 l -0.8322669765295357 -19.327132392628037" fill="#ffe915" stroke="none" /><line stroke="#e1ed5e" stroke-width="0.3" x1="102.19456741930631" x2="102.32365962044197" y1="184.97166512339345" y2="189.96999836594603" /><path d="M 102.22038585953345 185.97133177190398 a86.0,86.0 0 0,1 -42.740103519485714,-10.115201625700543" fill="none" id="id55" stroke="none" /><text fill="#e1ed5e" style="font-size:6.75px; font-family:Arial;" text-anchor="middle"><textPath startOffset="22.20632615414155" xlink:href="#id55">July</textPath></text><path d="M 100.54218724476979 120.99299961872073 l 0.3283393702185483 12.713003377155419 a33.71724268894797,33.71724268894797 0 0,0 -0.5803224120694062,0.00999077660552698 l -0.10945726825647425 -12.716771631040105" fill="#ff920d" stroke="none" /><path d="M 99.81925306533755 120.99922214144158 l -0.1669146113299441 19.392179505095022 a40.39289783516901,40.39289783516901 0 0,0 -0.6952200723655843,-0.01196884402571056 l 0.5006943735881962 -19.386433183790153" fill="#ffe915" stroke="none" /><path d="M 99.45781275523022 120.99299961872073 l -0.5223159689929919 20.223601797525696 a41.23034561336878,41.23034561336878 0 0,0 -0.7093183220728951,-0.024430357210903222 l 0.8703546427405301 -20.211614641888698" fill="#fff417" stroke="none" /><path d="M 99.09653310690486 120.98055641714683 l -0.8291787873772878 19.25541761566096 a40.273262438283325,40.273262438283325 0 0,0 -0.6923394411492927,-0.03578604092452014 l 1.1605062969400695 -19.23829176797424" fill="#ffe815" stroke="none" /><path d="M 98.73552117531835 120.96189622390904 l -1.6157763029401462 26.785529755162145 a47.83421952145841,47.83421952145841 0 0,0 -0.8214667080244462,-0.05665315372714764 l 2.0766057717435222 -26.753748256918712" fill="#baff1f" stroke="none" /><path d="M 98.37488393609728 120.93702456842531 l -1.8599647772771897 23.962675099487157 a45.034751234333456,45.034751234333456 0 0,0 -0.7723581693400625,-0.06664231276434752 l 2.272167264358794 -23.927108534444145" fill="#dbff1b" stroke="none" /><path d="M 98.01472825383883 120.90594882070398 l -1.3605859726349572 14.32768121798721 a35.39213824534751,35.39213824534751 0 0,0 -0.6059932975931179,-0.06281368305262504 l 1.6070118668336686 -14.302138166478825" fill="#ffa80f" stroke="none" /><path d="M 97.65516085044442 120.86867818915974 l -1.6070118668336686 14.302138166478825 a35.39213824534751,35.39213824534751 0 0,0 -0.6048222788490162,-0.07323555498718785 l 1.8529615687340741 -14.27235708276629" fill="#ffa80f" stroke="none" /><path d="M 97.2962882734958 120.8252237178851 l -3.094430416946596 23.834717688509954 a45.034751234333456,45.034751234333456 0 0,0 -0.7678884200013514,-0.10642233799696406 l 3.504247428134778 -23.777920785020385" fill="#dbff1b" stroke="none" /><path d="M 96.93821686468263 120.77559828337769 l -2.799560538654216 18.99629808858025 a40.20148120015192,40.20148120015192 0 0,0 -0.6837393959290806,-0.10678603183323714 l 3.1261357981918136 -18.94529374939991" fill="#ffe715" stroke="none" /><path d="M 96.58105272829116 120.7198165907248 l -5.868565208692795 35.56521499497939 a57.04614508165591,57.04614508165591 0 0,0 -0.9674782497326863,-0.1682084949215736 l 6.479892429897531 -35.45892792153681" fill="#54ff2b" stroke="none" /><path d="M 95.86986931433489 120.58985236759428 l -4.68933751796271 23.37765425481317 a44.843334599316364,44.843334599316364 0 0,0 -0.7555216513912923,-0.15832690784847026 l 5.091050630783389 -23.293471366238155" fill="#deff1b" stroke="none" /><path d="M 95.16358092515715 120.4354850818985 l -7.213299546869683 30.478598525110296 a52.320546904671474,52.320546904671474 0 0,0 -0.8746169586344621,-0.2149595691074681 l 7.736869790247355 -30.3499176976888" fill="#87ff25" stroke="none" /><path d="M 94.81253420990036 120.34920634021253 l -5.307646349612013 20.820646365564965 a42.48651728066844,42.48651728066844 0 0,0 -0.7071163733927825,-0.1867558610937412 l 5.665253165816285 -20.726199155167645" fill="#faff18" stroke="none" /><path d="M 94.11515582081647 120.15858648285463 l -5.394254244762427 18.478066265237246 a40.249335358906194,40.249335358906194 0 0,0 -0.663395344279263,-0.19987557531635242 l 5.711524563481936 -18.382475320815168" fill="#ffe815" stroke="none" /><path d="M 93.76903079525671 120.05430185196036 l -7.834266445994178 25.214495359253622 a47.40353209266996,47.40353209266996 0 0,0 -0.7771440127048979,-0.24881697146905965 l 8.267131803790017 -25.075905541124854" fill="#bfff1e" stroke="none" /><path d="M 93.42475214034765 119.94407469862007 l -4.513771555762106 13.691194461737854 a35.41606532472465,35.41606532472465 0 0,0 -0.5773329095678879,-0.19586266869687985 l 4.74877419826722 -13.611468806142852" fill="#ffa90f" stroke="none" /><path d="M 93.08242187328487 119.8279376855182 l -6.34877612730995 18.197573648710485 a40.273262438283325,40.273262438283325 0 0,0 -0.6525811160653989,-0.23399237049705016 l 6.661076804005075 -18.085593737173475" fill="#ffe815" stroke="none" /><path d="M 91.40352486487194 119.15986991738527 l -1.0333400608689813 2.303113873472251 a23.524306874287884,23.524306874287884 0 0,0 -0.36802322312343194,-0.16894141133674426 l 1.0728312797598327 -2.284985391801433" fill="#ff0000" stroke="none" /><path d="M 90.7491055286396 118.85261126421891 l -8.31104856513597 16.93727760938467 a39.86650208887201,39.86650208887201 0 0,0 -0.613462112589336,-0.3076026385168452 l 8.601364585408065 -16.79170712995852" fill="#ffe315" stroke="none" /><path d="M 90.42595943632237 118.69057910512821 l -10.804884745525285 21.093450744735463 a44.69977212305355,44.69977212305355 0 0,0 -0.6817973174288854,-0.3566841327475635 l 11.166372965480667 -20.904337193043183" fill="#dfff1b" stroke="none" /><path d="M 90.10565033884886 118.52300852407294 l -9.069507370751335 16.97883823503609 a40.249335358906194,40.249335358906194 0 0,0 -0.608296232398369,-0.33169160687213894 l 9.360426415018345 -16.820205976404186" fill="#ffe815" stroke="none" /><line stroke="#e1ed5e" stroke-width="0.3" x1="58.666819895761336" x2="56.23545636021788" y1="174.27360380694188" y2="178.64263932499728" /><path d="M 58.180547188652646 175.14741091055294 a86.0,86.0 0 0,1 -31.652253787137756,-30.449443065178592" fill="none" id="id56" stroke="none" /><text fill="#e1ed5e" style="font-size:6.75px; font-family:Arial;" text-anchor="middle"><textPath startOffset="22.20632615414155" xlink:href="#id56">August</textPath></text><path d="M 89.7882731507175 118.34994917583269 l -9.325521158032572 16.757483020618963 a40.177554120774786,40.177554120774786 0 0,0 -0.6014220799978802,-0.34150315317490915 l 9.61259200495166 -16.59447670164942" fill="#ffe715" stroke="none" /><path d="M 89.1626897886671 117.98757091392108 l -19.18858344292974 31.848862742385137 a58.182681352069885,58.182681352069885 0 0,0 -0.8534036219118146,-0.5242302067933846 l 19.733966264773862 -31.513844068763376" fill="#49ff2c" stroke="none" /><path d="M 88.54995079064634 117.60387380957326 l -8.479907314181414 13.037430280542294 a36.552601595138626,36.552601595138626 0 0,0 -0.5244868422615857,-0.34760127965761023 l 8.703068855182961 -12.889530979793365" fill="#ffb811" stroke="none" /><path d="M 88.24862548938628 117.40417183066458 l -10.209369233964624 15.120411341680674 a39.24439802506646,39.24439802506646 0 0,0 -0.5566035128040517,-0.38283697148842377 l 10.468129631391566 -14.94243358082715" fill="#ffdb14" stroke="none" /><path d="M 87.95078237400918 117.19931262002967 l -13.96894675402088 19.93957530293984 a45.34580326623623,45.34580326623623 0 0,0 -0.6354300332378099,-0.45336245700140193 l 14.310104115107578 -19.696168584094217" fill="#d8ff1c" stroke="none" /><path d="M 87.65650970185807 116.9893568818739 l -9.844789071818479 13.550189689303144 a37.74895556399544,37.74895556399544 0 0,0 -0.5224006589475636,-0.38645951865350703 l 10.076574701184606 -13.37872022190987" fill="#ffc712" stroke="none" /><path d="M 87.07902340077011 116.55440617244103 l -10.342179332653616 13.25044094508905 a37.80877326243828,37.80877326243828 0 0,0 -0.5095947610229259,-0.4048528980853316 l 10.5687315863939 -13.070454132998588" fill="#ffc812" stroke="none" /><path d="M 86.79598089348748 116.32954008644616 l -12.118310737139199 14.98683388488308 a40.273262438283325,40.273262438283325 0 0,0 -0.5353081222611447,-0.4405221410294971 l 12.374488987945034 -14.776016624996402" fill="#ffe815" stroke="none" /><path d="M 86.24171649860922 115.8653595955263 l -18.89739167595129 21.791520310376317 a49.84409418913786,49.84409418913786 0 0,0 -0.643362994876673,-0.56769304044591 l 19.26969702373455 -21.46300412815812" fill="#a3ff22" stroke="none" /><path d="M 85.44109423537348 115.13401014063109 l -16.679430018608397 17.338299122375123 a45.0586783137106,45.0586783137106 0 0,0 -0.5543291280109953,-0.542527722574608 l 16.975409098995186 -17.048621296877943" fill="#dbff1b" stroke="none" /><path d="M 85.18274418774928 114.88116024355367 l -13.61578064479325 13.674503307739492 a40.29718951766046,40.29718951766046 0 0,0 -0.48732614580589373,-0.49365881282289853 l 13.849147415654679 -13.438104000935928" fill="#ffe815" stroke="none" /><path d="M 84.9287848128048 114.62390073753433 l -13.969350803019319 13.554739745519376 a40.46467907330042,40.46467907330042 0 0,0 -0.480746301397212,-0.5040605750165915 l 14.200603655795488 -13.312272053920285" fill="#ffea16" stroke="none" /><path d="M 84.19399662182784 113.82643327865904 l -14.632409128102799 12.799821920520852 a40.440751993923286,40.440751993923286 0 0,0 -0.4538174345694517,-0.5278922023173037 l 14.850569072243028 -12.546052619042017" fill="#ffea16" stroke="none" /><path d="M 83.95833913139862 113.55231037782056 l -18.432983273054884 15.572546543143229 a45.13045955184201,45.13045955184201 0 0,0 -0.4962287446268228,-0.5977394897917898 l 18.698308017575243 -15.252945796237677" fill="#daff1c" stroke="none" /><path d="M 83.72743513129214 113.27417163493432 l -13.720126854740384 11.192047485588379 a38.706038739080896,38.706038739080896 0 0,0 -0.4167020025817546,-0.5198998190826837 l 13.910746769376999 -10.954219832927436" fill="#ffd413" stroke="none" /><path d="M 83.50135304334701 112.99209946851258 l -19.691226001246495 15.50614226350201 a46.06361564755032,46.06361564755032 0 0,0 -0.48518846454882103,-0.6271714944925595 l 19.955221283013383 -15.164892774896199" fill="#cfff1d" stroke="none" /><path d="M 83.28015986056508 112.70617746262583 l -12.50654202606042 9.504297953908694 a36.70812761109001,36.70812761109001 0 0,0 -0.377986619838918,-0.5063748469648348 l 12.668289912594423 -9.28761022743455" fill="#ffba11" stroke="none" /><path d="M 82.85270091963577 112.12312394758628 l -14.506497797763512 10.256079982243998 a38.76585643752374,38.76585643752374 0 0,0 -0.3805313561482903,-0.548183799901263 l 14.680890061073935 -10.004854920155722" fill="#ffd513" stroke="none" /><path d="M 82.6465618267979 111.8261652097733 l -17.231509344412032 11.74307213860702 a41.85244967717433,41.85244967717433 0 0,0 -0.4005815436221771,-0.5988150560975902 l 17.431093993444943 -11.44472016830361" fill="#fffc17" stroke="none" /><path d="M 82.44556493220864 111.52570212397912 l -16.21101742018029 10.643655417567498 a40.39289783516901,40.39289783516901 0 0,0 -0.37660633096352153,-0.5845013889851216 l 16.391828614520858 -10.363032428660928" fill="#ffe915" stroke="none" /><path d="M 82.24976979558568 111.22182372390057 l -12.245838650329894 7.741907631775684 a35.487846562856056,35.487846562856056 0 0,0 -0.32198522058390816,-0.5191426979074276 l 12.377288510581758 -7.529968602502992" fill="#ffaa0f" stroke="none" /><path d="M 82.05923443525364 110.91462005526583 l -22.53668139209973 13.710636472765561 a47.37960501329282,47.37960501329282 0 0,0 -0.4178861404917028,-0.7004012082299874 l 22.769348408289666 -13.320673170649464" fill="#bfff1e" stroke="none" /><line stroke="#e1ed5e" stroke-width="0.3" x1="26.63291911575756" x2="22.317208475507996" y1="142.92168965132927" y2="145.44649492493687" /><path d="M 25.769776987707644 143.4266507060508 a86.0,86.0 0 0,1 -11.730757126820373,-40.83630448921669" fill="none" id="id57" stroke="none" /><text fill="#e1ed5e" style="font-size:6.75px; font-family:Arial;" text-anchor="middle"><textPath startOffset="21.46611528233685" xlink:href="#id57">September</textPath></text><path d="M 81.87401531095188 110.60418214915194 l -14.880104787458238 8.705256253472056 a38.23946069122674,38.23946069122674 0 0,0 -0.32749003207270316,-0.5710064751357187 l 15.027746815683319 -8.44782993247803" fill="#ffce13" stroke="none" /><path d="M 81.51974371655577 109.97397251340807 l -14.897206214056359 8.040165841135066 a37.92840865932396,37.92840865932396 0 0,0 -0.30513854809591884,-0.5772071385332043 l 15.033397270377163 -7.7825436875157346" fill="#ffca12" stroke="none" /><path d="M 81.18737489456691 109.33194174019688 l -21.488404863118117 10.659253620828757 a44.986897075579186,44.986897075579186 0 0,0 -0.338144533256619,-0.6966778936110183 l 21.668702652989456 -10.287786771252454" fill="#dcff1b" stroke="none" /><path d="M 81.02952815118164 109.00673069616217 l -13.130909587721792 6.234244851407349 a35.53570072161033,35.53570072161033 0 0,0 -0.25759217420058955,-0.5548306267524443 l 13.23627637876221 -6.007294157376077" fill="#ffaa0f" stroke="none" /><path d="M 80.87730276802145 108.67885076344099 l -14.260317514238459 6.472056009880892 a36.66027345233574,36.66027345233574 0 0,0 -0.25585190050614204,-0.5768784927122383 l 14.36961049947588 -6.225629180675957" fill="#ffb911" stroke="none" /><path d="M 80.73074385275274 108.34839909993369 l -14.501341077011187 6.282701411514853 a36.80383592859856,36.80383592859856 0 0,0 -0.246846865662021,-0.5834730730396924 l 14.607338923865514 -6.0321538128090015" fill="#ffbb11" stroke="none" /><path d="M 80.45479744820244 107.68017299344265 l -19.419008687999405 7.630585852960873 a41.86441321686289,41.86441321686289 0 0,0 -0.2577765766857846,-0.6729732995414943 l 19.547479544278698 -7.295188986586221" fill="#fffc17" stroke="none" /><path d="M 80.20201598880116 107.00284435728193 l -22.952277324035105 8.118565286974206 a45.34580326623623,45.34580326623623 0 0,0 -0.2539562972549467,-0.7381158741305744 l 23.08862445223328 -7.722276709754334" fill="#d8ff1c" stroke="none" /><path d="M 80.0844068197444 106.66101706037122 l -16.99595057958007 5.6845063937159654 a38.92138245347512,38.92138245347512 0 0,0 -0.20703904862920747,-0.6372006715185413 l 17.09128187922553 -5.391106822219621" fill="#ffd714" stroke="none" /><path d="M 79.97269907076064 106.31721596034903 l -22.944304311830813 7.237326982298841 a45.0586783137106,45.0586783137106 0 0,0 -0.22695246818329531,-0.7416937974049397 l 23.065483552520238 -6.841306212341853" fill="#dbff1b" stroke="none" /><path d="M 79.86692584326677 105.97154293290107 l -19.119920975659486 5.671038018883077 a40.943220660843146,40.943220660843146 0 0,0 -0.19459213769281608,-0.6774007593988441 l 19.21470575023841 -5.3410797839796365" fill="#fff016" stroke="none" /><path d="M 79.58551787078972 104.9243191809786 l -19.619767196341293 4.732620466185474 a41.18249145461451,41.18249145461451 0 0,0 -0.16029683547952087,-0.6905545718878225 l 19.69832459775137 -4.394197236949077" fill="#fff316" stroke="none" /><path d="M 79.50377843672027 104.57218783832718 l -29.64673749477815 6.613436149741381 a51.375427269274596,51.375427269274596 0 0,0 -0.18511290906058295,-0.8647858838704068 l 29.756184442563175 -6.102136446454811" fill="#92ff23" stroke="none" /><path d="M 79.4281124754447 104.21870165774334 l -15.481654056174065 3.1748413728896434 a36.80383592859856,36.80383592859856 0 0,0 -0.12192596820500842,-0.6216978850911213 l 15.53400995735474 -2.9078797607305673" fill="#ffbb11" stroke="none" /><path d="M 79.35854240842038 103.8639653848113 l -33.361079673743674 6.245007480085252 a54.94056209646791,54.94056209646791 0 0,0 -0.16600829166217188,-0.9310626606814499 l 33.46363440774503 -5.669826068670589" fill="#6bff28" stroke="none" /><path d="M 79.29508885075956 103.50808413554451 l -23.72060937397789 4.019041319737947 a45.0586783137106,45.0586783137106 0 0,0 -0.12298497103527835,-0.7658275320350131 l 23.78627609937446 -3.61013455800972" fill="#dbff1b" stroke="none" /><path d="M 79.23777060512086 103.15116336523772 l -14.796932571018123 2.2457873356887914 a35.966388150398785,35.966388150398785 0 0,0 -0.0876311610105001,-0.6128921360062224 l 14.833397783045221 -1.9907497277021684" fill="#ffb010" stroke="none" /><path d="M 79.18660465613746 102.79330883721812 l -21.473447949716146 2.881892691341828 a42.66597037599696,42.66597037599696 0 0,0 -0.09142401302088339,-0.7287393366652137 l 21.51987347198388 -2.511835600389206" fill="#f8ff18" stroke="none" /><path d="M 79.10278846688536 102.07522291339032 l -21.488492300003006 2.133940766427754 a42.594189137865555,42.594189137865555 0 0,0 -0.06617393413683219,-0.7302238490149573 l 21.522040830416913 -1.7637355288642307" fill="#f9ff18" stroke="none" /><path d="M 79.07016306316243 101.71520430193888 l -30.4647170757425 2.4965896267302545 a51.56684390429169,51.56684390429169 0 0,0 -0.06488445117954418,-0.8852967854083533 l 30.50317808558638 -1.9718197048251407" fill="#90ff24" stroke="none" /><line stroke="#e1ed5e" stroke-width="0.3" x1="15.007084014347285" x2="10.007500721073583" y1="101.09737516637583" y2="101.16192664675087" /><path d="M 14.007167355692545 101.11028546245083 a86.0,86.0 0 0,1 10.666146001902534,-42.60595125391555" fill="none" id="id58" stroke="none" /><text fill="#e1ed5e" style="font-size:6.75px; font-family:Arial;" text-anchor="middle"><textPath startOffset="22.20632615414155" xlink:href="#id58">October</textPath></text><path d="M 79.00019446554 99.90962569577889 l -14.559492974993061 -0.06265791582060579 a35.55962780098747,35.55962780098747 0 0,0 0.007902691897328225,-0.6120721965200858 l 14.556257275978016 0.31326637040116356" fill="#ffaa0f" stroke="none" /><path d="M 79.08570108090925 98.10471618934814 l -28.726381329620864 -2.6032259404566775 a49.84409418913786,49.84409418913786 0 0,0 0.08478925296198704,-0.8538162061764766 l 28.677314950976648 3.097317677337584" fill="#a3ff22" stroke="none" /><path d="M 79.12142395522702 97.74499172005258 l -22.397090026001255 -2.419016667949677 a43.52734523357387,43.52734523357387 0 0,0 0.08686741302047607,-0.7442269457242943 l 22.352132259977193 2.804187351998833" fill="#eeff19" stroke="none" /><path d="M 79.16333360222342 97.38593545837743 l -23.89529593166972 -2.9977849918075683 a45.08260539308773,45.08260539308773 0 0,0 0.10322628762840641,-0.7691557430609619 l 23.840153644983484 3.4086590769331897" fill="#dbff1b" stroke="none" /><path d="M 79.21141760316559 97.0276538004421 l -21.968944367334508 -3.141114052514191 a43.19236612229396,43.19236612229396 0 0,0 0.11156815764506602,-0.7350947614282665 l 21.91162031625014 3.5188079263345498" fill="#f2ff19" stroke="none" /><line stroke="#e1ed5e" stroke-width="0.3" x1="26.266209847984243" x2="21.928928074336255" y1="57.711370442889674" y2="55.22380399835377" /><path d="M 25.398753493254645 57.213857153982495 a86.0,86.0 0 0,1 29.58750427330803,-30.492523968695096" fill="none" id="id59" stroke="none" /><text fill="#e1ed5e" style="font-size:6.75px; font-family:Arial;" text-anchor="middle"><textPath startOffset="21.46611528233685" xlink:href="#id59">November</textPath></text><line stroke="#e1ed5e" stroke-width="0.3" x1="56.762969772571076" x2="54.21961505331055" y1="26.818313649435495" y2="22.513508569990535" /><path d="M 56.25429882871897 25.957352633546506 a86.0,86.0 0 0,1 42.265352541879196,-11.944610805530505" fill="none" id="id60" stroke="none" /><text fill="#e1ed5e" style="font-size:6.75px; font-family:Arial;" text-anchor="middle"><textPath startOffset="22.20632615414155" xlink:href="#id60">December</textPath></text></svg>