<?xml version="1.0" encoding="utf-8" ?>
<svg baseProfile="full" height="200mm" version="1.1" viewBox="0,0,200,200" width="200mm" xmlns="http://www.w3.org/2000/svg" xmlns:ev="http://www.w3.org/2001/xml-events" xmlns:xlink="http://www.w3.org/1999/xlink"><defs /><rect fill="#1a1a1a" height="200" width="200" x="0" y="0" /><text alignment-baseline="middle" fill="#e1ed5e" style="dominant-baseline: central; font-size:9.0px; font-family:Arial;" text-anchor="middle" x="100.0" y="100.0">2023</text><line stroke="#e1ed5e" stroke-width="0.3" x1="100.0" x2="100.0" y1="15.0" y2="10.0" /><path d="M 100.0 14.0 a86.0,86.0 0 0,1 42.46469731375804,11.215312516191453" fill="none" id="id61" stroke="none" /><text fill="#e1ed5e" style="font-size:6.75px; font-family:Arial;" text-anchor="middle"><textPath startOffset="22.20632615414155" xlink:href="#id61">January</textPath></text><path d="M 100.36148047927253 79.00311137660856 l 0.9170779567557565 -53.26922149633048 a74.27711507583612,74.27711507583612 0 0,0 1.2781795715701387,0.03301160733660242 l -1.833884163520763 53.24554309685152" fill="#3cffa8" stroke="none" /><path d="M 101.08401301168833 79.027996857942 l 1.1505058940760862 -22.258416610646023 a43.28813078356699,43.28813078356699 0 0,0 0.7438095438812018,0.04486862294266995 l -1.5334774867968999 22.23531471832305" fill="#ff5708" stroke="none" /><path d="M 103.2404852339499 79.25152402106235 l 4.196472521454217 -26.86955903870376 a48.19528607236385,48.19528607236385 0 0,0 0.8185643306568584,0.13507012828821294 l -4.658366058249951 26.79334264747592" fill="#ffb110" stroke="none" /><path d="M 103.95276090670814 79.375362276772 l 3.6860628852214616 -19.23306605864052 a40.58310214470213,40.58310214470213 0 0,0 0.6849530765766277,0.13739514345728018 l -4.016582371265215 19.166766959106035" fill="#ff2203" stroke="none" /><path d="M 105.36241919743992 79.69619591428918 l 4.559455134564626 -17.263529832577127 a38.85547796628217,38.85547796628217 0 0,0 0.6451898658125804,0.17635476251495635 l -4.855942889600917 17.182488529235876" fill="#ff0000" stroke="none" /><path d="M 106.0581310904928 79.89281104454417 l 9.173217253582534 -30.446289440103207 a52.79818320992513,52.79818320992513 0 0,0 0.8679383399221675,0.2696726671211684 l -9.695940966215419 30.283876638099517" fill="#feff18" stroke="none" /><path d="M 107.08798089147638 80.2323363322302 l 8.770729121524303 -24.46067872500897 a46.98558240662042,46.98558240662042 0 0,0 0.7589685707711776,0.27953452981427607 l -9.190480018068056 24.30608092738837" fill="#ff9b0e" stroke="none" /><path d="M 107.4271985657038 80.35727306442388 l 10.512914772627678 -27.803526773777794 a50.724694751615395,50.724694751615395 0 0,0 0.8140512419784487,0.3158392348427905 l -10.989949179605793 27.618444835044457" fill="#ffdd14" stroke="none" /><path d="M 108.09893153111575 80.62456947434976 l 12.128191840094237 -29.014807384984866 a52.44760857200275,52.44760857200275 0 0,0 0.8299615330253526,0.35534621451653947 l -12.625837130909904 28.801741642505537" fill="#fffa17" stroke="none" /><path d="M 108.43124777332544 80.76684994638697 l 12.619650810544698 -28.787629564309928 a52.43220009022615,52.43220009022615 0 0,0 0.8234798646611563,0.36947141141156026 l -13.113312793672636 28.566137822381837" fill="#fffa17" stroke="none" /><path d="M 108.76106565485865 80.91482961587045 l 13.786009000659119 -30.03154422759178 a54.04463183120755,54.04463183120755 0 0,0 0.8421229094029724,0.39538799760010584 l -14.300910121361689 29.789791247351673" fill="#e9ff1a" stroke="none" /><path d="M 109.08828744355905 81.06846463323043 l 14.520882140272905 -30.248008274660677 a54.55291377385334,54.55291377385334 0 0,0 0.8430470470437041,0.41367952467121877 l -15.03940045432704 29.993573589854623" fill="#e1ff1b" stroke="none" /><path d="M 109.41281617654863 81.2277094730956 l 14.945607669041772 -29.806519536988993 a54.34366199903404,54.34366199903404 0 0,0 0.8325953959147945,0.4264876999681823 l -15.456463552545323 29.54483931170831" fill="#e4ff1a" stroke="none" /><path d="M 109.73455568895987 81.39251694778311 l 15.498394874505458 -29.62499051610433 a54.43411890218387,54.43411890218387 0 0,0 0.8265042118965817,0.4414899263416617 l -16.006044132930352 29.353821863260915" fill="#e3ff1b" stroke="none" /><path d="M 110.05341064243156 81.56283822128135 l 14.586553589396395 -26.750588221929526 a51.4690255150303,51.4690255150303 0 0,0 0.7741821580540412,0.4308315327678361 l -15.044859836522471 26.495541291601512" fill="#ffea16" stroke="none" /><path d="M 110.36928655335952 81.73862282372117 l 31.107859660078564 -54.7841315288365 a84.0,84.0 0 0,0 1.2512130701386868,0.7247833704398019 l -32.04626946268258 54.24054400100664" fill="#4dd2ff" stroke="none" /><line stroke="#e1ed5e" stroke-width="0.3" x1="143.23703022742887" x2="145.7803849466894" y1="26.81831364943548" y2="22.513508569990506" /><path d="M 143.74570117128098 25.957352633546492 a86.0,86.0 0 0,1 28.547481713284135,27.462654790039103" fill="none" id="id62" stroke="none" /><text fill="#e1ed5e" style="font-size:6.75px; font-family:Arial;" text-anchor="middle"><textPath startOffset="19.985693538727396" xlink:href="#id62">February</textPath></text><path d="M 110.99172775467656 82.1063720568725 l 16.157288712847002 -26.302735952896157 a51.868947133941404,51.868947133941404 0 0,0 0.7567453327835826,0.4738738579651292 l -16.607653198002847 26.020717753608086" fill="#fff016" stroke="none" /><line stroke="#e1ed5e" stroke-width="0.3" x1="172.23445277983987" x2="176.4835382374775" y1="55.19839476539836" y2="52.563006222186495" /><path d="M 173.08426987136738 54.67131705675599 a86.0,86.0 0 0,1 12.851231095245387,41.99856678651699" fill="none" id="id63" stroke="none" /><text fill="#e1ed5e" style="font-size:6.75px; font-family:Arial;" text-anchor="middle"><textPath startOffset="22.20632615414155" xlink:href="#id63">March</textPath></text><line stroke="#e1ed5e" stroke-width="0.3" x1="184.98032266829074" x2="189.97916517819016" y1="98.17113171792111" y2="98.06355123074" /><path d="M 185.9800911702706 98.14961562048488 a86.0,86.0 0 0,1 -9.607161424134198,41.387399972396054" fill="none" id="id64" stroke="none" /><text fill="#e1ed5e" style="font-size:6.75px; font-family:Arial;" text-anchor="middle"><textPath startOffset="21.466115282336823" xlink:href="#id64">April</textPath></text><line stroke="#e1ed5e" stroke-width="0.3" x1="174.80103733775053" x2="179.2010983576182" y1="140.37084112569926" y2="142.7455964860345" /><path d="M 175.68104954172406 140.8457921977663 a86.0,86.0 0 0,1 -30.038265399797805,32.042727171017184" fill="none" id="id65" stroke="none" /><text fill="#e1ed5e" style="font-size:6.75px; font-family:Arial;" text-anchor="middle"><textPath startOffset="22.206326154141568" xlink:href="#id65">May</textPath></text><line stroke="#e1ed5e" stroke-width="0.3" x1="143.8653032363475" x2="146.44561519142675" y1="172.8068346515853" y2="177.08958963109032" /><path d="M 144.38136562736335 173.6633856474863 a86.0,86.0 0 0,1 -40.68145358897372,12.25698825130547" fill="none" id="id66" stroke="none" /><text fill="#e1ed5e" style="font-size:6.75px; font-family:Arial;" text-anchor="middle"><textPath startOffset="21.466115282336833" xlink:href="#id66">June</textPath></text><line stroke="#e1ed5e" stroke-width="0.3" x1="102.19456741930631" x2="102.32365962044197" y1="184.97166512339345" y2="189.96999836594603" /><path d="M 102.22038585953345 185.97133177190398 a86.0,86.0 0 0,1 -42.740103519485714,-10.115201625700543" fill="none" id="id67" stroke="none" /><text fill="#e1ed5e" style="font-size:6.75px; font-family:Arial;" text-anchor="middle"><textPath startOffset="22.20632615414155" xlink:href="#id67">July</textPath></text><line stroke="#e1ed5e" stroke-width="0.3" x1="58.666819895761336" x2="56.23545636021788" y1="174.27360380694188" y2="178.64263932499728" /><path d="M 58.180547188652646 175.14741091055294 a86.0,86.0 0 0,1 -31.652253787137756,-30.449443065178592" fill="none" id="id68" stroke="none" /><text fill="#e1ed5e" style="font-size:6.75px; font-family:Arial;" text-anchor="middle"><textPath startOffset="22.20632615414155" xlink:href="#id68">August</textPath></text><line stroke="#e1ed5e" stroke-width="0.3" x1="26.63291911575756" x2="22.317208475507996" y1="142.92168965132927" y2="145.44649492493687" /><path d="M 25.769776987707644 143.4266507060508 a86.0,86.0 0 0,1 -11.730757126820373,-40.83630448921669" fill="none" id="id69" stroke="none" /><text fill="#e1ed5e" style="font-size:6.75px; font-family:Arial;" text-anchor="middle"><textPath startOffset="21.46611528233685" xlink:href="#id69">September</textPath></text><line stroke="#e1ed5e" stroke-width="0.3" x1="15.007084014347285" x2="10.007500721073583" y1="101.09737516637583" y2="101.16192664675087" /><path d="M 14.007167355692545 101.11028546245083 a86.0,86.0 0 0,1 10.666146001902534,-42.60595125391555" fill="none" id="id70" stroke="none" /><text fill="#e1ed5e" style="font-size:6.75px; font-family:Arial;" text-anchor="middle"><textPath startOffset="22.20632615414155" xlink:href="#id70">October</textPath></text><line stroke="#e1ed5e" stroke-width="0.3" x1="26.266209847984243" x2="21.928928074336255" y1="57.711370442889674" y2="55.22380399835377" /><path d="M 25.398753493254645 57.213857153982495 a86.0,86.0 0 0,1 29.58750427330803,-30.492523968695096" fill="none" id="id71" stroke="none" /><text fill="#e1ed5e" style="font-size:6.75px; font-family:Arial;" text-anchor="middle"><textPath startOffset="21.46611528233685" xlink:href="#id71">November</textPath></text><line stroke="#e1ed5e" stroke-width="0.3" x1="56.762969772571076" x2="54.21961505331055" y1="26.818313649435495" y2="22.513508569990535" /><path d="M 56.25429882871897 25.957352633546506 a86.0,86.0 0 0,1 42.265352541879196,-11.944610805530505" fill="none" id="id72" stroke="none" /><text fill="#e1ed5e" style="font-size:6.75px; font-family:Arial;" text-anchor="middle"><textPath startOffset="22.20632615414155" xlink:href="#id72">December</textPath></text></svg>