<?xml version="1.0" encoding="utf-8" ?>
<svg baseProfile="full" height="200mm" version="1.1" viewBox="0,0,200,200" width="200mm" xmlns="http://www.w3.org/2000/svg" xmlns:ev="http://www.w3.org/2001/xml-events" xmlns:xlink="http://www.w3.org/1999/xlink"><defs /><rect fill="#1a1a1a" height="200" width="200" x="0" y="0" /><text alignment-baseline="middle" fill="#e1ed5e" style="dominant-baseline: central; font-size:9.0px; font-family: system-ui, -apple-system, BlinkMacSystemFont, &quot;Helvetica Neue&quot;, Helvetica, &quot;Segoe UI&quot;, Arial, &quot;PingFang SC&quot;, &quot;Hiragino Sans GB&quot;, &quot;Heiti SC&quot;, &quot;Microsoft YaHei&quot;, &quot;WenQuanYi Micro Hei&quot;, sans-serif;" text-anchor="middle" x="100.0" y="100.0">2025</text><line stroke="#e1ed5e" stroke-width="0.3" x1="100.0" x2="100.0" y1="15.0" y2="10.0" /><path d="M 100.0 14.0 a86.0,86.0 0 0,1 42.46469731375804,11.215312516191453" fill="none" id="id49" stroke="none" /><text fill="#e1ed5e" style="font-size:6.75px; font-family: system-ui, -apple-system, BlinkMacSystemFont, &quot;Helvetica Neue&quot;, Helvetica, &quot;Segoe UI&quot;, Arial, &quot;PingFang SC&quot;, &quot;Hiragino Sans GB&quot;, &quot;Heiti SC&quot;, &quot;Microsoft YaHei&quot;, &quot;WenQuanYi Micro Hei&quot;, sans-serif;" text-anchor="middle"><textPath startOffset="22.20632615414155" xlink:href="#id49">January</textPath></text><path d="M 100.0 79.0 l 0.0 -40.08982149639195 a61.08982149639195,61.08982149639195 0 0,0 1.0515608549137603,0.009051116267852889 l -0.690080375641232 40.08388175673265" fill="#43ff2d" stroke="none" /><path d="M 100.36148047927253 79.00311137660856 l 0.32949227127006003 -19.138827457705833 a40.141663501709075,40.141663501709075 0 0,0 0.6907680004041893,0.017840499486328872 l -0.6588869068691171 19.130320166077144" fill="#ffac10" stroke="none" /><path d="M 101.08401301168833 79.027996857942 l 3.2520390350649873 -62.916009426173986 a84.0,84.0 0 0,0 1.4433518046415523,0.08706692247878367 l -4.334552888546152 62.8507092343149" fill="#4dd2ff" stroke="none" /><path d="M 101.80526077348638 79.07773832637324 l 1.6455092504243456 -19.070804411965145 a40.141663501709075,40.141663501709075 0 0,0 0.6879036214792256,0.06532473773456439 l -1.9735379989938153 19.039654129715405" fill="#ffac10" stroke="none" /><path d="M 102.16513564639614 79.11191278185805 l 2.4755567274878674 -23.882866148961764 a45.010824154956325,45.010824154956325 0 0,0 0.7699707970918592,0.08651519050082197 l -2.886294228089452 23.83671500499034" fill="#fff216" stroke="none" /><path d="M 102.88285421437855 79.19881850522331 l 3.2846800771498987 -23.70054860779721 a44.92707937713635,44.92707937713635 0 0,0 0.7651103430479993,0.11275737589109834 l -3.692159400626554 23.640496747745143" fill="#fff116" stroke="none" /><path d="M 103.2404852339499 79.25152402106235 l 4.358594172439646 -27.907606410713136 a49.24591720470946,49.24591720470946 0 0,0 0.8364085897058546,0.13801458392680876 l -4.8383319682843755 27.8284455638467" fill="#d3ff1c" stroke="none" /><path d="M 103.59715602781102 79.31037775812273 l 2.264445923318185 -13.024325433312411 a34.21971135586783,34.21971135586783 0 0,0 0.5794617291712889,0.10589292717989227 l -2.4883027735923746 12.98341702478178" fill="#ff5307" stroke="none" /><path d="M 103.95276090670814 79.375362276772 l 8.13145820401997 -42.42816187917377 a64.20034181541968,64.20034181541968 0 0,0 1.0835598887179547,0.2173519200746341 l -8.86058450220505 42.28190600302193" fill="#31ff42" stroke="none" /><path d="M 104.307194497241 79.44645832069477 l 3.9334026466448897 -18.76984085373696 a40.177554120774786,40.177554120774786 0 0,0 0.6756664554031915,0.14767451703078321 l -4.25591182620161 18.699352838610306" fill="#ffad10" stroke="none" /><path d="M 105.01212808612495 79.60689891045804 l 5.7764157528849855 -23.502797286826844 a45.202240789973416,45.202240789973416 0 0,0 0.7539972933450895,0.19221069852371495 l -6.1801219349151 23.399883592134262" fill="#fff517" stroke="none" /><path d="M 105.71112130821622 79.79150937346287 l 12.074043586094023 -42.7233433621796 a65.39669578427649,65.39669578427649 0 0,0 1.0806330078909074,0.31546640791154223 l -12.807666811708359 42.50917862534935" fill="#33ff52" stroke="none" /><path d="M 106.0581310904928 79.89281104454417 l 5.870612030912402 -19.48480540062497 a41.34998101025447,41.34998101025447 0 0,0 0.6797437277558988,0.2111996850366776 l -6.205141131379019 19.380865580705773" fill="#ffbe11" stroke="none" /><path d="M 106.40334571778207 80.00007090966166 l 4.388468419193978 -13.706749731680798 a35.39213824534751,35.39213824534751 0 0,0 0.5786061436761384,0.1907573484996731 l -4.623757385112534 13.629178658921887" fill="#ff6509" stroke="none" /><path d="M 106.74666289553966 80.11325718540242 l 8.075240453966279 -23.80291301944712 a46.13539688568173,46.13539688568173 0 0,0 0.7498495812745892,0.26160779522421795 l -8.483772039304142 23.660384371050696" fill="#fdff18" stroke="none" /><path d="M 107.4271985657038 80.35727306442388 l 10.176080070556957 -26.912699361979044 a49.772312951006455,49.772312951006455 0 0,0 0.7987670181616323,0.3099091934565297 l -10.637830253718256 26.733547464631968" fill="#ccff1d" stroke="none" /><path d="M 107.76421540070413 80.48803036053334 l 7.170030287433386 -18.018744465766495 a40.39289783516901,40.39289783516901 0 0,0 0.6438168790237796,0.26262907023291404 l -7.479131036045554 17.892654509350002" fill="#ffb010" stroke="none" /><path d="M 108.43124777332544 80.76684994638697 l 15.644079375837979 -35.686879827924976 a59.96524876566654,59.96524876566654 0 0,0 0.9417910149287934,0.42255417584939603 l -16.25605250923355 35.412305321559046" fill="#4fff2b" stroke="none" /><path d="M 109.08828744355905 81.06846463323043 l 9.335082943830407 -19.445627572893386 a42.57026205848842,42.57026205848842 0 0,0 0.6578701528035777,0.3228140268820108 l -9.668424363644418 19.282058385876546" fill="#ffd013" stroke="none" /><path d="M 109.41281617654863 81.2277094730956 l 12.928769351495667 -25.784272195423373 a49.84409418913786,49.84409418913786 0 0,0 0.7636578362377789,0.3911752043522703 l -13.370687675322202 25.557904465758604" fill="#cbff1d" stroke="none" /><path d="M 109.73455568895987 81.39251694778311 l 7.037495918699242 -13.452086589401768 a36.18173186479301,36.18173186479301 0 0,0 0.5493678300130331,0.2934532689801718 l -7.268008795240586 13.328954593919843" fill="#ff710a" stroke="none" /><path d="M 110.05341064243156 81.56283822128135 l 13.797189273234498 -25.302956356779283 a49.82016710976073,49.82016710976073 0 0,0 0.7493805080180528,0.41702944137498527 l -14.230693870324586 25.061711517844117" fill="#cbff1d" stroke="none" /><line stroke="#e1ed5e" stroke-width="0.3" x1="143.23703022742887" x2="145.7803849466894" y1="26.81831364943548" y2="22.513508569990506" /><path d="M 143.74570117128098 25.957352633546492 a86.0,86.0 0 0,1 28.547481713284135,27.462654790039103" fill="none" id="id50" stroke="none" /><text fill="#e1ed5e" style="font-size:6.75px; font-family: system-ui, -apple-system, BlinkMacSystemFont, &quot;Helvetica Neue&quot;, Helvetica, &quot;Segoe UI&quot;, Arial, &quot;PingFang SC&quot;, &quot;Hiragino Sans GB&quot;, &quot;Heiti SC&quot;, &quot;Microsoft YaHei&quot;, &quot;WenQuanYi Micro Hei&quot;, sans-serif;" text-anchor="middle"><textPath startOffset="19.985693538727396" xlink:href="#id50">February</textPath></text><path d="M 110.68208982089419 81.91981866633111 l 21.18364299270757 -35.85479180924879 a62.64508165590581,62.64508165590581 0 0,0 0.9236806497886693,0.5565072563643417 l -21.79768570871388 35.48483794342583" fill="#32ff2f" stroke="none" /><path d="M 110.99172775467656 82.1063720568725 l 11.127402328177123 -18.1144949800252 a42.25921002658565,42.25921002658565 0 0,0 0.6165434565725649,0.3860794559439347 l -11.437564937121952 17.92027118275832" fill="#ffcb12" stroke="none" /><path d="M 111.2981086023043 82.29822771554956 l 11.695022786016084 -18.32365376424978 a42.73775161412837,42.73775161412837 0 0,0 0.6167118087105715,0.4011265153403605 l -12.008701620510935 18.119628324749893" fill="#ffd213" stroke="none" /><path d="M 111.60114157652 82.49532879139004 l 7.950725398720228 -11.996649903508045 a35.39213824534751,35.39213824534751 0 0,0 0.5049199272962288,0.34092418882440234 l -8.156050020422999 11.858013802384972" fill="#ff6509" stroke="none" /><path d="M 111.90073688211348 82.69761687909136 l 12.793405144254532 -18.600226138903114 a43.575199392328145,43.575199392328145 0 0,0 0.6143456965000847,0.4303884206453619 l -13.111681980338266 18.377252875493816" fill="#ffde14" stroke="none" /><path d="M 112.19680574252982 82.90503203632743 l 8.636894913386573 -12.105418825775736 a35.87067983289024,35.87067983289024 0 0,0 0.49954992012868793,0.36294426183517087 l -8.84399014986905 11.95495532912389" fill="#ff6c0a" stroke="none" /><path d="M 112.48926042617603 83.11751280151076 l 17.076087175933804 -23.082777787528023 a49.71249525256361,49.71249525256361 0 0,0 0.6835559147831367,0.5148401434143766 l -17.470889244475323 22.7854210546078" fill="#cdff1d" stroke="none" /><path d="M 112.77801427241765 83.33499621200491 l 7.359612094235232 -9.598358619253538 a33.095138625142425,33.095138625142425 0 0,0 0.44909700431672767,0.350527335327851 l -7.52374165371139 9.470252894702464" fill="#ff4106" stroke="none" /><path d="M 113.06298171725822 83.55741782278167 l 15.977718427812418 -20.1114074826174 a46.68571971135587,46.68571971135587 0 0,0 0.6249141498301372,0.5053037826298584 l -16.321535976207045 19.83339760272341" fill="#f5ff19" stroke="none" /><path d="M 113.34407831869373 83.78471172551755 l 12.626954474373495 -15.343862793723135 a40.87143942271173,40.87143942271173 0 0,0 0.5393910185541219,0.4517244659838103 l -12.889203029886733 15.124237170345504" fill="#ffb711" stroke="none" /><path d="M 113.6212207817346 84.01681056812373 l 16.14836333846737 -18.94854759270861 a45.89612609191037,45.89612609191037 0 0,0 0.5968817454186083,0.517609967856628 l -16.47213888253274 18.66777263143231" fill="#fffe18" stroke="none" /><path d="M 113.89432698308785 84.25364557470407 l 12.720195667578144 -14.415718701927787 a40.225408279529056,40.225408279529056 0 0,0 0.5152472784123145,0.4625940939126656 l -12.966453933586449 14.194625599245825" fill="#ffae10" stroke="none" /><path d="M 114.16331599549186 84.49514656593476 l 18.792079160748496 -20.572049172771326 a48.863083934675274,48.863083934675274 0 0,0 0.6161218761606042,0.5726181365034998 l -19.143408920703948 20.245526450193186" fill="#d8ff1c" stroke="none" /><path d="M 114.42810811169701 84.74124197986012 l 11.59783168188633 -12.26553792237981 a37.88055450056969,37.88055450056969 0 0,0 0.4699294851738775,0.452071792412627 l -11.807244410672626 12.064083043204882" fill="#ff8b0c" stroke="none" /><path d="M 114.94478906791727 85.2469230424477 l 28.42801976705797 -28.063344451918226 a60.94625902012913,60.94625902012913 0 0,0 0.7305881613796781,0.7529353208142049 l -28.906872192140757 27.569844935553906" fill="#44ff2d" stroke="none" /><path d="M 115.19652480421416 85.50635884689758 l 10.48404379295671 -9.99912615063066 a35.487846562856056,35.487846562856056 0 0,0 0.41779787348743835,0.4456776413221022 l -10.65460898841461 9.817179092430504" fill="#ff6609" stroke="none" /><path d="M 115.4437574822437 85.77008943001954 l 15.880734289090318 -14.63254191728907 a42.594189137865555,42.594189137865555 0 0,0 0.492178612719355,0.543475917047844 l -16.13025654242571 14.357013212971676" fill="#ffd013" stroke="none" /><path d="M 115.9244219780498 86.31012108654704 l 18.243835509603976 -15.683828234876898 a45.0586783137106,45.0586783137106 0 0,0 0.5005576867088991,0.5925024170415354 l -18.51110380979999 15.367466868206257" fill="#fff316" stroke="none" /><path d="M 116.15771136456269 86.58626213691792 l 11.478541248543301 -9.529204965018993 a35.91853399164451,35.91853399164451 0 0,0 0.39083043711883503,0.47911190359662653 l -11.640870177738545 9.330208891814266" fill="#ff6d0a" stroke="none" /><path d="M 116.60985879189232 87.15038557335679 l 32.69297120736117 -25.291730636566058 a62.33402962400304,62.33402962400304 0 0,0 0.6492358105501105,0.8543182241176537 l -33.12348295813539 24.72522763656737" fill="#35ff2f" stroke="none" /><path d="M 117.04232023915458 87.72973835380427 l 19.50513940018698 -14.043461249833213 a45.034751234333456,45.034751234333456 0 0,0 0.44753258347032854,0.6330031013583478 l -19.743984603461193 13.705631648143072" fill="#fff216" stroke="none" /><path d="M 117.2510076193507 88.02491185347247 l 16.913587607046644 -11.740862153536199 a41.58925180402582,41.58925180402582 0 0,0 0.4031692456401024,0.5916011195049242 l -17.11318131835548 11.447983010760868" fill="#ffc212" stroke="none" /><path d="M 117.65298651832404 88.62581576622439 l 16.121004968974617 -10.387096843947385 a40.177554120774786,40.177554120774786 0 0,0 0.36958070030801304,0.5845879128901202 l -16.297413265528586 10.108061283343059" fill="#ffad10" stroke="none" /><line stroke="#e1ed5e" stroke-width="0.3" x1="172.23445277983987" x2="176.4835382374775" y1="55.19839476539836" y2="52.563006222186495" /><path d="M 173.08426987136738 54.67131705675599 a86.0,86.0 0 0,1 12.851231095245387,41.99856678651699" fill="none" id="id51" stroke="none" /><text fill="#e1ed5e" style="font-size:6.75px; font-family: system-ui, -apple-system, BlinkMacSystemFont, &quot;Helvetica Neue&quot;, Helvetica, &quot;Segoe UI&quot;, Arial, &quot;PingFang SC&quot;, &quot;Hiragino Sans GB&quot;, &quot;Heiti SC&quot;, &quot;Microsoft YaHei&quot;, &quot;WenQuanYi Micro Hei&quot;, sans-serif;" text-anchor="middle"><textPath startOffset="22.20632615414155" xlink:href="#id51">March</textPath></text><path d="M 117.84615892207809 88.93136811851018 l 12.291685987538397 -7.623609539339832 a35.46391948347892,35.46391948347892 0 0,0 0.31729096199024126,0.5215429154708364 l -12.421092747814862 7.410898850661915" fill="#ff6609" stroke="none" /><path d="M 118.03404312379186 89.2402003453031 l 23.496310268199004 -14.018797081442353 a48.36061526775541,48.36061526775541 0 0,0 0.42036964065673016,0.7185479807034394 l -23.734139583326062 13.612269688385018" fill="#dfff1b" stroke="none" /><path d="M 118.21658344932153 89.55222093294921 l 7.005047756338036 -4.017613484766018 a29.075389289783516,29.075389289783516 0 0,0 0.24526109710157065,0.4362921247750508 l -7.07316649473204 3.896437850056174" fill="#ff0000" stroke="none" /><path d="M 118.3937258080291 89.86733742301442 l 14.9531979081224 -8.237358240044681 a38.07197113558678,38.07197113558678 0 0,0 0.311269004322316,0.5767341914403753 l -15.09277501166318 7.978743065271847" fill="#ff8e0d" stroke="none" /><line stroke="#e1ed5e" stroke-width="0.3" x1="184.98032266829074" x2="189.97916517819016" y1="98.17113171792111" y2="98.06355123074" /><path d="M 185.9800911702706 98.14961562048488 a86.0,86.0 0 0,1 -9.607161424134198,41.387399972396054" fill="none" id="id52" stroke="none" /><text fill="#e1ed5e" style="font-size:6.75px; font-family: system-ui, -apple-system, BlinkMacSystemFont, &quot;Helvetica Neue&quot;, Helvetica, &quot;Segoe UI&quot;, Arial, &quot;PingFang SC&quot;, &quot;Hiragino Sans GB&quot;, &quot;Heiti SC&quot;, &quot;Microsoft YaHei&quot;, &quot;WenQuanYi Micro Hei&quot;, sans-serif;" text-anchor="middle"><textPath startOffset="21.466115282336823" xlink:href="#id52">April</textPath></text><line stroke="#e1ed5e" stroke-width="0.3" x1="174.80103733775053" x2="179.2010983576182" y1="140.37084112569926" y2="142.7455964860345" /><path d="M 175.68104954172406 140.8457921977663 a86.0,86.0 0 0,1 -30.038265399797805,32.042727171017184" fill="none" id="id53" stroke="none" /><text fill="#e1ed5e" style="font-size:6.75px; font-family: system-ui, -apple-system, BlinkMacSystemFont, &quot;Helvetica Neue&quot;, Helvetica, &quot;Segoe UI&quot;, Arial, &quot;PingFang SC&quot;, &quot;Hiragino Sans GB&quot;, &quot;Heiti SC&quot;, &quot;Microsoft YaHei&quot;, &quot;WenQuanYi Micro Hei&quot;, sans-serif;" text-anchor="middle"><textPath startOffset="22.206326154141568" xlink:href="#id53">May</textPath></text><line stroke="#e1ed5e" stroke-width="0.3" x1="143.8653032363475" x2="146.44561519142675" y1="172.8068346515853" y2="177.08958963109032" /><path d="M 144.38136562736335 173.6633856474863 a86.0,86.0 0 0,1 -40.68145358897372,12.25698825130547" fill="none" id="id54" stroke="none" /><text fill="#e1ed5e" style="font-size:6.75px; font-family: system-ui, -apple-system, BlinkMacSystemFont, &quot;Helvetica Neue&quot;, Helvetica, &quot;Segoe UI&quot;, Arial, &quot;PingFang SC&quot;, &quot;Hiragino Sans GB&quot;, &quot;Heiti SC&quot;, &quot;Microsoft YaHei&quot;, &quot;WenQuanYi Micro Hei&quot;, sans-serif;" text-anchor="middle"><textPath startOffset="21.466115282336833" xlink:href="#id54">June</textPath></text><line stroke="#e1ed5e" stroke-width="0.3" x1="102.19456741930631" x2="102.32365962044197" y1="184.97166512339345" y2="189.96999836594603" /><path d="M 102.22038585953345 185.97133177190398 a86.0,86.0 0 0,1 -42.740103519485714,-10.115201625700543" fill="none" id="id55" stroke="none" /><text fill="#e1ed5e" style="font-size:6.75px; font-family: system-ui, -apple-system, BlinkMacSystemFont, &quot;Helvetica Neue&quot;, Helvetica, &quot;Segoe UI&quot;, Arial, &quot;PingFang SC&quot;, &quot;Hiragino Sans GB&quot;, &quot;Heiti SC&quot;, &quot;Microsoft YaHei&quot;, &quot;WenQuanYi Micro Hei&quot;, sans-serif;" text-anchor="middle"><textPath startOffset="22.20632615414155" xlink:href="#id55">July</textPath></text><line stroke="#e1ed5e" stroke-width="0.3" x1="58.666819895761336" x2="56.23545636021788" y1="174.27360380694188" y2="178.64263932499728" /><path d="M 58.180547188652646 175.14741091055294 a86.0,86.0 0 0,1 -31.652253787137756,-30.449443065178592" fill="none" id="id56" stroke="none" /><text fill="#e1ed5e" style="font-size:6.75px; font-family: system-ui, -apple-system, BlinkMacSystemFont, &quot;Helvetica Neue&quot;, Helvetica, &quot;Segoe UI&quot;, Arial, &quot;PingFang SC&quot;, &quot;Hiragino Sans GB&quot;, &quot;Heiti SC&quot;, &quot;Microsoft YaHei&quot;, &quot;WenQuanYi Micro Hei&quot;, sans-serif;" text-anchor="middle"><textPath startOffset="22.20632615414155" xlink:href="#id56">August</textPath></text><line stroke="#e1ed5e" stroke-width="0.3" x1="26.63291911575756" x2="22.317208475507996" y1="142.92168965132927" y2="145.44649492493687" /><path d="M 25.769776987707644 143.4266507060508 a86.0,86.0 0 0,1 -11.730757126820373,-40.83630448921669" fill="none" id="id57" stroke="none" /><text fill="#e1ed5e" style="font-size:6.75px; font-family: system-ui, -apple-system, BlinkMacSystemFont, &quot;Helvetica Neue&quot;, Helvetica, &quot;Segoe UI&quot;, Arial, &quot;PingFang SC&quot;, &quot;Hiragino Sans GB&quot;, &quot;Heiti SC&quot;, &quot;Microsoft YaHei&quot;, &quot;WenQuanYi Micro Hei&quot;, sans-serif;" text-anchor="middle"><textPath startOffset="21.46611528233685" xlink:href="#id57">September</textPath></text><line stroke="#e1ed5e" stroke-width="0.3" x1="15.007084014347285" x2="10.007500721073583" y1="101.09737516637583" y2="101.16192664675087" /><path d="M 14.007167355692545 101.11028546245083 a86.0,86.0 0 0,1 10.666146001902534,-42.60595125391555" fill="none" id="id58" stroke="none" /><text fill="#e1ed5e" style="font-size:6.75px; font-family: system-ui, -apple-system, BlinkMacSystemFont, &quot;Helvetica Neue&quot;, Helvetica, &quot;Segoe UI&quot;, Arial, &quot;PingFang SC&quot;, &quot;Hiragino Sans GB&quot;, &quot;Heiti SC&quot;, &quot;Microsoft YaHei&quot;, &quot;WenQuanYi Micro Hei&quot;, sans-serif;" text-anchor="middle"><textPath startOffset="22.20632615414155" xlink:href="#id58">October</textPath></text><line stroke="#e1ed5e" stroke-width="0.3" x1="26.266209847984243" x2="21.928928074336255" y1="57.711370442889674" y2="55.22380399835377" /><path d="M 25.398753493254645 57.213857153982495 a86.0,86.0 0 0,1 29.58750427330803,-30.492523968695096" fill="none" id="id59" stroke="none" /><text fill="#e1ed5e" style="font-size:6.75px; font-family: system-ui, -apple-system, BlinkMacSystemFont, &quot;Helvetica Neue&quot;, Helvetica, &quot;Segoe UI&quot;, Arial, &quot;PingFang SC&quot;, &quot;Hiragino Sans GB&quot;, &quot;Heiti SC&quot;, &quot;Microsoft YaHei&quot;, &quot;WenQuanYi Micro Hei&quot;, sans-serif;" text-anchor="middle"><textPath startOffset="21.46611528233685" xlink:href="#id59">November</textPath></text><line stroke="#e1ed5e" stroke-width="0.3" x1="56.762969772571076" x2="54.21961505331055" y1="26.818313649435495" y2="22.513508569990535" /><path d="M 56.25429882871897 25.957352633546506 a86.0,86.0 0 0,1 42.265352541879196,-11.944610805530505" fill="none" id="id60" stroke="none" /><text fill="#e1ed5e" style="font-size:6.75px; font-family: system-ui, -apple-system, BlinkMacSystemFont, &quot;Helvetica Neue&quot;, Helvetica, &quot;Segoe UI&quot;, Arial, &quot;PingFang SC&quot;, &quot;Hiragino Sans GB&quot;, &quot;Heiti SC&quot;, &quot;Microsoft YaHei&quot;, &quot;WenQuanYi Micro Hei&quot;, sans-serif;" text-anchor="middle"><textPath startOffset="22.20632615414155" xlink:href="#id60">December</textPath></text></svg>