<?xml version="1.0" encoding="utf-8" ?>
<svg baseProfile="full" height="200mm" version="1.1" viewBox="0,0,200,200" width="200mm" xmlns="http://www.w3.org/2000/svg" xmlns:ev="http://www.w3.org/2001/xml-events" xmlns:xlink="http://www.w3.org/1999/xlink"><defs /><rect fill="#1a1a1a" height="200" width="200" x="0" y="0" /><text alignment-baseline="middle" fill="#e1ed5e" style="dominant-baseline: central; font-size:9.0px; font-family:Arial;" text-anchor="middle" x="100.0" y="100.0">2022</text><line stroke="#e1ed5e" stroke-width="0.3" x1="100.0" x2="100.0" y1="15.0" y2="10.0" /><path d="M 100.0 14.0 a86.0,86.0 0 0,1 42.46469731375804,11.215312516191453" fill="none" id="id49" stroke="none" /><text fill="#e1ed5e" style="font-size:6.75px; font-family:Arial;" text-anchor="middle"><textPath startOffset="22.20632615414155" xlink:href="#id49">January</textPath></text><path d="M 100.0 79.0 l 0.0 -32.17230862742588 a53.17230862742588,53.17230862742588 0 0,0 0.9152738860318429,0.007878051299354562 l -0.5537934067593145 32.167541952735085" fill="#81ff25" stroke="none" /><path d="M 101.08401301168833 79.027996857942 l 1.657423434781771 -32.065564810727345 a53.10837116817232,53.10837116817232 0 0,0 0.9125483734185108,0.05504740994611582 l -2.2091338570398933 32.03228413140092" fill="#82ff25" stroke="none" /><path d="M 101.44485096284872 79.0497635885617 l 2.1641377449547083 -31.379843699813723 a52.45438097950549,52.45438097950549 0 0,0 0.9002415959971041,0.06987607404609807 l -2.7039695303141538 31.33794236357916" fill="#89ff24" stroke="none" /><path d="M 102.16513564639614 79.11191278185805 l 4.856774767657382 -46.85560237972151 a68.10664215915116,68.10664215915116 0 0,0 1.165055884557876,0.13090760347967226 l -5.662597355724984 46.76505882277124" fill="#39ff86" stroke="none" /><path d="M 103.59715602781102 79.31037775812273 l 4.365480146853758 -25.108762156692304 a46.48543415274533,46.48543415274533 0 0,0 0.7871641515412419,0.14384921726752833 l -4.797039419497901 25.02989745807404" fill="#cfff1d" stroke="none" /><path d="M 104.307194497241 79.44645832069477 l 6.477811876483261 -30.911531039353314 a52.58298272652554,52.58298272652554 0 0,0 0.8842887112181836,0.19327126173075096 l -7.008943311854972 30.795446279526693" fill="#88ff25" stroke="none" /><path d="M 106.74666289553966 80.11325718540242 l 10.165816269840729 -29.965180829240694 a52.642627617839395,52.642627617839395 0 0,0 0.8556131504459192,0.29850662778597636 l -10.680111424349922 29.78575334828251" fill="#87ff25" stroke="none" /><line stroke="#e1ed5e" stroke-width="0.3" x1="143.23703022742887" x2="145.7803849466894" y1="26.81831364943548" y2="22.513508569990506" /><path d="M 143.74570117128098 25.957352633546492 a86.0,86.0 0 0,1 28.547481713284135,27.462654790039103" fill="none" id="id50" stroke="none" /><text fill="#e1ed5e" style="font-size:6.75px; font-family:Arial;" text-anchor="middle"><textPath startOffset="19.985693538727396" xlink:href="#id50">February</textPath></text><line stroke="#e1ed5e" stroke-width="0.3" x1="172.23445277983987" x2="176.4835382374775" y1="55.19839476539836" y2="52.563006222186495" /><path d="M 173.08426987136738 54.67131705675599 a86.0,86.0 0 0,1 12.851231095245387,41.99856678651699" fill="none" id="id51" stroke="none" /><text fill="#e1ed5e" style="font-size:6.75px; font-family:Arial;" text-anchor="middle"><textPath startOffset="22.20632615414155" xlink:href="#id51">March</textPath></text><path d="M 118.3937258080291 89.86733742301442 l 27.44831566693968 -15.12061905578053 a52.337567767489546,52.337567767489546 0 0,0 0.4279017377277471,0.7928369329983133 l -27.704525503885893 14.645901139449757" fill="#8bff24" stroke="none" /><path d="M 119.04729006885535 91.15688171328212 l 28.443179838809076 -13.205364272592996 a52.35914738819776,52.35914738819776 0 0,0 0.3724921574081604,0.8207370931423473 l -28.666274313180583 12.713805170608586" fill="#8bff24" stroke="none" /><path d="M 119.196687751892 91.48605970444005 l 28.257945041282714 -12.532706687016006 a51.91246018774517,51.91246018774517 0 0,0 0.35525251447147405,0.8199717833756667 l -28.46948826559687 12.044435759053735" fill="#90ff24" stroke="none" /><path d="M 119.7369772167798 92.82701384747503 l 45.244078359106084 -16.443001579680203 a69.1393698288033,69.1393698288033 0 0,0 0.39688276321968774,1.1220410164297274 l -45.52041420313558 15.661762936823862" fill="#3aff92" stroke="none" /><path d="M 120.83666639777658 97.38593545837742 l 31.24349516621332 -3.9196535238031007 a52.48840538909294,52.48840538909294 0 0,0 0.10475097815530507,0.8974424104903507 l -31.306336497372214 3.381267374987897" fill="#89ff24" stroke="none" /><path d="M 120.91429891909075 98.10471618934814 l 31.199468561745892 -2.827340657928663 a52.327315456823726,52.327315456823726 0 0,0 0.07357099996204054,0.8977525480463044 l -31.243514045527427 2.28987419267459" fill="#8bff24" stroke="none" /><line stroke="#e1ed5e" stroke-width="0.3" x1="184.98032266829074" x2="189.97916517819016" y1="98.17113171792111" y2="98.06355123074" /><path d="M 185.9800911702706 98.14961562048488 a86.0,86.0 0 0,1 -9.607161424134198,41.387399972396054" fill="none" id="id52" stroke="none" /><text fill="#e1ed5e" style="font-size:6.75px; font-family:Arial;" text-anchor="middle"><textPath startOffset="21.466115282336823" xlink:href="#id52">April</textPath></text><path d="M 120.99980553446 99.90962569577887 l 47.208618827637785 -0.20316598040811412 a68.20905599595052,68.20905599595052 0 0,0 -0.005053000633016237,1.174139392533821 l -47.205121529715264 -0.6094828903293916" fill="#39ff87" stroke="none" /><path d="M 120.9904718944345 100.63252640178507 l 31.498305478954755 0.9491692195930487 a52.51260335568888,52.51260335568888 0 0,0 -0.0350030688290664,0.9032736738382607 l -31.477300277274487 -1.4912201404453156" fill="#89ff24" stroke="none" /><path d="M 120.95626037817324 101.35467743843564 l 42.74378124726845 2.7630901241049823 a63.832995486520254,63.832995486520254 0 0,0 -0.0803184481675079,1.0958814119414746 l -42.6898862404366 -3.498444672543227" fill="#33ff53" stroke="none" /><path d="M 120.92983693683757 101.71520430193887 l 31.438733541779285 2.5764104699478567 a52.544125564368635,52.544125564368635 0 0,0 -0.08163206237169397,0.9008030059815978 l -31.389726883130518 -3.1171948644780247" fill="#88ff25" stroke="none" /><path d="M 120.89721153311464 102.0752229133903 l 50.07388151648549 4.972647480776765 a71.32018315840179,71.32018315840179 0 0,0 -0.1318326365110761,1.2206064833799979 l -49.98086657847337 -5.833850286041555" fill="#3dffaa" stroke="none" /><path d="M 120.70491114924044 103.5080841355445 l 62.114733447721314 10.524252406633499 a84.0,84.0 0 0,0 -0.25381423064324515,1.4235249970671267 l -61.924372774738885 -11.591896154433844" fill="#4dd2ff" stroke="none" /><path d="M 120.5718875245553 104.21870165774334 l 12.823532103074012 2.629737114632251 a34.090396972232895,34.090396972232895 0 0,0 -0.12283250748425414,0.5738325819191048 l -12.776365556865315 -2.8500835159675244" fill="#ff8f0d" stroke="none" /><path d="M 120.49622156327973 104.57218783832717 l 30.74654883061319 6.858776199302905 a52.502270964890855,52.502270964890855 0 0,0 -0.2043574245729022,0.8803664365293559 l -30.623930840109736 -7.387011293180826" fill="#89ff24" stroke="none" /><path d="M 120.32669344350535 105.2749913415812 l 30.45291348788049 7.902852248003839 a52.46164352913104,52.46164352913104 0 0,0 -0.23435846179713038,0.872135019834856 l -30.312366949741584 -8.425878201014243" fill="#89ff24" stroke="none" /><path d="M 120.23288151984713 105.62410040840565 l 35.948078647541934 9.99242760378537 a58.3110301099655,58.3110301099655 0 0,0 -0.27713667408242465,0.9647491193968927 l -35.77074933657341 -10.609734198686844" fill="#4aff2c" stroke="none" /><path d="M 119.79798401119884 107.00284435728193 l 2.9890119488640683 1.0572584283385078 a24.170486999617722,24.170486999617722 0 0,0 -0.14211755924482658,0.3910464859787995 l -2.970370128614015 -1.1085527113234384" fill="#ff0000" stroke="none" /><path d="M 119.67450827220406 107.3425965602758 l 23.66976971726701 8.833642361169668 a46.26442629139838,46.26442629139838 0 0,0 -0.28486928432392256,0.7437038099981518 l -23.51420615334958 -9.239769738000964" fill="#d1ff1c" stroke="none" /><path d="M 119.54520255179757 107.68017299344265 l 31.23434038244195 12.273351316646426 a54.55918907941714,54.55918907941714 0 0,0 -0.350990657755518,0.8711300280148586 l -31.01844711042904 -12.809180712504098" fill="#72ff27" stroke="none" /><path d="M 119.26925614724726 108.34839909993367 l 37.822099921144066 16.386412766866865 a62.219240238159934,62.219240238159934 0 0,0 -0.43422782657852654,0.9790691161362406 l -37.534431009834265 -17.035030219495795" fill="#31ff3f" stroke="none" /><path d="M 118.64920377521936 109.65438752849418 l 22.659150719132313 11.730271423155592 a46.51541453657485,46.51541453657485 0 0,0 -0.37422202927779374,0.7078870501396896 l -22.453876181629628 -12.118573488381417" fill="#ceff1d" stroke="none" /><line stroke="#e1ed5e" stroke-width="0.3" x1="174.80103733775053" x2="179.2010983576182" y1="140.37084112569926" y2="142.7455964860345" /><path d="M 175.68104954172406 140.8457921977663 a86.0,86.0 0 0,1 -30.038265399797805,32.042727171017184" fill="none" id="id53" stroke="none" /><text fill="#e1ed5e" style="font-size:6.75px; font-family:Arial;" text-anchor="middle"><textPath startOffset="22.206326154141568" xlink:href="#id53">May</textPath></text><path d="M 117.94076556474637 110.91462005526583 l 53.60850709380545 32.613797028186134 a83.74975529372455,83.74975529372455 0 0,0 -0.7598709429814161,1.2251539082615612 l -53.03917151115607 -33.53174726781297" fill="#4dd4ff" stroke="none" /><path d="M 117.55443506779139 111.5257021239791 l 31.54994729911509 20.714724979331983 a58.74253575935644,58.74253575935644 0 0,0 -0.5622412984728722,0.8404744553158082 l -31.188702895231497 -21.254736348853598" fill="#46ff2c" stroke="none" /><path d="M 113.20401910651253 116.32954008644616 l 19.72002113681837 24.387943781481955 a52.36321149890884,52.36321149890884 0 0,0 -0.7057626034296567,0.5607004961848291 l -19.29730104067136 -24.72377819167191" fill="#8aff24" stroke="none" /><line stroke="#e1ed5e" stroke-width="0.3" x1="143.8653032363475" x2="146.44561519142675" y1="172.8068346515853" y2="177.08958963109032" /><path d="M 144.38136562736335 173.6633856474863 a86.0,86.0 0 0,1 -40.68145358897372,12.25698825130547" fill="none" id="id54" stroke="none" /><text fill="#e1ed5e" style="font-size:6.75px; font-family:Arial;" text-anchor="middle"><textPath startOffset="21.466115282336833" xlink:href="#id54">June</textPath></text><path d="M 108.2653958097858 119.30500536409082 l 15.443279053740566 36.06997073493316 a60.2369425000297,60.2369425000297 0 0,0 -0.9567018817319172,0.3999014641547614 l -14.820105712511188 -36.3304572421079" fill="#37ff2e" stroke="none" /><path d="M 107.93186726928326 119.44442032107085 l 11.954357860619034 29.30527592292627 a52.64973726239424,52.64973726239424 0 0,0 -0.8420922427795922,0.33508588220525565 l -11.448144541797575 -29.506708649537597" fill="#87ff25" stroke="none" /><path d="M 103.06178313531738 120.77559828337769 l 4.575601817983818 31.04755009543505 a52.382901378382556,52.382901378382556 0 0,0 -0.8931818711561316,0.12378686865049437 l -4.040491355640857 -31.121711529578146" fill="#8aff24" stroke="none" /><path d="M 101.26447882468166 120.96189622390904 l 0.7700737239859534 12.76589625058892 a33.78910163464087,33.78910163464087 0 0,0 -0.5808699451283312,0.030024341230190408 l -0.5502157104441426 -12.777260398581312" fill="#ff8b0c" stroke="none" /><line stroke="#e1ed5e" stroke-width="0.3" x1="102.19456741930631" x2="102.32365962044197" y1="184.97166512339345" y2="189.96999836594603" /><path d="M 102.22038585953345 185.97133177190398 a86.0,86.0 0 0,1 -42.740103519485714,-10.115201625700543" fill="none" id="id55" stroke="none" /><text fill="#e1ed5e" style="font-size:6.75px; font-family:Arial;" text-anchor="middle"><textPath startOffset="22.20632615414155" xlink:href="#id55">July</textPath></text><path d="M 100.18074693466247 120.99922214144158 l 0.30011214375747475 34.86710071114849 a55.868392267212464,55.868392267212464 0 0,0 -0.9617181568398364,0.0 l 0.3001121437574507 -34.86710071114849" fill="#64ff29" stroke="none" /><path d="M 99.81925306533755 120.99922214144158 l -0.2018783452129007 23.45427447823314 a44.45514327746825,44.45514327746825 0 0,0 -0.7651371796225716,-0.0131725304334409 l 0.6055752147281402 -23.447324470520535" fill="#e7ff1a" stroke="none" /><path d="M 97.2962882734958 120.8252237178851 l -3.219137787001995 24.79527086258324 a46.00336587822875,46.00336587822875 0 0,0 -0.7844042871507159,-0.10871128669094167 l 3.645470665339542 -24.736185010399694" fill="#d5ff1c" stroke="none" /><path d="M 95.51606077576429 120.51570834832081 l -8.811662188493957 40.31666855473087 a62.268379588689434,62.268379588689434 0 0,0 -1.0451594826176083,-0.2378748954966269 l 9.504341820504427 -40.15901692565655" fill="#31ff40" stroke="none" /><path d="M 94.11515582081647 120.15858648285463 l -7.429866919733055 25.451075728961683 a47.513396202793146,47.513396202793146 0 0,0 -0.7831226416725002,-0.23594842788293824 l 7.866864535845801 -25.31941193197302" fill="#c2ff1e" stroke="none" /><path d="M 90.10565033884886 118.52300852407294 l -24.785152086163613 46.399773515689574 a73.6045886424516,73.6045886424516 0 0,0 -1.112400827471747,-0.6065696256168198 l 25.580175725504 -45.96626323831299" fill="#40ffc3" stroke="none" /><line stroke="#e1ed5e" stroke-width="0.3" x1="58.666819895761336" x2="56.23545636021788" y1="174.27360380694188" y2="178.64263932499728" /><path d="M 58.180547188652646 175.14741091055294 a86.0,86.0 0 0,1 -31.652253787137756,-30.449443065178592" fill="none" id="id56" stroke="none" /><text fill="#e1ed5e" style="font-size:6.75px; font-family:Arial;" text-anchor="middle"><textPath startOffset="22.20632615414155" xlink:href="#id56">August</textPath></text><path d="M 89.4739219176387 118.17145234162733 l -22.000940706353532 37.98081701354702 a64.89286790562934,64.89286790562934 0 0,0 -0.9617497825401427,-0.5682187237352497 l 22.65145835992206 -37.596479717518015" fill="#34ff60" stroke="none" /><path d="M 88.8546689885994 117.79835938074946 l -16.67043217490669 26.62158195013644 a52.410379405954245,52.410379405954245 0 0,0 -0.7604950650771148,-0.48538393211086384 l 17.126209042030727 -26.330683589201772" fill="#8aff24" stroke="none" /><path d="M 87.95078237400918 117.19931262002967 l -18.138728417580044 25.891611411419046 a52.61311452683286,52.61311452683286 0 0,0 -0.7372667524763643,-0.5260202522455154 l 18.581722497905297 -25.575546897329314" fill="#88ff25" stroke="none" /><path d="M 87.36589467227662 116.77436683061367 l -19.7360986676032 26.203720031453773 a53.80470292662594,53.80470292662594 0 0,0 -0.7350011210281618,-0.5635675175487451 l 20.18422851712485 -25.86011317207766" fill="#7aff26" stroke="none" /><path d="M 87.07902340077011 116.55440617244103 l -11.49889792051544 14.732433361344826 a39.68874651047791,39.68874651047791 0 0,0 -0.5349334439633749,-0.4249834802787475 l 11.750788857196172 -14.53231596706095" fill="#ffda14" stroke="none" /><line stroke="#e1ed5e" stroke-width="0.3" x1="26.63291911575756" x2="22.317208475507996" y1="142.92168965132927" y2="145.44649492493687" /><path d="M 25.769776987707644 143.4266507060508 a86.0,86.0 0 0,1 -11.730757126820373,-40.83630448921669" fill="none" id="id57" stroke="none" /><text fill="#e1ed5e" style="font-size:6.75px; font-family:Arial;" text-anchor="middle"><textPath startOffset="21.46611528233685" xlink:href="#id57">September</textPath></text><path d="M 81.87401531095188 110.60418214915194 l -48.88943695223356 28.60161825714249 a77.64123597198181,77.64123597198181 0 0,0 -0.6649343478963416,-1.1593690830402676 l 49.37452329628228 -27.755829328243916" fill="#45ffee" stroke="none" /><path d="M 79.10278846688536 102.07522291339032 l -40.062779827794785 3.978482896677624 a61.25983921589252,61.25983921589252 0 0,0 -0.09517271363904505,-1.050222964392558 l 40.125327137710904 -3.2882785437365" fill="#30ff33" stroke="none" /><line stroke="#e1ed5e" stroke-width="0.3" x1="15.007084014347285" x2="10.007500721073583" y1="101.09737516637583" y2="101.16192664675087" /><path d="M 14.007167355692545 101.11028546245083 a86.0,86.0 0 0,1 10.666146001902534,-42.60595125391555" fill="none" id="id58" stroke="none" /><text fill="#e1ed5e" style="font-size:6.75px; font-family:Arial;" text-anchor="middle"><textPath startOffset="22.20632615414155" xlink:href="#id58">October</textPath></text><path d="M 79.08570108090925 98.10471618934814 l -41.85301886368137 -3.7927806897143896 a63.02452109618786,63.02452109618786 0 0,0 0.1072103355265165,-1.0795934478063627 l 41.78153140247262 4.512649668225182" fill="#32ff49" stroke="none" /><path d="M 81.6062741919709 89.86733742301443 l -42.96877153592373 -23.670466107037672 a70.05717371629585,70.05717371629585 0 0,0 0.5909568093566941,-1.051246223112772 l 42.5549570852746 24.406595840085227" fill="#3bff9c" stroke="none" /><line stroke="#e1ed5e" stroke-width="0.3" x1="26.266209847984243" x2="21.928928074336255" y1="57.711370442889674" y2="55.22380399835377" /><path d="M 25.398753493254645 57.213857153982495 a86.0,86.0 0 0,1 29.58750427330803,-30.492523968695096" fill="none" id="id59" stroke="none" /><text fill="#e1ed5e" style="font-size:6.75px; font-family:Arial;" text-anchor="middle"><textPath startOffset="21.46611528233685" xlink:href="#id59">November</textPath></text><path d="M 81.96595687620814 89.24020034530311 l -32.92072325391683 -19.641762208750194 a59.33500805042393,59.33500805042393 0 0,0 0.5308624105349901,-0.8725982220470755 l 32.577745045095625 20.20552820400434" fill="#40ff2d" stroke="none" /><path d="M 86.10567301691215 84.25364557470407 l -33.21772618182477 -37.645442654265366 a71.20554436838893,71.20554436838893 0 0,0 0.9260321779875871,-0.8030459794782199 l 32.564800205190416 38.211653627163265" fill="#3dffa9" stroke="none" /><path d="M 86.37877921826538 84.01681056812374 l -28.446570810188746 -33.37930845054756 a64.85642055042658,64.85642055042658 0 0,0 0.8559270540648092,-0.7168142926349605 l 27.867786219164827 33.864023900576335" fill="#34ff5f" stroke="none" /><path d="M 86.93701828274178 83.55741782278169 l -19.807379639755247 -24.931862762370454 a52.84226859058671,52.84226859058671 0 0,0 0.7170631552304206,-0.5596791665246406 l 19.375283929365402 25.26912031811832" fill="#85ff25" stroke="none" /><line stroke="#e1ed5e" stroke-width="0.3" x1="56.762969772571076" x2="54.21961505331055" y1="26.818313649435495" y2="22.513508569990535" /><path d="M 56.25429882871897 25.957352633546506 a86.0,86.0 0 0,1 42.265352541879196,-11.944610805530505" fill="none" id="id60" stroke="none" /><text fill="#e1ed5e" style="font-size:6.75px; font-family:Arial;" text-anchor="middle"><textPath startOffset="22.20632615414155" xlink:href="#id60">December</textPath></text><path d="M 92.91201910852362 80.23233633223022 l -10.898287216858227 -30.39422362392046 a53.28903055159786,53.28903055159786 0 0,0 0.8661192911086545,-0.3021720139697295 l 10.373485921686287 30.5773164910624" fill="#80ff25" stroke="none" /></svg>