<?xml version="1.0" encoding="utf-8" ?>
<svg baseProfile="full" height="200mm" version="1.1" viewBox="0,0,200,200" width="200mm" xmlns="http://www.w3.org/2000/svg" xmlns:ev="http://www.w3.org/2001/xml-events" xmlns:xlink="http://www.w3.org/1999/xlink"><defs /><rect fill="#1a1a1a" height="200" width="200" x="0" y="0" /><text alignment-baseline="middle" fill="#e1ed5e" style="dominant-baseline: central; font-size:9.0px; font-family: system-ui, -apple-system, BlinkMacSystemFont, &quot;Helvetica Neue&quot;, Helvetica, &quot;Segoe UI&quot;, Arial, &quot;PingFang SC&quot;, &quot;Hiragino Sans GB&quot;, &quot;Heiti SC&quot;, &quot;Microsoft YaHei&quot;, &quot;WenQuanYi Micro Hei&quot;, sans-serif;" text-anchor="middle" x="100.0" y="100.0">2024</text><line stroke="#e1ed5e" stroke-width="0.3" x1="100.0" x2="100.0" y1="15.0" y2="10.0" /><path d="M 100.0 14.0 a86.0,86.0 0 0,1 42.35913384403234,11.155469271406648" fill="none" id="id37" stroke="none" /><text fill="#e1ed5e" style="font-size:6.75px; font-family: system-ui, -apple-system, BlinkMacSystemFont, &quot;Helvetica Neue&quot;, Helvetica, &quot;Segoe UI&quot;, Arial, &quot;PingFang SC&quot;, &quot;Hiragino Sans GB&quot;, &quot;Heiti SC&quot;, &quot;Microsoft YaHei&quot;, &quot;WenQuanYi Micro Hei&quot;, sans-serif;" text-anchor="middle"><textPath startOffset="22.145653131862478" xlink:href="#id37">January</textPath></text><path d="M 100.0 79.0 l 0.0 -35.68076109936575 a56.68076109936575,56.68076109936575 0 0,0 0.9730006357795024,0.008352040228813043 l -0.6125077109306476 35.675503457331374" fill="#8fff24" stroke="none" /><path d="M 100.36049292484886 79.00309439819443 l 0.27462498362340526 -15.995528509902622 a36.99788583509514,36.99788583509514 0 0,0 0.6349307363094762,0.01635356351295789 l -0.5491690340036228 15.988457229039618" fill="#ff4506" stroke="none" /><path d="M 100.72087961077811 79.0123766808444 l 0.6507729255861615 -18.94654367289523 a39.95771670190275,39.95771670190275 0 0,0 0.6853209629159563,0.029430630902224458 l -0.9759196491029541 18.932580473567178" fill="#ff770b" stroke="none" /><path d="M 101.08105385017728 79.02784411241856 l 1.097814374986227 -21.29730559126487 a42.325581395348834,42.325581395348834 0 0,0 0.7252904530663549,0.043631672601396485 l -1.4632491801850442 21.275321940838783" fill="#ff9d0e" stroke="none" /><path d="M 101.44090949804482 79.04949213459386 l 1.5241755860220347 -22.16117851020057 a43.213530655391125,43.213530655391125 0 0,0 0.7396325125132617,0.057252234231461134 l -1.90437709331053 22.131748508974056" fill="#ffab0f" stroke="none" /><path d="M 101.80034050326958 79.07731436759882 l 1.6760040907816183 -19.47770804820434 a40.54968287526427,40.54968287526427 0 0,0 0.6930142327872195,0.06562916836913084 l -2.010117886953851 19.44606712433003" fill="#ff810b" stroke="none" /><path d="M 102.15924093988457 79.11130261209362 l 4.204357094362975 -40.673341002667584 a61.890063424947144,61.890063424947144 0 0,0 1.0558565606099142,0.11831092992237341 l -4.901949556573686 40.595174312238235" fill="#4dff2c" stroke="none" /><path d="M 102.51750503828377 79.15144685158666 l 2.343639292158465 -19.408695355217773 a40.54968287526427,40.54968287526427 0 0,0 0.690352902057245,0.08938000451790848 l -2.6764700161065016 19.365603754499467" fill="#ff810b" stroke="none" /><path d="M 102.87502721639298 79.19773525538626 l 2.4941215668638184 -18.046221212557796 a39.217758985200845,39.217758985200845 0 0,0 0.6660947640166616,0.09789299207749232 l -2.803541436488162 18.00074714718142" fill="#ff6b09" stroke="none" /><path d="M 103.23170211078529 79.25015418208739 l 3.643920632316051 -23.396584431754892 a44.678646934460886,44.678646934460886 0 0,0 0.7568190403684144,0.12453428508920168 l -4.045017175737536 23.330584148170022" fill="#ffc212" stroke="none" /><path d="M 103.58742460773223 79.30868818359171 l 4.3256402423043285 -24.94914342344932 a46.321353065539114,46.321353065539114 0 0,0 0.7823130965364355,0.14256350640931964 l -4.753288072391817 24.871211743108635" fill="#ffdc14" stroke="none" /><path d="M 104.29559338865022 79.4440306129975 l 3.9383840723283527 -18.846593497174258 a40.25369978858351,40.25369978858351 0 0,0 0.6751840921747394,0.14715323035678998 l -4.261330581122226 18.776208808683748" fill="#ff7c0b" stroke="none" /><path d="M 104.64783097203109 79.52079915486377 l 4.981924530274332 -21.951278707154483 a43.50951374207188,43.50951374207188 0 0,0 0.7269566370716971,0.1715597869486196 l -5.358013321085914 21.862522776559636" fill="#ffb010" stroke="none" /><path d="M 104.9986988182912 79.60360301121754 l 8.989907952275644 -36.68189225889559 a58.76744186046512,58.76744186046512 0 0,0 0.9777634817490901,0.24854365354626645 l -9.618276727250128 36.522163373514054" fill="#74ff27" stroke="none" /><path d="M 105.3480935250658 79.69241777938227 l 5.8832797692936705 -22.339771561933947 a44.1014799154334,44.1014799154334 0 0,0 0.7304435695663252,0.19908564302357765 l -6.2659047397946885 22.235485424766228" fill="#ffb911" stroke="none" /><path d="M 105.69591212413111 79.78721728523813 l 5.619645506542322 -19.942139394409175 a41.71881606765328,41.71881606765328 0 0,0 0.6876452608148393,0.2001635135737897 l -5.961150779738766 19.84273218653287" fill="#ff940d" stroke="none" /><path d="M 106.04205211174951 79.88797359093562 l 8.307289408050238 -27.65226463994688 a49.87315010570825,49.87315010570825 0 0,0 0.8178231622428516,0.2533637061956312 l -8.78075320316472 27.5055843459446" fill="#eeff19" stroke="none" /><path d="M 106.38641147887787 79.99465700312896 l 6.395412763555647 -20.033539392920183 a42.02959830866808,42.02959830866808 0 0,0 0.6854372269770344,0.2253168310206193 l -6.7383727281804235 19.92080164049754" fill="#ff990e" stroke="none" /><path d="M 106.72888874123014 80.10723608172694 l 6.823728610733026 -20.17314114051792 a42.295983086680764,42.295983086680764 0 0,0 0.6857875288903014,0.2385525015637551 l -7.169021911668345 20.053030206385575" fill="#ff9d0e" stroke="none" /><path d="M 107.06938296918511 80.22567764915836 l 6.481513208534063 -18.129946003132474 a40.25369978858351,40.25369978858351 0 0,0 0.6486804140245108,0.23820443318976495 l -6.791782774212699 18.016010720933988" fill="#ff7c0b" stroke="none" /><path d="M 107.40779381753099 80.34994680014964 l 6.551642875969973 -17.379011110508955 a39.57293868921776,39.57293868921776 0 0,0 0.6335961734265763,0.24508861107743884 l -6.8490113118900755 17.26398261129348" fill="#ff710a" stroke="none" /><path d="M 107.74402155503746 80.48000691201159 l 8.846412220377543 -22.29873769952728 a44.98942917547569,44.98942917547569 0 0,0 0.7154294841304182,0.2909589429168058 l -9.2278961656984 22.14359150003118" fill="#ffc712" stroke="none" /><path d="M 108.07796709384702 80.6158196554323 l 8.043810784782133 -19.302217636979677 a41.911205073995774,41.911205073995774 0 0,0 0.6617278838036239,0.2824522848235199 l -8.373973743756187 19.161290702496753" fill="#ff970d" stroke="none" /><path d="M 108.4095320186766 80.7573450057729 l 7.947274444711285 -18.184919201732587 a40.84566596194503,40.84566596194503 0 0,0 0.6400838675958116,0.286301372437496 l -8.258271715162728 18.045814078385238" fill="#ff850c" stroke="none" /><path d="M 109.3889696526874 81.21577127319529 l 8.700842208092967 -17.407512879315142 a40.46088794926004,40.46088794926004 0 0,0 0.6186137955144999,0.31586861178750675 l -8.998383225321044 17.255586315854803" fill="#ff7f0b" stroke="none" /><path d="M 110.02825361518725 81.54914285379988 l 11.469947581006984 -21.1034116619329 a45.01902748414376,45.01902748414376 0 0,0 0.6758338122826941,0.3748736231517757 l -11.830525581445778 20.903405123347977" fill="#ffc812" stroke="none" /><path d="M 110.34350942703115 81.72400993836675 l 9.191800836847277 -16.24103133736402 a39.66173361522199,39.66173361522199 0 0,0 0.5896519986850847,0.3404357401690345 l -9.469245303392759 16.080848699918814" fill="#ff720a" stroke="none" /><line stroke="#e1ed5e" stroke-width="0.3" x1="143.13028292997686" x2="145.6673583964461" y1="26.7553504044142" y2="22.446841604673864" /><path d="M 143.63769802327073 25.89364864446614 a86.0,86.0 0 0,1 29.32050498858742,28.57503671076993" fill="none" id="id38" stroke="none" /><text fill="#e1ed5e" style="font-size:6.75px; font-family: system-ui, -apple-system, BlinkMacSystemFont, &quot;Helvetica Neue&quot;, Helvetica, &quot;Segoe UI&quot;, Arial, &quot;PingFang SC&quot;, &quot;Hiragino Sans GB&quot;, &quot;Heiti SC&quot;, &quot;Microsoft YaHei&quot;, &quot;WenQuanYi Micro Hei&quot;, sans-serif;" text-anchor="middle"><textPath startOffset="20.669276256404974" xlink:href="#id38">February</textPath></text><path d="M 110.65571695917076 81.90426304109057 l 9.469245303392759 -16.080848699918814 a39.66173361522199,39.66173361522199 0 0,0 0.58372107993381,0.35050773683138237 l -9.743899139884004 15.915926962551511" fill="#ff720a" stroke="none" /><path d="M 110.96478420261332 82.08984904055464 l 6.343966053802351 -10.362391781328142 a33.15010570824524,33.15010570824524 0 0,0 0.48278530761877647,0.30129373860108416 l -6.5209154902108395 10.251962245885512" fill="#ff0300" stroke="none" /><path d="M 111.27062007382361 82.28071324371311 l 9.618548914306123 -15.121956491799457 a38.92177589852008,38.92177589852008 0 0,0 0.5606855441607264,0.36342959571441646 l -9.876720090723856 14.954613054381147" fill="#ff6609" stroke="none" /><path d="M 111.5731344415666 82.4767994020092 l 9.061136268203308 -13.719715196876512 a37.44186046511628,37.44186046511628 0 0,0 0.5332856878890679,0.35881841059583464 l -9.295318244189376 13.562147112223558" fill="#ff4d07" stroke="none" /><path d="M 112.16784306229584 82.88440491214696 l 10.675803109625315 -15.016854041139561 a39.42494714587738,39.42494714587738 0 0,0 0.5482301538856587,0.3968763531093228 l -10.932014273884942 14.831376916657165" fill="#ff6e0a" stroke="none" /><path d="M 112.45986205192187 83.09580414077388 l 10.861768399032666 -14.73607489630916 a39.30655391120507,39.30655391120507 0 0,0 0.5397108255482767,0.4050090652479045 l -11.113132213491708 14.547446803797241" fill="#ff6c0a" stroke="none" /><path d="M 112.7482090630111 83.31218511350987 l 15.209808276023821 -19.910127274720075 a46.05496828752643,46.05496828752643 0 0,0 0.6241326654652408,0.4853293356984488 l -15.549350886124287 19.646096887400837" fill="#ffd814" stroke="none" /><path d="M 113.03279911837588 83.53348406188908 l 9.432476881305163 -11.917626404820234 a36.19873150105708,36.19873150105708 0 0,0 0.48394123728755123,0.38982880435611234 l -9.635668888947976 11.753949306670714" fill="#ff3805" stroke="none" /><path d="M 113.59037401385872 83.9905735841838 l 19.58584556613185 -23.072076828995158 a51.264270613107826,51.264270613107826 0 0,0 0.6659973799164568,0.5752726745188231 l -19.97902242581117 22.732460022011615" fill="#daff1c" stroke="none" /><path d="M 114.13192950727249 84.46653392183569 l 23.99141521002074 -26.37076799316266 a56.651162790697676,56.651162790697676 0 0,0 0.7137243378506993,0.660612591828942 l -24.440569319185407 25.95503765520134" fill="#90ff24" stroke="none" /><path d="M 114.39649973595853 84.71141617570332 l 12.265939521334644 -13.026002708650239 a38.89217758985201,38.89217758985201 0 0,0 0.4821287576786187,0.4618684436623928 l -12.487740764878575 12.813522134682266" fill="#ff6509" stroke="none" /><path d="M 114.65682725009322 84.96080404539774 l 13.789192656007359 -14.148926426634262 a40.756871035940804,40.756871035940804 0 0,0 0.49686134740104526,0.492614694735921 l -14.030045923538367 13.910131721669682" fill="#ff840c" stroke="none" /><path d="M 114.91283532996326 85.21462403516908 l 14.21921508205798 -14.097684059489943 a41.02325581395348,41.02325581395348 0 0,0 0.49152345821701876,0.5043463689839458 l -14.45912534142581 13.851514998438255" fill="#ff880c" stroke="none" /><path d="M 115.16444852881244 85.47280134310134 l 26.321378947473605 -25.21528561799958 a57.45031712473573,57.45031712473573 0 0,0 0.6761195584466799,0.7180155408706632 l -26.750354339656543 24.75972861718442" fill="#85ff25" stroke="none" /><path d="M 115.41159269507618 85.73525988315684 l 17.73582161455913 -16.41601170599357 a45.167019027484145,45.167019027484145 0 0,0 0.5217915553422057,0.5735403237476997 l -18.01501087074321 16.1091338066882" fill="#ffca12" stroke="none" /><path d="M 115.6541949942343 86.00192230759917 l 16.779443683037613 -15.004282008556489 a43.50951374207188,43.50951374207188 0 0,0 0.4930848991978469,0.5610401009406515 l -17.03453964619405 14.714029629804541" fill="#ffb010" stroke="none" /><path d="M 115.8921839302757 86.27271002978787 l 13.719468156862403 -11.850549833340278 a39.12896405919662,39.12896405919662 0 0,0 0.43471428758787556,0.5120923377049926 l -13.92087700795739 11.613290713185734" fill="#ff6909" stroke="none" /><path d="M 116.35404254752997 86.82634096563983 l 18.56685168715348 -14.956141440700664 a44.84143763213531,44.84143763213531 0 0,0 0.4777397569810256,0.6036085764189746 l -18.820857874776067 14.63521292036701" fill="#ffc512" stroke="none" /><path d="M 116.57777611688842 87.10902102172516 l 12.418728690805063 -9.656878543978976 a36.731501057082454,36.731501057082454 0 0,0 0.3827912559595565,0.5010860418154552 l -12.582671924118927 9.44227158892264" fill="#ff4106" stroke="none" /><path d="M 116.7966241395341 87.39550010848427 l 13.221866923086393 -9.921935432574399 a37.530655391120504,37.530655391120504 0 0,0 0.382272923421718,0.5186266382622501 l -13.390241866091937 9.693502485043274" fill="#ff4f07" stroke="none" /><path d="M 117.21940702142032 87.97951657250589 l 15.42344349839692 -10.766761406867527 a39.80972515856237,39.80972515856237 0 0,0 0.38636336008934163,0.5637156889792594 l -15.605996595301589 10.500410982818218" fill="#ff750a" stroke="none" /><path d="M 117.42321728460499 88.27688183743584 l 18.67562613804383 -12.565794732389069 a43.50951374207188,43.50951374207188 0 0,0 0.4116322407139326,0.6232636770142124 l -18.88858281767849 12.243351177035796" fill="#ffb010" stroke="none" /><path d="M 117.62189284568427 88.57770195909679 l 15.163024076519022 -9.828489011939979 a39.06976744186046,39.06976744186046 0 0,0 0.3599670853471815,0.5659280471094476 l -15.329508853492094 9.56674729015186" fill="#ff6809" stroke="none" /><path d="M 117.81537515405839 88.88188828441811 l 13.822923216785254 -8.62652642625487 a37.293868921775896,37.293868921775896 0 0,0 0.3342809933561565,0.5460228804553362 l -13.968972174596813 8.387966429674979" fill="#ff4b06" stroke="none" /><line stroke="#e1ed5e" stroke-width="0.3" x1="172.87174338648825" x2="177.1583165268699" y1="56.24261187166439" y2="53.66864786411523" /><path d="M 173.72905801456457 55.72781907015455 a86.0,86.0 0 0,1 12.242430191666344,42.057860355516425" fill="none" id="id39" stroke="none" /><text fill="#e1ed5e" style="font-size:6.75px; font-family: system-ui, -apple-system, BlinkMacSystemFont, &quot;Helvetica Neue&quot;, Helvetica, &quot;Segoe UI&quot;, Arial, &quot;PingFang SC&quot;, &quot;Hiragino Sans GB&quot;, &quot;Heiti SC&quot;, &quot;Microsoft YaHei&quot;, &quot;WenQuanYi Micro Hei&quot;, sans-serif;" text-anchor="middle"><textPath startOffset="22.145653131862474" xlink:href="#id39">March</textPath></text><path d="M 118.00360718960297 89.18935116829356 l 18.079732378565357 -10.85635982042402 a42.088794926004226,42.088794926004226 0 0,0 0.3666260524249053,0.6226111891283477 l -18.26343214112003 10.544397463002115" fill="#ff9a0e" stroke="none" /><path d="M 118.36410011445183 89.81374322990088 l 54.65228666901345 -30.314702142444382 a83.4968287526427,83.4968287526427 0 0,0 0.6844936839113773,1.2593912822665878 l -55.16462570254017 29.37205602670319" fill="#4cd8ff" stroke="none" /><path d="M 118.53625476483649 90.13048839642627 l 10.59401170844425 -5.640714524664051 a33.00211416490486,33.00211416490486 0 0,0 0.26196124466939646,0.5023452275383854 l -10.689281022088593 5.458023054021167" fill="#ff0000" stroke="none" /><path d="M 118.70294669586156 90.45014215332178 l 23.474241060838207 -11.986114746253637 a47.35729386892177,47.35729386892177 0 0,0 0.363478701707147,0.7272008881437622 l -23.67653967575709 11.581382001946125" fill="#ffeb16" stroke="none" /><path d="M 118.8641267826498 90.77261029715802 l 16.49780221090093 -8.069901776763135 a39.36575052854123,39.36575052854123 0 0,0 0.291720348010313,0.6095833294621739 l -16.633901816871152 7.785505945235857" fill="#ff6d0a" stroke="none" /><path d="M 119.71291397450082 92.76114493625339 l 13.892116965821588 -5.101377775719952 a35.79915433403806,35.79915433403806 0 0,0 0.20688472774045197,0.57869340416812 l -13.977641863605983 4.862149415170915" fill="#ff3104" stroke="none" /><path d="M 120.05942366710727 93.78553927170692 l 22.745322537262567 -7.046559064005326 a44.811839323467225,44.811839323467225 0 0,0 0.22133566104934208,0.7367544301108451 l -22.862934518315537 6.655067030303757" fill="#ffc412" stroke="none" /><path d="M 120.16314734710363 94.1308016681162 l 18.51485623204795 -5.389404810743193 a40.28329809725159,40.28329809725159 0 0,0 0.18756960153135144,0.6656183447047204 l -18.604644325653883 5.07077854213546" fill="#ff7c0b" stroke="none" /><path d="M 120.26092885502905 94.47779374421319 l 23.544941283962586 -6.417278446647254 a45.40380549682875,45.40380549682875 0 0,0 0.19850223600499473,0.7537453224695236 l -23.651633000772314 6.012152619804932" fill="#ffce13" stroke="none" /><path d="M 120.35273937422433 94.82641323984039 l 16.508811148507544 -4.196475236746803 a38.033826638477805,38.033826638477805 0 0,0 0.1554179399951597,0.6341582316823088 l -16.578416615018995 3.9124611804563996" fill="#ff5708" stroke="none" /><path d="M 120.43855184770803 95.1765574152323 l 14.648348998674466 -3.4569704783007444 a36.0507399577167,36.0507399577167 0 0,0 0.13697416578261074,0.6035334478678872 l -14.705534026014744 3.205002696493831" fill="#ff3505" stroke="none" /><path d="M 120.51834098615036 95.52812308129327 l 16.006908718582416 -3.488631253705674 a37.38266384778012,37.38266384778012 0 0,0 0.13127062893421382,0.6281774799528318 l -16.064437058341 3.2133373224674378" fill="#ff4c07" stroke="none" /><path d="M 120.65975698304385 96.23510406497455 l 16.32106242282745 -2.9742412566339187 a37.58985200845666,37.58985200845666 0 0,0 0.1102370426847955,0.6358179678517932 l -16.369714283004477 2.693630255861533" fill="#ff5007" stroke="none" /><path d="M 120.7213421655516 96.59031103205396 l 18.384897664855163 -3.0252279144778504 a39.63213530655391,39.63213530655391 0 0,0 0.10470151096104709,0.6722588081660327 l -18.434120667954478 2.709180924380376" fill="#ff720a" stroke="none" /><path d="M 120.77682067341334 96.94652285012252 l 13.631585656763791 -2.0033736621113025 a34.77801268498943,34.77801268498943 0 0,0 0.08173741091983829,0.5914111879702598 l -13.663967584238842 1.769074165940957" fill="#ff1f03" stroke="none" /><path d="M 120.82617615685814 97.30363454192243 l 17.80278483317048 -2.3049269208231804 a38.95137420718816,38.95137420718816 0 0,0 0.08016176812161047,0.663854434346425 l -17.839728687551755 1.9989788095533425" fill="#ff6609" stroke="none" /><path d="M 120.86939407059847 97.66154086499901 l 21.78123510821447 -2.4406328251842546 a42.91754756871036,42.91754756871036 0 0,0 0.07575480042506583,0.7328589748974623 l -21.819922301121203 2.066369328003861" fill="#ffa70f" stroke="none" /><path d="M 120.9064616781168 98.02013634271609 l 15.33729852496095 -1.4524581164429564 a36.40591966173361,36.40591966173361 0 0,0 0.0535797661476798,0.6226780996870129 l -15.359971913806369 1.1889589693802816" fill="#ff3b05" stroke="none" /><path d="M 120.93736805541906 98.37931529534042 l 14.887811393881488 -1.152410758986267 a35.9323467230444,35.9323467230444 0 0,0 0.04232494876054936,0.6153954659290181 l -14.905400303807104 0.896671868902915" fill="#ff3304" stroke="none" /><path d="M 120.96210409425399 98.7389718711861 l 24.537036575444596 -1.4760871895418648 a45.581395348837205,45.581395348837205 0 0,0 0.04028182133457094,0.7814565725156233 l -24.55875998623574 1.054658823649511" fill="#ffd013" stroke="none" /><path d="M 120.98066250479742 99.09900007780936 l 23.789912593529984 -1.0216412084600017 a44.811839323467225,44.811839323467225 0 0,0 0.026407644660707434,0.7688297610287841 l -23.803944925187537 0.6131051828670977" fill="#ffc412" stroke="none" /><line stroke="#e1ed5e" stroke-width="0.3" x1="184.99686870605535" x2="189.99668451229388" y1="99.2704041080226" y2="99.22748670261217" /><path d="M 185.99683186730306 99.26182062694052 a86.0,86.0 0 0,1 -10.086455211305974,41.156179273409016" fill="none" id="id40" stroke="none" /><text fill="#e1ed5e" style="font-size:6.75px; font-family: system-ui, -apple-system, BlinkMacSystemFont, &quot;Helvetica Neue&quot;, Helvetica, &quot;Segoe UI&quot;, Arial, &quot;PingFang SC&quot;, &quot;Hiragino Sans GB&quot;, &quot;Heiti SC&quot;, &quot;Microsoft YaHei&quot;, &quot;WenQuanYi Micro Hei&quot;, sans-serif;" text-anchor="middle"><textPath startOffset="21.40746469413373" xlink:href="#id40">April</textPath></text><path d="M 120.99922638620191 99.81974689727618 l 22.064726245121246 -0.18939913753433954 a43.06553911205074,43.06553911205074 0 0,0 0.0,0.7393044805163301 l -22.064726245121246 -0.18939913753433685" fill="#ffa90f" stroke="none" /><path d="M 120.99303781780057 100.54070618675476 l 13.655090842727223 0.35170670216676425 a34.65961945031712,34.65961945031712 0 0,0 -0.02042493520323265,0.5946497028829124 l -13.647041220527145 -0.5860626696137874" fill="#ff1d03" stroke="none" /><path d="M 120.98066250479742 100.90099992219065 l 19.11768613016425 0.8209957007699102 a40.13530655391121,40.13530655391121 0 0,0 -0.03546892839589494,0.6880877352799905 l -19.100775612311782 -1.1490552294266314" fill="#ff7a0b" stroke="none" /><path d="M 120.93736805541906 101.62068470465957 l 62.812104166257186 4.86205411397871 a84.0,84.0 0 0,0 -0.12362550920903681,1.4367158104973705 l -62.7193850343504 -5.939590971851738" fill="#4dd2ff" stroke="none" /><path d="M 120.9064616781168 101.97986365728391 l 21.525257584023006 2.0384642729329077 a42.6215644820296,42.6215644820296 0 0,0 -0.07523235352558261,0.7278047750705832 l -21.48709283801576 -2.4076735702864225" fill="#ffa20f" stroke="none" /><line stroke="#e1ed5e" stroke-width="0.3" x1="174.33088141563837" x2="178.70328620479359" y1="141.23008692659167" y2="143.65538615756765" /><path d="M 175.20536237346943 141.71514677278685 a86.0,86.0 0 0,1 -30.301960400862466,31.631185727798858" fill="none" id="id41" stroke="none" /><text fill="#e1ed5e" style="font-size:6.75px; font-family: system-ui, -apple-system, BlinkMacSystemFont, &quot;Helvetica Neue&quot;, Helvetica, &quot;Segoe UI&quot;, Arial, &quot;PingFang SC&quot;, &quot;Hiragino Sans GB&quot;, &quot;Heiti SC&quot;, &quot;Microsoft YaHei&quot;, &quot;WenQuanYi Micro Hei&quot;, sans-serif;" text-anchor="middle"><textPath startOffset="22.145653131862474" xlink:href="#id41">May</textPath></text><line stroke="#e1ed5e" stroke-width="0.3" x1="143.1302829299769" x2="145.66735839644613" y1="173.24464959558577" y2="177.55315839532614" /><path d="M 143.63769802327073 174.10635135553383 a86.0,86.0 0 0,1 -40.68552437913181,11.842963189579606" fill="none" id="id42" stroke="none" /><text fill="#e1ed5e" style="font-size:6.75px; font-family: system-ui, -apple-system, BlinkMacSystemFont, &quot;Helvetica Neue&quot;, Helvetica, &quot;Segoe UI&quot;, Arial, &quot;PingFang SC&quot;, &quot;Hiragino Sans GB&quot;, &quot;Heiti SC&quot;, &quot;Microsoft YaHei&quot;, &quot;WenQuanYi Micro Hei&quot;, sans-serif;" text-anchor="middle"><textPath startOffset="21.407464694133747" xlink:href="#id42">June</textPath></text><line stroke="#e1ed5e" stroke-width="0.3" x1="101.45913802915013" x2="101.54496967792366" y1="184.9874750549273" y2="189.98673829345242" /><path d="M 101.47630435890484 185.9873277026323 a86.0,86.0 0 0,1 -42.54439059252881,-10.42667462771756" fill="none" id="id43" stroke="none" /><text fill="#e1ed5e" style="font-size:6.75px; font-family: system-ui, -apple-system, BlinkMacSystemFont, &quot;Helvetica Neue&quot;, Helvetica, &quot;Segoe UI&quot;, Arial, &quot;PingFang SC&quot;, &quot;Hiragino Sans GB&quot;, &quot;Heiti SC&quot;, &quot;Microsoft YaHei&quot;, &quot;WenQuanYi Micro Hei&quot;, sans-serif;" text-anchor="middle"><textPath startOffset="22.145653131862474" xlink:href="#id43">July</textPath></text><line stroke="#e1ed5e" stroke-width="0.3" x1="58.13341422392154" x2="55.67067388415222" y1="173.97424548756322" y2="178.32567169271397" /><path d="M 57.64086615596768 174.84453072859336 a86.0,86.0 0 0,1 -31.369924170532247,-30.572349798747897" fill="none" id="id44" stroke="none" /><text fill="#e1ed5e" style="font-size:6.75px; font-family: system-ui, -apple-system, BlinkMacSystemFont, &quot;Helvetica Neue&quot;, Helvetica, &quot;Segoe UI&quot;, Arial, &quot;PingFang SC&quot;, &quot;Hiragino Sans GB&quot;, &quot;Heiti SC&quot;, &quot;Microsoft YaHei&quot;, &quot;WenQuanYi Micro Hei&quot;, sans-serif;" text-anchor="middle"><textPath startOffset="22.145653131862474" xlink:href="#id44">August</textPath></text><line stroke="#e1ed5e" stroke-width="0.3" x1="26.387840678322732" x2="22.057713659400548" y1="142.50000000000003" y2="145.00000000000006" /><path d="M 25.521815274538298 143.00000000000003 a86.0,86.0 0 0,1 -11.493303480769221,-40.785679425670985" fill="none" id="id45" stroke="none" /><text fill="#e1ed5e" style="font-size:6.75px; font-family: system-ui, -apple-system, BlinkMacSystemFont, &quot;Helvetica Neue&quot;, Helvetica, &quot;Segoe UI&quot;, Arial, &quot;PingFang SC&quot;, &quot;Hiragino Sans GB&quot;, &quot;Heiti SC&quot;, &quot;Microsoft YaHei&quot;, &quot;WenQuanYi Micro Hei&quot;, sans-serif;" text-anchor="middle"><textPath startOffset="21.40746469413373" xlink:href="#id45">September</textPath></text><line stroke="#e1ed5e" stroke-width="0.3" x1="15.003131293944662" x2="10.003315487706104" y1="100.72959589197737" y2="100.7725132973878" /><path d="M 14.003168132696942 100.73817937305945 a86.0,86.0 0 0,1 10.791469493833604,-42.45332614584628" fill="none" id="id46" stroke="none" /><text fill="#e1ed5e" style="font-size:6.75px; font-family: system-ui, -apple-system, BlinkMacSystemFont, &quot;Helvetica Neue&quot;, Helvetica, &quot;Segoe UI&quot;, Arial, &quot;PingFang SC&quot;, &quot;Hiragino Sans GB&quot;, &quot;Heiti SC&quot;, &quot;Microsoft YaHei&quot;, &quot;WenQuanYi Micro Hei&quot;, sans-serif;" text-anchor="middle"><textPath startOffset="22.145653131862435" xlink:href="#id46">October</textPath></text><line stroke="#e1ed5e" stroke-width="0.3" x1="26.387840678322718" x2="22.05771365940052" y1="57.49999999999999" y2="54.99999999999999" /><path d="M 25.521815274538284 56.99999999999999 a86.0,86.0 0 0,1 29.574782752854787,-30.34633250058573" fill="none" id="id47" stroke="none" /><text fill="#e1ed5e" style="font-size:6.75px; font-family: system-ui, -apple-system, BlinkMacSystemFont, &quot;Helvetica Neue&quot;, Helvetica, &quot;Segoe UI&quot;, Arial, &quot;PingFang SC&quot;, &quot;Hiragino Sans GB&quot;, &quot;Heiti SC&quot;, &quot;Microsoft YaHei&quot;, &quot;WenQuanYi Micro Hei&quot;, sans-serif;" text-anchor="middle"><textPath startOffset="21.40746469413373" xlink:href="#id47">November</textPath></text><line stroke="#e1ed5e" stroke-width="0.3" x1="56.869717070023135" x2="54.33264160355391" y1="26.7553504044142" y2="22.446841604673864" /><path d="M 56.362301976729285 25.89364864446614 a86.0,86.0 0 0,1 42.16139366436587,-11.88097634709845" fill="none" id="id48" stroke="none" /><text fill="#e1ed5e" style="font-size:6.75px; font-family: system-ui, -apple-system, BlinkMacSystemFont, &quot;Helvetica Neue&quot;, Helvetica, &quot;Segoe UI&quot;, Arial, &quot;PingFang SC&quot;, &quot;Hiragino Sans GB&quot;, &quot;Heiti SC&quot;, &quot;Microsoft YaHei&quot;, &quot;WenQuanYi Micro Hei&quot;, sans-serif;" text-anchor="middle"><textPath startOffset="22.145653131862474" xlink:href="#id48">December</textPath></text></svg>