<?xml version="1.0" encoding="utf-8" ?>
<svg baseProfile="full" height="200mm" version="1.1" viewBox="0,0,200,200" width="200mm" xmlns="http://www.w3.org/2000/svg" xmlns:ev="http://www.w3.org/2001/xml-events" xmlns:xlink="http://www.w3.org/1999/xlink"><defs /><rect fill="#1a1a1a" height="200" width="200" x="0" y="0" /><rect fill="#1a1a1a" height="200" width="180" x="10" y="0" /><text alignment-baseline="middle" fill="#e1ed5e" style="dominant-baseline: central; font-size:9.0px; font-family:Arial;" text-anchor="middle" x="100.0" y="100.0">2026</text><line stroke="#e1ed5e" stroke-width="0.3" x1="100.0" x2="100.0" y1="15.0" y2="10.0" /><path d="M 100.0 14.0 a86.0,86.0 0 0,1 42.46469731375804,11.215312516191453" fill="none" id="id61" stroke="none" /><text fill="#e1ed5e" style="font-size:6.75px; font-family:Arial;" text-anchor="middle"><textPath startOffset="22.20632615414155" xlink:href="#id61">January</textPath></text><path d="M 100.0 79.0 l 0.0 -14.059566291517982 a35.05956629151798,35.05956629151798 0 0,0 0.6034928012449953,0.005194453069792765 l -0.2420123219724669 14.057483215056747" fill="red" stroke="none" /><path d="M 100.36148047927253 79.00311137660856 l 0.524211191873941 -30.44923486065797 a51.45374691188581,51.45374691188581 0 0,0 0.8854292215895169,0.022868024523002423 l -1.0482670486583259 30.435700043992608" fill="red" stroke="none" /><path d="M 101.08401301168833 79.027996857942 l 1.7094852462666623 -33.07278563028361 a54.116936590721934,54.116936590721934 0 0,0 0.92987831059394,0.05609279908254331 l -2.278525605700214 33.038459561820765" fill="red" stroke="none" /><path d="M 102.52436894288641 79.15227682838746 l 2.5049667110991924 -20.687488132138164 a41.83859456491902,41.83859456491902 0 0,0 0.7142152348311976,0.09272563559557942 l -2.8606966744382363 20.641304173378447" fill="red" stroke="none" /><path d="M 102.88285421437855 79.19881850522331 l 3.8103055290235432 -27.493189376159677 a48.75597035410376,48.75597035410376 0 0,0 0.8303165422823029,0.12236707465454971 l -4.282991051734502 27.42352781734416" fill="red" stroke="none" /><path d="M 103.59715602781102 79.31037775812273 l 7.734428538524237 -44.48581142482149 a66.15317046390338,66.15317046390338 0 0,0 1.1202090557845483,0.20471104474853818 l -8.499032715411687 44.34608489872222" fill="red" stroke="none" /><path d="M 103.95276090670814 79.375362276772 l 5.947044339738471 -31.0303703983016 a52.59511391710129,52.59511391710129 0 0,0 0.8876892890535131,0.17806212043687927 l -6.480300038259109 30.923404321787512" fill="red" stroke="none" /><path d="M 104.307194497241 79.44645832069477 l 7.83523961932916 -37.389053172867335 a59.20120779577272,59.20120779577272 0 0,0 0.9955874891417151,0.21759686372643688 l -8.477669832624404 37.24864281104503" fill="red" stroke="none" /><path d="M 104.66035177308747 79.52364482259891 l 7.717788154553043 -33.909923355822336 a55.77710678012627,55.77710678012627 0 0,0 0.93433642738145,0.22112724516194207 l -8.300348268897016 33.77205019851953" fill="red" stroke="none" /><path d="M 105.01212808612495 79.60689891045804 l 9.340471473154626 -38.00405251081536 a60.13505352731266,60.13505352731266 0 0,0 1.003084510907993,0.2557085764387512 l -9.993264872747643 37.83764093820775" fill="red" stroke="none" /><path d="M 105.36241919743992 79.69619591428918 l 7.087578489067594 -26.835799251358118 a48.75597035410376,48.75597035410376 0 0,0 0.8095861797820075,0.22129048522953843 l -7.548462558073313 26.709822225302286" fill="red" stroke="none" /><path d="M 106.0581310904928 79.89281104454417 l 18.05466078766956 -59.92416977474167 a83.58495745264892,83.58495745264892 0 0,0 1.374035711143175,0.4269195839153038 l -19.083481871523453 59.60451005594385" fill="red" stroke="none" /><path d="M 106.40334571778207 80.00007090966166 l 9.591835734816568 -29.958718925604266 a52.456766401317594,52.456766401317594 0 0,0 0.8575861426280541,0.28273266792230317 l -10.10610469968704 29.78917253342273" fill="red" stroke="none" /><path d="M 106.74666289553966 80.11325718540242 l 13.334057877541998 -39.304020934697384 a62.504254735108425,62.504254735108425 0 0,0 1.0158965220812308,0.3544263489030344 l -14.008636403686502 39.068673732622145" fill="red" stroke="none" /><path d="M 107.08798089147638 80.2323363322302 l 9.35660173129561 -26.09461833058054 a48.721383475157836,48.721383475157836 0 0,0 0.7870073517897842,0.2898614494924358 l -9.80439140885797 25.92969361328178" fill="red" stroke="none" /><path d="M 107.4271985657038 80.35727306442388 l 16.78917929963514 -44.402376150005296 a68.47049135328027,68.47049135328027 0 0,0 1.0988432517523896,0.4263341101257439 l -17.5510057163872 44.10679933598901" fill="red" stroke="none" /><path d="M 107.76421540070413 80.48803036053334 l 12.845162289334016 -32.280713976685576 a55.742519901180344,55.742519901180344 0 0,0 0.8884724076531136,0.3624302032953028 l -13.398918566575519 32.0548228872067" fill="red" stroke="none" /><path d="M 108.43124777332544 80.76684994638697 l 25.2937433199763 -57.69945016083909 a84.0,84.0 0 0,0 1.3192715261328791,0.591918677933875 l -26.283196964575957 57.255511152388685" fill="red" stroke="none" /><path d="M 108.76106565485865 80.91482961587045 l 13.109132276869206 -28.557030953579535 a52.42217952237167,52.42217952237167 0 0,0 0.8168418738516212,0.3835182124270693 l -13.598752362020425 28.32714775851246" fill="red" stroke="none" /><path d="M 109.08828744355905 81.06846463323043 l 18.867614036683268 -39.30255338426523 a64.59676091133682,64.59676091133682 0 0,0 0.9982621416088667,0.48984289748258936 l -19.541347445302566 38.97195532664781" fill="red" stroke="none" /><path d="M 109.41281617654863 81.2277094730956 l 12.425537467203494 -24.780660209685216 a48.721383475157836,48.721383475157836 0 0,0 0.7464568649189783,0.38236419875343 l -12.850254819711228 24.563103485619283" fill="red" stroke="none" /><path d="M 109.73455568895987 81.39251694778311 l 18.766342191480966 -35.871631478374766 a61.48394180620368,61.48394180620368 0 0,0 0.933545685898719,0.4986677746726024 l -19.381032923907995 35.54328497720041" fill="red" stroke="none" /><path d="M 110.05341064243156 81.56283822128135 l 16.582746239465063 -30.411448017655882 a55.638759264342575,55.638759264342575 0 0,0 0.8369020840726646,0.46573510369177695 l -17.10377241260976 30.121497516403924" fill="red" stroke="none" /><line stroke="#e1ed5e" stroke-width="0.3" x1="143.23703022742887" x2="145.7803849466894" y1="26.81831364943548" y2="22.513508569990506" /><path d="M 143.74570117128098 25.957352633546492 a86.0,86.0 0 0,1 28.547481713284135,27.462654790039103" fill="none" id="id62" stroke="none" /><text fill="#e1ed5e" style="font-size:6.75px; font-family:Arial;" text-anchor="middle"><textPath startOffset="19.985693538727396" xlink:href="#id62">February</textPath></text><line stroke="#e1ed5e" stroke-width="0.3" x1="172.23445277983987" x2="176.4835382374775" y1="55.19839476539836" y2="52.563006222186495" /><path d="M 173.08426987136738 54.67131705675599 a86.0,86.0 0 0,1 12.851231095245387,41.99856678651699" fill="none" id="id63" stroke="none" /><text fill="#e1ed5e" style="font-size:6.75px; font-family:Arial;" text-anchor="middle"><textPath startOffset="22.20632615414155" xlink:href="#id63">March</textPath></text><line stroke="#e1ed5e" stroke-width="0.3" x1="184.98032266829074" x2="189.97916517819016" y1="98.17113171792111" y2="98.06355123074" /><path d="M 185.9800911702706 98.14961562048488 a86.0,86.0 0 0,1 -9.607161424134198,41.387399972396054" fill="none" id="id64" stroke="none" /><text fill="#e1ed5e" style="font-size:6.75px; font-family:Arial;" text-anchor="middle"><textPath startOffset="21.466115282336823" xlink:href="#id64">April</textPath></text><line stroke="#e1ed5e" stroke-width="0.3" x1="174.80103733775053" x2="179.2010983576182" y1="140.37084112569926" y2="142.7455964860345" /><path d="M 175.68104954172406 140.8457921977663 a86.0,86.0 0 0,1 -30.038265399797805,32.042727171017184" fill="none" id="id65" stroke="none" /><text fill="#e1ed5e" style="font-size:6.75px; font-family:Arial;" text-anchor="middle"><textPath startOffset="22.206326154141568" xlink:href="#id65">May</textPath></text><line stroke="#e1ed5e" stroke-width="0.3" x1="143.8653032363475" x2="146.44561519142675" y1="172.8068346515853" y2="177.08958963109032" /><path d="M 144.38136562736335 173.6633856474863 a86.0,86.0 0 0,1 -40.68145358897372,12.25698825130547" fill="none" id="id66" stroke="none" /><text fill="#e1ed5e" style="font-size:6.75px; font-family:Arial;" text-anchor="middle"><textPath startOffset="21.466115282336833" xlink:href="#id66">June</textPath></text><line stroke="#e1ed5e" stroke-width="0.3" x1="102.19456741930631" x2="102.32365962044197" y1="184.97166512339345" y2="189.96999836594603" /><path d="M 102.22038585953345 185.97133177190398 a86.0,86.0 0 0,1 -42.740103519485714,-10.115201625700543" fill="none" id="id67" stroke="none" /><text fill="#e1ed5e" style="font-size:6.75px; font-family:Arial;" text-anchor="middle"><textPath startOffset="22.20632615414155" xlink:href="#id67">July</textPath></text><line stroke="#e1ed5e" stroke-width="0.3" x1="58.666819895761336" x2="56.23545636021788" y1="174.27360380694188" y2="178.64263932499728" /><path d="M 58.180547188652646 175.14741091055294 a86.0,86.0 0 0,1 -31.652253787137756,-30.449443065178592" fill="none" id="id68" stroke="none" /><text fill="#e1ed5e" style="font-size:6.75px; font-family:Arial;" text-anchor="middle"><textPath startOffset="22.20632615414155" xlink:href="#id68">August</textPath></text><line stroke="#e1ed5e" stroke-width="0.3" x1="26.63291911575756" x2="22.317208475507996" y1="142.92168965132927" y2="145.44649492493687" /><path d="M 25.769776987707644 143.4266507060508 a86.0,86.0 0 0,1 -11.730757126820373,-40.83630448921669" fill="none" id="id69" stroke="none" /><text fill="#e1ed5e" style="font-size:6.75px; font-family:Arial;" text-anchor="middle"><textPath startOffset="21.46611528233685" xlink:href="#id69">September</textPath></text><line stroke="#e1ed5e" stroke-width="0.3" x1="15.007084014347285" x2="10.007500721073583" y1="101.09737516637583" y2="101.16192664675087" /><path d="M 14.007167355692545 101.11028546245083 a86.0,86.0 0 0,1 10.666146001902534,-42.60595125391555" fill="none" id="id70" stroke="none" /><text fill="#e1ed5e" style="font-size:6.75px; font-family:Arial;" text-anchor="middle"><textPath startOffset="22.20632615414155" xlink:href="#id70">October</textPath></text><line stroke="#e1ed5e" stroke-width="0.3" x1="26.266209847984243" x2="21.928928074336255" y1="57.711370442889674" y2="55.22380399835377" /><path d="M 25.398753493254645 57.213857153982495 a86.0,86.0 0 0,1 29.58750427330803,-30.492523968695096" fill="none" id="id71" stroke="none" /><text fill="#e1ed5e" style="font-size:6.75px; font-family:Arial;" text-anchor="middle"><textPath startOffset="21.46611528233685" xlink:href="#id71">November</textPath></text><line stroke="#e1ed5e" stroke-width="0.3" x1="56.762969772571076" x2="54.21961505331055" y1="26.818313649435495" y2="22.513508569990535" /><path d="M 56.25429882871897 25.957352633546506 a86.0,86.0 0 0,1 42.265352541879196,-11.944610805530505" fill="none" id="id72" stroke="none" /><text fill="#e1ed5e" style="font-size:6.75px; font-family:Arial;" text-anchor="middle"><textPath startOffset="22.20632615414155" xlink:href="#id72">December</textPath></text></svg>