<?xml version="1.0" encoding="utf-8" ?>
<svg baseProfile="full" height="200mm" version="1.1" viewBox="0,0,200,200" width="200mm" xmlns="http://www.w3.org/2000/svg" xmlns:ev="http://www.w3.org/2001/xml-events" xmlns:xlink="http://www.w3.org/1999/xlink"><defs /><rect fill="#1a1a1a" height="200" width="200" x="0" y="0" /><text alignment-baseline="middle" fill="#e1ed5e" style="dominant-baseline: central; font-size:9.0px; font-family:Arial;" text-anchor="middle" x="100.0" y="100.0">2023</text><line stroke="#e1ed5e" stroke-width="0.3" x1="100.0" x2="100.0" y1="15.0" y2="10.0" /><path d="M 100.0 14.0 a86.0,86.0 0 0,1 42.46469731375804,11.215312516191453" fill="none" id="id61" stroke="none" /><text fill="#e1ed5e" style="font-size:6.75px; font-family:Arial;" text-anchor="middle"><textPath startOffset="22.20632615414155" xlink:href="#id61">January</textPath></text><path d="M 100.36148047927253 79.00311137660856 l 0.6137451486445297 -35.64988780354141 a56.655170501802054,56.655170501802054 0 0,0 0.9749366475164133,0.025179737262065387 l -1.2273084313558107 35.63404127413699" fill="#70ff27" stroke="none" /><path d="M 101.08401301168833 79.027996857942 l 0.7486812350202288 -14.484461942748787 a35.50379817022456,35.50379817022456 0 0,0 0.6100532281026556,0.03680007670225385 l -0.9978965119624963 14.46942859666623" fill="#ff750a" stroke="none" /><path d="M 103.2404852339499 79.25152402106235 l 2.7900335299569794 -17.864282506290206 a39.08084280565567,39.08084280565567 0 0,0 0.6637616775359542,0.10952636412294857 l -3.097124413631809 17.81360987922763" fill="#ffa90f" stroke="none" /><path d="M 103.95276090670814 79.375362276772 l 2.5721986138689545 -13.421167081774545 a34.6654283337954,34.6654283337954 0 0,0 0.5850758205574833,0.11736070549628116 l -2.8028408438935632 13.374902420201057" fill="#ff6809" stroke="none" /><path d="M 105.36241919743992 79.69619591428918 l 3.0256710703159797 -11.45614141259736 a32.84896035486554,32.84896035486554 0 0,0 0.5454524672642026,0.14909276388962742 l -3.2224214268038933 11.402362107881439" fill="#ff4d07" stroke="none" /><path d="M 106.0581310904928 79.89281104454417 l 6.057459271131492 -20.104959159064865 a41.99767119489881,41.99767119489881 0 0,0 0.6903909718364188,0.21450783560062367 l -6.402635615678629 19.99771118858172" fill="#ffd313" stroke="none" /><path d="M 107.08798089147638 80.2323363322302 l 5.905799215759111 -16.470678233189723 a38.497477127807045,38.497477127807045 0 0,0 0.6218583169008638,0.22903566619280802 l -6.1884398584325515 16.36657929919059" fill="#ffa10e" stroke="none" /><path d="M 107.4271985657038 80.35727306442388 l 7.0693257875725815 -18.69626008184639 a40.988134183532026,40.988134183532026 0 0,0 0.6577948216715677,0.2552141713528618 l -7.3901037742438165 18.571803206602983" fill="#ffc512" stroke="none" /><path d="M 108.09893153111575 80.62456947434976 l 8.11824143163352 -19.42162645094012 a42.050069309675635,42.050069309675635 0 0,0 0.6654248103642,0.28490017669419104 l -8.451349999788034 19.27900674628314" fill="#ffd413" stroke="none" /><path d="M 108.43124777332544 80.76684994638697 l 8.44013015246007 -19.253412313164937 a42.022123648461324,42.022123648461324 0 0,0 0.659983228536311,0.29611523659489347 l -8.770295499463161 19.105276746053512" fill="#ffd313" stroke="none" /><path d="M 108.76106565485865 80.91482961587045 l 9.286195234725703 -20.2291165546449 a43.25871915719435,43.25871915719435 0 0,0 0.6740569266431182,0.3164787651755615 l -9.633030372668419 20.066272806829335" fill="#ffe415" stroke="none" /><path d="M 109.08828744355905 81.06846463323043 l 9.74187817348953 -20.293010352669214 a43.510230108123096,43.510230108123096 0 0,0 0.6723961832892262,0.3299418869554607 l -10.089745623789188 20.12231330557892" fill="#ffe815" stroke="none" /><path d="M 109.41281617654863 81.2277094730956 l 9.978576793980213 -19.900605632596907 a43.262212364846135,43.262212364846135 0 0,0 0.6628172910522526,0.3395207604402193 l -10.319654572621221 19.725892346844187" fill="#ffe415" stroke="none" /><path d="M 109.73455568895987 81.39251694778311 l 10.402237717639842 -19.88374900927774 a43.44036595508733,43.44036595508733 0 0,0 0.6595798031144051,0.3523246881285866 l -10.742962567282559 19.7017455946474" fill="#ffe715" stroke="none" /><path d="M 110.05341064243156 81.56283822128135 l 9.875030192995565 -18.11002611089553 a41.62739118380926,41.62739118380926 0 0,0 0.6261471480828803,0.3484502099929896 l -10.18530143015048 17.93736050334236" fill="#ffce13" stroke="none" /><path d="M 110.36928655335952 81.73862282372117 l 20.77594508487088 -36.588570239247886 a63.075686165788746,63.075686165788746 0 0,0 0.9395371778404861,0.5442405763338518 l -21.402678995176693 36.22552550552398" fill="#30ff38" stroke="none" /><line stroke="#e1ed5e" stroke-width="0.3" x1="143.23703022742887" x2="145.7803849466894" y1="26.81831364943548" y2="22.513508569990506" /><path d="M 143.74570117128098 25.957352633546492 a86.0,86.0 0 0,1 28.547481713284135,27.462654790039103" fill="none" id="id62" stroke="none" /><text fill="#e1ed5e" style="font-size:6.75px; font-family:Arial;" text-anchor="middle"><textPath startOffset="19.985693538727396" xlink:href="#id62">February</textPath></text><path d="M 110.99172775467656 82.1063720568725 l 9.204162603333812 -14.983619029504373 a38.58480731910174,38.58480731910174 0 0,0 0.5629355224752044,0.3525101725301689 l -9.46071727818128 14.82296451565126" fill="#ffa20f" stroke="none" /><path d="M 111.2981086023043 82.29822771554956 l 3.770003746529928 -5.906807075565443 a28.00737454948711,28.00737454948711 0 0,0 0.4041503814145112,0.26287065024623635 l -3.8711211537287196 5.841037501159679" fill="#ff0000" stroke="none" /><path d="M 111.90073688211348 82.69761687909136 l 11.980581027538237 -17.418467864885898 a42.14089270862212,42.14089270862212 0 0,0 0.594124099103304,0.4162218993917608 l -12.278636266225192 17.2096611227302" fill="#ffd513" stroke="none" /><path d="M 112.48926042617603 83.11751280151076 l 13.960825627485933 -18.871690708153217 a44.474355420016636,44.474355420016636 0 0,0 0.6115305326974529,0.46059211887020574 l -14.283602313941769 18.628581999777165" fill="#fff517" stroke="none" /><path d="M 112.77801427241765 83.33499621200491 l 8.523399595075372 -11.116162770700361 a35.00776268367064,35.00776268367064 0 0,0 0.4750510800738413,0.37078490313300627 l -8.713483230308642 10.96779947834413" fill="#ff6d0a" stroke="none" /><path d="M 113.6212207817346 84.01681056812373 l 11.430949627477313 -13.413117385719287 a38.62323260327142,38.62323260327142 0 0,0 0.5022973495362812,0.4355873117975883 l -11.660140775660357 13.214365080502027" fill="#ffa30f" stroke="none" /><path d="M 114.16331599549186 84.49514656593476 l 23.618615390319796 -25.855750874938288 a56.0194067091766,56.0194067091766 0 0,0 0.7063570119561918,0.656481861045137 l -24.060180286070835 25.445364427818507" fill="#77ff27" stroke="none" /><path d="M 114.42810811169701 84.74124197986012 l 7.884059076283562 -8.337957321235294 a32.475187136124205,32.475187136124205 0 0,0 0.40287287694203805,0.3875633884224785 l -8.026415196838018 8.201010846050513" fill="#ff4706" stroke="none" /><path d="M 115.68641384162765 86.03803664274999 l 16.008231037158694 -14.24840230608187 a42.43082894372054,42.43082894372054 0 0,0 0.4808991677972393,0.5497508806190509 l -16.251122068533782 13.970735869259872" fill="#ffd914" stroke="none" /><path d="M 115.9244219780498 86.31012108654704 l 13.708159202063946 -11.784606051087176 a39.07734959800388,39.07734959800388 0 0,0 0.4341109959175129,0.5138504935096857 l -13.908980811468576 11.546896607948383" fill="#ffa90f" stroke="none" /><path d="M 116.15771136456269 86.58626213691792 l 16.89235640581256 -14.023622257189487 a42.95481009148877,42.95481009148877 0 0,0 0.4673923275465082,0.5729677284811288 l -17.131247225435477 13.730770359100257" fill="#ffe015" stroke="none" /><path d="M 117.04232023915458 87.72973835380427 l 51.126960717463746 -36.81078493858721 a84.0,84.0 0 0,0 0.8347495207844684,1.1806939986728273 l -51.75302285805209 35.92526443958259" fill="#4dd2ff" stroke="none" /><path d="M 117.45458315368197 88.32363383020206 l 13.370394580987874 -8.94421949740829 a37.08622123648461,37.08622123648461 0 0,0 0.3503824321513774,0.5336564825234867 l -13.522373648497178 8.712744950907128" fill="#ff8c0c" stroke="none" /><line stroke="#e1ed5e" stroke-width="0.3" x1="172.23445277983987" x2="176.4835382374775" y1="55.19839476539836" y2="52.563006222186495" /><path d="M 173.08426987136738 54.67131705675599 a86.0,86.0 0 0,1 12.851231095245387,41.99856678651699" fill="none" id="id63" stroke="none" /><text fill="#e1ed5e" style="font-size:6.75px; font-family:Arial;" text-anchor="middle"><textPath startOffset="22.20632615414155" xlink:href="#id63">March</textPath></text><path d="M 118.03404312379186 89.2402003453031 l 18.76400439245657 -11.195322457465334 a42.850013861935125,42.850013861935125 0 0,0 0.37246930853850596,0.6366707859926062 l -18.953933375465404 10.870672259118832" fill="#ffdf14" stroke="none" /><path d="M 118.3937258080291 89.86733742301442 l 15.558430119294922 -8.570766155359863 a38.762960909342944,38.762960909342944 0 0,0 0.316918401830735,0.5872016670286914 l -15.703656620344121 8.301683504998714" fill="#ffa50f" stroke="none" /><line stroke="#e1ed5e" stroke-width="0.3" x1="184.98032266829074" x2="189.97916517819016" y1="98.17113171792111" y2="98.06355123074" /><path d="M 185.9800911702706 98.14961562048488 a86.0,86.0 0 0,1 -9.607161424134198,41.387399972396054" fill="none" id="id64" stroke="none" /><text fill="#e1ed5e" style="font-size:6.75px; font-family:Arial;" text-anchor="middle"><textPath startOffset="21.466115282336823" xlink:href="#id64">April</textPath></text><line stroke="#e1ed5e" stroke-width="0.3" x1="174.80103733775053" x2="179.2010983576182" y1="140.37084112569926" y2="142.7455964860345" /><path d="M 175.68104954172406 140.8457921977663 a86.0,86.0 0 0,1 -30.038265399797805,32.042727171017184" fill="none" id="id65" stroke="none" /><text fill="#e1ed5e" style="font-size:6.75px; font-family:Arial;" text-anchor="middle"><textPath startOffset="22.206326154141568" xlink:href="#id65">May</textPath></text><line stroke="#e1ed5e" stroke-width="0.3" x1="143.8653032363475" x2="146.44561519142675" y1="172.8068346515853" y2="177.08958963109032" /><path d="M 144.38136562736335 173.6633856474863 a86.0,86.0 0 0,1 -40.68145358897372,12.25698825130547" fill="none" id="id66" stroke="none" /><text fill="#e1ed5e" style="font-size:6.75px; font-family:Arial;" text-anchor="middle"><textPath startOffset="21.466115282336833" xlink:href="#id66">June</textPath></text><line stroke="#e1ed5e" stroke-width="0.3" x1="102.19456741930631" x2="102.32365962044197" y1="184.97166512339345" y2="189.96999836594603" /><path d="M 102.22038585953345 185.97133177190398 a86.0,86.0 0 0,1 -42.740103519485714,-10.115201625700543" fill="none" id="id67" stroke="none" /><text fill="#e1ed5e" style="font-size:6.75px; font-family:Arial;" text-anchor="middle"><textPath startOffset="22.20632615414155" xlink:href="#id67">July</textPath></text><line stroke="#e1ed5e" stroke-width="0.3" x1="58.666819895761336" x2="56.23545636021788" y1="174.27360380694188" y2="178.64263932499728" /><path d="M 58.180547188652646 175.14741091055294 a86.0,86.0 0 0,1 -31.652253787137756,-30.449443065178592" fill="none" id="id68" stroke="none" /><text fill="#e1ed5e" style="font-size:6.75px; font-family:Arial;" text-anchor="middle"><textPath startOffset="22.20632615414155" xlink:href="#id68">August</textPath></text><line stroke="#e1ed5e" stroke-width="0.3" x1="26.63291911575756" x2="22.317208475507996" y1="142.92168965132927" y2="145.44649492493687" /><path d="M 25.769776987707644 143.4266507060508 a86.0,86.0 0 0,1 -11.730757126820373,-40.83630448921669" fill="none" id="id69" stroke="none" /><text fill="#e1ed5e" style="font-size:6.75px; font-family:Arial;" text-anchor="middle"><textPath startOffset="21.46611528233685" xlink:href="#id69">September</textPath></text><line stroke="#e1ed5e" stroke-width="0.3" x1="15.007084014347285" x2="10.007500721073583" y1="101.09737516637583" y2="101.16192664675087" /><path d="M 14.007167355692545 101.11028546245083 a86.0,86.0 0 0,1 10.666146001902534,-42.60595125391555" fill="none" id="id70" stroke="none" /><text fill="#e1ed5e" style="font-size:6.75px; font-family:Arial;" text-anchor="middle"><textPath startOffset="22.20632615414155" xlink:href="#id70">October</textPath></text><line stroke="#e1ed5e" stroke-width="0.3" x1="26.266209847984243" x2="21.928928074336255" y1="57.711370442889674" y2="55.22380399835377" /><path d="M 25.398753493254645 57.213857153982495 a86.0,86.0 0 0,1 29.58750427330803,-30.492523968695096" fill="none" id="id71" stroke="none" /><text fill="#e1ed5e" style="font-size:6.75px; font-family:Arial;" text-anchor="middle"><textPath startOffset="21.46611528233685" xlink:href="#id71">November</textPath></text><line stroke="#e1ed5e" stroke-width="0.3" x1="56.762969772571076" x2="54.21961505331055" y1="26.818313649435495" y2="22.513508569990535" /><path d="M 56.25429882871897 25.957352633546506 a86.0,86.0 0 0,1 42.265352541879196,-11.944610805530505" fill="none" id="id72" stroke="none" /><text fill="#e1ed5e" style="font-size:6.75px; font-family:Arial;" text-anchor="middle"><textPath startOffset="22.20632615414155" xlink:href="#id72">December</textPath></text></svg>