<?xml version="1.0" encoding="utf-8" ?>
<svg baseProfile="full" height="200mm" version="1.1" viewBox="0,0,200,200" width="200mm" xmlns="http://www.w3.org/2000/svg" xmlns:ev="http://www.w3.org/2001/xml-events" xmlns:xlink="http://www.w3.org/1999/xlink"><defs /><rect fill="#1a1a1a" height="200" width="200" x="0" y="0" /><rect fill="#1a1a1a" height="200" width="180" x="10" y="0" /><text alignment-baseline="middle" fill="#e1ed5e" style="dominant-baseline: central; font-size:9.0px; font-family:Arial;" text-anchor="middle" x="100.0" y="100.0">2022</text><line stroke="#e1ed5e" stroke-width="0.3" x1="100.0" x2="100.0" y1="15.0" y2="10.0" /><path d="M 100.0 14.0 a86.0,86.0 0 0,1 42.46469731375804,11.215312516191453" fill="none" id="id13" stroke="none" /><text fill="#e1ed5e" style="font-size:6.75px; font-family:Arial;" text-anchor="middle"><textPath startOffset="22.20632615414155" xlink:href="#id13">January</textPath></text><path d="M 100.0 79.0 l 0.0 -31.65368913671214 a52.65368913671214,52.65368913671214 0 0,0 0.9063467040288298,0.0078012122254426846 l -0.5448662247563014 31.648999301095255" fill="red" stroke="none" /><path d="M 101.08401301168833 79.027996857942 l 1.6618006898290865 -32.150249962673 a53.193169371701686,53.193169371701686 0 0,0 0.9140054405624926,0.05513530421531858 l -2.214968179231191 32.11688138907738" fill="red" stroke="none" /><path d="M 101.44485096284872 79.0497635885617 l 2.167923843390154 -31.434741858405232 a52.509409538982375,52.509409538982375 0 0,0 0.9011860166019007,0.06994937926150342 l -2.708700049354396 31.392767216955264" fill="red" stroke="none" /><path d="M 102.16513564639614 79.11191278185805 l 4.870746754856896 -46.990396745940544 a68.24215871751468,68.24215871751468 0 0,0 1.1673740778907304,0.13116807951144793 l -5.678887536257351 46.899592712958494" fill="red" stroke="none" /><path d="M 103.59715602781102 79.31037775812273 l 4.3238940125196414 -24.86957280732276 a46.24265657672011,46.24265657672011 0 0,0 0.7830530615164142,0.14309794184291721 l -4.751342195138956 24.791459384129105" fill="red" stroke="none" /><path d="M 104.307194497241 79.44645832069477 l 6.476874569086292 -30.907058293425017 a52.57841282485313,52.57841282485313 0 0,0 0.8842118591217305,0.19325446483912528 l -7.007929152361551 30.790990330490022" fill="red" stroke="none" /><path d="M 106.74666289553966 80.11325718540242 l 10.100848680407669 -29.773679673433158 a52.44040625311162,52.44040625311162 0 0,0 0.8523263984961824,0.2973599445677794 l -10.611857082967125 29.59539887569317" fill="red" stroke="none" /><line stroke="#e1ed5e" stroke-width="0.3" x1="143.23703022742887" x2="145.7803849466894" y1="26.81831364943548" y2="22.513508569990506" /><path d="M 143.74570117128098 25.957352633546492 a86.0,86.0 0 0,1 28.547481713284135,27.462654790039103" fill="none" id="id14" stroke="none" /><text fill="#e1ed5e" style="font-size:6.75px; font-family:Arial;" text-anchor="middle"><textPath startOffset="19.985693538727396" xlink:href="#id14">February</textPath></text><line stroke="#e1ed5e" stroke-width="0.3" x1="172.23445277983987" x2="176.4835382374775" y1="55.19839476539836" y2="52.563006222186495" /><path d="M 173.08426987136738 54.67131705675599 a86.0,86.0 0 0,1 12.851231095245387,41.99856678651699" fill="none" id="id15" stroke="none" /><text fill="#e1ed5e" style="font-size:6.75px; font-family:Arial;" text-anchor="middle"><textPath startOffset="22.20632615414155" xlink:href="#id15">March</textPath></text><path d="M 118.3937258080291 89.86733742301442 l 27.48344612917303 -15.13997158520818 a52.37767599322912,52.37767599322912 0 0,0 0.4282296547522329,0.7934445134427205 l -27.739983883143726 14.664646088433" fill="red" stroke="none" /><path d="M 119.04729006885535 91.15688171328212 l 28.48274442438213 -13.223732991131051 a52.40276809718212,52.40276809718212 0 0,0 0.3728024827821927,0.8214208539688405 l -28.70614922412767 12.731490128320148" fill="red" stroke="none" /><path d="M 119.196687751892 91.48605970444005 l 28.872445334295406 -12.80524426609907 a52.58468585084138,52.58468585084138 0 0,0 0.3598527560366688,0.8305897751604215 l -29.088588800174758 12.306355346352046" fill="red" stroke="none" /><path d="M 119.7369772167798 92.82701384747503 l 45.29108602388801 -16.460085519375724 a69.18938564174051,69.18938564174051 0 0,0 0.39716987046541985,1.1228527072756895 l -45.56770897516324 15.678035185673421" fill="red" stroke="none" /><path d="M 120.83666639777658 97.38593545837742 l 31.27056018592936 -3.9230489665772654 a52.515682564970625,52.515682564970625 0 0,0 0.1048054151463571,0.8979087933855744 l -31.333455954079305 3.3841964348668383" fill="red" stroke="none" /><path d="M 120.91429891909075 98.10471618934814 l 31.237128725118136 -2.8307534760308646 a52.36512994125262,52.36512994125262 0 0,0 0.07362416625593877,0.8984013114971471 l -31.28122737519357 2.292638247325949" fill="red" stroke="none" /><line stroke="#e1ed5e" stroke-width="0.3" x1="184.98032266829074" x2="189.97916517819016" y1="98.17113171792111" y2="98.06355123074" /><path d="M 185.9800911702706 98.14961562048488 a86.0,86.0 0 0,1 -9.607161424134198,41.387399972396054" fill="none" id="id16" stroke="none" /><text fill="#e1ed5e" style="font-size:6.75px; font-family:Arial;" text-anchor="middle"><textPath startOffset="21.466115282336823" xlink:href="#id16">April</textPath></text><path d="M 120.99980553446 99.90962569577887 l 47.41109137591813 -0.20403733684256725 a68.41153041919745,68.41153041919745 0 0,0 -0.005068000157256787,1.1776247537200086 l -47.40757907847138 -0.6120968950811261" fill="red" stroke="none" /><path d="M 120.9904718944345 100.63252640178507 l 31.507653470934997 0.9494509117703811 a52.52195559095888,52.52195559095888 0 0,0 -0.0350093027027261,0.9034345424178227 l -31.48664203538107 -1.4916627012022101" fill="red" stroke="none" /><path d="M 120.95626037817324 101.35467743843564 l 42.880727946974005 2.771942782022545 a63.97022801951608,63.97022801951608 0 0,0 -0.08049112225250597,1.098237412641074 l -42.82666026605717 -3.509653331160389" fill="red" stroke="none" /><path d="M 120.92983693683757 101.71520430193887 l 31.447897976389427 2.577161497187848 a52.55332072090013,52.55332072090013 0 0,0 -0.08164634788093852,0.9009606453857191 l -31.39887703223141 -3.118103531122138" fill="red" stroke="none" /><path d="M 120.89721153311464 102.0752229133903 l 50.163295393839284 4.981526834214215 a71.4100368415812,71.4100368415812 0 0,0 -0.13199872761501316,1.2221442807241352 l -50.070114364723224 -5.844267436823141" fill="red" stroke="none" /><path d="M 120.70491114924044 103.5080841355445 l 62.114733447721314 10.524252406633499 a84.0,84.0 0 0,0 -0.25381423064324515,1.4235249970671267 l -61.924372774738885 -11.591896154433844" fill="red" stroke="none" /><path d="M 120.5718875245553 104.21870165774334 l 12.867927654013377 2.6388413635311796 a34.135716419396594,34.135716419396594 0 0,0 -0.12299579984302167,0.5745954294564414 l -12.820597815445911 -2.85995061240379" fill="red" stroke="none" /><path d="M 120.49622156327973 104.57218783832717 l 30.65555552146021 6.8384778969941635 a52.40904112317037,52.40904112317037 0 0,0 -0.2039945410252538,0.8788031437036313 l -30.533300414504403 -7.365149698046359" fill="red" stroke="none" /><path d="M 120.32669344350535 105.2749913415812 l 30.474860418088223 7.90854770787496 a52.484317435029375,52.484317435029375 0 0,0 -0.23445975145090028,0.8725119563172099 l -30.334212590295547 -8.431950597367718" fill="red" stroke="none" /><path d="M 120.23288151984713 105.62410040840565 l 36.02149970873908 10.012836333993146 a58.387234889973115,58.387234889973115 0 0,0 -0.2774988549466739,0.96600991849901 l -35.84380821690631 -10.631403727996737" fill="red" stroke="none" /><path d="M 119.79798401119884 107.00284435728193 l 5.9494489441200935 2.104409466322498 a27.310664144180027,27.310664144180027 0 0,0 -0.1605811636971755,0.44185039562908707 l -5.912343519417691 -2.206507658957716" fill="red" stroke="none" /><path d="M 119.67450827220406 107.3425965602758 l 23.690513644903287 8.84138406884548 a46.28656775863786,46.28656775863786 0 0,0 -0.2850056185321253,0.7440597355950939 l -23.534813746777658 -9.247867371273719" fill="red" stroke="none" /><path d="M 119.54520255179757 107.68017299344265 l 31.32331326009976 12.308312688385884 a54.654784426964056,54.654784426964056 0 0,0 -0.3516056425908868,0.8726563699417047 l -31.10680500325148 -12.845668426170402" fill="red" stroke="none" /><path d="M 119.26925614724726 108.34839909993367 l 37.95523499998461 16.444093497449753 a62.364333366523944,62.364333366523944 0 0,0 -0.435240430935954,0.9813522716424962 l -37.66655348431738 -17.094994105584938" fill="red" stroke="none" /><path d="M 118.64920377521936 109.65438752849418 l 22.634187475470352 11.717348360531274 a46.48730459026187,46.48730459026187 0 0,0 -0.37399588142429324,0.7074592636269104 l -22.429139085821163 -12.10522263924432" fill="red" stroke="none" /><line stroke="#e1ed5e" stroke-width="0.3" x1="174.80103733775053" x2="179.2010983576182" y1="140.37084112569926" y2="142.7455964860345" /><path d="M 175.68104954172406 140.8457921977663 a86.0,86.0 0 0,1 -30.038265399797805,32.042727171017184" fill="none" id="id17" stroke="none" /><text fill="#e1ed5e" style="font-size:6.75px; font-family:Arial;" text-anchor="middle"><textPath startOffset="22.206326154141568" xlink:href="#id17">May</textPath></text><path d="M 117.94076556474637 110.91462005526583 l 53.74190891664141 32.69495466918421 a83.90590461017624,83.90590461017624 0 0,0 -0.7612877032802601,1.2274381769695977 l -53.17115657369318 -33.615189177519085" fill="red" stroke="none" /><path d="M 117.55443506779139 111.5257021239791 l 31.562325402679377 20.722852061405018 a58.7573434232799,58.7573434232799 0 0,0 -0.5623830267807167,0.8406863199060866 l -31.20093927048794 -21.26307529551691" fill="red" stroke="none" /><path d="M 113.20401910651253 116.32954008644616 l 19.756725591313728 24.433336540777304 a52.42158717514687,52.42158717514687 0 0,0 -0.7065494033233105,0.5613255776054458 l -19.333218695273068 -24.769796032387873" fill="red" stroke="none" /><line stroke="#e1ed5e" stroke-width="0.3" x1="143.8653032363475" x2="146.44561519142675" y1="172.8068346515853" y2="177.08958963109032" /><path d="M 144.38136562736335 173.6633856474863 a86.0,86.0 0 0,1 -40.68145358897372,12.25698825130547" fill="none" id="id18" stroke="none" /><text fill="#e1ed5e" style="font-size:6.75px; font-family:Arial;" text-anchor="middle"><textPath startOffset="21.466115282336833" xlink:href="#id18">June</textPath></text><path d="M 108.2653958097858 119.30500536409082 l 15.520146786910349 36.24950623877573 a60.43224136214278,60.43224136214278 0 0,0 -0.9598036790863164,0.4011980157004635 l -14.89387164832657 -36.51128929749616" fill="red" stroke="none" /><path d="M 107.93186726928326 119.44442032107085 l 11.984282977606714 29.378635263559595 a52.728965448571145,52.728965448571145 0 0,0 -0.8433594369662709,0.33559012492404267 l -11.476802464598578 -29.580572232889708" fill="red" stroke="none" /><path d="M 103.06178313531738 120.77559828337769 l 4.587644391143671 31.12926445965025 a52.46549835706462,52.46549835706462 0 0,0 -0.8945902338475791,0.12398205488649892 l -4.0511255661092616 -31.203621080029354" fill="red" stroke="none" /><path d="M 101.26447882468166 120.96189622390904 l 1.5327855433311324 25.409750535683415 a46.45593946032062,46.45593946032062 0 0,0 -0.7986261161065143,0.04127984797014443 l -1.0951713588111385 -25.432370190415764" fill="red" stroke="none" /><line stroke="#e1ed5e" stroke-width="0.3" x1="102.19456741930631" x2="102.32365962044197" y1="184.97166512339345" y2="189.96999836594603" /><path d="M 102.22038585953345 185.97133177190398 a86.0,86.0 0 0,1 -42.740103519485714,-10.115201625700543" fill="none" id="id19" stroke="none" /><text fill="#e1ed5e" style="font-size:6.75px; font-family:Arial;" text-anchor="middle"><textPath startOffset="22.20632615414155" xlink:href="#id19">July</textPath></text><path d="M 100.18074693466247 120.99922214144158 l 0.3005189998002391 34.914369343601656 a55.91566265060241,55.91566265060241 0 0,0 -0.962531868925365,0.0 l 0.300518999800215 -34.914369343601656" fill="red" stroke="none" /><path d="M 99.81925306533755 120.99922214144158 l -0.20392746357265762 23.69234153984611 a44.693219157622224,44.693219157622224 0 0,0 -0.7692348091440919,-0.013243074841704812 l 0.6117219626094175 -23.685320987725248" fill="red" stroke="none" /><path d="M 97.2962882734958 120.8252237178851 l -3.231370293062814 24.889491216347185 a46.098376978990345,46.098376978990345 0 0,0 -0.7860243232794109,-0.10893580893657595 l 3.6593232075290563 -24.830180841918004" fill="red" stroke="none" /><path d="M 95.51606077576429 120.51570834832081 l -8.826792637970732 40.385896051608334 a62.339241262570944,62.339241262570944 0 0,0 -1.0463488784377761,-0.2381455981129568 l 9.52066166580137 -40.22797371991769" fill="red" stroke="none" /><path d="M 94.11515582081647 120.15858648285463 l -7.608166566018028 26.061842765447036 a48.14965647714826,48.14965647714826 0 0,0 -0.7936095751831583,-0.2391080549240722 l 8.055651115641432 -25.92701934141724" fill="red" stroke="none" /><path d="M 90.10565033884886 118.52300852407294 l -24.835871812004275 46.49472487138848 a73.71223737926914,73.71223737926914 0 0,0 -1.1140277443001776,-0.6074567503897973 l 25.632522368173095 -46.06032746923891" fill="red" stroke="none" /><line stroke="#e1ed5e" stroke-width="0.3" x1="58.666819895761336" x2="56.23545636021788" y1="174.27360380694188" y2="178.64263932499728" /><path d="M 58.180547188652646 175.14741091055294 a86.0,86.0 0 0,1 -31.652253787137756,-30.449443065178592" fill="none" id="id20" stroke="none" /><text fill="#e1ed5e" style="font-size:6.75px; font-family:Arial;" text-anchor="middle"><textPath startOffset="22.20632615414155" xlink:href="#id20">August</textPath></text><path d="M 89.4739219176387 118.17145234162733 l -22.02269766669076 38.01837664067244 a64.93627402170665,64.93627402170665 0 0,0 -0.9623930862504821,-0.568598798906463 l 22.673858623969625 -37.63365926947223" fill="red" stroke="none" /><path d="M 88.8546689885994 117.79835938074946 l -16.713002592023596 26.689564101771065 a52.490590461017625,52.490590461017625 0 0,0 -0.7616589587987733,-0.4861267841517518 l 17.169943352869293 -26.39792288879551" fill="red" stroke="none" /><path d="M 87.95078237400918 117.19931262002967 l -18.15481042681401 25.914567217593262 a52.64114308473564,52.64114308473564 0 0,0 -0.7376595162206783,-0.5263004787485592 l 18.598197270883574 -25.598222477000483" fill="red" stroke="none" /><path d="M 87.36589467227662 116.77436683061367 l -19.77955173432187 26.261412892336818 a53.87692920442099,53.87692920442099 0 0,0 -0.7359877707494594,-0.5643240384821335 l 20.228668233564814 -25.91704951202732" fill="red" stroke="none" /><path d="M 87.07902340077011 116.55440617244103 l -11.629264908935466 14.899460061007115 a39.90062730259882,39.90062730259882 0 0,0 -0.5377892187560861,-0.42725228048930564 l 11.88401162040891 -14.697073866512678" fill="red" stroke="none" /><line stroke="#e1ed5e" stroke-width="0.3" x1="26.63291911575756" x2="22.317208475507996" y1="142.92168965132927" y2="145.44649492493687" /><path d="M 25.769776987707644 143.4266507060508 a86.0,86.0 0 0,1 -11.730757126820373,-40.83630448921669" fill="none" id="id21" stroke="none" /><text fill="#e1ed5e" style="font-size:6.75px; font-family:Arial;" text-anchor="middle"><textPath startOffset="21.46611528233685" xlink:href="#id21">September</textPath></text><path d="M 81.87401531095188 110.60418214915194 l -48.95261204033182 28.638577360494683 a77.71442795977298,77.71442795977298 0 0,0 -0.6655611780345264,-1.1604620142218625 l 49.43832521451873 -27.791695500414512" fill="red" stroke="none" /><path d="M 79.10278846688536 102.07522291339032 l -40.12564245788936 3.984725546332652 a61.323011052474364,61.323011052474364 0 0,0 -0.0952708568139213,-1.0513059661491786 l 40.18828791098036 -3.2934381916349076" fill="red" stroke="none" /><line stroke="#e1ed5e" stroke-width="0.3" x1="15.007084014347285" x2="10.007500721073583" y1="101.09737516637583" y2="101.16192664675087" /><path d="M 14.007167355692545 101.11028546245083 a86.0,86.0 0 0,1 10.666146001902534,-42.60595125391555" fill="none" id="id22" stroke="none" /><text fill="#e1ed5e" style="font-size:6.75px; font-family:Arial;" text-anchor="middle"><textPath startOffset="22.20632615414155" xlink:href="#id22">October</textPath></text><path d="M 79.08570108090925 98.10471618934814 l -41.9639587293237 -3.8028342196998426 a63.13591556307876,63.13591556307876 0 0,0 0.10739982745701358,-1.0815016056865907 l 41.89228177618446 4.524611356090864" fill="red" stroke="none" /><path d="M 81.6062741919709 89.86733742301443 l -43.0548348397041 -23.71787631781109 a70.1554316439311,70.1554316439311 0 0,0 0.5917856494073144,-1.0527206370783673 l 42.640191549004356 24.45548046482424" fill="red" stroke="none" /><line stroke="#e1ed5e" stroke-width="0.3" x1="26.266209847984243" x2="21.928928074336255" y1="57.711370442889674" y2="55.22380399835377" /><path d="M 25.398753493254645 57.213857153982495 a86.0,86.0 0 0,1 29.58750427330803,-30.492523968695096" fill="none" id="id23" stroke="none" /><text fill="#e1ed5e" style="font-size:6.75px; font-family:Arial;" text-anchor="middle"><textPath startOffset="21.46611528233685" xlink:href="#id23">November</textPath></text><path d="M 81.96595687620814 89.24020034530311 l -32.893318922793924 -19.625411737004647 a59.30309668425769,59.30309668425769 0 0,0 0.5305769037941452,-0.8721289240340696 l 32.55062622071356 20.188708434245793" fill="red" stroke="none" /><path d="M 86.10567301691215 84.25364557470407 l -33.30737051855421 -37.74703602399679 a71.34103355571045,71.34103355571045 0 0,0 0.9277942226196737,-0.8045740072196892 l 32.65268249728776 38.31477502463616" fill="red" stroke="none" /><path d="M 86.37877921826538 84.01681056812374 l -28.551261443422824 -33.502152815934195 a65.01782335955392,65.01782335955392 0 0,0 0.8580571289249649,-0.7185981690726673 l 27.97034677753875 33.988652142400674" fill="red" stroke="none" /><path d="M 86.93701828274178 83.55741782278169 l -19.55740247940802 -24.6172125477103 a52.44040625311162,52.44040625311162 0 0,0 0.7116099322071855,-0.5554228394574152 l 19.130759992041405 24.950213776390935" fill="red" stroke="none" /><line stroke="#e1ed5e" stroke-width="0.3" x1="56.762969772571076" x2="54.21961505331055" y1="26.818313649435495" y2="22.513508569990535" /><path d="M 56.25429882871897 25.957352633546506 a86.0,86.0 0 0,1 42.265352541879196,-11.944610805530505" fill="none" id="id24" stroke="none" /><text fill="#e1ed5e" style="font-size:6.75px; font-family:Arial;" text-anchor="middle"><textPath startOffset="22.20632615414155" xlink:href="#id24">December</textPath></text><path d="M 92.91201910852362 80.23233633223022 l -10.609739793046346 -29.58949396769722 a52.43413322712337,52.43413322712337 0 0,0 0.8522244415124024,-0.29732437377812077 l 10.09883334747066 29.76773919464755" fill="red" stroke="none" /></svg>