<?xml version="1.0" encoding="utf-8" ?>
<svg baseProfile="full" height="200mm" version="1.1" viewBox="0,0,200,200" width="200mm" xmlns="http://www.w3.org/2000/svg" xmlns:ev="http://www.w3.org/2001/xml-events" xmlns:xlink="http://www.w3.org/1999/xlink"><defs /><rect fill="#1a1a1a" height="200" width="200" x="0" y="0" /><text alignment-baseline="middle" fill="#e1ed5e" style="dominant-baseline: central; font-size:9.0px; font-family:Arial;" text-anchor="middle" x="100.0" y="100.0">2023</text><line stroke="#e1ed5e" stroke-width="0.3" x1="100.0" x2="100.0" y1="15.0" y2="10.0" /><path d="M 100.0 14.0 a86.0,86.0 0 0,1 42.46469731375804,11.215312516191453" fill="none" id="id61" stroke="none" /><text fill="#e1ed5e" style="font-size:6.75px; font-family:Arial;" text-anchor="middle"><textPath startOffset="22.20632615414155" xlink:href="#id61">January</textPath></text><path d="M 100.36148047927253 79.00311137660856 l 0.9189617065839842 -53.37864064233037 a74.3865504358655,74.3865504358655 0 0,0 1.2800627632026376,0.033060244620513365 l -1.8376511049814896 53.354913605567496" fill="#3fffbd" stroke="none" /><path d="M 101.08401301168833 79.027996857942 l 1.121001749571592 -21.687610721251506 a42.71656288916563,42.71656288916563 0 0,0 0.7339884301685902,0.04427618654322704 l -1.4941522285797941 21.665101265327976" fill="#ffb610" stroke="none" /><path d="M 103.2404852339499 79.25152402106235 l 4.177522184539154 -26.748222083930578 a48.07247820672478,48.07247820672478 0 0,0 0.816478522136388,0.13472595201043827 l -4.637329912814418 26.672349868980515" fill="#f9ff18" stroke="none" /><path d="M 103.95276090670814 79.375362276772 l 3.8513575758511087 -20.095537427962142 a41.461270236612705,41.461270236612705 0 0,0 0.6997746132388786,0.1403682042779501 l -4.196698598557113 20.02626526760698" fill="#ffa30f" stroke="none" /><path d="M 105.36241919743992 79.69619591428918 l 4.530342694325339 -17.15330098598534 a38.7414694894147,38.7414694894147 0 0,0 0.6432967707397196,0.1758373081194628 l -4.824937354288769 17.072777137039584" fill="#ff780b" stroke="none" /><path d="M 106.0581310904928 79.89281104454417 l 9.069844579066539 -30.10319123567745 a52.439850560398504,52.439850560398504 0 0,0 0.8620477841101716,0.26784244275662483 l -9.586677735887427 29.942608658038303" fill="#bcff1f" stroke="none" /><path d="M 107.08798089147638 80.2323363322302 l 8.842763707448363 -24.661575918271197 a47.19900373599003,47.19900373599003 0 0,0 0.7624160130082864,0.2808042518843651 l -9.265962046229227 24.505708398580506" fill="#fff917" stroke="none" /><path d="M 107.4271985657038 80.35727306442388 l 10.58491412028821 -27.993943592868376 a50.92826899128269,50.92826899128269 0 0,0 0.8173182870232235,0.3171067975635731 l -11.0652155723111 27.807594091414256" fill="#d1ff1d" stroke="none" /><path d="M 108.09893153111575 80.62456947434976 l 12.155457386426775 -29.080035952071817 a52.518306351183064,52.518306351183064 0 0,0 0.8310802958972465,0.3558252103924327 l -12.654221440114336 28.866491213716593" fill="#bbff1f" stroke="none" /><path d="M 108.43124777332544 80.76684994638697 l 12.637421942683053 -28.828168623323343 a52.47646326276463,52.47646326276463 0 0,0 0.8241750449371841,0.36978331853739527 l -13.131779106087016 28.606364974269415" fill="#bcff1f" stroke="none" /><path d="M 108.76106565485865 80.91482961587045 l 13.904236700562725 -30.28909232569703 a54.3280199252802,54.3280199252802 0 0,0 0.8465386598333938,0.39746125163593765 l -14.423553571695717 30.04526609142109" fill="#a3ff21" stroke="none" /><path d="M 109.08828744355905 81.06846463323043 l 14.586531578155553 -30.384760623527537 a54.704607721046074,54.704607721046074 0 0,0 0.8453912872572587,0.41482983316308647 l -15.107394132423243 30.129175630229618" fill="#9eff22" stroke="none" /><path d="M 109.41281617654863 81.2277094730956 l 14.940940845116907 -29.79721233573144 a54.333250311332506,54.333250311332506 0 0,0 0.8324358791850579,0.4264059893035478 l -15.45163721189072 29.53561382111539" fill="#a3ff21" stroke="none" /><path d="M 109.73455568895987 81.39251694778311 l 15.57528910233579 -29.771972883547036 a54.6,54.6 0 0,0 0.829022879026391,0.44283531109543933 l -16.08545702789049 29.499458845949842" fill="#a0ff22" stroke="none" /><path d="M 110.05341064243156 81.56283822128135 l 14.785900334634706 -27.11617442175184 a51.8854296388543,51.8854296388543 0 0,0 0.7804455881458062,0.43431712483263146 l -15.250470011852547 26.85764189935903" fill="#c4ff1e" stroke="none" /><path d="M 110.36928655335952 81.73862282372117 l 31.107859660078564 -54.7841315288365 a84.0,84.0 0 0,0 1.2512130701386868,0.7247833704398019 l -32.04626946268258 54.24054400100664" fill="#4dd2ff" stroke="none" /><line stroke="#e1ed5e" stroke-width="0.3" x1="143.23703022742887" x2="145.7803849466894" y1="26.81831364943548" y2="22.513508569990506" /><path d="M 143.74570117128098 25.957352633546492 a86.0,86.0 0 0,1 28.547481713284135,27.462654790039103" fill="none" id="id62" stroke="none" /><text fill="#e1ed5e" style="font-size:6.75px; font-family:Arial;" text-anchor="middle"><textPath startOffset="19.985693538727396" xlink:href="#id62">February</textPath></text><path d="M 110.99172775467656 82.1063720568725 l 13.781409095153618 -22.43499951823258 a47.32976338729763,47.32976338729763 0 0,0 0.6905206202200224,0.4324039490332946 l -14.165548867745903 22.19445122787634" fill="#fffb17" stroke="none" /><path d="M 111.2981086023043 82.29822771554956 l 5.644833339034224 -8.844272777735387 a31.492154420921544,31.492154420921544 0 0,0 0.4544362485063136,0.29557797699513866 l -5.796236613324818 8.74579587658072" fill="#ff0000" stroke="none" /><path d="M 111.90073688211348 82.69761687909136 l 17.93854535754688 -26.080703025588807 a52.65429638854296,52.65429638854296 0 0,0 0.7423475013228856,0.5200618649801894 l -18.384823998453413 25.76805631784468" fill="#b9ff1f" stroke="none" /><path d="M 112.48926042617603 83.11751280151076 l 20.903569131731736 -28.256616182776522 a56.14819427148194,56.14819427148194 0 0,0 0.7720479550196161,0.5814905134881018 l -21.386863240509737 27.892609079782574" fill="#8cff24" stroke="none" /><path d="M 112.77801427241765 83.33499621200491 l 12.76210142774465 -16.64425035862026 a41.97384806973848,41.97384806973848 0 0,0 0.5695800111695073,0.4445662332462333 l -13.046713994073587 16.4221057361508" fill="#ffab0f" stroke="none" /><path d="M 113.6212207817346 84.01681056812373 l 17.11558128115843 -20.083484603690106 a47.387297633872976,47.387297633872976 0 0,0 0.6162745166277251,0.5344271879496335 l -17.45874959643292 19.7858924223208" fill="#fffb17" stroke="none" /><path d="M 114.16331599549186 84.49514656593476 l 35.36419498251703 -38.71386193686277 a73.43462017434621,73.43462017434621 0 0,0 0.925948022794608,0.8605677737265374 l -36.025350889106484 38.099389577061594" fill="#3effb1" stroke="none" /><line stroke="#e1ed5e" stroke-width="0.3" x1="172.23445277983987" x2="176.4835382374775" y1="55.19839476539836" y2="52.563006222186495" /><path d="M 173.08426987136738 54.67131705675599 a86.0,86.0 0 0,1 12.851231095245387,41.99856678651699" fill="none" id="id63" stroke="none" /><text fill="#e1ed5e" style="font-size:6.75px; font-family:Arial;" text-anchor="middle"><textPath startOffset="22.20632615414155" xlink:href="#id63">March</textPath></text><line stroke="#e1ed5e" stroke-width="0.3" x1="184.98032266829074" x2="189.97916517819016" y1="98.17113171792111" y2="98.06355123074" /><path d="M 185.9800911702706 98.14961562048488 a86.0,86.0 0 0,1 -9.607161424134198,41.387399972396054" fill="none" id="id64" stroke="none" /><text fill="#e1ed5e" style="font-size:6.75px; font-family:Arial;" text-anchor="middle"><textPath startOffset="21.466115282336823" xlink:href="#id64">April</textPath></text><line stroke="#e1ed5e" stroke-width="0.3" x1="174.80103733775053" x2="179.2010983576182" y1="140.37084112569926" y2="142.7455964860345" /><path d="M 175.68104954172406 140.8457921977663 a86.0,86.0 0 0,1 -30.038265399797805,32.042727171017184" fill="none" id="id65" stroke="none" /><text fill="#e1ed5e" style="font-size:6.75px; font-family:Arial;" text-anchor="middle"><textPath startOffset="22.206326154141568" xlink:href="#id65">May</textPath></text><line stroke="#e1ed5e" stroke-width="0.3" x1="143.8653032363475" x2="146.44561519142675" y1="172.8068346515853" y2="177.08958963109032" /><path d="M 144.38136562736335 173.6633856474863 a86.0,86.0 0 0,1 -40.68145358897372,12.25698825130547" fill="none" id="id66" stroke="none" /><text fill="#e1ed5e" style="font-size:6.75px; font-family:Arial;" text-anchor="middle"><textPath startOffset="21.466115282336833" xlink:href="#id66">June</textPath></text><line stroke="#e1ed5e" stroke-width="0.3" x1="102.19456741930631" x2="102.32365962044197" y1="184.97166512339345" y2="189.96999836594603" /><path d="M 102.22038585953345 185.97133177190398 a86.0,86.0 0 0,1 -42.740103519485714,-10.115201625700543" fill="none" id="id67" stroke="none" /><text fill="#e1ed5e" style="font-size:6.75px; font-family:Arial;" text-anchor="middle"><textPath startOffset="22.20632615414155" xlink:href="#id67">July</textPath></text><line stroke="#e1ed5e" stroke-width="0.3" x1="58.666819895761336" x2="56.23545636021788" y1="174.27360380694188" y2="178.64263932499728" /><path d="M 58.180547188652646 175.14741091055294 a86.0,86.0 0 0,1 -31.652253787137756,-30.449443065178592" fill="none" id="id68" stroke="none" /><text fill="#e1ed5e" style="font-size:6.75px; font-family:Arial;" text-anchor="middle"><textPath startOffset="22.20632615414155" xlink:href="#id68">August</textPath></text><line stroke="#e1ed5e" stroke-width="0.3" x1="26.63291911575756" x2="22.317208475507996" y1="142.92168965132927" y2="145.44649492493687" /><path d="M 25.769776987707644 143.4266507060508 a86.0,86.0 0 0,1 -11.730757126820373,-40.83630448921669" fill="none" id="id69" stroke="none" /><text fill="#e1ed5e" style="font-size:6.75px; font-family:Arial;" text-anchor="middle"><textPath startOffset="21.46611528233685" xlink:href="#id69">September</textPath></text><line stroke="#e1ed5e" stroke-width="0.3" x1="15.007084014347285" x2="10.007500721073583" y1="101.09737516637583" y2="101.16192664675087" /><path d="M 14.007167355692545 101.11028546245083 a86.0,86.0 0 0,1 10.666146001902534,-42.60595125391555" fill="none" id="id70" stroke="none" /><text fill="#e1ed5e" style="font-size:6.75px; font-family:Arial;" text-anchor="middle"><textPath startOffset="22.20632615414155" xlink:href="#id70">October</textPath></text><line stroke="#e1ed5e" stroke-width="0.3" x1="26.266209847984243" x2="21.928928074336255" y1="57.711370442889674" y2="55.22380399835377" /><path d="M 25.398753493254645 57.213857153982495 a86.0,86.0 0 0,1 29.58750427330803,-30.492523968695096" fill="none" id="id71" stroke="none" /><text fill="#e1ed5e" style="font-size:6.75px; font-family:Arial;" text-anchor="middle"><textPath startOffset="21.46611528233685" xlink:href="#id71">November</textPath></text><line stroke="#e1ed5e" stroke-width="0.3" x1="56.762969772571076" x2="54.21961505331055" y1="26.818313649435495" y2="22.513508569990535" /><path d="M 56.25429882871897 25.957352633546506 a86.0,86.0 0 0,1 42.265352541879196,-11.944610805530505" fill="none" id="id72" stroke="none" /><text fill="#e1ed5e" style="font-size:6.75px; font-family:Arial;" text-anchor="middle"><textPath startOffset="22.20632615414155" xlink:href="#id72">December</textPath></text></svg>