<?xml version="1.0" encoding="utf-8" ?>
<svg baseProfile="full" height="200mm" version="1.1" viewBox="0,0,200,200" width="200mm" xmlns="http://www.w3.org/2000/svg" xmlns:ev="http://www.w3.org/2001/xml-events" xmlns:xlink="http://www.w3.org/1999/xlink"><defs /><rect fill="#1a1a1a" height="200" width="200" x="0" y="0" /><text alignment-baseline="middle" fill="#e1ed5e" style="dominant-baseline: central; font-size:9.0px; font-family: system-ui, -apple-system, BlinkMacSystemFont, &quot;Helvetica Neue&quot;, Helvetica, &quot;Segoe UI&quot;, Arial, &quot;PingFang SC&quot;, &quot;Hiragino Sans GB&quot;, &quot;Heiti SC&quot;, &quot;Microsoft YaHei&quot;, &quot;WenQuanYi Micro Hei&quot;, sans-serif;" text-anchor="middle" x="100.0" y="100.0">2024</text><line stroke="#e1ed5e" stroke-width="0.3" x1="100.0" x2="100.0" y1="15.0" y2="10.0" /><path d="M 100.0 14.0 a86.0,86.0 0 0,1 42.35913384403234,11.155469271406648" fill="none" id="id37" stroke="none" /><text fill="#e1ed5e" style="font-size:6.75px; font-family: system-ui, -apple-system, BlinkMacSystemFont, &quot;Helvetica Neue&quot;, Helvetica, &quot;Segoe UI&quot;, Arial, &quot;PingFang SC&quot;, &quot;Hiragino Sans GB&quot;, &quot;Heiti SC&quot;, &quot;Microsoft YaHei&quot;, &quot;WenQuanYi Micro Hei&quot;, sans-serif;" text-anchor="middle"><textPath startOffset="22.145653131862478" xlink:href="#id37">January</textPath></text><path d="M 100.0 79.0 l 0.0 -54.97394136807819 a75.97394136807819,75.97394136807819 0 0,0 1.3041937302892337,0.011194934618737377 l -0.9437008054403789 54.965840831653885" fill="#3dffac" stroke="none" /><path d="M 100.36049292484886 79.00309439819443 l 0.4231192744425755 -24.644576498970487 a45.648208469055376,45.648208469055376 0 0,0 0.7833812651795612,0.02017712254637319 l -0.8461138536928781 24.633681659074067" fill="#ff0000" stroke="none" /><path d="M 100.72087961077811 79.0123766808444 l 1.0026566573363336 -29.191254583972135 a50.20846905537459,50.20846905537459 0 0,0 0.8611331977817139,0.03698076474084724 l -1.5036156157188838 29.16974125080546" fill="#ff6809" stroke="none" /><path d="M 101.08105385017728 79.02784411241856 l 1.6914208448484869 -32.81311252334947 a53.85667752442997,53.85667752442997 0 0,0 0.922887122978419,0.055518597587489796 l -2.2544523199593685 32.77924194793729" fill="#ffb710" stroke="none" /><path d="M 101.44090949804482 79.04949213459386 l 2.3483226455648936 -34.14409588053703 a55.22475570032573,55.22475570032573 0 0,0 0.9452137835552491,0.07316552479693818 l -2.934105423895376 34.098752588745036" fill="#ffd313" stroke="none" /><path d="M 101.80034050326958 79.07731436759882 l 2.582247345080474 -30.009628360914185 a51.12052117263843,51.12052117263843 0 0,0 0.8736751128021726,0.08273794153895564 l -3.0970220212676596 29.960878663870044" fill="#ff7c0b" stroke="none" /><path d="M 102.15924093988457 79.11130261209362 l 6.477722819653705 -62.666092163719114 a84.0,84.0 0 0,0 1.4330563935968135,0.16057695797211657 l -7.552515114851315 62.54565944524002" fill="#4dd2ff" stroke="none" /><path d="M 102.51750503828377 79.15144685158666 l 3.610883990850013 -29.903299358364844 a51.12052117263843,51.12052117263843 0 0,0 0.8703200036056948,0.11268034888024958 l -4.1236818163465 29.836907413284198" fill="#ff7c0b" stroke="none" /><path d="M 102.87502721639298 79.19773525538626 l 3.8427345313569585 -27.80411281283335 a49.06840390879479,49.06840390879479 0 0,0 0.8334032277223327,0.12248157465885456 l -4.319462864686973 27.73405016487561" fill="#ff4f07" stroke="none" /><path d="M 103.23170211078529 79.25015418208739 l 5.61424905239574 -36.047506306905746 a57.48208469055375,57.48208469055375 0 0,0 0.9736986045637451,0.16022173484519006 l -6.232225160012557 35.94581857356489" fill="#feff18" stroke="none" /><path d="M 103.58742460773223 79.30868818359171 l 6.664585780488427 -38.43955973710595 a60.013029315960914,60.013029315960914 0 0,0 1.0135493825120812,0.18470246060004866 l -7.323469896551562 38.319489102574536" fill="#ceff1d" stroke="none" /><path d="M 104.29559338865022 79.4440306129975 l 6.067933766160621 -29.03725968782874 a50.66449511400651,50.66449511400651 0 0,0 0.8498066343890163,0.1852114006806481 l -6.565502817168771 28.928816829014373" fill="#ff720a" stroke="none" /><path d="M 104.64783097203109 79.52079915486377 l 7.675733885406381 -33.82069976704909 a55.68078175895766,55.68078175895766 0 0,0 0.9303140939926178,0.2195515930683089 l -8.255180133138884 33.68395203033455" fill="#ffdc14" stroke="none" /><path d="M 104.9986988182912 79.60360301121754 l 13.850900525818824 -56.5164007767349 a79.18892508143323,79.18892508143323 0 0,0 1.317532917077313,0.3349117153486595 l -14.81903873612153 56.27030382955097" fill="#43ffe2" stroke="none" /><path d="M 105.3480935250658 79.69241777938227 l 9.064466875817285 -34.41925716219791 a56.5928338762215,56.5928338762215 0 0,0 0.9373352474268105,0.25547488983087885 l -9.653983524178788 34.25858177822288" fill="#ffee16" stroke="none" /><path d="M 105.69591212413111 79.78721728523813 l 8.658281187604295 -30.72518545132098 a52.92182410423453,52.92182410423453 0 0,0 0.8723028352467928,0.2539146422626064 l -9.184444035232692 30.572027114755855" fill="#ffa30f" stroke="none" /><path d="M 106.04205211174951 79.88797359093562 l 12.799178794813555 -42.60430350063476 a65.48534201954396,65.48534201954396 0 0,0 1.0738329016207144,0.3326761778711299 l -13.5286523293059 42.378310734956976" fill="#6cff28" stroke="none" /><path d="M 106.38641147887787 79.99465700312896 l 9.85351868782352 -30.866006947398198 a53.40065146579805,53.40065146579805 0 0,0 0.8708813772301709,0.28627600659768243 l -10.381922802701434 30.692310019398494" fill="#ffad10" stroke="none" /><path d="M 106.72888874123014 80.10723608172694 l 10.5134320289144 -31.081093679039004 a53.811074918566774,53.811074918566774 0 0,0 0.872493352848813,0.30349847897733606 l -11.04543115380823 30.89603676749308" fill="#ffb610" stroke="none" /><path d="M 107.06938296918511 80.22567764915836 l 9.986175073734891 -27.933108988539608 a50.66449511400651,50.66449511400651 0 0,0 0.8164483225022094,0.2998111330104451 l -10.464212547891226 27.75756700652044" fill="#ff720a" stroke="none" /><path d="M 107.40779381753099 80.34994680014964 l 10.094225017373935 -26.77613112466038 a49.615635179153095,49.615635179153095 0 0,0 0.7943882267253938,0.30728643150013984 l -10.552385506592854 26.5989048050222" fill="#ff5b08" stroke="none" /><line stroke="#e1ed5e" stroke-width="0.3" x1="143.13028292997686" x2="145.6673583964461" y1="26.7553504044142" y2="22.446841604673864" /><path d="M 143.63769802327073 25.89364864446614 a86.0,86.0 0 0,1 29.32050498858742,28.57503671076993" fill="none" id="id38" stroke="none" /><text fill="#e1ed5e" style="font-size:6.75px; font-family: system-ui, -apple-system, BlinkMacSystemFont, &quot;Helvetica Neue&quot;, Helvetica, &quot;Segoe UI&quot;, Arial, &quot;PingFang SC&quot;, &quot;Hiragino Sans GB&quot;, &quot;Heiti SC&quot;, &quot;Microsoft YaHei&quot;, &quot;WenQuanYi Micro Hei&quot;, sans-serif;" text-anchor="middle"><textPath startOffset="20.669276256404974" xlink:href="#id38">February</textPath></text><line stroke="#e1ed5e" stroke-width="0.3" x1="172.87174338648825" x2="177.1583165268699" y1="56.24261187166439" y2="53.66864786411523" /><path d="M 173.72905801456457 55.72781907015455 a86.0,86.0 0 0,1 12.242430191666344,42.057860355516425" fill="none" id="id39" stroke="none" /><text fill="#e1ed5e" style="font-size:6.75px; font-family: system-ui, -apple-system, BlinkMacSystemFont, &quot;Helvetica Neue&quot;, Helvetica, &quot;Segoe UI&quot;, Arial, &quot;PingFang SC&quot;, &quot;Hiragino Sans GB&quot;, &quot;Heiti SC&quot;, &quot;Microsoft YaHei&quot;, &quot;WenQuanYi Micro Hei&quot;, sans-serif;" text-anchor="middle"><textPath startOffset="22.145653131862474" xlink:href="#id39">March</textPath></text><line stroke="#e1ed5e" stroke-width="0.3" x1="184.99686870605535" x2="189.99668451229388" y1="99.2704041080226" y2="99.22748670261217" /><path d="M 185.99683186730306 99.26182062694052 a86.0,86.0 0 0,1 -10.086455211305974,41.156179273409016" fill="none" id="id40" stroke="none" /><text fill="#e1ed5e" style="font-size:6.75px; font-family: system-ui, -apple-system, BlinkMacSystemFont, &quot;Helvetica Neue&quot;, Helvetica, &quot;Segoe UI&quot;, Arial, &quot;PingFang SC&quot;, &quot;Hiragino Sans GB&quot;, &quot;Heiti SC&quot;, &quot;Microsoft YaHei&quot;, &quot;WenQuanYi Micro Hei&quot;, sans-serif;" text-anchor="middle"><textPath startOffset="21.40746469413373" xlink:href="#id40">April</textPath></text><line stroke="#e1ed5e" stroke-width="0.3" x1="174.33088141563837" x2="178.70328620479359" y1="141.23008692659167" y2="143.65538615756765" /><path d="M 175.20536237346943 141.71514677278685 a86.0,86.0 0 0,1 -30.301960400862466,31.631185727798858" fill="none" id="id41" stroke="none" /><text fill="#e1ed5e" style="font-size:6.75px; font-family: system-ui, -apple-system, BlinkMacSystemFont, &quot;Helvetica Neue&quot;, Helvetica, &quot;Segoe UI&quot;, Arial, &quot;PingFang SC&quot;, &quot;Hiragino Sans GB&quot;, &quot;Heiti SC&quot;, &quot;Microsoft YaHei&quot;, &quot;WenQuanYi Micro Hei&quot;, sans-serif;" text-anchor="middle"><textPath startOffset="22.145653131862474" xlink:href="#id41">May</textPath></text><line stroke="#e1ed5e" stroke-width="0.3" x1="143.1302829299769" x2="145.66735839644613" y1="173.24464959558577" y2="177.55315839532614" /><path d="M 143.63769802327073 174.10635135553383 a86.0,86.0 0 0,1 -40.68552437913181,11.842963189579606" fill="none" id="id42" stroke="none" /><text fill="#e1ed5e" style="font-size:6.75px; font-family: system-ui, -apple-system, BlinkMacSystemFont, &quot;Helvetica Neue&quot;, Helvetica, &quot;Segoe UI&quot;, Arial, &quot;PingFang SC&quot;, &quot;Hiragino Sans GB&quot;, &quot;Heiti SC&quot;, &quot;Microsoft YaHei&quot;, &quot;WenQuanYi Micro Hei&quot;, sans-serif;" text-anchor="middle"><textPath startOffset="21.407464694133747" xlink:href="#id42">June</textPath></text><line stroke="#e1ed5e" stroke-width="0.3" x1="101.45913802915013" x2="101.54496967792366" y1="184.9874750549273" y2="189.98673829345242" /><path d="M 101.47630435890484 185.9873277026323 a86.0,86.0 0 0,1 -42.54439059252881,-10.42667462771756" fill="none" id="id43" stroke="none" /><text fill="#e1ed5e" style="font-size:6.75px; font-family: system-ui, -apple-system, BlinkMacSystemFont, &quot;Helvetica Neue&quot;, Helvetica, &quot;Segoe UI&quot;, Arial, &quot;PingFang SC&quot;, &quot;Hiragino Sans GB&quot;, &quot;Heiti SC&quot;, &quot;Microsoft YaHei&quot;, &quot;WenQuanYi Micro Hei&quot;, sans-serif;" text-anchor="middle"><textPath startOffset="22.145653131862474" xlink:href="#id43">July</textPath></text><line stroke="#e1ed5e" stroke-width="0.3" x1="58.13341422392154" x2="55.67067388415222" y1="173.97424548756322" y2="178.32567169271397" /><path d="M 57.64086615596768 174.84453072859336 a86.0,86.0 0 0,1 -31.369924170532247,-30.572349798747897" fill="none" id="id44" stroke="none" /><text fill="#e1ed5e" style="font-size:6.75px; font-family: system-ui, -apple-system, BlinkMacSystemFont, &quot;Helvetica Neue&quot;, Helvetica, &quot;Segoe UI&quot;, Arial, &quot;PingFang SC&quot;, &quot;Hiragino Sans GB&quot;, &quot;Heiti SC&quot;, &quot;Microsoft YaHei&quot;, &quot;WenQuanYi Micro Hei&quot;, sans-serif;" text-anchor="middle"><textPath startOffset="22.145653131862474" xlink:href="#id44">August</textPath></text><line stroke="#e1ed5e" stroke-width="0.3" x1="26.387840678322732" x2="22.057713659400548" y1="142.50000000000003" y2="145.00000000000006" /><path d="M 25.521815274538298 143.00000000000003 a86.0,86.0 0 0,1 -11.493303480769221,-40.785679425670985" fill="none" id="id45" stroke="none" /><text fill="#e1ed5e" style="font-size:6.75px; font-family: system-ui, -apple-system, BlinkMacSystemFont, &quot;Helvetica Neue&quot;, Helvetica, &quot;Segoe UI&quot;, Arial, &quot;PingFang SC&quot;, &quot;Hiragino Sans GB&quot;, &quot;Heiti SC&quot;, &quot;Microsoft YaHei&quot;, &quot;WenQuanYi Micro Hei&quot;, sans-serif;" text-anchor="middle"><textPath startOffset="21.40746469413373" xlink:href="#id45">September</textPath></text><line stroke="#e1ed5e" stroke-width="0.3" x1="15.003131293944662" x2="10.003315487706104" y1="100.72959589197737" y2="100.7725132973878" /><path d="M 14.003168132696942 100.73817937305945 a86.0,86.0 0 0,1 10.791469493833604,-42.45332614584628" fill="none" id="id46" stroke="none" /><text fill="#e1ed5e" style="font-size:6.75px; font-family: system-ui, -apple-system, BlinkMacSystemFont, &quot;Helvetica Neue&quot;, Helvetica, &quot;Segoe UI&quot;, Arial, &quot;PingFang SC&quot;, &quot;Hiragino Sans GB&quot;, &quot;Heiti SC&quot;, &quot;Microsoft YaHei&quot;, &quot;WenQuanYi Micro Hei&quot;, sans-serif;" text-anchor="middle"><textPath startOffset="22.145653131862435" xlink:href="#id46">October</textPath></text><line stroke="#e1ed5e" stroke-width="0.3" x1="26.387840678322718" x2="22.05771365940052" y1="57.49999999999999" y2="54.99999999999999" /><path d="M 25.521815274538284 56.99999999999999 a86.0,86.0 0 0,1 29.574782752854787,-30.34633250058573" fill="none" id="id47" stroke="none" /><text fill="#e1ed5e" style="font-size:6.75px; font-family: system-ui, -apple-system, BlinkMacSystemFont, &quot;Helvetica Neue&quot;, Helvetica, &quot;Segoe UI&quot;, Arial, &quot;PingFang SC&quot;, &quot;Hiragino Sans GB&quot;, &quot;Heiti SC&quot;, &quot;Microsoft YaHei&quot;, &quot;WenQuanYi Micro Hei&quot;, sans-serif;" text-anchor="middle"><textPath startOffset="21.40746469413373" xlink:href="#id47">November</textPath></text><line stroke="#e1ed5e" stroke-width="0.3" x1="56.869717070023135" x2="54.33264160355391" y1="26.7553504044142" y2="22.446841604673864" /><path d="M 56.362301976729285 25.89364864446614 a86.0,86.0 0 0,1 42.16139366436587,-11.88097634709845" fill="none" id="id48" stroke="none" /><text fill="#e1ed5e" style="font-size:6.75px; font-family: system-ui, -apple-system, BlinkMacSystemFont, &quot;Helvetica Neue&quot;, Helvetica, &quot;Segoe UI&quot;, Arial, &quot;PingFang SC&quot;, &quot;Hiragino Sans GB&quot;, &quot;Heiti SC&quot;, &quot;Microsoft YaHei&quot;, &quot;WenQuanYi Micro Hei&quot;, sans-serif;" text-anchor="middle"><textPath startOffset="22.145653131862474" xlink:href="#id48">December</textPath></text></svg>