<?xml version="1.0" encoding="utf-8" ?>
<svg baseProfile="full" height="200mm" version="1.1" viewBox="0,0,200,200" width="200mm" xmlns="http://www.w3.org/2000/svg" xmlns:ev="http://www.w3.org/2001/xml-events" xmlns:xlink="http://www.w3.org/1999/xlink"><defs /><rect fill="#1a1a1a" height="200" width="200" x="0" y="0" /><text alignment-baseline="middle" fill="#e1ed5e" style="dominant-baseline: central; font-size:9.0px; font-family:Arial;" text-anchor="middle" x="100.0" y="100.0">2023</text><line stroke="#e1ed5e" stroke-width="0.3" x1="100.0" x2="100.0" y1="15.0" y2="10.0" /><path d="M 100.0 14.0 a86.0,86.0 0 0,1 42.46469731375804,11.215312516191453" fill="none" id="id25" stroke="none" /><text fill="#e1ed5e" style="font-size:6.75px; font-family:Arial;" text-anchor="middle"><textPath startOffset="22.20632615414155" xlink:href="#id25">January</textPath></text><path d="M 100.36148047927253 79.00311137660856 l 0.48010816550874397 -27.887474584119254 a48.891607026675345,48.891607026675345 0 0,0 0.8413392639028531,0.02172931099400147 l -0.9600740646064648 27.875078480982893" fill="#c3ff1e" stroke="none" /><path d="M 101.08401301168833 79.027996857942 l 0.585663243269999 -11.330612497830161 a32.34573845152895,32.34573845152895 0 0,0 0.5557890472199758,0.03352671312236052 l -0.7806143393295866 11.318852515327498" fill="#ff5a08" stroke="none" /><path d="M 103.2404852339499 79.25152402106235 l 2.1825311087735466 -13.974510301493982 a35.14391672088484,35.14391672088484 0 0,0 0.5968956512489169,0.09849289685536593 l -2.4227559661613385 13.934871141698991" fill="#ff830c" stroke="none" /><path d="M 103.95276090670814 79.375362276772 l 2.012127607943032 -10.49883965820013 a31.689915419648667,31.689915419648667 0 0,0 0.5348557383747231,0.10728702945642356 l -2.1925497557848805 10.462648672666496" fill="#ff5007" stroke="none" /><path d="M 105.36241919743992 79.69619591428918 l 2.366860887145899 -8.96167904472754 a30.26896551724138,30.26896551724138 0 0,0 0.5026120079465134,0.13738284805037676 l -2.520770784316123 8.919609655850868" fill="#ff3b05" stroke="none" /><path d="M 106.0581310904928 79.89281104454417 l 4.738506959655452 -15.727301601983728 a37.425634352635,37.425634352635 0 0,0 0.6152322101957063,0.19115564250474926 l -5.008524542561877 15.643405824596456" fill="#ffa30f" stroke="none" /><path d="M 107.08798089147638 80.2323363322302 l 4.619869393026048 -12.884349682740256 a34.68757319453481,34.68757319453481 0 0,0 0.5603160906496961,0.2063691448882907 l -4.840967809448321 12.80291727004564" fill="#ff7c0b" stroke="none" /><path d="M 107.4271985657038 80.35727306442388 l 5.5300494720829105 -14.625332924575996 a36.635914118412494,36.635914118412494 0 0,0 0.5879485630253044,0.22811490812484567 l -5.780981200107882 14.527975312560605" fill="#ff980e" stroke="none" /><path d="M 108.09893153111575 80.62456947434976 l 6.350574028172219 -15.192757885174801 a37.46662329212752,37.46662329212752 0 0,0 0.5928936886059841,0.2538461356021047 l -6.611151474568518 15.081192221609907" fill="#ffa40f" stroke="none" /><path d="M 108.43124777332544 80.76684994638697 l 6.602374638890366 -15.061170725132495 a37.44476252439818,37.44476252439818 0 0,0 0.5880929643005479,0.26386017058321043 l -6.860649721657694 14.945290224032753" fill="#ffa40f" stroke="none" /><path d="M 108.76106565485865 80.91482961587045 l 7.264217352343439 -15.8244249430935 a38.4121014964216,38.4121014964216 0 0,0 0.5985369790190698,0.2810211371541287 l -7.535532542662107 15.69703882329937" fill="#ffb110" stroke="none" /><path d="M 109.08828744355905 81.06846463323043 l 7.6206798030311695 -15.874406493619134 a38.60884840598568,38.60884840598568 0 0,0 0.5966514597800402,0.2927742800852256 l -7.892802529821641 15.740877053399077" fill="#ffb410" stroke="none" /><path d="M 109.41281617654863 81.2277094730956 l 7.805839621749429 -15.567444050482978 a38.414834092387764,38.414834092387764 0 0,0 0.5885509519163661,0.30147865701455656 l -8.07265106125455 15.430772868155922" fill="#ffb110" stroke="none" /><path d="M 109.73455568895987 81.39251694778311 l 8.137252536874195 -15.554257791469269 a38.55419648666233,38.55419648666233 0 0,0 0.5853903108044317,0.312695230681425 l -8.403787894206937 15.41188383428609" fill="#ffb310" stroke="none" /><path d="M 110.05341064243156 81.56283822128135 l 7.724839276975713 -14.166745647798784 a37.13597918022121,37.13597918022121 0 0,0 0.5585886310359198,0.3108539684004106 l -7.9675519970836675 14.031676281838193" fill="#ff9f0e" stroke="none" /><path d="M 110.36928655335952 81.73862282372117 l 16.252186927158807 -28.62176813120085 a53.91411841249187,53.91411841249187 0 0,0 0.8030720193180315,0.46519114830114805 l -16.742455678942168 28.33777282550965" fill="#87ff25" stroke="none" /><line stroke="#e1ed5e" stroke-width="0.3" x1="143.23703022742887" x2="145.7803849466894" y1="26.81831364943548" y2="22.513508569990506" /><path d="M 143.74570117128098 25.957352633546492 a86.0,86.0 0 0,1 28.547481713284135,27.462654790039103" fill="none" id="id26" stroke="none" /><text fill="#e1ed5e" style="font-size:6.75px; font-family:Arial;" text-anchor="middle"><textPath startOffset="19.985693538727396" xlink:href="#id26">February</textPath></text><path d="M 110.99172775467656 82.1063720568725 l 7.20004652141077 -11.72108302741754 a34.755888093689,34.755888093689 0 0,0 0.5070732597237715,0.3175292287200354 l -7.400738933506805 11.59540945737456" fill="#ff7d0b" stroke="none" /><path d="M 111.2981086023043 82.29822771554956 l 2.9491224276151478 -4.620657801250173 a26.481587508132726,26.481587508132726 0 0,0 0.38213305831158634,0.2485499708484078 l -3.0282225117110144 4.569208906242237" fill="#ff0000" stroke="none" /><path d="M 111.90073688211348 82.69761687909136 l 9.37192708009769 -13.625767423258178 a37.53767078724789,37.53767078724789 0 0,0 0.5292254958411695,0.37075628041012587 l -9.60508371552251 13.462426300084118" fill="#ffa50f" stroke="none" /><path d="M 112.48926042617603 83.11751280151076 l 10.920992851516324 -14.762565253591122 a39.36304489264802,39.36304489264802 0 0,0 0.5412490767873122,0.4076575833660728 l -11.173488082062018 14.572391080719202" fill="#ffbe11" stroke="none" /><path d="M 112.77801427241765 83.33499621200491 l 6.667512977539982 -8.695727415726783 a31.957709824333115,31.957709824333115 0 0,0 0.43366223388555136,0.3384802521840461 l -6.816207766584964 8.579668774319513" fill="#ff5407" stroke="none" /><path d="M 113.6212207817346 84.01681056812373 l 8.941972523598064 -10.492542704465295 a34.785946649316855,34.785946649316855 0 0,0 0.45239322618434513,0.39231094779018677 l -9.121259548429174 10.337066763255438" fill="#ff7e0b" stroke="none" /><path d="M 114.16331599549186 84.49514656593476 l 18.475893670111365 -20.225914857059728 a48.39427456083279,48.39427456083279 0 0,0 0.6102105891988631,0.5671242395078877 l -18.821312143105075 19.904886031477197" fill="#c9ff1d" stroke="none" /><path d="M 114.42810811169701 84.74124197986012 l 6.167382582553632 -6.522448938992777 a29.976577748861416,29.976577748861416 0 0,0 0.37187622870159687,0.3577446373737863 l -6.278742054867647 6.4153212148566885" fill="#ff3605" stroke="none" /><path d="M 115.68641384162765 86.03803664274999 l 12.522595825424295 -11.145952530478707 a37.76447625243982,37.76447625243982 0 0,0 0.42801202932389565,0.4892917388777179 l -12.712599718326038 10.928745235398042" fill="#ffa80f" stroke="none" /><path d="M 115.9244219780498 86.31012108654704 l 10.723342060690667 -9.218623731570474 a35.141184124918674,35.141184124918674 0 0,0 0.3903840612304063,0.4620915950253337 l -10.88043673540819 9.032673186916034" fill="#ff830c" stroke="none" /><path d="M 116.15771136456269 86.58626213691792 l 13.214211571408786 -10.970116131355992 a38.17436564736499,38.17436564736499 0 0,0 0.4153761959261637,0.5092021015712206 l -13.401086259411358 10.74102986017667" fill="#ffae10" stroke="none" /><path d="M 117.04232023915458 87.72973835380427 l 39.994566755127245 -28.795597760460655 a70.28236824983735,70.28236824983735 0 0,0 0.6984306335255864,0.987880600060674 l -40.48431000845672 28.102890660068187" fill="#3bff98" stroke="none" /><path d="M 117.45458315368197 88.32363383020206 l 10.459122371204348 -6.996703475851591 a33.58360442420299,33.58360442420299 0 0,0 0.3172904816462072,0.4832551715958863 l -10.578009488208481 6.815630240278031" fill="#ff6c0a" stroke="none" /><line stroke="#e1ed5e" stroke-width="0.3" x1="172.23445277983987" x2="176.4835382374775" y1="55.19839476539836" y2="52.563006222186495" /><path d="M 173.08426987136738 54.67131705675599 a86.0,86.0 0 0,1 12.851231095245387,41.99856678651699" fill="none" id="id27" stroke="none" /><text fill="#e1ed5e" style="font-size:6.75px; font-family:Arial;" text-anchor="middle"><textPath startOffset="22.20632615414155" xlink:href="#id27">March</textPath></text><path d="M 118.03404312379186 89.2402003453031 l 14.678326576358895 -8.75765085753144 a38.092387768379965,38.092387768379965 0 0,0 0.33111413635440956,0.5659813912539622 l -14.826900387183633 8.503690053923583" fill="#ffad10" stroke="none" /><path d="M 118.3937258080291 89.86733742301442 l 12.17073464330878 -6.704565934153769 a34.895250487963565,34.895250487963565 0 0,0 0.28529675640601226,0.52861156055231 l -12.284339498933257 6.494073390269" fill="#ff7f0b" stroke="none" /><path d="M 118.56541770881063 90.18545643968196 l 12.139391540243778 -6.417447155575561 a34.73129472999349,34.73129472999349 0 0,0 0.2748577884886039,0.5309377618830211 l -12.2480587618925 6.2075366714321945" fill="#ff7d0b" stroke="none" /><path d="M 118.89224826269711 90.83032412892265 l 9.894768933943512 -4.802595365138101 a31.998698763825637,31.998698763825637 0 0,0 0.23624457385986145,0.49759132242671084 l -9.975971701645129 4.63156162707085" fill="#ff5507" stroke="none" /><path d="M 119.34039704204932 91.81776055985345 l 12.721627462271874 -5.382071616127624 a34.81327260897853,34.81327260897853 0 0,0 0.22873698231227652,0.5539047459238671 l -12.812386131470348 5.162292299750455" fill="#ff7e0b" stroke="none" /><path d="M 119.61058180528143 92.48833698450437 l 54.82541965991822 -21.00040076615793 a79.70982433311646,79.70982433311646 0 0,0 0.4797598117641628,1.2855177739563237 l -55.178784060184 20.053559855172274" fill="#47fdff" stroke="none" /><path d="M 119.85752413597 93.16781622104841 l 10.374490488733835 -3.5694493002590244 a31.971372804163956,31.971372804163956 0 0,0 0.17456781559795578,0.521935549226926 l -10.434395598103562 3.3903406481097846" fill="#ff5407" stroke="none" /><path d="M 120.08093135843002 93.85539295169968 l 13.130342235017675 -4.017781446676524 a34.73129472999349,34.73129472999349 0 0,0 0.17000820399613062,0.5731831482695647 l -13.197556336125508 3.7911689116604292" fill="#ff7d0b" stroke="none" /><path d="M 120.37134235888165 94.90015583598534 l 7.700552967150449 -1.9277875467095058 a28.938191281717632,28.938191281717632 0 0,0 0.11680997335561773,0.48425275168859977 l -7.732595740766886 1.7949495633615" fill="#ff2603" stroke="none" /><path d="M 120.73433829027371 96.67025291283417 l 14.043231073633661 -2.2552158215612423 a35.22316200390371,35.22316200390371 0 0,0 0.0909832834830741,0.5994661602167939 l -14.079970250556036 2.0131505489523662" fill="#ff840c" stroke="none" /><path d="M 120.78858239683441 97.02765380044208 l 10.860918454559554 -1.5528913456376081 a31.971372804163956,31.971372804163956 0 0,0 0.07320531047798523,0.5454645930830745 l -10.886039764095376 1.3657084104898694" fill="#ff5407" stroke="none" /><path d="M 120.83666639777658 97.38593545837742 l 58.0091707977137 -7.277542077815878 a79.46389069616134,79.46389069616134 0 0,0 0.15858588609702462,1.3586670253107718 l -58.125847036814314 6.277931314180253" fill="#47fffe" stroke="none" /><path d="M 120.91429891909075 98.10471618934814 l 13.64804282098115 -1.2368052453375535 a34.70396877033181,34.70396877033181 0 0,0 0.048792980545532424,0.5953979507431797 l -13.667310285346177 1.001693377386605" fill="#ff7c0b" stroke="none" /><path d="M 120.96714384426684 98.82574320788733 l 20.530612547574243 -1.1498090254584037 a41.562784645413146,41.562784645413146 0 0,0 0.033856632240535936,0.7146599958704195 l -20.547362788048275 0.7962379229649843" fill="#ffdc14" stroke="none" /><path d="M 120.98425023603335 99.18683210126433 l 13.830218275277678 -0.535939545490717 a34.84059856864021,34.84059856864021 0 0,0 0.018064527741122376,0.5994737306872169 l -13.837394497474445 0.29779566737850105" fill="#ff7e0b" stroke="none" /><line stroke="#e1ed5e" stroke-width="0.3" x1="184.98032266829074" x2="189.97916517819016" y1="98.17113171792111" y2="98.06355123074" /><path d="M 185.9800911702706 98.14961562048488 a86.0,86.0 0 0,1 -9.607161424134198,41.387399972396054" fill="none" id="id28" stroke="none" /><text fill="#e1ed5e" style="font-size:6.75px; font-family:Arial;" text-anchor="middle"><textPath startOffset="21.466115282336823" xlink:href="#id28">April</textPath></text><path d="M 120.99513854157772 99.54816195383933 l 14.738942411426379 -0.31719795172892645 a35.7423552374756,35.7423552374756 0 0,0 0.007943300832827663,0.6152174033271499 l -14.742218719376922 0.06344429034131381" fill="#ff8b0c" stroke="none" /><path d="M 120.9904718944345 100.63252640178507 l 13.656780673021798 0.4115331176220367 a34.6629798308393,34.6629798308393 0 0,0 -0.02310513269778627,0.5962408095806547 l -13.647673407472809 -0.6465511742166976" fill="#ff7c0b" stroke="none" /><path d="M 120.9764740272857 100.99374915477107 l 57.688715493387555 2.7329718134139807 a78.7534157449577,78.7534157449577 0 0,0 -0.07580447201319526,1.3535397703595444 l -57.633124670486836 -3.7255833001089482" fill="#46fff7" stroke="none" /><path d="M 120.92983693683757 101.71520430193887 l 22.78179388115111 1.86697254205838 a43.85816525699414,43.85816525699414 0 0,0 -0.06813763562172294,0.7518931312681122 l -22.74628164925231 -2.2588470618750627" fill="#fffb17" stroke="none" /><path d="M 120.89721153311464 102.0752229133903 l 8.198450588463329 0.8141570701199423 a29.2387768379961,29.2387768379961 0 0,0 -0.05404676303692191,0.500405901865027 l -8.183221523925356 -0.9551592938697607" fill="#ff2b04" stroke="none" /><path d="M 120.8583938346157 102.4346265915055 l 10.897391183602087 1.2719617130637106 a31.971372804163956,31.971372804163956 0 0,0 -0.06850778683303539,0.5460744664720207 l -10.873881887522202 -1.4593539338231265" fill="#ff5407" stroke="none" /><path d="M 120.81339534386255 102.79330883721812 l 13.90719389599664 1.866446438401433 a35.03188028627196,35.03188028627196 0 0,0 -0.0853542571199962,0.596967475499174 l -13.873005587860042 -2.1055593858810164" fill="#ff810b" stroke="none" /><path d="M 120.49622156327973 104.57218783832717 l 13.80194490435558 3.078864289309446 a35.141184124918674,35.141184124918674 0 0,0 -0.13678192870957587,0.5892529689651861 l -13.746902409715451 -3.315985915623197" fill="#ff830c" stroke="none" /><path d="M 120.41448212921028 104.9243191809786 l 18.767510246307182 4.527041641329061 a40.30579050097593,40.30579050097593 0 0,0 -0.16849487497044274,0.673053268560626 l -18.68680405704168 -4.849422749287083" fill="#ffcb13" stroke="none" /><path d="M 120.23288151984713 105.62410040840565 l 13.256025823348118 3.6847554399899143 a34.758620689655174,34.758620689655174 0 0,0 -0.1651983941195596,0.5750772819234505 l -13.19063479234246 -3.912390197417947" fill="#ff7d0b" stroke="none" /><path d="M 120.02730092923936 106.31721596034902 l 13.121335091570616 4.138865629194186 a34.758620689655174,34.758620689655174 0 0,0 -0.1848955845248326,0.5690500965884768 l -13.048147256029536 -4.3641146257604575" fill="#ff7d0b" stroke="none" /><path d="M 119.79798401119884 107.00284435728193 l 59.393952033596506 21.00853307184577 a84.0,84.0 0 0,0 -0.49390295597909306,1.3590088119754755 l -59.02352481661219 -22.027789680827375" fill="#4dd2ff" stroke="none" /><path d="M 118.97047184881838 109.00673069616215 l 12.379559703555515 5.877521722999764 a34.70396877033181,34.70396877033181 0 0,0 -0.2608527834734064,0.5374339959975278 l -12.276553663467393 -6.089744674962567" fill="#ff7c0b" stroke="none" /><path d="M 118.64920377521936 109.65438752849418 l 51.506746926354054 26.664199777786475 a78.99934938191282,78.99934938191282 0 0,0 -0.6355591395209292,1.2022383752582768 l -51.04013527860823 -27.546853168130884" fill="#46fff9" stroke="none" /><line stroke="#e1ed5e" stroke-width="0.3" x1="174.80103733775053" x2="179.2010983576182" y1="140.37084112569926" y2="142.7455964860345" /><path d="M 175.68104954172406 140.8457921977663 a86.0,86.0 0 0,1 -30.038265399797805,32.042727171017184" fill="none" id="id29" stroke="none" /><text fill="#e1ed5e" style="font-size:6.75px; font-family:Arial;" text-anchor="middle"><textPath startOffset="22.206326154141568" xlink:href="#id29">May</textPath></text><path d="M 118.30583269289576 110.29060199501025 l 11.96965638019534 6.728728044883081 a34.73129472999349,34.73129472999349 0 0,0 -0.29744542991584333,0.5186211788081737 l -11.852058954127118 -6.9337690695495695" fill="#ff7d0b" stroke="none" /><path d="M 118.12598468904814 110.60418214915192 l 9.564198817708553 5.595310164581793 a32.08067664281067,32.08067664281067 0 0,0 -0.2829502302280823,0.4742408611291006 l -9.466467711782242 -5.759113119596998" fill="#ff5607" stroke="none" /><path d="M 117.75023020441432 111.22182372390056 l 16.59536812214925 10.491711575305853 a40.633702016916075,40.633702016916075 0 0,0 -0.3788514875189671,0.587985921817566 l -16.412311771253233 -10.775819097044872" fill="#ffd013" stroke="none" /><path d="M 117.35343817320211 111.8261652097733 l 8.817849845979728 6.009261567230281 a31.670787247885492,31.670787247885492 0 0,0 -0.3108851120352429,0.447853190794072 l -8.71310382678235 -6.160156020211373" fill="#ff5007" stroke="none" /><path d="M 117.14729908036423 112.12312394758627 l 11.234437328514502 7.942736379453076 a34.758620689655174,34.758620689655174 0 0,0 -0.349605860895554,0.48557196339123115 l -11.096051675243345 -8.134941948295438" fill="#ff7d0b" stroke="none" /><path d="M 116.0416608686014 113.55231037782055 l 8.38090675178069 7.080354738705207 a31.971372804163956,31.971372804163956 0 0,0 -0.35877588002887295,0.41733740270788844 l -8.25778836218104 -7.223569240574624" fill="#ff5407" stroke="none" /><path d="M 115.80600337817218 113.82643327865902 l 10.561330819377243 9.238612216774767 a35.03188028627196,35.03188028627196 0 0,0 -0.40093344795163344,0.45045297903995984 l -10.400738521777273 -9.419039365555593" fill="#ff810b" stroke="none" /><path d="M 114.81725581225074 114.88116024355365 l 12.214354661107143 12.267033200118718 a38.310995445673385,38.310995445673385 0 0,0 -0.4713165475200214,0.46128244073201563 l -12.001388161211327 -12.475465743773306" fill="#ffb010" stroke="none" /><path d="M 114.29624159901734 115.38237550388516 l 9.347900329871454 10.058091985299013 a34.73129472999349,34.73129472999349 0 0,0 -0.4414189624302094,0.4032257562374145 l -9.17338181797438 -10.217510508123011" fill="#ff7d0b" stroke="none" /><path d="M 113.20401910651253 116.32954008644616 l 8.994540015952257 11.12363595999293 a35.305139882888746,35.305139882888746 0 0,0 -0.47585025297226075,0.3780442200460341 l -8.801732270262645 -11.27681409404409" fill="#ff850c" stroke="none" /><path d="M 111.45004920935366 117.60387380957326 l 10.124018786930149 15.565168840084622 a39.56798959011061,39.56798959011061 0 0,0 -0.574146975453539,0.3664477645583927 l -9.85459000942968 -15.737131033466824" fill="#ffc112" stroke="none" /><path d="M 111.1453310114006 117.79835938074945 l 7.5776648711214225 12.10103158938398 a35.277813923227065,35.277813923227065 0 0,0 -0.5174428794891209,0.3178556790169991 l -7.368242791699993 -12.229675735229357" fill="#ff850c" stroke="none" /><line stroke="#e1ed5e" stroke-width="0.3" x1="143.8653032363475" x2="146.44561519142675" y1="172.8068346515853" y2="177.08958963109032" /><path d="M 144.38136562736335 173.6633856474863 a86.0,86.0 0 0,1 -40.68145358897372,12.25698825130547" fill="none" id="id30" stroke="none" /><text fill="#e1ed5e" style="font-size:6.75px; font-family:Arial;" text-anchor="middle"><textPath startOffset="21.466115282336833" xlink:href="#id30">June</textPath></text><path d="M 110.8373102113329 117.98757091392108 l 5.704218582282579 9.467758535694307 a32.05335068314899,32.05335068314899 0 0,0 -0.4750491701804916,0.2806674231612646 l -5.540401541073705 -9.564544531149322" fill="#ff5507" stroke="none" /><path d="M 109.89434966115114 118.52300852407294 l 6.482504950409368 12.135764205427092 a34.758620689655174,34.758620689655174 0 0,0 -0.5301667820251107,0.277358203125986 l -6.272647265857762 -12.245551827497794" fill="#ff7d0b" stroke="none" /><path d="M 109.57404056367764 118.69057910512821 l 6.272647265857762 12.245551827497794 a34.758620689655174,34.758620689655174 0 0,0 -0.5348624976285344,0.2681911598742586 l -6.060930860546467 -12.351710828281355" fill="#ff7d0b" stroke="none" /><path d="M 108.92500713936063 119.00905698771935 l 6.207438277148023 13.221003200957698 a35.60572543916721,35.60572543916721 0 0,0 -0.5570295400325992,0.25570494125530396 l -5.978940741348005 -13.325895212547078" fill="#ff890c" stroke="none" /><path d="M 108.59647513512805 119.15986991738527 l 4.474417767145373 9.972606333056746 a31.930383864671438,31.930383864671438 0 0,0 -0.5034042832302078,0.22067764407993476 l -4.302092809257411 -10.048148530431135" fill="#ff5407" stroke="none" /><path d="M 107.93186726928326 119.44442032107085 l 5.506377603334574 13.498501289904091 a35.57839947950553,35.57839947950553 0 0,0 -0.5690492634918544,0.22643644578178046 l -5.273207263800853 -13.59128458009194" fill="#ff890c" stroke="none" /><path d="M 107.59598834532513 119.57807347666477 l 7.941934463850021 20.469722886792646 a42.95640858815875,42.95640858815875 0 0,0 -0.6916590929926455,0.26152628605384026 l -7.588405150097101 -20.60339742295312" fill="#ffef16" stroke="none" /><path d="M 106.91757812671514 119.82793768551818 l 4.865258266089177 13.945348495800364 a35.76968119713728,35.76968119713728 0 0,0 -0.5830973579507741,0.19781828256389974 l -4.624491175201176 -14.027029765262387" fill="#ff8c0c" stroke="none" /><path d="M 106.57524785965236 119.94407469862006 l 3.54644142853078 10.757083881038405 a32.326610279765774,32.326610279765774 0 0,0 -0.5299696145184353,0.16967953467998323 l -3.3607504689214043 -10.816536262378094" fill="#ff5a08" stroke="none" /><path d="M 104.48393922423573 120.51570834832081 l 4.705656453280565 21.530148058452486 a43.03838646714379,43.03838646714379 0 0,0 -0.7251118389703703,0.1519542359865942 l -4.3343531528808175 -21.607958275165622" fill="#fff016" stroke="none" /><path d="M 104.13013068566511 120.58985236759428 l 2.7543161696855774 13.731033621850438 a35.004554326610275,35.004554326610275 0 0,0 -0.591797639210991,0.1134194260450388 l -2.517550915902882 -13.776410246243945" fill="#ff810b" stroke="none" /><path d="M 103.7750983002368 120.6578951692458 l 2.6600074555344597 14.555953460177749 a35.797007156798955,35.797007156798955 0 0,0 -0.6071019484341112,0.10555245561155745 l -2.4090565356282982 -14.599584494310312" fill="#ff8c0c" stroke="none" /><path d="M 102.70371172650421 120.8252237178851 l 1.4125442526889258 10.880061578049268 a31.971372804163956,31.971372804163956 0 0,0 -0.546364235562635,0.06615710005379234 l -1.2250525940749104 -10.902764206828412" fill="#ff5407" stroke="none" /><path d="M 101.98527174616119 120.90594882070398 l 1.3368615857363908 14.077851027604828 a35.141184124918674,35.141184124918674 0 0,0 -0.6026808163752471,0.052001836785476714 l -1.094336451619602 -14.098777116668968" fill="#ff830c" stroke="none" /><path d="M 101.62511606390274 120.93702456842531 l 1.0647312142811007 13.717360924140726 a34.758620689655174,34.758620689655174 0 0,0 -0.5969168097452188,0.04116687804201077 l -0.8284516437569516 -13.733656146699023" fill="#ff7d0b" stroke="none" /><path d="M 101.26447882468166 120.96189622390904 l 0.8843947537623862 14.66105298679389 a35.687703318152245,35.687703318152245 0 0,0 -0.6135088908939436,0.031711401910949025 l -0.631897794454963 -14.674104195467041" fill="#ff8b0c" stroke="none" /><line stroke="#e1ed5e" stroke-width="0.3" x1="102.19456741930631" x2="102.32365962044197" y1="184.97166512339345" y2="189.96999836594603" /><path d="M 102.22038585953345 185.97133177190398 a86.0,86.0 0 0,1 -42.740103519485714,-10.115201625700543" fill="none" id="id31" stroke="none" /><text fill="#e1ed5e" style="font-size:6.75px; font-family:Arial;" text-anchor="middle"><textPath startOffset="22.20632615414155" xlink:href="#id31">July</textPath></text><path d="M 100.54218724476979 120.99299961872073 l 0.3545206122274845 13.72671738244264 a34.73129472999349,34.73129472999349 0 0,0 -0.5977757113160951,0.010291250980075566 l -0.11818521101872151 -13.730786110701876" fill="#ff7d0b" stroke="none" /><path d="M 99.81925306533755 120.99922214144158 l -0.14311582269629117 16.627230544004167 a37.62784645413143,37.62784645413143 0 0,0 -0.6476295471929685,-0.011149529976053545 l 0.42930505978192757 -16.622303536748955" fill="#ffa60f" stroke="none" /><path d="M 99.45781275523022 120.99299961872073 l -0.3961459179417458 15.33841156266974 a36.34352635003253,36.34352635003253 0 0,0 -0.6252464961258618,-0.021534753537144135 l 0.6601127657422506 -15.329320010706502" fill="#ff940d" stroke="none" /><path d="M 99.09653310690486 120.98055641714683 l -0.4720129571603091 10.961214575776776 a31.971372804163956,31.971372804163956 0 0,0 -0.5496212881668419,-0.028409142600161072 l 0.6606223137406398 -10.951465626414413" fill="#ff5407" stroke="none" /><path d="M 98.73552117531835 120.96189622390904 l -1.1032310370189267 18.28881121422382 a39.3220559531555,39.3220559531555 0 0,0 -0.6752856047353542,-0.046571648979916266 l 1.4178794025332109 -18.26711122072762" fill="#ffbe11" stroke="none" /><path d="M 98.01472825383883 120.90594882070398 l -1.819940071789914 19.16491990134802 a40.25113858165257,40.25113858165257 0 0,0 -0.6891903515939636,-0.0714373978720422 l 2.1495630199894706 -19.130753135020218" fill="#ffcb12" stroke="none" /><path d="M 97.65516085044442 120.86867818915974 l -1.383714449347374 12.314828313316776 a33.39232270657124,33.39232270657124 0 0,0 -0.5706470904765156,-0.06909741561174237 l 1.5954889628752789 -12.289185368979686" fill="#ff6909" stroke="none" /><path d="M 97.2962882734958 120.8252237178851 l -2.601684868900262 20.039366219096973 a41.20754716981132,41.20754716981132 0 0,0 -0.7026306889918787,-0.09737821110885075 l 2.946244149078972 -19.991613442495517" fill="#ffd814" stroke="none" /><path d="M 96.93821686468263 120.77559828337769 l -1.747029153983947 11.854391473339126 a32.98243331164606,32.98243331164606 0 0,0 -0.5609591576116068,-0.08761028371118196 l 1.9508241752040711 -11.822562882280838" fill="#ff6309" stroke="none" /><path d="M 96.58105272829116 120.7198165907248 l -1.795114149817201 10.878914761688295 a32.02602472348731,32.02602472348731 0 0,0 -0.5431476973776934,-0.09443318929522544 l 1.9821108186669443 -10.846402993872063" fill="#ff5507" stroke="none" /><path d="M 95.86986931433489 120.58985236759428 l -2.7005734151551244 13.463111014594825 a34.73129472999349,34.73129472999349 0 0,0 -0.5851537443373447,-0.12262465646918172 l 2.9319186209218557 -13.414630377399101" fill="#ff7d0b" stroke="none" /><path d="M 95.51606077576429 120.51570834832081 l -2.3834602122319954 10.905226883915486 a32.1626545217957,32.1626545217957 0 0,0 -0.5398422695700723,-0.12286634297861118 l 2.5708226311949303 -10.862583807359186" fill="#ff5708" stroke="none" /><path d="M 95.16358092515715 120.4354850818985 l -2.186929900465701 9.240508869173365 a30.495770982433314,30.495770982433314 0 0,0 -0.5097828682193586,-0.12529222605275547 l 2.34566605342827 -9.201495384806579" fill="#ff3e05" stroke="none" /><path d="M 94.11515582081647 120.15858648285463 l -2.339388284633143 8.013595537426271 a29.34808067664281,29.34808067664281 0 0,0 -0.4837192940158438,-0.14574065527709917 l 2.4769825530892327 -7.972139513043447" fill="#ff2d04" stroke="none" /><path d="M 93.42475214034765 119.94407469862007 l -3.8373437411243723 11.639450230749643 a33.25569290826285,33.25569290826285 0 0,0 -0.5421157254592013,-0.1839150877618533 l 4.037129199520799 -11.571672156089667" fill="#ff6709" stroke="none" /><path d="M 92.7421414339146 119.70592522655815 l -7.248414377970778 19.680283163804003 a41.97267404033832,41.97267404033832 0 0,0 -0.675819571779057,-0.25553713446481635 l 7.586104170510118 -19.552597779232553" fill="#ffe215" stroke="none" /><path d="M 92.40401165467489 119.57807347666478 l -4.017917062296238 10.355871006199392 a32.10800260247235,32.10800260247235 0 0,0 -0.5135429221220776,-0.2043493270304122 l 4.1955810604601735 -10.285174834762913" fill="#ff5608" stroke="none" /><path d="M 92.06813273071674 119.44442032107085 l -7.684157686377859 18.8371775263985 a41.34417696811971,41.34417696811971 0 0,0 -0.6566410953550287,-0.2744760311135726 l 8.00727024123035 -18.702116452264953" fill="#ffda14" stroke="none" /><path d="M 90.42595943632237 118.69057910512821 l -3.7934877705137775 7.405701154862121 a29.32075471698113,29.32075471698113 0 0,0 -0.44722402288753443,-0.23396647166209356 l 3.9204026959278075 -7.3393052642553105" fill="#ff2c04" stroke="none" /><line stroke="#e1ed5e" stroke-width="0.3" x1="58.666819895761336" x2="56.23545636021788" y1="174.27360380694188" y2="178.64263932499728" /><path d="M 58.180547188652646 175.14741091055294 a86.0,86.0 0 0,1 -31.652253787137756,-30.449443065178592" fill="none" id="id32" stroke="none" /><text fill="#e1ed5e" style="font-size:6.75px; font-family:Arial;" text-anchor="middle"><textPath startOffset="22.20632615414155" xlink:href="#id32">August</textPath></text><path d="M 89.7882731507175 118.34994917583269 l -8.93609148489587 16.057697879957693 a39.37670787247885,39.37670787247885 0 0,0 -0.5894341273474826,-0.33469608079366775 l 9.21117437916456 -15.90149863336939" fill="#ffbf11" stroke="none" /><path d="M 89.4739219176387 118.17145234162733 l -8.334571910366746 14.38819616119744 a37.62784645413143,37.62784645413143 0 0,0 -0.5576664171684033,-0.32947914892844105 l 8.581006198563532 -14.242598439975248" fill="#ffa60f" stroke="none" /><path d="M 89.1626897886671 117.98757091392108 l -7.100306690183628 11.784960253948293 a34.758620689655174,34.758620689655174 0 0,0 -0.5098275311465236,-0.31317771007716727 l 7.302113421262461 -11.660994077042748" fill="#ff7d0b" stroke="none" /><path d="M 88.8546689885994 117.79835938074946 l -10.275168538161774 16.408767236513977 a40.360442420299286,40.360442420299286 0 0,0 -0.5856457753763098,-0.3737868427159938 l 10.556096115585007 -16.229465964974178" fill="#ffcc13" stroke="none" /><path d="M 87.95078237400918 117.19931262002967 l -10.52836647475971 15.028416947755279 a39.34938191281718,39.34938191281718 0 0,0 -0.5514022744275899,-0.39341088216567893 l 10.785496077036187 -14.844961803745381" fill="#ffbe11" stroke="none" /><path d="M 87.65650970185807 116.9893568818739 l -12.054377968452206 16.591427898303657 a41.508132726089784,41.508132726089784 0 0,0 -0.5744232009553687,-0.42494455154755284 l 12.338186139826139 -16.381473398016336" fill="#ffdc14" stroke="none" /><path d="M 87.36589467227662 116.77436683061367 l -10.562671012442767 14.024112802432377 a38.5569290826285,38.5569290826285 0 0,0 -0.526708346253338,-0.4038574999109766 l 10.802508087189592 -13.840215960694033" fill="#ffb310" stroke="none" /><path d="M 87.07902340077011 116.55440617244103 l -9.306129535034142 11.92304985874575 a36.1249186727391,36.1249186727391 0 0,0 -0.48689940745302873,-0.3868223366105625 l 9.50998643520453 -11.761093608130057" fill="#ff910d" stroke="none" /><path d="M 86.79598089348748 116.32954008644616 l -7.018662075485184 8.680048308800592 a32.1626545217957,32.1626545217957 0 0,0 -0.4275027439204961,-0.3518056540079353 l 7.167034947950369 -8.557947535935476" fill="#ff5708" stroke="none" /><path d="M 86.24171649860922 115.8653595955263 l -12.73782525860708 14.688618545500274 a40.44242029928432,40.44242029928432 0 0,0 -0.5220108232898506,-0.46061385839559216 l 12.988778434803518 -14.467181545332393" fill="#ffcd13" stroke="none" /><path d="M 85.97065885151581 115.62618273729859 l -13.956319203664497 15.544849320318503 a41.89069616135329,41.89069616135329 0 0,0 -0.532411698981538,-0.4863454636600899 l 14.22183045211289 -15.302311090071838" fill="#ffe115" stroke="none" /><path d="M 85.70375840098266 115.38237550388516 l -10.147820159094284 10.918784433792263 a35.90631099544567,35.90631099544567 0 0,0 -0.44910958179631294,-0.42466114159511636 l 10.334265575281412 -10.742488655451215" fill="#ff8e0d" stroke="none" /><path d="M 85.18274418774928 114.88116024355367 l -17.45871846192977 17.534015095039475 a45.74365647364996,45.74365647364996 0 0,0 -0.5531919240820264,-0.5603804984728267 l 17.75795101106733 -17.230894102585985" fill="#ebff1a" stroke="none" /><path d="M 84.9287848128048 114.62390073753433 l -10.462580744786772 10.152050804781473 a35.57839947950553,35.57839947950553 0 0,0 -0.42269417059804465,-0.4431931479630251 l 10.635781466763774 -9.970450540235946" fill="#ff890c" stroke="none" /><path d="M 84.43433777217949 114.09645910891817 l -8.213241422747192 7.438014533072634 a32.08067664281067,32.08067664281067 0 0,0 -0.3671574632568001,-0.4125053021785628 l 8.34005773565233 -7.295535061153207" fill="#ff5607" stroke="none" /><path d="M 84.19399662182784 113.82643327865904 l -18.58259473282831 16.255279723185996 a45.689004554326615,45.689004554326615 0 0,0 -0.512712197784851,-0.5964001173740031 l 18.85964944018394 -15.933002506650464" fill="#ebff1a" stroke="none" /><path d="M 83.95833913139862 113.55231037782056 l -21.051418329192582 17.784651940184826 a48.55823031880286,48.55823031880286 0 0,0 -0.5339185532715496,-0.6431392922691561 l 21.35443288235767 -17.41965139080191" fill="#c7ff1e" stroke="none" /><path d="M 83.72743513129214 113.27417163493432 l -8.607413948119376 7.021406336500719 a32.10800260247235,32.10800260247235 0 0,0 -0.3456687746721384,-0.4312749454073454 l 8.727000634846375 -6.872203557515113" fill="#ff5608" stroke="none" /><path d="M 83.50135304334701 112.99209946851258 l -16.86361377287043 13.279497895272133 a42.464541314248535,42.464541314248535 0 0,0 -0.4472793832701648,-0.578168896744314 l 17.089699973358663 -12.987251004414567" fill="#ffe915" stroke="none" /><path d="M 83.28015986056508 112.70617746262583 l -6.6465987802177855 5.051056883321005 a29.34808067664281,29.34808067664281 0 0,0 -0.3021996090689377,-0.4048457611021512 l 6.732559655981808 -4.935898242709546" fill="#ff2d04" stroke="none" /><path d="M 82.85270091963577 112.12312394758628 l -15.875475986570137 11.223946244251973 a40.44242029928432,40.44242029928432 0 0,0 -0.39698875393629396,-0.5718919088656101 l 16.066325647668567 -10.949013073199351" fill="#ffcd13" stroke="none" /><path d="M 82.6465618267979 111.8261652097733 l -11.617884112052673 7.917452180127991 a35.05920624593364,35.05920624593364 0 0,0 -0.33556150391416123,-0.5016189187689418 l 11.752448721377565 -7.716296347153228" fill="#ff820b" stroke="none" /><path d="M 82.05923443525364 110.91462005526583 l -15.746319288772181 9.579585201401171 a39.43135979180221,39.43135979180221 0 0,0 -0.3477829490793121,-0.5829042270947842 l 15.908883113549724 -9.307118880420276" fill="#ffbf11" stroke="none" /><line stroke="#e1ed5e" stroke-width="0.3" x1="26.63291911575756" x2="22.317208475507996" y1="142.92168965132927" y2="145.44649492493687" /><path d="M 25.769776987707644 143.4266507060508 a86.0,86.0 0 0,1 -11.730757126820373,-40.83630448921669" fill="none" id="id33" stroke="none" /><text fill="#e1ed5e" style="font-size:6.75px; font-family:Arial;" text-anchor="middle"><textPath startOffset="21.46611528233685" xlink:href="#id33">September</textPath></text><path d="M 81.87401531095188 110.60418214915194 l -12.583230750302118 7.361523977322784 a35.57839947950553,35.57839947950553 0 0,0 -0.3047001964991605,-0.5312704758522893 l 12.708082942953656 -7.1438336556121875" fill="#ff890c" stroke="none" /><path d="M 81.51974371655577 109.97397251340807 l -29.229344843886103 15.7753592583572 a54.21470396877033,54.21470396877033 0 0,0 -0.4361637263263839,-0.8250573976176001 l 29.496561078437374 -15.269886845653474" fill="#83ff25" stroke="none" /><path d="M 81.35079622478065 109.6543875284942 l -14.790747821725693 7.656928039840224 a37.6551724137931,37.6551724137931 0 0,0 -0.29303135072807346,-0.5781786548779442 l 14.920357842240033 -7.4011951732595955" fill="#ffa70f" stroke="none" /><path d="M 81.18737489456691 109.33194174019688 l -16.070902253372573 7.97191900122219 a38.939492517892,38.939492517892 0 0,0 -0.2926891468107033,-0.6030263340916971 l 16.205744656797997 -7.694103711165208" fill="#ffb911" stroke="none" /><path d="M 81.02952815118164 109.00673069616217 l -24.870202196076132 11.80778292307532 a48.53090435914119,48.53090435914119 0 0,0 -0.35179216719904727,-0.7577290312463281 l 25.069768980115008 -11.377933824550166" fill="#c7ff1e" stroke="none" /><path d="M 80.87730276802145 108.67885076344099 l -16.410434384502082 7.447888195822167 a39.021470396877035,39.021470396877035 0 0,0 -0.27233068445508435,-0.6140338002451924 l 16.536206153688443 -7.164306059084279" fill="#ffba11" stroke="none" /><path d="M 80.58989483394504 108.01547362559985 l -13.017525312406926 5.375634491391231 a35.083799609629146,35.083799609629146 0 0,0 -0.22570140996088459,-0.5601723898849996 l 13.108129336625199 -5.150762733663426" fill="#ff820c" stroke="none" /><path d="M 80.45479744820244 107.68017299344265 l -25.61604165279181 10.065673700709747 a48.52270657124268,48.52270657124268 0 0,0 -0.2987744537746336,-0.7800058196153047 l 25.785510386159956 -9.623244314261283" fill="#c7ff1e" stroke="none" /><path d="M 80.32549172779594 107.34259656027581 l -16.013539263843384 5.976309887381289 a38.092387768379965,38.092387768379965 0 0,0 -0.223975510941727,-0.6162844124573491 l 16.114039035790334 -5.699777677917823" fill="#ffad10" stroke="none" /><path d="M 80.0844068197444 106.66101706037122 l -36.254931501857634 12.125911343473447 a59.229017566688356,59.229017566688356 0 0,0 -0.31506382032827535,-0.9696667329838792 l 36.458287573202156 -11.500045710511765" fill="#4bff2c" stroke="none" /><path d="M 79.86692584326677 105.97154293290107 l -11.74975115067645 3.485018874959184 a33.25569290826285,33.25569290826285 0 0,0 -0.1580553817952002,-0.5502115189471786 l 11.807999169357755 -3.2822498805074094" fill="#ff6709" stroke="none" /><path d="M 79.67330655649465 105.27499134158121 l -26.727552016476448 6.936081653438924 a48.61288223812622,48.61288223812622 0 0,0 -0.2032219542863902,-0.8117706879792321 l 26.842985285057896 -6.4749831260623" fill="#c6ff1e" stroke="none" /><path d="M 79.58551787078972 104.9243191809786 l -21.423916509054127 5.167811866570258 a43.03838646714379,43.03838646714379 0 0,0 -0.1675206358612565,-0.7216745148679188 l 21.50969771084594 -4.798268694353765" fill="#fff016" stroke="none" /><path d="M 79.50377843672027 104.57218783832718 l -19.13602989154614 4.268763531554652 a40.606376057254394,40.606376057254394 0 0,0 -0.1463104989661432,-0.6835139418966567 l 19.206674429236724 -3.9387357702418315" fill="#ffcf13" stroke="none" /><line stroke="#e1ed5e" stroke-width="0.3" x1="15.007084014347285" x2="10.007500721073583" y1="101.09737516637583" y2="101.16192664675087" /><path d="M 14.007167355692545 101.11028546245083 a86.0,86.0 0 0,1 10.666146001902534,-42.60595125391555" fill="none" id="id34" stroke="none" /><text fill="#e1ed5e" style="font-size:6.75px; font-family:Arial;" text-anchor="middle"><textPath startOffset="22.20632615414155" xlink:href="#id34">October</textPath></text><line stroke="#e1ed5e" stroke-width="0.3" x1="26.266209847984243" x2="21.928928074336255" y1="57.711370442889674" y2="55.22380399835377" /><path d="M 25.398753493254645 57.213857153982495 a86.0,86.0 0 0,1 29.58750427330803,-30.492523968695096" fill="none" id="id35" stroke="none" /><text fill="#e1ed5e" style="font-size:6.75px; font-family:Arial;" text-anchor="middle"><textPath startOffset="21.46611528233685" xlink:href="#id35">November</textPath></text><line stroke="#e1ed5e" stroke-width="0.3" x1="56.762969772571076" x2="54.21961505331055" y1="26.818313649435495" y2="22.513508569990535" /><path d="M 56.25429882871897 25.957352633546506 a86.0,86.0 0 0,1 42.265352541879196,-11.944610805530505" fill="none" id="id36" stroke="none" /><text fill="#e1ed5e" style="font-size:6.75px; font-family:Arial;" text-anchor="middle"><textPath startOffset="22.20632615414155" xlink:href="#id36">December</textPath></text></svg>
