<?xml version="1.0" encoding="utf-8" ?>
<svg baseProfile="full" height="200mm" version="1.1" viewBox="0,0,200,200" width="200mm" xmlns="http://www.w3.org/2000/svg" xmlns:ev="http://www.w3.org/2001/xml-events" xmlns:xlink="http://www.w3.org/1999/xlink"><defs /><rect fill="#1a1a1a" height="200" width="200" x="0" y="0" /><text alignment-baseline="middle" fill="#e1ed5e" style="dominant-baseline: central; font-size:9.0px; font-family:Arial;" text-anchor="middle" x="100.0" y="100.0">2022</text><line stroke="#e1ed5e" stroke-width="0.3" x1="100.0" x2="100.0" y1="15.0" y2="10.0" /><path d="M 100.0 14.0 a86.0,86.0 0 0,1 42.46469731375804,11.215312516191453" fill="none" id="id49" stroke="none" /><text fill="#e1ed5e" style="font-size:6.75px; font-family:Arial;" text-anchor="middle"><textPath startOffset="22.20632615414155" xlink:href="#id49">January</textPath></text><path d="M 100.0 79.0 l 0.0 -32.69593397636633 a53.69593397636633,53.69593397636633 0 0,0 0.9242872356553781,0.007955632045180362 l -0.5628067563828497 32.6910897209297" fill="#c0ff1e" stroke="none" /><path d="M 101.08401301168833 79.027996857942 l 1.6530039292626129 -31.98006225436064 a53.02275446901687,53.02275446901687 0 0,0 0.9110772422609694,0.054958667297208 l -2.2032432203631944 31.94687031768313" fill="#caff1d" stroke="none" /><path d="M 101.44485096284872 79.0497635885617 l 2.1603151020539277 -31.324415649068637 a52.39882126920975,52.39882126920975 0 0,0 0.8992880595844007,0.06980206126855483 l -2.6991933510006696 31.282588325611616" fill="#d3ff1c" stroke="none" /><path d="M 102.16513564639614 79.11191278185805 l 4.842667918987524 -46.71950694113797 a67.96981755762556,67.96981755762556 0 0,0 1.1627153153842087,0.13064461326146531 l -5.646149937881458 46.62922637440591" fill="#34ff5f" stroke="none" /><path d="M 103.59715602781102 79.31037775812273 l 4.4074676820152705 -25.35026022756911 a46.7305550848302,46.7305550848302 0 0,0 0.7913149229397745,0.14460774420954708 l -4.843177726057946 25.270637002008822" fill="#ffd614" stroke="none" /><path d="M 104.307194497241 79.44645832069477 l 6.478758231029496 -30.916046957457755 a52.587596738148115,52.587596738148115 0 0,0 0.884366305112248,0.19328822075060292 l -7.009967260295272 30.799945238611283" fill="#d0ff1d" stroke="none" /><path d="M 106.74666289553966 80.11325718540242 l 10.231410944348406 -30.15853040697101 a52.84680087890034,52.84680087890034 0 0,0 0.8589316270311187,0.2996643791065566 l -10.749024575442798 29.97794517469225" fill="#ccff1d" stroke="none" /><line stroke="#e1ed5e" stroke-width="0.3" x1="143.23703022742887" x2="145.7803849466894" y1="26.81831364943548" y2="22.513508569990506" /><path d="M 143.74570117128098 25.957352633546492 a86.0,86.0 0 0,1 28.547481713284135,27.462654790039103" fill="none" id="id50" stroke="none" /><text fill="#e1ed5e" style="font-size:6.75px; font-family:Arial;" text-anchor="middle"><textPath startOffset="19.985693538727396" xlink:href="#id50">February</textPath></text><line stroke="#e1ed5e" stroke-width="0.3" x1="172.23445277983987" x2="176.4835382374775" y1="55.19839476539836" y2="52.563006222186495" /><path d="M 173.08426987136738 54.67131705675599 a86.0,86.0 0 0,1 12.851231095245387,41.99856678651699" fill="none" id="id51" stroke="none" /><text fill="#e1ed5e" style="font-size:6.75px; font-family:Arial;" text-anchor="middle"><textPath startOffset="22.20632615414155" xlink:href="#id51">March</textPath></text><path d="M 118.3937258080291 89.86733742301442 l 27.412846115804886 -15.101079730406376 a52.29707240610357,52.29707240610357 0 0,0 0.42757065555778545,0.7922234880200416 l -27.668724870581134 14.626975259053875" fill="#d4ff1c" stroke="none" /><path d="M 119.04729006885535 91.15688171328212 l 28.403233364954303 -13.186818254122231 a52.315105640110886,52.315105640110886 0 0,0 0.37217883668810975,0.8200467324679511 l -28.62601451860576 12.695949512812216" fill="#d4ff1c" stroke="none" /><path d="M 119.196687751892 91.48605970444005 l 27.637513422120175 -12.257538500123617 a51.2337460173212,51.2337460173212 0 0,0 0.3506078701071244,0.8092513038084845 l -27.84441200206998 11.77998805172853" fill="#e4ff1a" stroke="none" /><path d="M 119.7369772167798 92.82701384747503 l 45.19661696339101 -16.42575274109137 a69.08887124945807,69.08887124945807 0 0,0 0.39659288473570925,1.1212214909200637 l -45.47266292893653 15.64533362374469" fill="#36ff6f" stroke="none" /><path d="M 120.83666639777658 97.38593545837742 l 31.21616890746939 -3.9162253072796873 a52.46086492639763,52.46086492639763 0 0,0 0.10469601572341564,0.8969715259389135 l -31.2789552761964 3.378310043015921" fill="#d2ff1c" stroke="none" /><path d="M 120.91429891909075 98.10471618934814 l 31.16144489209976 -2.8238948983657592 a52.289135976571586,52.289135976571586 0 0,0 0.07351732049242399,0.8970975225518718 l -31.205436696411677 2.287083458606119" fill="#d4ff1c" stroke="none" /><line stroke="#e1ed5e" stroke-width="0.3" x1="184.98032266829074" x2="189.97916517819016" y1="98.17113171792111" y2="98.06355123074" /><path d="M 185.9800911702706 98.14961562048488 a86.0,86.0 0 0,1 -9.607161424134198,41.387399972396054" fill="none" id="id52" stroke="none" /><text fill="#e1ed5e" style="font-size:6.75px; font-family:Arial;" text-anchor="middle"><textPath startOffset="21.466115282336823" xlink:href="#id52">April</textPath></text><path d="M 120.99980553446 99.90962569577887 l 47.0041919585314 -0.2022862134012589 a68.00462723377987,68.00462723377987 0 0,0 -0.005037856329234693,1.1706203896810952 l -47.00070980491267 -0.606843654483521" fill="#34ff5f" stroke="none" /><path d="M 120.9904718944345 100.63252640178507 l 31.488867257580154 0.9488848084452025 a52.50316085006712,52.50316085006712 0 0,0 -0.034996774784340434,0.9031112525108427 l -31.46786834994461 -1.4907733079700514" fill="#d1ff1c" stroke="none" /><path d="M 120.95626037817324 101.35467743843564 l 42.605512700282524 2.7541520178939045 a63.69443834730239,63.69443834730239 0 0,0 -0.08014410738466216,1.0935026704739415 l -42.55179203423353 -3.4871278248646163" fill="#3cff2e" stroke="none" /><path d="M 120.92983693683757 101.71520430193887 l 31.429480649521093 2.575652193586004 a52.534841653652634,52.534841653652634 0 0,0 -0.08161763897477792,0.9006438449985114 l -31.38048841426924 -3.116277427133086" fill="#d1ff1d" stroke="none" /><path d="M 120.89721153311464 102.0752229133903 l 49.98360459175009 4.963682421373291 a71.22946218271375,71.22946218271375 0 0,0 -0.13166494225003852,1.2190538427921653 l -49.89075734799899 -5.823332586050248" fill="#39ff8d" stroke="none" /><path d="M 120.70491114924044 103.5080841355445 l 62.114733447721314 10.524252406633499 a84.0,84.0 0 0,0 -0.25381423064324515,1.4235249970671267 l -61.924372774738885 -11.591896154433844" fill="#4dd2ff" stroke="none" /><path d="M 120.5718875245553 104.21870165774334 l 12.778708034044069 2.620544989014331 a34.044640089277685,34.044640089277685 0 0,0 -0.12266763898264561,0.5730623711671401 l -12.731706356336979 -2.84012117959764" fill="#ff0000" stroke="none" /><path d="M 120.49622156327973 104.57218783832717 l 30.838420432258737 6.879270426418596 a52.59640068673251,52.59640068673251 0 0,0 -0.20472381077254276,0.8819448186881895 l -30.71543605555564 -7.409083902455351" fill="#d0ff1d" stroke="none" /><path d="M 120.32669344350535 105.2749913415812 l 30.430754719855056 7.897101813984692 a52.43875076844532,52.43875076844532 0 0,0 -0.2342561944677125,0.8717544450577117 l -30.290310449045563 -8.419747192217953" fill="#d2ff1c" stroke="none" /><path d="M 120.23288151984713 105.62410040840565 l 35.873948906031394 9.97182188289013 a58.234089780423496,58.234089780423496 0 0,0 -0.27677099734867694,0.9634761507144363 l -35.69698527179661 -10.587855509109147" fill="#82ff25" stroke="none" /><path d="M 119.67450827220406 107.3425965602758 l 23.64882556352532 8.825825928398189 a46.24207110861616,46.24207110861616 0 0,0 -0.28473163418037617,0.7433444489092749 l -23.49339964975144 -9.231593944140608" fill="#ffce13" stroke="none" /><path d="M 119.54520255179757 107.68017299344265 l 31.144508714053075 12.238052488113555 a54.462671019235,54.462671019235 0 0,0 -0.350369736917063,0.8695889534151607 l -30.92923636287862 -12.77234080937153" fill="#b5ff1f" stroke="none" /><path d="M 119.26925614724726 108.34839909993367 l 37.687679785838 16.328175285978823 a62.072746630941445,62.072746630941445 0 0,0 -0.43320544828482443,0.9767639229839293 l -37.401033252821904 -16.97448754545544" fill="#50ff2b" stroke="none" /><path d="M 118.64920377521936 109.65438752849418 l 22.68435491490056 11.743319222741224 a46.54379580783515,46.54379580783515 0 0,0 -0.37445035997268983,0.7083189657657639 l -22.478852046702976 -12.132053203593122" fill="#ffd313" stroke="none" /><line stroke="#e1ed5e" stroke-width="0.3" x1="174.80103733775053" x2="179.2010983576182" y1="140.37084112569926" y2="142.7455964860345" /><path d="M 175.68104954172406 140.8457921977663 a86.0,86.0 0 0,1 -30.038265399797805,32.042727171017184" fill="none" id="id53" stroke="none" /><text fill="#e1ed5e" style="font-size:6.75px; font-family:Arial;" text-anchor="middle"><textPath startOffset="22.206326154141568" xlink:href="#id53">May</textPath></text><path d="M 117.94076556474637 110.91462005526583 l 53.47381763981746 32.53185603127468 a83.59209878104453,83.59209878104453 0 0,0 -0.7584405077217885,1.2228475911625394 l -52.90591249242771 -33.447499953802485" fill="#4cd7ff" stroke="none" /><path d="M 117.55443506779139 111.5257021239791 l 31.537449718684496 20.70651945242341 a58.72758516778064,58.72758516778064 0 0,0 -0.5620982021643479,0.8402605457501265 l -31.176348411109426 -21.246316912379346" fill="#7bff26" stroke="none" /><path d="M 113.20401910651253 116.32954008644616 l 19.682962400814535 24.34211287876619 a52.3042723645587,52.3042723645587 0 0,0 -0.7049682091266313,0.5600693813061033 l -19.26103669897055 -24.677316174077422" fill="#d4ff1c" stroke="none" /><line stroke="#e1ed5e" stroke-width="0.3" x1="143.8653032363475" x2="146.44561519142675" y1="172.8068346515853" y2="177.08958963109032" /><path d="M 144.38136562736335 173.6633856474863 a86.0,86.0 0 0,1 -40.68145358897372,12.25698825130547" fill="none" id="id54" stroke="none" /><text fill="#e1ed5e" style="font-size:6.75px; font-family:Arial;" text-anchor="middle"><textPath startOffset="21.466115282336833" xlink:href="#id54">June</textPath></text><path d="M 108.2653958097858 119.30500536409082 l 15.365669372029808 35.888702304937624 a60.039758559486124,60.039758559486124 0 0,0 -0.9535701449747725,0.39859239793628354 l -14.745627767557576 -36.14787974589388" fill="#6aff28" stroke="none" /><path d="M 107.93186726928326 119.44442032107085 l 11.92414389815651 29.231208497723447 a52.56974434393352,52.56974434393352 0 0,0 -0.8408128172854561,0.334576772396806 l -11.419210004829187 -29.432132114526322" fill="#d0ff1d" stroke="none" /><path d="M 103.06178313531738 120.77559828337769 l 4.563443006589572 30.96504700166057 a52.29950715090318,52.29950715090318 0 0,0 -0.8917599145599208,0.12358979842315758 l -4.029754500842821 -31.03901136557633" fill="#d4ff1c" stroke="none" /><line stroke="#e1ed5e" stroke-width="0.3" x1="102.19456741930631" x2="102.32365962044197" y1="184.97166512339345" y2="189.96999836594603" /><path d="M 102.22038585953345 185.97133177190398 a86.0,86.0 0 0,1 -42.740103519485714,-10.115201625700543" fill="none" id="id55" stroke="none" /><text fill="#e1ed5e" style="font-size:6.75px; font-family:Arial;" text-anchor="middle"><textPath startOffset="22.20632615414155" xlink:href="#id55">July</textPath></text><path d="M 100.18074693466247 120.99922214144158 l 0.2997013606280789 34.819375828830296 a55.820665617056974,55.820665617056974 0 0,0 -0.9608965905810447,0.0 l 0.2997013606280549 -34.819375828830296" fill="#a2ff22" stroke="none" /><path d="M 99.81925306533755 120.99922214144158 l -0.19980944819811383 23.213909527743596 a44.21476942331873,44.21476942331873 0 0,0 -0.7609999986518335,-0.013101305111110358 l 0.5993691367426153 -23.207030745353325" fill="#ffae10" stroke="none" /><path d="M 97.2962882734958 120.8252237178851 l -3.2067872094220875 24.70014106800295 a45.90743770414289,45.90743770414289 0 0,0 -0.782768613986916,-0.10848459729472683 l 3.6314844145958345 -24.641281905215617" fill="#ffc912" stroke="none" /><path d="M 95.51606077576429 120.51570834832081 l -8.79638569574973 40.24677285497834 a62.19683393840614,62.19683393840614 0 0,0 -1.0439586064212536,-0.23760157998405385 l 9.487864451563846 -40.089394541416596" fill="#4fff2b" stroke="none" /><path d="M 94.11515582081647 120.15858648285463 l -7.24984627613279 24.834413400747145 a46.870994568952426,46.870994568952426 0 0,0 -0.7725344853899885,-0.23275830325098784 l 7.676255735963025 -24.705939728390433" fill="#ffd814" stroke="none" /><path d="M 90.10565033884886 118.52300852407294 l -24.733942799553628 46.30390566334221 a73.49590085036436,73.49590085036436 0 0,0 -1.1107582071938016,-0.6056739380710918 l 25.527323818616072 -45.87129107351135" fill="#3dffab" stroke="none" /><line stroke="#e1ed5e" stroke-width="0.3" x1="58.666819895761336" x2="56.23545636021788" y1="174.27360380694188" y2="178.64263932499728" /><path d="M 58.180547188652646 175.14741091055294 a86.0,86.0 0 0,1 -31.652253787137756,-30.449443065178592" fill="none" id="id56" stroke="none" /><text fill="#e1ed5e" style="font-size:6.75px; font-family:Arial;" text-anchor="middle"><textPath startOffset="22.20632615414155" xlink:href="#id56">August</textPath></text><path d="M 89.4739219176387 118.17145234162733 l -21.978973741840125 37.94289485055124 a64.84904282175935,64.84904282175935 0 0,0 -0.9611002694851324,-0.5678349799737564 l 22.62884188235364 -37.558941298283735" fill="#2fff31" stroke="none" /><path d="M 88.8546689885994 117.79835938074946 l -16.627450856393757 26.55294361604218 a52.32939413168574,52.32939413168574 0 0,0 -0.7593199371325513,-0.484633909857389 l 17.08205259557323 -26.26279527736099" fill="#d4ff1c" stroke="none" /><path d="M 87.95078237400918 117.19931262002967 l -18.122491180361656 25.86843402947831 a52.584815429566106,52.584815429566106 0 0,0 -0.7368701976681666,-0.5257373209190495 l 18.565088705878708 -25.55265244671504" fill="#d0ff1d" stroke="none" /><path d="M 87.36589467227662 116.77436683061367 l -19.692226179911348 26.145470303180584 a53.731779500896124,53.731779500896124 0 0,0 -0.7340049478918893,-0.562803694466853 l 20.13935985629672 -25.802627266886365" fill="#c0ff1e" stroke="none" /><path d="M 87.07902340077011 116.55440617244103 l -11.367272594001374 14.563794473954234 a39.474820586569024,39.474820586569024 0 0,0 -0.5320501044454736,-0.4226927809834033 l 11.616280191164206 -14.3659677789657" fill="#ff6008" stroke="none" /><line stroke="#e1ed5e" stroke-width="0.3" x1="26.63291911575756" x2="22.317208475507996" y1="142.92168965132927" y2="145.44649492493687" /><path d="M 25.769776987707644 143.4266507060508 a86.0,86.0 0 0,1 -11.730757126820373,-40.83630448921669" fill="none" id="id57" stroke="none" /><text fill="#e1ed5e" style="font-size:6.75px; font-family:Arial;" text-anchor="middle"><textPath startOffset="21.46611528233685" xlink:href="#id57">September</textPath></text><path d="M 81.87401531095188 110.60418214915194 l -48.82565208077747 28.5643024143409 a77.5673375149569,77.5673375149569 0 0,0 -0.664301467420944,-1.1582656025857578 l 49.31010554435079 -27.719616965896833" fill="#43ffe0" stroke="none" /><path d="M 79.10278846688536 102.07522291339032 l -39.999310430273134 3.972179991248003 a61.19605762733739,61.19605762733739 0 0,0 -0.09507362315920216,-1.0491295092045683 l 40.06175864970941 -3.2830690934948685" fill="#5bff2a" stroke="none" /><line stroke="#e1ed5e" stroke-width="0.3" x1="15.007084014347285" x2="10.007500721073583" y1="101.09737516637583" y2="101.16192664675087" /><path d="M 14.007167355692545 101.11028546245083 a86.0,86.0 0 0,1 10.666146001902534,-42.60595125391555" fill="none" id="id58" stroke="none" /><text fill="#e1ed5e" style="font-size:6.75px; font-family:Arial;" text-anchor="middle"><textPath startOffset="22.20632615414155" xlink:href="#id58">October</textPath></text><path d="M 79.08570108090925 98.10471618934814 l -41.74100817588707 -3.7826301202873296 a62.91205141920848,62.91205141920848 0 0,0 0.10701901456769294,-1.0776668718604936 l 41.66971203563715 4.500572522852253" fill="#46ff2c" stroke="none" /><path d="M 81.6062741919709 89.86733742301443 l -42.881877525421054 -23.62259827984628 a69.95796737606871,69.95796737606871 0 0,0 0.5901199691135236,-1.0497575776973151 l 42.4688999150151 24.35723936747838" fill="#37ff7b" stroke="none" /><line stroke="#e1ed5e" stroke-width="0.3" x1="26.266209847984243" x2="21.928928074336255" y1="57.711370442889674" y2="55.22380399835377" /><path d="M 25.398753493254645 57.213857153982495 a86.0,86.0 0 0,1 29.58750427330803,-30.492523968695096" fill="none" id="id59" stroke="none" /><text fill="#e1ed5e" style="font-size:6.75px; font-family:Arial;" text-anchor="middle"><textPath startOffset="21.46611528233685" xlink:href="#id59">November</textPath></text><path d="M 81.96595687620814 89.24020034530311 l -32.94839209919483 -19.658270499754295 a59.36722743388938,59.36722743388938 0 0,0 0.5311506730655671,-0.8730720498538151 l 32.605125627843044 20.222510322815182" fill="#73ff27" stroke="none" /><path d="M 86.10567301691215 84.25364557470407 l -33.1272165732563 -37.542868677335875 a71.06874740209818,71.06874740209818 0 0,0 0.9242531256151914,-0.8015032027919515 l 32.47606964899433 38.1075368735475" fill="#39ff8a" stroke="none" /><path d="M 86.37877921826538 84.01681056812374 l -28.340869674115854 -33.25527835749724 a64.69345983691203,64.69345983691203 0 0,0 0.8537764191351748,-0.7150131977303412 l 27.76423571802157 33.7381927126214" fill="#30ff2f" stroke="none" /><path d="M 86.93701828274178 83.55741782278169 l -20.059769648533795 -25.249550067602414 a53.248009814073775,53.248009814073775 0 0,0 0.7225690142648776,-0.5639765768335231 l 19.62216807910949 25.591105033659158" fill="#c7ff1e" stroke="none" /><line stroke="#e1ed5e" stroke-width="0.3" x1="56.762969772571076" x2="54.21961505331055" y1="26.818313649435495" y2="22.513508569990535" /><path d="M 56.25429882871897 25.957352633546506 a86.0,86.0 0 0,1 42.265352541879196,-11.944610805530505" fill="none" id="id60" stroke="none" /><text fill="#e1ed5e" style="font-size:6.75px; font-family:Arial;" text-anchor="middle"><textPath startOffset="22.20632615414155" xlink:href="#id60">December</textPath></text><path d="M 92.91201910852362 80.23233633223022 l -11.189619779912169 -31.20672075252377 a54.15217958060977,54.15217958060977 0 0,0 0.880148257621848,-0.3070664449202044 l 10.650789518227036 31.39470805061618" fill="#baff1f" stroke="none" /></svg>