<?xml version="1.0" encoding="utf-8" ?>
<svg baseProfile="full" height="200mm" version="1.1" viewBox="0,0,200,200" width="200mm" xmlns="http://www.w3.org/2000/svg" xmlns:ev="http://www.w3.org/2001/xml-events" xmlns:xlink="http://www.w3.org/1999/xlink"><defs /><rect fill="#1a1a1a" height="200" width="200" x="0" y="0" /><rect fill="#1a1a1a" height="200" width="180" x="10" y="0" /><text alignment-baseline="middle" fill="#e1ed5e" style="dominant-baseline: central; font-size:9.0px; font-family:Arial;" text-anchor="middle" x="100.0" y="100.0">2023</text><line stroke="#e1ed5e" stroke-width="0.3" x1="100.0" x2="100.0" y1="15.0" y2="10.0" /><path d="M 100.0 14.0 a86.0,86.0 0 0,1 42.46469731375804,11.215312516191453" fill="none" id="id25" stroke="none" /><text fill="#e1ed5e" style="font-size:6.75px; font-family:Arial;" text-anchor="middle"><textPath startOffset="22.20632615414155" xlink:href="#id25">January</textPath></text><path d="M 100.36148047927253 79.00311137660856 l 0.25961988403434016 -15.08023282600843 a36.082467456315236,36.082467456315236 0 0,0 0.620916317864777,0.01603643660887304 l -0.5191628370939849 15.073529597257197" fill="#ffad10" stroke="none" /><path d="M 101.08401301168833 79.027996857942 l 0.31669909871208696 -6.127061595812699 a27.13524099917908,27.13524099917908 0 0,0 0.46625832220891145,0.02812597529188854 l -0.4221194697606103 6.120702351140506" fill="#ff2f04" stroke="none" /><path d="M 103.2404852339499 79.25152402106235 l 1.1802100319637416 -7.556757007175885 a28.648364020171222,28.648364020171222 0 0,0 0.48657308275699784,0.08028872777395592 l -1.3101123208596146 7.535322016462304" fill="#ff4506" stroke="none" /><path d="M 103.95276090670814 79.375362276772 l 1.0880638442858352 -5.6772780185247775 a26.780602791134044,26.780602791134044 0 0,0 0.4519973906617316,0.09066642439606205 l -1.1856276444146923 5.657707638051507" fill="#ff2a04" stroke="none" /><path d="M 105.36241919743992 79.69619591428918 l 1.279886894644041 -4.846053955111842 a26.012220007036472,26.012220007036472 0 0,0 0.4319293344014684,0.11806260331705423 l -1.3631141182692204 4.8233048109684935" fill="#ff1f03" stroke="none" /><path d="M 106.0581310904928 79.89281104454417 l 2.562361392162694 -8.504583990471088 a29.8822094523279,29.8822094523279 0 0,0 0.4912274189840775,0.15262675025090283 l -2.7083741838574897 8.459217105337665" fill="#ff5708" stroke="none" /><path d="M 107.08798089147638 80.2323363322302 l 2.4982077836569854 -6.967249488344709 a28.401594933739887,28.401594933739887 0 0,0 0.45877728465583906,0.1689715457195193 l -2.617767394085401 6.923214674818865" fill="#ff4206" stroke="none" /><path d="M 107.4271985657038 80.35727306442388 l 2.990390303245491 -7.908691229649341 a29.455165943473673,29.455165943473673 0 0,0 0.472708895270433,0.18340370739161277 l -3.1260823635155908 7.856044818367181" fill="#ff5107" stroke="none" /><path d="M 108.09893153111575 80.62456947434976 l 3.434091338560114 -8.215527924069542 a29.904374340330712,29.904374340330712 0 0,0 0.4732242526862106,0.2026099284342695 l -3.5749993490366396 8.155198467672482" fill="#ff5708" stroke="none" /><path d="M 108.43124777332544 80.76684994638697 l 3.5702532496685206 -8.144371785339032 a29.892553066729214,29.892553066729214 0 0,0 0.46948088219466577,0.21064238680150663 l -3.7099162503299667 8.081709068020995" fill="#ff5708" stroke="none" /><path d="M 108.76106565485865 80.91482961587045 l 3.928146617996435 -8.557103719081052 a30.415644423595637,30.415644423595637 0 0,0 0.47393626536973205,0.22251943138260066 l -4.074861094665765 8.488219305058449" fill="#ff5f08" stroke="none" /><path d="M 109.08828744355905 81.06846463323043 l 4.12090472285408 -8.584131387601484 a30.52203588600915,30.52203588600915 0 0,0 0.4716798873499372,0.23145127223935422 l -4.268055877214449 8.511924955227299" fill="#ff6008" stroke="none" /><path d="M 109.41281617654863 81.2277094730956 l 4.221030432260657 -8.418140555503346 a30.417122082795824,30.417122082795824 0 0,0 0.46601857275581066,0.23871281322509302 l -4.365309492605223 8.344235216965751" fill="#ff5f08" stroke="none" /><path d="M 109.73455568895987 81.39251694778311 l 4.400242928055227 -8.411010047667975 a30.492482702005397,30.492482702005397 0 0,0 0.4629847215802004,0.2473104040918473 l -4.544372696163738 8.334020917074374" fill="#ff6008" stroke="none" /><path d="M 110.05341064243156 81.56283822128135 l 4.1772292607171355 -7.660708828661921 a29.725577577108012,29.725577577108012 0 0,0 0.4471235188108991,0.24882375412790297 l -4.30847686860007 7.587669676973838" fill="#ff5507" stroke="none" /><path d="M 110.36928655335952 81.73862282372117 l 8.788417253562715 -15.477304192912761 a38.798405066260116,38.798405066260116 0 0,0 0.5779175180885678,0.3347671284715797 l -9.053531504116611 15.323732907051133" fill="#ffd113" stroke="none" /><line stroke="#e1ed5e" stroke-width="0.3" x1="143.23703022742887" x2="145.7803849466894" y1="26.81831364943548" y2="22.513508569990506" /><path d="M 143.74570117128098 25.957352633546492 a86.0,86.0 0 0,1 28.547481713284135,27.462654790039103" fill="none" id="id26" stroke="none" /><text fill="#e1ed5e" style="font-size:6.75px; font-family:Arial;" text-anchor="middle"><textPath startOffset="19.985693538727396" xlink:href="#id26">February</textPath></text><path d="M 110.99172775467656 82.1063720568725 l 3.893446054910879 -6.338209668045301 a28.438536413744576,28.438536413744576 0 0,0 0.4149058519873962,0.25981400645097147 l -4.001971059270539 6.270251320271385" fill="#ff4206" stroke="none" /><path d="M 111.2981086023043 82.29822771554956 l 1.5947465126930271 -2.4986341176925695 a23.964184355576403,23.964184355576403 0 0,0 0.34580657428210193,0.2249222151487389 l -1.6375201127594092 2.470812978384303" fill="#ff0000" stroke="none" /><path d="M 111.90073688211348 82.69761687909136 l 5.0678967710015765 -7.368173283528024 a29.942793479535595,29.942793479535595 0 0,0 0.42214898776991383,0.29574234369737523 l -5.1939768983551415 7.279846097066713" fill="#ff5808" stroke="none" /><path d="M 112.48926042617603 83.11751280151076 l 5.905558583129091 -7.982900009887259 a30.929869825260937,30.929869825260937 0 0,0 0.4252913750379346,0.32032064646371095 l -6.042096111925408 7.8800627739177" fill="#ff6609" stroke="none" /><path d="M 112.77801427241765 83.33499621200491 l 3.60547699536025 -4.70223983979315 a26.925413392752432,26.925413392752432 0 0,0 0.3653745836099388,0.28518065798317005 l -3.685884134129619 4.639480792586756" fill="#ff2c04" stroke="none" /><path d="M 113.6212207817346 84.01681056812373 l 4.835397596612015 -5.673872922515475 a28.45479066494664,28.45479066494664 0 0,0 0.3700561804192901,0.3209090730654531 l -4.93234757567807 5.589798856030351" fill="#ff4206" stroke="none" /><path d="M 114.16331599549186 84.49514656593476 l 9.99089312922288 -10.937222165580202 a35.81353348188108,35.81353348188108 0 0,0 0.4515781580691143,0.4196926831596784 l -10.17767917108684 10.763624896345883" fill="#ffa90f" stroke="none" /><path d="M 114.42810811169701 84.74124197986012 l 3.335030032620476 -3.5270331954609704 a25.854110472616394,25.854110472616394 0 0,0 0.32073471426724914,0.3085465410073126 l -3.3952479905001436 3.469103567691356" fill="#ff1c02" stroke="none" /><path d="M 115.68641384162765 86.03803664274999 l 6.771630039994303 -6.027206182483559 a30.065439193151168,30.065439193151168 0 0,0 0.34075329300359203,0.3895399190658395 l -6.874375196575743 5.909750707214773" fill="#ff5a08" stroke="none" /><path d="M 115.9244219780498 86.31012108654704 l 5.79867834429983 -4.9849975403156375 a28.64688636097103,28.64688636097103 0 0,0 0.31823878784072385,0.3766943471225791 l -5.883627745627671 4.884444243563952" fill="#ff4506" stroke="none" /><path d="M 116.15771136456269 86.58626213691792 l 7.145623262081144 -5.932122139284917 a30.287088073179312,30.287088073179312 0 0,0 0.3295545378731469,0.40399489646529557 l -7.2466762920307 5.8082430732115204" fill="#ff5d08" stroke="none" /><path d="M 117.04232023915458 87.72973835380427 l 21.627178058859126 -15.5713030694833 a47.64958367538408,47.64958367538408 0 0,0 0.47351746593578914,0.6697568748188655 l -21.892008144598798 15.196719694332641" fill="#bfff1e" stroke="none" /><path d="M 117.45458315368197 88.32363383020206 l 5.655800780300606 -3.7834877128124424 a27.804620616864078,27.804620616864078 0 0,0 0.26269191823724963,0.4000978137319175 l -5.72008933389578 3.685571835102851" fill="#ff3905" stroke="none" /><line stroke="#e1ed5e" stroke-width="0.3" x1="172.23445277983987" x2="176.4835382374775" y1="55.19839476539836" y2="52.563006222186495" /><path d="M 173.08426987136738 54.67131705675599 a86.0,86.0 0 0,1 12.851231095245387,41.99856678651699" fill="none" id="id27" stroke="none" /><text fill="#e1ed5e" style="font-size:6.75px; font-family:Arial;" text-anchor="middle"><textPath startOffset="22.20632615414155" xlink:href="#id27">March</textPath></text><path d="M 118.03404312379186 89.2402003453031 l 7.937347700667392 -4.735725120684585 a30.242758297173683,30.242758297173683 0 0,0 0.2628820449752997,0.4493506293296781 l -8.017689420113019 4.598395079001012" fill="#ff5c08" stroke="none" /><path d="M 118.3937258080291 89.86733742301442 l 6.581360084472473 -3.625513489197024 a28.513897032954144,28.513897032954144 0 0,0 0.23312405620366064,0.43194347073728073 l -6.642792239894598 3.5116890351272847" fill="#ff4306" stroke="none" /><path d="M 118.56541770881063 90.18545643968196 l 6.564411210515312 -3.470253176305724 a28.425237480942886,28.425237480942886 0 0,0 0.22495268235791452,0.4345369813147766 l -6.623173326033342 3.3567434727306025" fill="#ff4206" stroke="none" /><path d="M 118.89224826269711 90.83032412892265 l 5.3506250210406385 -2.5970173834469077 a26.94757828075525,26.94757828075525 0 0,0 0.19895243848756936,0.4190445746524226 l -5.394535653369964 2.5045303931539444" fill="#ff2c04" stroke="none" /><path d="M 119.34039704204932 91.81776055985345 l 6.879256975317884 -2.910370848125305 a28.469567256948515,28.469567256948515 0 0,0 0.1870563269139859,0.45297173279697617 l -6.928334989118068 2.7915245448750254" fill="#ff4306" stroke="none" /><path d="M 119.61058180528143 92.48833698450437 l 29.647004814340672 -11.356027668905153 a52.74750791603143,52.74750791603143 0 0,0 0.31747823659812247,0.8506838338343778 l -29.83808763944042 10.84402069804144" fill="#85ff25" stroke="none" /><path d="M 119.85752413597 93.16781622104841 l 5.610035844206839 -1.9301900696017782 a26.932801688753372,26.932801688753372 0 0,0 0.14705656799717634,0.43968042059828477 l -5.642429705975786 1.8333365460811795" fill="#ff2c04" stroke="none" /><path d="M 120.08093135843002 93.85539295169968 l 7.100270674993139 -2.1726269790812065 a28.425237480942886,28.425237480942886 0 0,0 0.1391403231543019,0.4691119993164714 l -7.136616895259143 2.0500855930182054" fill="#ff4206" stroke="none" /><path d="M 120.37134235888165 94.90015583598534 l 4.1640963681870184 -1.042456711372995 a25.29259997654509,25.29259997654509 0 0,0 0.10209442257785674,0.4232472934042335 l -4.181423591025695 0.9706241863093554" fill="#ff1402" stroke="none" /><path d="M 120.73433829027371 96.67025291283417 l 7.593917964175539 -1.2195145013743274 a28.691216136976664,28.691216136976664 0 0,0 0.07411092311858289,0.4882983863764798 l -7.613784780733422 1.0886170026057655" fill="#ff4606" stroke="none" /><path d="M 120.78858239683441 97.02765380044208 l 5.873073178606087 -0.8397305024903262 a26.932801688753372,26.932801688753372 0 0,0 0.06166842198938705,0.45950137342334124 l -5.886657599653311 0.7385107870023206" fill="#ff2c04" stroke="none" /><path d="M 120.83666639777658 97.38593545837742 l 31.368627483084076 -3.9353520019712698 a52.61451858801454,52.61451858801454 0 0,0 0.10500266194808566,0.8995986835261928 l -31.43172049803575 3.3948095801202243" fill="#86ff25" stroke="none" /><path d="M 120.91429891909075 98.10471618934814 l 7.380218769502063 -0.6688060262989867 a28.41046088894101,28.41046088894101 0 0,0 0.039944453460573306,0.48742350780944993 l -7.390637706782131 0.5416686012817681" fill="#ff4206" stroke="none" /><path d="M 120.96714384426684 98.82574320788733 l 11.101988326124639 -0.6217625678889054 a32.11938548141198,32.11938548141198 0 0,0 0.026164132921160897,0.5522834933063019 l -11.111046067279297 0.4305679679596037" fill="#ff770a" stroke="none" /><path d="M 120.98425023603335 99.18683210126433 l 7.478730675185335 -0.28981086481267687 a28.48434384895039,28.48434384895039 0 0,0 0.014768868526563762,0.49010684588747044 l -7.482611238167544 0.16103387150020732" fill="#ff4306" stroke="none" /><line stroke="#e1ed5e" stroke-width="0.3" x1="184.98032266829074" x2="189.97916517819016" y1="98.17113171792111" y2="98.06355123074" /><path d="M 185.9800911702706 98.14961562048488 a86.0,86.0 0 0,1 -9.607161424134198,41.387399972396054" fill="none" id="id28" stroke="none" /><text fill="#e1ed5e" style="font-size:6.75px; font-family:Arial;" text-anchor="middle"><textPath startOffset="21.466115282336823" xlink:href="#id28">April</textPath></text><path d="M 120.99513854157772 99.54816195383933 l 7.970125889420316 -0.1715257130787006 a28.971971385012314,28.971971385012314 0 0,0 0.006438665916171485,0.4986817708662738 l -7.9718975624542034 0.03430768415196411" fill="#ff4a06" stroke="none" /><path d="M 120.9904718944345 100.63252640178507 l 7.384943788355051 0.22253772784745063 a28.388296000938197,28.388296000938197 0 0,0 -0.018922647428659643,0.4883094492400083 l -7.380019008075188 -0.3496244241014651" fill="#ff4106" stroke="none" /><path d="M 120.9764740272857 100.99374915477107 l 31.195340347133815 1.4778624406768928 a52.23032719596576,52.23032719596576 0 0,0 -0.050274547950894644,0.8976858261942467 l -31.16527944829539 -2.014619983206563" fill="#8bff24" stroke="none" /><path d="M 120.92983693683757 101.71520430193887 l 12.319321166411143 1.0095708210896206 a33.360619209569606,33.360619209569606 0 0,0 -0.051828746198045915,0.5719258954756731 l -12.300117823936022 -1.2214781051138641" fill="#ff880c" stroke="none" /><path d="M 120.89721153311464 102.0752229133903 l 4.433335952082141 0.4402577987947759 a25.455142488565734,25.455142488565734 0 0,0 -0.04705285935090041,0.4356510398732023 l -4.4251007912301885 -0.5165051605527696" fill="#ff1602" stroke="none" /><path d="M 120.8583938346157 102.4346265915055 l 5.892795912699569 0.6878169882651308 a26.932801688753372,26.932801688753372 0 0,0 -0.05771121084513533,0.46001513300258584 l -5.880083192607586 -0.7891498755551116" fill="#ff2c04" stroke="none" /><path d="M 120.81339534386255 102.79330883721812 l 7.5203554655143074 1.0092863290100864 a28.587779992963526,28.587779992963526 0 0,0 -0.06965337584136175,0.4871555484052314 l -7.501868038656344 -1.138587349395727" fill="#ff4406" stroke="none" /><path d="M 120.49622156327973 104.57218783832717 l 7.4634417677944835 1.6649048009857923 a28.64688636097103,28.64688636097103 0 0,0 -0.11150382280940652,0.480355550336753 l -7.433677379054524 -1.79312900867111" fill="#ff4506" stroke="none" /><path d="M 120.41448212921028 104.9243191809786 l 10.148585639230962 2.448010907490125 a31.43966224932567,31.43966224932567 0 0,0 -0.13143079180359482,0.5250006804565315 l -10.104943533132305 -2.6223394273440523" fill="#ff6d0a" stroke="none" /><path d="M 120.23288151984713 105.62410040840565 l 7.168234440185078 1.9925421993424992 a28.440014072944763,28.440014072944763 0 0,0 -0.13516775293061148,0.4705366802947211 l -7.1328740503683665 -2.1156363551418025" fill="#ff4206" stroke="none" /><path d="M 120.02730092923936 106.31721596034902 l 7.095400036030502 2.238103602229903 a28.440014072944763,28.440014072944763 0 0,0 -0.15128428348356748,0.465605148710733 l -7.055823501530687 -2.3599076509184314" fill="#ff4206" stroke="none" /><path d="M 119.79798401119884 107.00284435728193 l 32.117451955777355 11.360425236810231 a55.06743286032602,55.06743286032602 0 0,0 -0.32378533176065794,0.8909181727387016 l -31.917142363011468 -11.911591206555064" fill="#6cff28" stroke="none" /><path d="M 118.97047184881838 109.00673069616215 l 6.694282841925001 3.178286931482575 a28.41046088894101,28.41046088894101 0 0,0 -0.21354755854258894,0.43997122129524835 l -6.638582026767698 -3.2930471087430986" fill="#ff4206" stroke="none" /><path d="M 118.64920377521936 109.65438752849418 l 27.852422901069374 14.41874342387398 a52.36331652398265,52.36331652398265 0 0,0 -0.421269094654899,0.796882367683665 l -27.600101298189582 -14.89604080664378" fill="#89ff24" stroke="none" /><line stroke="#e1ed5e" stroke-width="0.3" x1="174.80103733775053" x2="179.2010983576182" y1="140.37084112569926" y2="142.7455964860345" /><path d="M 175.68104954172406 140.8457921977663 a86.0,86.0 0 0,1 -30.038265399797805,32.042727171017184" fill="none" id="id29" stroke="none" /><text fill="#e1ed5e" style="font-size:6.75px; font-family:Arial;" text-anchor="middle"><textPath startOffset="22.206326154141568" xlink:href="#id29">May</textPath></text><path d="M 118.30583269289576 110.29060199501025 l 6.472626430055202 3.63857922070551 a28.425237480942886,28.425237480942886 0 0,0 -0.24343915332581625,0.4244566833708604 l -6.409035280577006 -3.7494557499346852" fill="#ff4206" stroke="none" /><path d="M 118.12598468904814 110.60418214915192 l 5.171868271191993 3.0256802121363484 a26.991908056760877,26.991908056760877 0 0,0 -0.23806750350034359,0.3990148294837925 l -5.119019891993422 -3.114257135506245" fill="#ff2d04" stroke="none" /><path d="M 117.75023020441432 111.22182372390056 l 8.973993480852606 5.673423487010117 a31.616981353348187,31.616981353348187 0 0,0 -0.294783389699241,0.45751036709374776 l -8.875005227776315 -5.827055454025318" fill="#ff6f0a" stroke="none" /><path d="M 117.35343817320211 111.8261652097733 l 4.768277898418261 3.249525634631032 a26.77025917673273,26.77025917673273 0 0,0 -0.2627808067488659,0.37855535124042416 l -4.711636184507259 -3.331122248058476" fill="#ff2a04" stroke="none" /><path d="M 117.14729908036423 112.12312394758627 l 6.07505459385251 4.2950577513378825 a28.440014072944763,28.440014072944763 0 0,0 -0.28605265130134144,0.39730211378566166 l -6.000222150175566 -4.398993470574675" fill="#ff4206" stroke="none" /><path d="M 116.0416608686014 113.55231037782055 l 4.531999651983203 3.8287223760020774 a26.932801688753372,26.932801688753372 0 0,0 -0.3022341169618815,0.35156655841087486 l -4.4654230254505425 -3.90616603357448" fill="#ff2c04" stroke="none" /><path d="M 115.80600337817218 113.82643327865902 l 5.711070295314702 4.995806371707335 a28.587779992963526,28.587779992963526 0 0,0 -0.32718190140519393,0.3675923346602582 l -5.62422954426117 -5.093372876108459" fill="#ff4406" stroke="none" /><path d="M 114.81725581225074 114.88116024355365 l 6.604947735706 6.633433808578332 a30.360971033188697,30.360971033188697 0 0,0 -0.37351230058768725,0.365560400043454 l -6.489785482742519 -6.7461443115443585" fill="#ff5e08" stroke="none" /><path d="M 114.29624159901734 115.38237550388516 l 5.05490423607802 5.438942435113609 a28.425237480942886,28.425237480942886 0 0,0 -0.36127184238928767,0.3300132623499073 l -4.960532844221868 -5.525148464050099" fill="#ff4206" stroke="none" /><path d="M 113.20401910651253 116.32954008644616 l 4.863823620682052 6.015138432218529 a28.735545912982293,28.735545912982293 0 0,0 -0.3873038553974373,0.3076976065894441 l -4.759562272567264 -6.0979699528130995" fill="#ff4606" stroke="none" /><path d="M 111.45004920935366 117.60387380957326 l 5.474592544451144 8.416910228876532 a31.040694265275008,31.040694265275008 0 0,0 -0.45041259141556095,0.2874746263755967 l -5.328898150988653 -8.509899284075937" fill="#ff6709" stroke="none" /><path d="M 111.1453310114006 117.79835938074945 l 4.097644273571114 6.543667955746399 a28.720769320980416,28.720769320980416 0 0,0 -0.42126639737180904,0.2587762284329136 l -3.9843986762669963 -6.61323265100769" fill="#ff4606" stroke="none" /><line stroke="#e1ed5e" stroke-width="0.3" x1="143.8653032363475" x2="146.44561519142675" y1="172.8068346515853" y2="177.08958963109032" /><path d="M 144.38136562736335 173.6633856474863 a86.0,86.0 0 0,1 -40.68145358897372,12.25698825130547" fill="none" id="id30" stroke="none" /><text fill="#e1ed5e" style="font-size:6.75px; font-family:Arial;" text-anchor="middle"><textPath startOffset="21.466115282336833" xlink:href="#id30">June</textPath></text><path d="M 110.8373102113329 117.98757091392108 l 3.0845727551196167 5.119717908770546 a26.977131464759,26.977131464759 0 0,0 -0.39981666949162686,0.23621873567424273 l -2.995988214599608 -5.1720552167385385" fill="#ff2d04" stroke="none" /><path d="M 109.89434966115114 118.52300852407294 l 3.5054333676952725 6.562449718684684 a28.440014072944763,28.440014072944763 0 0,0 -0.4337902495161286,0.22693855635351362 l -3.391952215652648 -6.621817693982915" fill="#ff4206" stroke="none" /><path d="M 109.57404056367764 118.69057910512821 l 3.391952215652648 6.621817693982915 a28.440014072944763,28.440014072944763 0 0,0 -0.43763235300568565,0.21943794689567014 l -3.2774659549642022 -6.679223481787887" fill="#ff4206" stroke="none" /><path d="M 108.92500713936063 119.00905698771935 l 3.356690265735843 7.149295855472728 a28.898088425002932,28.898088425002932 0 0,0 -0.4520927099407881,0.2075335893866508 l -3.2331295600276357 -7.206016515193453" fill="#ff4906" stroke="none" /><path d="M 108.59647513512805 119.15986991738527 l 2.41955439478214 5.392715820537663 a26.910636800750556,26.910636800750556 0 0,0 -0.42426454650108175,0.18598510920036299 l -2.3263691736233048 -5.4335654830324795" fill="#ff2c04" stroke="none" /><path d="M 107.93186726928326 119.44442032107085 l 2.977589671511167 7.299353752521142 a28.883311833001056,28.883311833001056 0 0,0 -0.46196646184836315,0.18382598907067244 l -2.851502133620938 -7.349526585997883" fill="#ff4906" stroke="none" /><path d="M 107.59598834532513 119.57807347666477 l 4.294624113147936 11.069062065322026 a32.872991673507684,32.872991673507684 0 0,0 -0.5293017817863085,0.2001366433184814 l -4.103452110601353 -11.141346958747137" fill="#ff810b" stroke="none" /><path d="M 106.91757812671514 119.82793768551818 l 2.630902529018083 7.540987676103609 a28.98674797701419,28.98674797701419 0 0,0 -0.4725257702977411,0.1603063966470144 l -2.5007070257831145 -7.585157059648746" fill="#ff4a06" stroke="none" /><path d="M 106.57524785965236 119.94407469862006 l 1.9177484961833506 5.816924331590019 a27.124897384777764,27.124897384777764 0 0,0 -0.44469158029416944,0.14237620111293442 l -1.8173355707982408 -5.84907337936266" fill="#ff2f04" stroke="none" /><path d="M 104.48393922423573 120.51570834832081 l 2.5445973854904054 11.64249005482871 a32.91732144951331,32.91732144951331 0 0,0 -0.554591875986271,0.11622011980873115 l -2.3438140480747562 -11.684566155363981" fill="#ff820b" stroke="none" /><path d="M 104.13013068566511 120.58985236759428 l 1.4894044632837111 7.425096285956656 a28.573003400961653,28.573003400961653 0 0,0 -0.4830638836330581,0.09258034300000854 l -1.3613729650789486 -7.449633827305132" fill="#ff4406" stroke="none" /><path d="M 103.7750983002368 120.6578951692458 l 1.4384067523712203 7.871174082898981 a29.001524569016066,29.001524569016066 0 0,0 -0.49185346686350884,0.08551502982721136 l -1.3027043140356616 -7.894767691247199" fill="#ff4a06" stroke="none" /><path d="M 102.70371172650421 120.8252237178851 l 0.7638374046145933 5.883424878196926 a26.932801688753372,26.932801688753372 0 0,0 -0.460259235547098,0.055730983682369215 l -0.662450746016115 -5.895701390604645" fill="#ff2c04" stroke="none" /><path d="M 101.98527174616119 120.90594882070398 l 0.722911782787674 7.6126388047714135 a28.64688636097103,28.64688636097103 0 0,0 -0.49130185247219266,0.04239159112168256 l -0.5917656125739396 -7.623954648171759" fill="#ff4506" stroke="none" /><path d="M 101.62511606390274 120.93702456842531 l 0.5757564945526157 7.417702734984505 a28.440014072944763,28.440014072944763 0 0,0 -0.4884061027940556,0.0336833443797278 l -0.44798763097962974 -7.426514423880518" fill="#ff4206" stroke="none" /><path d="M 101.26447882468166 120.96189622390904 l 0.47823903009245483 7.928006956972748 a28.94241820100856,28.94241820100856 0 0,0 -0.4975503952157603,0.025717672209523083 l -0.341700566463215 -7.935064435944473" fill="#ff4906" stroke="none" /><line stroke="#e1ed5e" stroke-width="0.3" x1="102.19456741930631" x2="102.32365962044197" y1="184.97166512339345" y2="189.96999836594603" /><path d="M 102.22038585953345 185.97133177190398 a86.0,86.0 0 0,1 -42.740103519485714,-10.115201625700543" fill="none" id="id31" stroke="none" /><text fill="#e1ed5e" style="font-size:6.75px; font-family:Arial;" text-anchor="middle"><textPath startOffset="22.20632615414155" xlink:href="#id31">July</textPath></text><path d="M 100.54218724476979 120.99299961872073 l 0.19170805007399214 7.422762266968807 a28.425237480942886,28.425237480942886 0 0,0 -0.48923936428507403,0.008422699336688074 l -0.06390899589625013 -7.424962443584654" fill="#ff4206" stroke="none" /><path d="M 99.81925306533755 120.99922214144158 l -0.07739029652311463 8.991223177952762 a29.991556233141786,29.991556233141786 0 0,0 -0.5161979707384883,-0.00888681619495645 l 0.2321479571542709 -8.988558884478646" fill="#ff5808" stroke="none" /><path d="M 99.45781275523022 120.99299961872073 l -0.214217054958296 8.294290572941266 a29.297056409053596,29.297056409053596 0 0,0 -0.5040204874490966,-0.01735948468666452 l 0.3569578940820356 -8.289374289828507" fill="#ff4f07" stroke="none" /><path d="M 99.09653310690486 120.98055641714683 l -0.2552423766232187 5.927308597268291 a26.932801688753372,26.932801688753372 0 0,0 -0.46300298860444294,-0.02393196590225872 l 0.35723343364115057 -5.92203682460383" fill="#ff2c04" stroke="none" /><path d="M 98.73552117531835 120.96189622390904 l -0.5965753854455577 9.88972774818647 a30.90770493725812,30.90770493725812 0 0,0 -0.5307842561539143,-0.03660598995199029 l 0.7667224023784022 -9.877993413718194" fill="#ff6509" stroke="none" /><path d="M 98.01472825383883 120.90594882070398 l -0.9841378762780923 10.363486063693646 a31.41010906532192,31.41010906532192 0 0,0 -0.5378119693787103,-0.05574640960657061 l 1.1623824422623958 -10.345010285631316" fill="#ff6d0a" stroke="none" /><path d="M 97.65516085044442 120.86867818915974 l -0.7482476047778517 6.659279154767638 a27.701184472850944,27.701184472850944 0 0,0 -0.4733902598238504,-0.057320967854729565 l 0.8627652876530915 -6.64541265818756" fill="#ff3705" stroke="none" /><path d="M 97.2962882734958 120.8252237178851 l -1.406868644364854 10.836345448136056 a31.927289785387593,31.927289785387593 0 0,0 -0.5443928396685731,-0.0754478870592084 l 1.593190075220258 -10.810522995584243" fill="#ff740a" stroke="none" /><path d="M 96.93821686468263 120.77559828337769 l -0.9447110858473066 6.410296597111143 a27.4795355928228,27.4795355928228 0 0,0 -0.4673668856404557,-0.07299309565157662 l 1.0549138350962795 -6.393085194112461" fill="#ff3405" stroke="none" /><path d="M 96.58105272829116 120.7198165907248 l -0.9707131869129959 5.882804733921044 a26.962354872757125,26.962354872757125 0 0,0 -0.4572700199746684,-0.07950225429248556 l 1.0718321783597142 -5.865223901107552" fill="#ff2d04" stroke="none" /><path d="M 95.86986931433489 120.58985236759428 l -1.4603429127806118 7.280216358425792 a28.425237480942886,28.425237480942886 0 0,0 -0.4789091300788106,-0.10036006455427016 l 1.585443504288809 -7.254000313144981" fill="#ff4206" stroke="none" /><path d="M 95.51606077576429 120.51570834832081 l -1.288863027864634 5.897033090387512 a27.036237832766506,27.036237832766506 0 0,0 -0.45379662248917013,-0.10328263384357393 l 1.390179799746667 -5.873973722966252" fill="#ff2e04" stroke="none" /><path d="M 95.16358092515715 120.4354850818985 l -1.1825886913389634 4.996831991996993 a26.134865720652044,26.134865720652044 0 0,0 -0.43688375071010316,-0.10737539659569768 l 1.268425726792277 -4.975735337087265" fill="#ff2003" stroke="none" /><path d="M 94.11515582081647 120.15858648285463 l -1.265031005094808 4.333375046683776 a25.51424885657324,25.51424885657324 0 0,0 -0.420529525600921,-0.1267020964072573 l 1.3394355051359748 -4.310957581170793" fill="#ff1702" stroke="none" /><path d="M 93.42475214034765 119.94407469862007 l -2.0750547660753464 6.294066496304281 a27.627301512841562,27.627301512841562 0 0,0 -0.45036483357689705,-0.15278820370316124 l 2.183089332589469 -6.257415305702996" fill="#ff3605" stroke="none" /><path d="M 92.7421414339146 119.70592522655815 l -3.919601113735576 10.642170243731707 a32.34103436144013,32.34103436144013 0 0,0 -0.5207365147151359,-0.1968979922129345 l 4.102207849210995 -10.573124001412138" fill="#ff7a0b" stroke="none" /><path d="M 92.40401165467489 119.57807347666478 l -2.172700313621198 5.599967304982456 a27.006684648762754,27.006684648762754 0 0,0 -0.43195124664301443,-0.17188231549701818 l 2.2687726363060707 -5.561738145079372" fill="#ff2d04" stroke="none" /><path d="M 92.06813273071674 119.44442032107085 l -4.155230572521203 10.186258423152745 a32.00117274539697,32.00117274539697 0 0,0 -0.5082525923877067,-0.21244962483856789 l 4.329954624406373 -10.113223755294204" fill="#ff750a" stroke="none" /><path d="M 90.42595943632237 118.69057910512821 l -2.0513395226737448 4.004654394871494 a25.49947226457136,25.49947226457136 0 0,0 -0.3889387117674052,-0.20347435161796673 l 2.1199691369676454 -3.9687506243088104" fill="#ff1702" stroke="none" /><line stroke="#e1ed5e" stroke-width="0.3" x1="58.666819895761336" x2="56.23545636021788" y1="174.27360380694188" y2="178.64263932499728" /><path d="M 58.180547188652646 175.14741091055294 a86.0,86.0 0 0,1 -31.652253787137756,-30.449443065178592" fill="none" id="id32" stroke="none" /><text fill="#e1ed5e" style="font-size:6.75px; font-family:Arial;" text-anchor="middle"><textPath startOffset="22.20632615414155" xlink:href="#id32">August</textPath></text><path d="M 89.7882731507175 118.34994917583269 l -4.832217407863828 8.683246736775526 a30.937258121261873,30.937258121261873 0 0,0 -0.4631031065950269,-0.2629620301733105 l 4.980969281380062 -8.598781540807584" fill="#ff6609" stroke="none" /><path d="M 89.4739219176387 118.17145234162733 l -4.506943951999656 7.780458836552291 a29.991556233141786,29.991556233141786 0 0,0 -0.4444921856006055,-0.26261381806106704 l 4.640204008628643 -7.701726446197474" fill="#ff5808" stroke="none" /><path d="M 89.1626897886671 117.98757091392108 l -3.8395114516754663 6.372751463698319 a28.440014072944763,28.440014072944763 0 0,0 -0.4171483756516593,-0.2562466031506848 l 3.9486390272594343 -6.305716393719257" fill="#ff4206" stroke="none" /><path d="M 88.8546689885994 117.79835938074946 l -5.556327211148579 8.873088510327893 a31.469215433329424,31.469215433329424 0 0,0 -0.45663060084958507,-0.2914432541913252 l 5.7082396140450875 -8.776130827312763" fill="#ff6d0a" stroke="none" /><path d="M 87.95078237400918 117.19931262002967 l -5.693244730282282 8.126660085152993 a30.922481529259997,30.922481529259997 0 0,0 -0.43331625091232273,-0.309159639765918 l 5.8322883090434905 -8.027456183542856" fill="#ff6609" stroke="none" /><path d="M 87.65650970185807 116.9893568818739 l -6.518439874813316 8.97186279337143 a32.089832297408236,32.089832297408236 0 0,0 -0.44408512201783834,-0.3285235566929565 l 6.671909967249719 -8.858329287938707" fill="#ff760a" stroke="none" /><path d="M 87.36589467227662 116.77436683061367 l -5.711795008604852 7.583579703531801 a30.49396036120558,30.49396036120558 0 0,0 -0.4165638658137266,-0.31940340911147463 l 5.841487602912066 -7.4841369525929595" fill="#ff6008" stroke="none" /><path d="M 87.07902340077011 116.55440617244103 l -5.03231655752814 6.447423818303821 a29.178843673038585,29.178843673038585 0 0,0 -0.39327871775357587,-0.3124443986005878 l 5.142552767999074 -6.359845505698103" fill="#ff4d07" stroke="none" /><path d="M 86.79598089348748 116.32954008644616 l -3.7953618893001284 4.693761317213504 a27.036237832766506,27.036237832766506 0 0,0 -0.35936293289977794,-0.29573122847260114 l 3.8755949507445955 -4.627734969883722" fill="#ff2e04" stroke="none" /><path d="M 86.24171649860922 115.8653595955263 l -6.8880159807009775 7.942913112853495 a31.513545209335053,31.513545209335053 0 0,0 -0.40676130552448736,-0.3589195587993189 l 7.023719639132052 -7.823170412281887" fill="#ff6e0a" stroke="none" /><path d="M 85.97065885151581 115.62618273729859 l -7.5469201182241115 8.405922389584687 a32.296704585434505,32.296704585434505 0 0,0 -0.41047642878992247,-0.37496048539740157 l 7.690496096480889 -8.274769137600709" fill="#ff790b" stroke="none" /><path d="M 85.70375840098266 115.38237550388516 l -5.487463205533452 5.904364374834775 a29.06063093702357,29.06063093702357 0 0,0 -0.3634850655785575,-0.3436978170983953 l 5.588284105502826 -5.809031920990448" fill="#ff4b07" stroke="none" /><path d="M 85.18274418774928 114.88116024355367 l -9.440852683002017 9.481569555907944 a34.380204057699075,34.380204057699075 0 0,0 -0.41577024442649885,-0.4211730625108387 l 9.60266355248405 -9.317655999416441" fill="#ff960d" stroke="none" /><path d="M 84.9287848128048 114.62390073753433 l -5.657670905853385 5.489750939468439 a28.883311833001056,28.883311833001056 0 0,0 -0.3431522417529713,-0.35979375357340665 l 5.751329698985313 -5.391550069312532" fill="#ff4906" stroke="none" /><path d="M 84.43433777217949 114.09645910891817 l -4.441334138652198 4.022127947929859 a26.991908056760877,26.991908056760877 0 0,0 -0.3089174396451521,-0.34707201825262446 l 4.509910427945688 -3.9450817599363703" fill="#ff2d04" stroke="none" /><path d="M 84.19399662182784 113.82643327865904 l -10.04859203859169 8.790089691991396 a34.35065087369532,34.35065087369532 0 0,0 -0.3854756275954941,-0.4483952411041369 l 10.198410175757962 -8.615817351725727" fill="#ff950d" stroke="none" /><path d="M 83.95833913139862 113.55231037782056 l -11.383615564196907 9.617102157404979 a35.902193033892345,35.902193033892345 0 0,0 -0.39475999924381694,-0.475513849395519 l 11.54747156333426 -9.419727050895698" fill="#ffaa0f" stroke="none" /><path d="M 83.72743513129214 113.27417163493432 l -4.654484075850645 3.7968458564096186 a27.006684648762754,27.006684648762754 0 0,0 -0.29074893589848655,-0.36275400222596516 l 4.719150923803992 -3.716164020605394" fill="#ff2d04" stroke="none" /><path d="M 83.50135304334701 112.99209946851258 l -9.119048095075117 7.180927031206731 a32.6070130174739,32.6070130174739 0 0,0 -0.34344995192128225,-0.4439553603776867 l 9.241304864214468 -7.022893676715792" fill="#ff7d0b" stroke="none" /><path d="M 83.28015986056508 112.70617746262583 l -3.5941675824538786 2.7313736705750165 a25.51424885657324,25.51424885657324 0 0,0 -0.2627223263796082,-0.3519594896544587 l 3.6406511755285718 -2.6691013014112497" fill="#ff1702" stroke="none" /><path d="M 82.85270091963577 112.12312394758628 l -8.584709719018987 6.069381509586706 a31.513545209335053,31.513545209335053 0 0,0 -0.30934160102654334,-0.44562964806555494 l 8.687912227207663 -5.9207105993341385" fill="#ff6e0a" stroke="none" /><path d="M 82.6465618267979 111.8261652097733 l -6.282404555022269 4.281385247164322 a28.602556584965406,28.602556584965406 0 0,0 -0.27376309766151957,-0.40923868633911065 l 6.355170758094519 -4.1726096466193905" fill="#ff4506" stroke="none" /><path d="M 82.05923443525364 110.91462005526583 l -8.514867859801633 5.180188502833448 a30.966811305265626,30.966811305265626 0 0,0 -0.2731259843990187,-0.4577748600300268 l 8.602774719898884 -5.03285154891731" fill="#ff6609" stroke="none" /><line stroke="#e1ed5e" stroke-width="0.3" x1="26.63291911575756" x2="22.317208475507996" y1="142.92168965132927" y2="145.44649492493687" /><path d="M 25.769776987707644 143.4266507060508 a86.0,86.0 0 0,1 -11.730757126820373,-40.83630448921669" fill="none" id="id33" stroke="none" /><text fill="#e1ed5e" style="font-size:6.75px; font-family:Arial;" text-anchor="middle"><textPath startOffset="21.46611528233685" xlink:href="#id33">September</textPath></text><path d="M 81.87401531095188 110.60418214915194 l -6.804418551617577 3.98076545789086 a28.883311833001056,28.883311833001056 0 0,0 -0.24736218941303154,-0.4312968274626218 l 6.871932737182985 -3.8630487845699313" fill="#ff4906" stroke="none" /><path d="M 81.51974371655577 109.97397251340807 l -15.805853063815974 8.530571307644546 a38.96094757828075,38.96094757828075 0 0,0 -0.3134454462158206,-0.5929206592397659 l 15.950351018256681 -8.257235633318654" fill="#ffd313" stroke="none" /><path d="M 81.35079622478065 109.6543875284942 l -7.998139815407195 4.140506062120706 a30.00633282514366,30.00633282514366 0 0,0 -0.23350832500576124,-0.460734078176907 l 8.068226810199222 -4.0022177722411145" fill="#ff5908" stroke="none" /><path d="M 81.18737489456691 109.33194174019688 l -8.69038704002591 4.310838338763401 a30.700832649231852,30.700832649231852 0 0,0 -0.23076316442370276,-0.47544046850436966 l 8.763303461064332 -4.160608914293746" fill="#ff6309" stroke="none" /><path d="M 81.02952815118164 109.00673069616217 l -13.448634024405656 6.38509288827258 a35.887416441890466,35.887416441890466 0 0,0 -0.2601417008807371,-0.5603220804049409 l 13.55655034212622 -6.152650740588812" fill="#ffaa0f" stroke="none" /><path d="M 80.87730276802145 108.67885076344099 l -8.873990025441431 4.027467159720419 a30.74516242523748,30.74516242523748 0 0,0 -0.21457036451444844,-0.48379952705818985 l 8.94200147468716 -3.874119296169533" fill="#ff6309" stroke="none" /><path d="M 80.58989483394504 108.01547362559985 l -7.039264596635201 2.906889954240058 a28.615855517767095,28.615855517767095 0 0,0 -0.1840917748208876,-0.45690068784886917 l 7.088258985713476 -2.7852898985483834" fill="#ff4506" stroke="none" /><path d="M 80.45479744820244 107.68017299344265 l -13.85194887545714 5.443042269728232 a35.8829834642899,35.8829834642899 0 0,0 -0.2209464298659146,-0.5768214080599886 l 13.943589584916564 -5.203797294835085" fill="#ffaa0f" stroke="none" /><path d="M 80.32549172779594 107.34259656027581 l -8.659367836939348 3.2317069181089617 a30.242758297173683,30.242758297173683 0 0,0 -0.1778212823801858,-0.4892877979083947 l 8.713713380324759 -3.08217132319445" fill="#ff5c08" stroke="none" /><path d="M 80.0844068197444 106.66101706037122 l -19.604959441194506 6.5571217549848795 a41.672452210625075,41.672452210625075 0 0,0 -0.22167313481342155,-0.6822397576493009 l 19.714924827024177 -6.218683097357775" fill="#fff617" stroke="none" /><path d="M 79.86692584326677 105.97154293290107 l -6.3537120389080695 1.8845340720577923 a27.627301512841562,27.627301512841562 0 0,0 -0.13130514828329828,-0.4570904467913032 l 6.385209824077472 -1.7748861497618933" fill="#ff3605" stroke="none" /><path d="M 79.67330655649465 105.27499134158121 l -14.453001330828297 3.750706286385232 a35.93174621789609,35.93174621789609 0 0,0 -0.15020956074059996,-0.6000125276406769 l 14.515422205863954 -3.501365919347163" fill="#ffab0f" stroke="none" /><path d="M 79.58551787078972 104.9243191809786 l -11.58504503614971 2.7945092666536246 a32.91732144951331,32.91732144951331 0 0,0 -0.12812586792215314,-0.5519628856431285 l 11.631431470002417 -2.594677723661922" fill="#ff820b" stroke="none" /><path d="M 79.50377843672027 104.57218783832718 l -10.347863707038728 2.308346269965814 a31.60220476134631,31.60220476134631 0 0,0 -0.11386720008068209,-0.5319496504341252 l 10.386064945843852 -2.1298828001155248" fill="#ff6f0a" stroke="none" /><path d="M 79.35854240842038 103.8639653848113 l -17.828583928929742 3.337411171471231 a39.13826668230327,39.13826668230327 0 0,0 -0.11826010769855903,-0.6632654876683204 l 17.88339047896749 -3.030026933069697" fill="#ffd513" stroke="none" /><path d="M 79.18660465613746 102.79330883721812 l -22.07777188756148 2.962997353423001 a43.27571244282866,43.27571244282866 0 0,0 -0.09273055934260406,-0.73915379637172 l 22.125503956150933 -2.5825258027638727" fill="#f4ff19" stroke="none" /><path d="M 79.1416061653843 102.43462659150553 l -9.04834042385874 1.056137417846718 a30.109768969156796,30.109768969156796 0 0,0 -0.055656758748462494,-0.5153124626054479 l 9.065179484108254 -0.900228633356488" fill="#ff5a08" stroke="none" /><path d="M 79.10278846688536 102.07522291339032 l -8.050585186616821 0.7994731172143995 a29.090184121027328,29.090184121027328 0 0,0 -0.04519423815822518,-0.4987146521008956 l 8.063154021052123 -0.6607770765649378" fill="#ff4c07" stroke="none" /><path d="M 79.04373962182676 101.35467743843564 l -9.488931783760629 0.6133938770728289 a30.50873695320746,30.50873695320746 0 0,0 -0.02936632874460633,-0.524355526918799 l 9.498084463392766 -0.4499666338185922" fill="#ff6008" stroke="none" /><path d="M 79.0095281055655 100.63252640178507 l -6.69814401603803 0.20184171915763932 a27.701184472850944,27.701184472850944 0 0,0 -0.010259908399089497,-0.4767376277697468 l 6.700625987122127 -0.08651427559776369" fill="#ff3705" stroke="none" /><line stroke="#e1ed5e" stroke-width="0.3" x1="15.007084014347285" x2="10.007500721073583" y1="101.09737516637583" y2="101.16192664675087" /><path d="M 14.007167355692545 101.11028546245083 a86.0,86.0 0 0,1 10.666146001902534,-42.60595125391555" fill="none" id="id34" stroke="none" /><text fill="#e1ed5e" style="font-size:6.75px; font-family:Arial;" text-anchor="middle"><textPath startOffset="22.20632615414155" xlink:href="#id34">October</textPath></text><path d="M 79.00175016825051 100.2711162175752 l -33.739535703623766 0.4356237008324 a54.74234783628474,54.74234783628474 0 0,0 -0.004055372328946525,-0.9423257087473559 l 33.74203537324222 0.14521148611863122" fill="#6fff27" stroke="none" /><path d="M 79.00019446554 99.90962569577889 l -12.81857485714369 -0.055165738650279204 a33.81869356162777,33.81869356162777 0 0,0 0.007515790578108367,-0.5821062629662951 l 12.815726059447865 0.2758082596770463" fill="#ff8e0d" stroke="none" /><path d="M 79.03285615573316 98.82574320788736 l -13.698599549244822 -0.7671847764582552 a34.720065673742226,34.720065673742226 0 0,0 0.0385548291333157,-0.5964261419210788 l 13.683364129107094 1.0028699826323457" fill="#ff9a0e" stroke="none" /><path d="M 79.05617556472873 98.46500227214037 l -12.902299725399311 -0.9456248463054591 a33.93690629764278,33.93690629764278 0 0,0 0.04771450838129825,-0.582237858669733 l 12.884110733198517 1.1675766221829704" fill="#ff900d" stroke="none" /><path d="M 79.08570108090925 98.10471618934814 l -9.10202454424133 -0.8248385389150971 a30.13932215316055,30.13932215316055 0 0,0 0.051269677014294066,-0.5162786507844708 l 9.086477741544808 0.981392720403998" fill="#ff5b08" stroke="none" /><path d="M 79.12142395522702 97.74499172005258 l -23.851085874531922 -2.576056720413728 a44.98979711504632,44.98979711504632 0 0,0 0.08978602454913073,-0.7692318269357834 l 23.803209496979203 2.9862322856743733" fill="#dfff1b" stroke="none" /><path d="M 79.21141760316559 97.0276538004421 l -7.906341352519526 -1.1304466664907094 a28.98674797701419,28.98674797701419 0 0,0 0.07487429743396422,-0.4933280693262667 l 7.88571116164626 1.2663738482090683" fill="#ff4a06" stroke="none" /><path d="M 79.32604984820605 96.31383870115002 l -12.561479504684458 -2.2397093572583273 a33.75958719362026,33.75958719362026 0 0,0 0.10692830968026468,-0.5712153059860505 l 12.521065471094332 2.4556027407069507" fill="#ff8d0d" stroke="none" /><path d="M 79.46518482838121 95.60439243477599 l -9.890522564775232 -2.117129150976311 a31.114577225284393,31.114577225284393 0 0,0 0.11661389874706898,-0.5227572423954281 l 9.852614279026126 2.287064562921698" fill="#ff6809" stroke="none" /><path d="M 79.54389044137918 95.25157060432595 l -21.626812204874728 -5.020181893045801 a43.20182948281928,43.20182948281928 0 0,0 0.1743856242318268,-0.722940995218818 l 21.537193780382086 5.391708119924016" fill="#f5ff19" stroke="none" /><path d="M 79.62865764111835 94.90015583598534 l -8.73671854185882 -2.187185423689642 a30.00633282514366,30.00633282514366 0 0,0 0.12974690893540228,-0.4999677672232488 l 8.697775301053111 2.3372496164617544" fill="#ff5908" stroke="none" /><path d="M 79.71946130924805 94.55025226153421 l -7.684580803309436 -2.0649859203685894 a28.957194793010437,28.957194793010437 0 0,0 0.13349712110715728,-0.48026017290958994 l 7.647896911635918 2.1969573966971216" fill="#ff4a06" stroke="none" /><path d="M 80.14247586403 93.16781622104843 l -4.995237395526639 -1.7186623907413063 a26.28263164067081,26.28263164067081 0 0,0 0.1508709653568327,-0.42653253556646026 l 4.964913349359997 1.8043925527343776" fill="#ff2303" stroke="none" /><path d="M 80.2630227832202 92.82701384747504 l -58.94706212967413 -21.423060671555422 a83.71924475196434,83.71924475196434 0 0,0 0.503891828131309,-1.350179580136574 l 58.56956571304119 22.43456338872134" fill="#4dd5ff" stroke="none" /><path d="M 80.52162464483688 92.15188598940014 l -5.585156296865702 -2.2503387775204224 a27.02146124076463,27.02146124076463 0 0,0 0.17754169713669715,-0.42993130209760394 l 5.545592912842806 2.346144650071338" fill="#ff2e04" stroke="none" /><path d="M 80.803312248108 91.48605970444005 l -12.7445114768923 -5.652329777549529 a34.941714553770375,34.941714553770375 0 0,0 0.24858148550767759,-0.5477163525916146 l 12.64532767442127 5.870868138983214" fill="#ff9d0e" stroke="none" /><path d="M 81.10775173730289 90.83032412892265 l -11.146581565571612 -5.410184039801816 a33.39017239357335,33.39017239357335 0 0,0 0.2554188981327113,-0.5149089127631147 l 11.051802654485488 5.601252541063892" fill="#ff880c" stroke="none" /><path d="M 81.26839172434947 90.50648371742162 l -7.124030214370194 -3.610586760220673 a28.98674797701419,28.98674797701419 0 0,0 0.2293963846259479,-0.4431207996945996 l 7.060824396584132 3.7326802821756084" fill="#ff4a06" stroke="none" /><path d="M 81.43458229118936 90.18545643968196 l -10.483462679479677 -5.542046117383766 a32.858215081505804,32.858215081505804 0 0,0 0.2686423525539051,-0.4977534795799401 l 10.386512227707302 5.721680580296179" fill="#ff810b" stroke="none" /><line stroke="#e1ed5e" stroke-width="0.3" x1="26.266209847984243" x2="21.928928074336255" y1="57.711370442889674" y2="55.22380399835377" /><path d="M 25.398753493254645 57.213857153982495 a86.0,86.0 0 0,1 29.58750427330803,-30.492523968695096" fill="none" id="id35" stroke="none" /><text fill="#e1ed5e" style="font-size:6.75px; font-family:Arial;" text-anchor="middle"><textPath startOffset="21.46611528233685" xlink:href="#id35">November</textPath></text><path d="M 81.78341655067845 89.55222093294921 l -13.465360089254563 -7.722804205420559 a36.52280989797115,36.52280989797115 0 0,0 0.31747074323971863,-0.5426604098500979 l 13.33042967154452 7.953444027624548" fill="#ffb310" stroke="none" /><path d="M 82.15384107792192 88.93136811851018 l -15.326307234241561 -9.505757155875449 a39.03483053829014,39.03483053829014 0 0,0 0.35906914501014325,-0.5679611567643584 l 15.160410492985456 9.768165960354022" fill="#ffd413" stroke="none" /><path d="M 82.54541684631803 88.32363383020206 l -6.208484895639427 -4.1532096391459055 a28.469567256948515,28.469567256948515 0 0,0 0.2759860650720489,-0.40497549560150037 l 6.136074364898637 4.259463158017822" fill="#ff4306" stroke="none" /><path d="M 82.7489923806493 88.02491185347247 l -9.243562074916543 -6.416580009556027 a32.25237480942887,32.25237480942887 0 0,0 0.32050779067062396,-0.4533355402433362 l 9.13174166444204 6.5747420501311495" fill="#ff780b" stroke="none" /><path d="M 83.17141714833178 87.43820079747576 l -9.100105022756205 -6.792829379950657 a32.35581095344201,32.35581095344201 0 0,0 0.3369997299560992,-0.443452141957907 l 8.981829352575996 6.948466297789591" fill="#ff7a0b" stroke="none" /><path d="M 83.6137871275137 86.86637796730984 l -4.7215814504161875 -3.784368398536381 a27.051014424768383,27.051014424768383 0 0,0 0.2943427422344206,-0.36082939850179724 l 4.655740216105374 3.865081966646261" fill="#ff2e04" stroke="none" /><path d="M 84.07557802195018 86.31012108654704 l -21.351462000122382 -18.355387078398937 a49.15679605957547,49.15679605957547 0 0,0 0.5571294010773125,-0.6368952149864261 l 21.032340735467226 18.720197849588306" fill="#aeff20" stroke="none" /><path d="M 84.31358615837235 86.03803664274999 l -4.486825772221163 -3.9935767125991317 a27.006684648762754,27.006684648762754 0 0,0 0.31206398932853885,-0.34458885127266903 l 4.4174181422765795 4.0702183511413565" fill="#ff2d04" stroke="none" /><path d="M 85.05521093208273 85.24692304244772 l -5.315767003986524 -5.247576218160677 a28.469567256948515,28.469567256948515 0 0,0 0.34728018647424175,-0.3457888549882415 l 5.22465101734497 5.338300923799027" fill="#ff4306" stroke="none" /><path d="M 85.83668400450813 84.49514656593479 l -42.48994798647562 -46.514560302195655 a84.0,84.0 0 0,0 1.0759560496161145,-0.9660039649228849 l 41.68298094926353 47.23906327588782" fill="#4dd2ff" stroke="none" /><path d="M 86.10567301691215 84.25364557470407 l -3.9742305044858983 -4.503970733352504 a27.006684648762754,27.006684648762754 0 0,0 0.3512234788365758,-0.30457753983344465 l 3.896113227002549 4.571713266605629" fill="#ff2d04" stroke="none" /><path d="M 86.37877921826538 84.01681056812374 l -5.918449981978042 -6.94473048494213 a30.124545561158673,30.124545561158673 0 0,0 0.39756146451461966,-0.33294629327534736 l 5.798030980504311 7.0455779356112895" fill="#ff5a08" stroke="none" /><path d="M 86.65592168130627 83.78471172551755 l -3.8168414470850247 -4.638101102552209 a27.006684648762754,27.006684648762754 0 0,0 0.3614993938479756,-0.2923073692273371 l 3.7364386546725483 4.703114569043681" fill="#ff2d04" stroke="none" /><path d="M 87.22198572758235 83.33499621200491 l -5.704925569965288 -7.440327128051754 a30.37574762519057,30.37574762519057 0 0,0 0.41767209329705857,-0.31458196142075673 l 5.576007322909839 7.537425678978365" fill="#ff5e08" stroke="none" /><path d="M 87.51073957382395 83.11751280151077 l -3.528395492747519 -4.769545169597816 a26.932801688753372,26.932801688753372 0 0,0 0.3750773332186048,-0.27250963387415506 l 3.445772843175132 4.829574038288639" fill="#ff2c04" stroke="none" /><path d="M 87.80319425747018 82.90503203632743 l -5.2308805676593835 -7.331570053143024 a30.00633282514366,30.00633282514366 0 0,0 0.42304479832446146,-0.2963699162383163 l 5.103904629751262 7.420524812145283" fill="#ff5908" stroke="none" /><path d="M 88.39885842347998 82.49532879139004 l -4.1509420605092755 -6.26325224081963 a28.513897032954144,28.513897032954144 0 0,0 0.41145957258936594,-0.2676247515047383 l 4.042515462135623 6.333775916483903" fill="#ff4306" stroke="none" /><line stroke="#e1ed5e" stroke-width="0.3" x1="56.762969772571076" x2="54.21961505331055" y1="26.818313649435495" y2="22.513508569990535" /><path d="M 56.25429882871897 25.957352633546506 a86.0,86.0 0 0,1 42.265352541879196,-11.944610805530505" fill="none" id="id36" stroke="none" /><text fill="#e1ed5e" style="font-size:6.75px; font-family:Arial;" text-anchor="middle"><textPath startOffset="22.20632615414155" xlink:href="#id36">December</textPath></text><path d="M 89.63071344664047 81.73862282372117 l -6.234705307737105 -10.979955527475264 a33.62659786560338,33.62659786560338 0 0,0 0.5058015348669274,-0.28147800653374455 l 6.044779683798132 11.085648931569192" fill="#ff8b0c" stroke="none" /><path d="M 90.58718382345135 81.22770947309562 l -5.798700993949805 -11.564541120889965 a33.93690629764278,33.93690629764278 0 0,0 0.5244524382076146,-0.2573465337565436 l 5.598777288731765 11.66264281478134" fill="#ff900d" stroke="none" /><path d="M 90.91171255644093 81.06846463323043 l -4.102359372611569 -8.54550013213276 a30.479183769203708,30.479183769203708 0 0,0 0.47492633481365615,-0.22298428226190525 l 3.9546548264983046 8.614849397034673" fill="#ff5f08" stroke="none" /><path d="M 91.23893434514133 80.91482961587045 l -6.414369987484778 -13.973111142033634 a36.37504397795239,36.37504397795239 0 0,0 0.5712923783564844,-0.25632223739543425 l 6.17289549066152 14.081453709945597" fill="#ffb110" stroke="none" /><path d="M 91.90106846888425 80.62456947434976 l -3.45631662269617 -8.268698449963788 a29.962003049138033,29.962003049138033 0 0,0 0.4775602723804108,-0.19480882592829865 l 3.3134724807273788 8.326968162075664" fill="#ff5808" stroke="none" /><path d="M 92.57280143429618 80.3572730644239 l -4.220098164751376 -11.160902076095493 a32.93209804151519,32.93209804151519 0 0,0 0.5319595097653573,-0.19592517683755803 l 4.0273563292134495 11.231890520739373" fill="#ff820c" stroke="none" /><path d="M 92.91201910852362 80.23233633223022 l -2.0323810577764463 -5.668105742664141 a27.02146124076463,27.02146124076463 0 0,0 0.43918623799901885,-0.15322345479002158 l 1.934512815714142 5.702250050626372" fill="#ff2e04" stroke="none" /><path d="M 93.59665428221793 80.00007090966166 l -4.553006343017794 -14.220660264421408 a35.93174621789609,35.93174621789609 0 0,0 0.5906744942125562,-0.18352544060794612 l 4.307546476094508 14.296925839911879" fill="#ffab0f" stroke="none" /><path d="M 93.94186890950719 79.89281104454417 l -2.934928994350391 -9.741151351587662 a31.173683593291898,31.173683593291898 0 0,0 0.5151225312603417,-0.15037839246477194 l 2.7668162453666283 9.790228072971132" fill="#ff6909" stroke="none" /><path d="M 94.28887869178378 79.79150937346287 l -3.86791668288363 -13.686411794095445 a35.22246980180603,35.22246980180603 0 0,0 0.5848642650782597,-0.15986549702149822 l 3.6317545285816477 13.75096383194324" fill="#ffa10e" stroke="none" /><path d="M 94.63758080256005 79.69619591428918 l -4.548654632940444 -17.22263573964424 a38.813181658261996,38.813181658261996 0 0,0 0.6474244065115996,-0.1650428967255443 l 4.251521337743846 17.298381632538646" fill="#ffd113" stroke="none" /><path d="M 95.33964822691252 79.52364482259891 l -2.0347706873700835 -8.940245141956638 a30.1688753371643,30.1688753371643 0 0,0 0.5073503728297606,-0.11088714065035937 l 1.8805775903868018 8.973945780702866" fill="#ff5b08" stroke="none" /><path d="M 95.692805502759 79.44645832069477 l -1.7532862788698869 -8.366523181525556 a29.548258473085493,29.548258473085493 0 0,0 0.4987093021242286,-0.10003639439259136 l 1.609010567278522 8.39546353199536" fill="#ff5207" stroke="none" /><path d="M 96.04723909329186 79.375362276772 l -2.3154732882616593 -12.081630752612167 a33.3015128415621,33.3015128415621 0 0,0 0.5639133543387683,-0.10305156106196144 l 2.1071648128199976 12.119697795024864" fill="#ff870c" stroke="none" /><path d="M 96.40284397218896 79.31037775812273 l -1.8008982154011146 -10.358156133525751 a31.513545209335053,31.513545209335053 0 0,0 0.5352362470091262,-0.08831856683763727 l 1.6223327622531027 10.387620963303014" fill="#ff6e0a" stroke="none" /><path d="M 96.75951476605007 79.25152402106235 l -1.9392747917024091 -12.41696645016053 a33.567491497595874,33.567491497595874 0 0,0 0.5716560099398988,-0.08424723594300378 l 1.7252498013338615 12.448508170264502" fill="#ff8b0c" stroke="none" /><path d="M 97.47563105711357 79.15227682838746 l -1.2433856643746908 -10.268609982499433 a31.343614401313474,31.343614401313474 0 0,0 0.536174758347815,-0.06024548143305887 l 1.0664442025171579 10.28849141740309" fill="#ff6c09" stroke="none" /><path d="M 97.83486435360386 79.11191278185805 l -1.32619954041598 -12.794473969784844 a33.8630233376334,33.8630233376334 0 0,0 0.5803072009510086,-0.055107161125397854 l 1.105767212374735 12.815406675425423" fill="#ff8f0d" stroke="none" /><path d="M 98.19473922651362 79.07773832637324 l -1.169280550248068 -13.551501257586558 a34.601852937727216,34.601852937727216 0 0,0 0.5938498697618394,-0.046094179225062294 l 0.9358404911238947 13.569620699000081" fill="#ff990e" stroke="none" /><path d="M 98.55514903715128 79.0497635885617 l -0.5871242624921774 -8.513260134353667 a29.533481881083617,29.533481881083617 0 0,0 0.507466718695349,-0.030611778303197546 l 0.4404954949572054 8.52210518203717" fill="#ff5207" stroke="none" /><path d="M 99.27714615592234 79.0124445844662 l -0.5086341109963612 -14.7678354043864 a35.776592001876395,35.776592001876395 0 0,0 0.6156527349037167,-0.01590049379007171 l 0.25435474089776544 14.77440269031883" fill="#ffa90f" stroke="none" /></svg>