<?xml version="1.0" encoding="utf-8" ?>
<svg baseProfile="full" height="200mm" version="1.1" viewBox="0,0,200,200" width="200mm" xmlns="http://www.w3.org/2000/svg" xmlns:ev="http://www.w3.org/2001/xml-events" xmlns:xlink="http://www.w3.org/1999/xlink"><defs /><rect fill="#1a1a1a" height="200" width="200" x="0" y="0" /><text alignment-baseline="middle" fill="#e1ed5e" style="dominant-baseline: central; font-size:9.0px; font-family:Arial;" text-anchor="middle" x="100.0" y="100.0">2023</text><line stroke="#e1ed5e" stroke-width="0.3" x1="100.0" x2="100.0" y1="15.0" y2="10.0" /><path d="M 100.0 14.0 a86.0,86.0 0 0,1 42.46469731375804,11.215312516191453" fill="none" id="id61" stroke="none" /><text fill="#e1ed5e" style="font-size:6.75px; font-family:Arial;" text-anchor="middle"><textPath startOffset="22.20632615414155" xlink:href="#id61">January</textPath></text><path d="M 100.36148047927253 79.00311137660856 l 0.5151917037842257 -29.925330534645997 a50.929764952292295,50.929764952292295 0 0,0 0.876412406168779,0.022635146782881473 l -1.0302307451478727 29.91202859572076" fill="#adff20" stroke="none" /><path d="M 101.08401301168833 79.027996857942 l 0.6284601384030639 -12.158588370373488 a33.174819641610426,33.174819641610426 0 0,0 0.5700349499806717,0.03438606488075863 l -0.8376571372233476 12.145969036112426" fill="#ff6108" stroke="none" /><path d="M 103.2404852339499 79.25152402106235 l 2.3420179061100357 -14.99568699096783 a36.177472655340935,36.177472655340935 0 0,0 0.6144498996128375,0.10138949824601685 l -2.599797011861748 14.953151229782188" fill="#ff8d0d" stroke="none" /><path d="M 103.95276090670814 79.375362276772 l 2.1591622993310033 -11.266034364431185 a32.47107284151734,32.47107284151734 0 0,0 0.5480399493177859,0.10993165814098499 l -2.352768658115915 11.227198750212992" fill="#ff5608" stroke="none" /><path d="M 105.36241919743992 79.69619591428918 l 2.5398174425482285 -9.61654691069087 a30.946288107982312,30.946288107982312 0 0,0 0.5138588563783146,0.1404570365789489 l -2.704974188150254 9.571403333285629" fill="#ff3f05" stroke="none" /><path d="M 106.0581310904928 79.89281104454417 l 5.084769744233487 -16.876562179834064 a38.62592506399814,38.62592506399814 0 0,0 0.6349635392700879,0.197286262495348 l -5.374518656214293 16.7865357824562" fill="#ffb010" stroke="none" /><path d="M 107.08798089147638 80.2323363322302 l 4.957462827843404 -13.825863715875101 a35.68778217360949,35.68778217360949 0 0,0 0.5764726889174627,0.21231975638145087 l -5.194717842533443 13.738480691687325" fill="#ff860c" stroke="none" /><path d="M 107.4271985657038 80.35727306442388 l 5.9341536224748195 -15.694067981200819 a37.77849662555271,37.77849662555271 0 0,0 0.6062852078006921,0.23522924142082735 l -6.203421995275178 15.589596035889445" fill="#ffa40f" stroke="none" /><path d="M 108.09893153111575 80.62456947434976 l 6.8146373851296485 -16.302957088326973 a38.66990923900396,38.66990923900396 0 0,0 0.6119351868997793,0.2619987114362628 l -7.094256329819744 16.18323884892792" fill="#ffb010" stroke="none" /><path d="M 108.43124777332544 80.76684994638697 l 7.084838133563758 -16.161754296854994 a38.64645101233418,38.64645101233418 0 0,0 0.6069662191269246,0.2723280498816323 l -7.361986471157462 16.03740591645683" fill="#ffb010" stroke="none" /><path d="M 108.76106565485865 80.91482961587045 l 7.795044498872609 -16.980782735071944 a39.68447754247149,39.68447754247149 0 0,0 0.618363129766117,0.2903297807695248 l -8.086185839938324 16.844087971662415" fill="#ffbf11" stroke="none" /><path d="M 109.08828744355905 81.06846463323043 l 8.17755517146305 -17.034416649308316 a39.89560158249942,39.89560158249942 0 0,0 0.6165366206392927,0.3025318421585554 l -8.469563059112774 16.891129647014928" fill="#ffc212" stroke="none" /><path d="M 109.41281617654863 81.2277094730956 l 8.376245402812806 -16.705023159594376 a39.687409820805215,39.687409820805215 0 0,0 0.6080479945052907,0.3114657994978463 l -8.662553884906853 16.55836483478403" fill="#ffbf11" stroke="none" /><path d="M 109.73455568895987 81.39251694778311 l 8.731876064120762 -16.690873324753273 a39.836956015824995,39.836956015824995 0 0,0 0.6048671788990283,0.323099099090901 l -9.017888289548102 16.53809549916062" fill="#ffc111" stroke="none" /><path d="M 110.05341064243156 81.56283822128135 l 8.28932601957994 -15.201969788689825 a38.31510356062369,38.31510356062369 0 0,0 0.5763246780719676,0.32072405937356047 l -8.549774786723942 15.057030331756085" fill="#ffab0f" stroke="none" /><path d="M 110.36928655335952 81.73862282372117 l 17.439803100099898 -30.713282023031674 a56.31929252967186,56.31929252967186 0 0,0 0.8388980346915421,0.4859438888147706 l -17.965897867256768 30.408533976826856" fill="#6dff28" stroke="none" /><line stroke="#e1ed5e" stroke-width="0.3" x1="143.23703022742887" x2="145.7803849466894" y1="26.81831364943548" y2="22.513508569990506" /><path d="M 143.74570117128098 25.957352633546492 a86.0,86.0 0 0,1 28.547481713284135,27.462654790039103" fill="none" id="id62" stroke="none" /><text fill="#e1ed5e" style="font-size:6.75px; font-family:Arial;" text-anchor="middle"><textPath startOffset="19.985693538727396" xlink:href="#id62">February</textPath></text><path d="M 110.99172775467656 82.1063720568725 l 7.726184433377953 -12.577592236309584 a35.761089131952524,35.761089131952524 0 0,0 0.5217387047780314,0.3267127290676025 l -7.941542290528248 12.442735165919037" fill="#ff870c" stroke="none" /><path d="M 111.2981086023043 82.29822771554956 l 3.1646273013110178 -4.958308848397613 a26.882150337444727,26.882150337444727 0 0,0 0.38791323666999966,0.2523095596388411 l -3.2495075637652975 4.903100364599244" fill="#ff0000" stroke="none" /><path d="M 111.90073688211348 82.69761687909136 l 10.0567735085712 -14.621459992702691 a38.74614847568071,38.74614847568071 0 0,0 0.5462632392722595,0.3826923084940577 l -10.30696788742711 14.446182841444697" fill="#ffb110" stroke="none" /><path d="M 112.48926042617603 83.11751280151076 l 11.71903608060083 -15.84132845806578 a40.70491040260647,40.70491040260647 0 0,0 0.5596999733177632,0.421554416105608 l -11.989982207676976 15.637257452454325" fill="#ffcd13" stroke="none" /><path d="M 112.77801427241765 83.33499621200491 l 7.154736406664385 -9.331161069098487 a32.758436118222015,32.758436118222015 0 0,0 0.4445279922658456,0.3469611489496693 l -7.31429695408966 9.206621530925593" fill="#ff5b08" stroke="none" /><path d="M 113.6212207817346 84.01681056812373 l 9.595400350549372 -11.259277265601455 a35.793344193623454,35.793344193623454 0 0,0 0.46549448887854294,0.4036722336966087 l -9.787788638074678 11.092440038485176" fill="#ff870c" stroke="none" /><path d="M 114.16331599549186 84.49514656593476 l 19.826005518474172 -21.703908169863254 a50.39609029555504,50.39609029555504 0 0,0 0.6354517808488573,0.5905831762621148 l -20.196665183117876 21.3594204075265" fill="#b3ff20" stroke="none" /><path d="M 114.42810811169701 84.74124197986012 l 6.618059364243614 -6.9990719240623 a30.632534326274147,30.632534326274147 0 0,0 0.3800137372672475,0.36557291416660265 l -6.73755634512328 6.884115923133396" fill="#ff3a05" stroke="none" /><path d="M 115.68641384162765 86.03803664274999 l 13.43767497114997 -11.960434516648201 a38.98952757737957,38.98952757737957 0 0,0 0.44189641898439075,0.5051639964191024 l -13.641563253712208 11.72735496402615" fill="#ffb510" stroke="none" /><path d="M 115.9244219780498 86.31012108654704 l 11.506942108877048 -9.892267634691986 a36.17454037700722,36.17454037700722 0 0,0 0.4018636348541677,0.47567978935195565 l -11.675516357218333 9.692728895710925" fill="#ff8d0d" stroke="none" /><path d="M 116.15771136456269 86.58626213691792 l 14.179830010650667 -11.771749006675003 a39.42936932743775,39.42936932743775 0 0,0 0.4290319213236056,0.5259424062373382 l -14.380360424050682 11.525922430829564" fill="#ffbb11" stroke="none" /><path d="M 117.04232023915458 87.72973835380427 l 42.91713923851332 -30.899814119963718 a73.88363974866186,73.88363974866186 0 0,0 0.7342182485000928,1.038499643468455 l -43.442670106817296 30.15648797616347" fill="#3fffc1" stroke="none" /><path d="M 117.45458315368197 88.32363383020206 l 11.2234147669591 -7.5079822497444 a34.503141726786126,34.503141726786126 0 0,0 0.3259780671103211,0.49648696027871103 l -11.350989469427347 7.313677225488016" fill="#ff740a" stroke="none" /><line stroke="#e1ed5e" stroke-width="0.3" x1="172.23445277983987" x2="176.4835382374775" y1="55.19839476539836" y2="52.563006222186495" /><path d="M 173.08426987136738 54.67131705675599 a86.0,86.0 0 0,1 12.851231095245387,41.99856678651699" fill="none" id="id63" stroke="none" /><text fill="#e1ed5e" style="font-size:6.75px; font-family:Arial;" text-anchor="middle"><textPath startOffset="22.20632615414155" xlink:href="#id63">March</textPath></text><path d="M 118.03404312379186 89.2402003453031 l 15.750934103698128 -9.397609519217468 a39.34140097742611,39.34140097742611 0 0,0 0.3419710543434641,0.5845393834189301 l -15.910364832511918 9.125090723444643" fill="#ffba11" stroke="none" /><path d="M 118.3937258080291 89.86733742301442 l 13.060101801325757 -7.194496979842454 a35.910635326972304,35.910635326972304 0 0,0 0.2935983446457343,0.5439931427677667 l -13.182008245189955 6.968622853742229" fill="#ff890c" stroke="none" /><path d="M 118.56541770881063 90.18545643968196 l 13.026468324892729 -6.88639721534999 a35.73469862694903,35.73469862694903 0 0,0 0.28279856288881294,0.5462768105264972 l -13.14307632094166 6.661147682563148" fill="#ff860c" stroke="none" /><path d="M 118.89224826269711 90.83032412892265 l 10.61782163239784 -5.1535413611011816 a32.80242029322783,32.80242029322783 0 0,0 0.2421784042201844,0.5100894824809619 l -10.70495823045978 4.97000946297968" fill="#ff5b08" stroke="none" /><path d="M 119.34039704204932 91.81776055985345 l 13.651250693166302 -5.775362397478351 a35.82266697696067,35.82266697696067 0 0,0 0.2353691028913598,0.5699649519612027 l -13.74864148294386 5.539522875063845" fill="#ff880c" stroke="none" /><path d="M 119.61058180528143 92.48833698450437 l 58.83174541584429 -22.534989046486903 a84.0,84.0 0 0,0 0.505581645993499,1.354707451882667 l -59.21093165033941 21.518958457574904" fill="#4dd2ff" stroke="none" /><path d="M 119.85752413597 93.16781622104841 l 11.132598474180057 -3.8302840873852357 a32.77309750989062,32.77309750989062 0 0,0 0.17894533580789154,0.5350237774733446 l -11.196881103759718 3.638087206989577" fill="#ff5b08" stroke="none" /><path d="M 120.08093135843002 93.85539295169968 l 14.089831986424599 -4.3113777637015245 a35.73469862694903,35.73469862694903 0 0,0 0.17491982320670998,0.5897426865509363 l -14.16195770674301 4.068205690404058" fill="#ff860c" stroke="none" /><path d="M 120.37134235888165 94.90015583598534 l 8.263265006174242 -2.0686591524034283 a29.51826855946009,29.51826855946009 0 0,0 0.11915147461592987,0.4939597860780049 l -8.297649281050992 1.9261141346660176" fill="#ff2904" stroke="none" /><path d="M 120.73433829027371 96.67025291283417 l 15.069429481155417 -2.4200139988873377 a36.262508727018854,36.262508727018854 0 0,0 0.0936679708355585,0.617154895520305 l -15.108853345430274 2.1602599909749505" fill="#ff8e0d" stroke="none" /><path d="M 120.78858239683441 97.02765380044208 l 11.654571792872723 -1.6663676971689572 a32.77309750989062,32.77309750989062 0 0,0 0.075041031025867,0.5591428434057157 l -11.681528822956427 1.465506511698577" fill="#ff5b08" stroke="none" /><path d="M 120.83666639777658 97.38593545837742 l 62.24814674150755 -7.809342918503379 a83.73609494996509,83.73609494996509 0 0,0 0.16711191334338085,1.4317128200004592 l -62.373349007854515 6.736686360178067" fill="#4dd5ff" stroke="none" /><path d="M 120.91429891909075 98.10471618934814 l 14.645363148136859 -1.327183845997547 a35.70537584361182,35.70537584361182 0 0,0 0.05020093581912296,0.6125785713009172 l -14.666038567775477 1.074891357488861" fill="#ff860c" stroke="none" /><path d="M 120.96714384426684 98.82574320788733 l 22.030871411883837 -1.2338304436557364 a43.06539446125204,43.06539446125204 0 0,0 0.035080643296818495,0.7404969347074998 l -22.048845663414152 0.8544224023252369" fill="#ffed16" stroke="none" /><path d="M 120.98425023603335 99.18683210126433 l 14.840850934909323 -0.5751029193059567 a35.85198976029788,35.85198976029788 0 0,0 0.018588924708724183,0.6168759130766132 l -14.848551554073692 0.3195568588043444" fill="#ff880c" stroke="none" /><line stroke="#e1ed5e" stroke-width="0.3" x1="184.98032266829074" x2="189.97916517819016" y1="98.17113171792111" y2="98.06355123074" /><path d="M 185.9800911702706 98.14961562048488 a86.0,86.0 0 0,1 -9.607161424134198,41.387399972396054" fill="none" id="id64" stroke="none" /><text fill="#e1ed5e" style="font-size:6.75px; font-family:Arial;" text-anchor="middle"><textPath startOffset="21.466115282336823" xlink:href="#id64">April</textPath></text><path d="M 120.99513854157772 99.54816195383933 l 15.815979394714226 -0.3403769502960391 a36.819641610425876,36.819641610425876 0 0,0 0.008182714539243898,0.633760258732249 l -15.819495116371186 0.06808043350332743" fill="#ff960d" stroke="none" /><path d="M 120.9904718944345 100.63252640178507 l 14.654739512055736 0.44160558653833154 a35.661391668606,35.661391668606 0 0,0 -0.023770639186588383,0.6134145749450306 l -14.644966740017944 -0.6937974084973684" fill="#ff850c" stroke="none" /><path d="M 120.9764740272857 100.99374915477107 l 61.90427441005586 2.9326816457183766 a82.97370258319758,82.97370258319758 0 0,0 -0.0798667290275838,1.4260740982213598 l -61.84462133014075 -3.99782746027516" fill="#4cdcff" stroke="none" /><path d="M 120.92983693683757 101.71520430193887 l 24.44655610565226 2.003400137638164 a45.52850826157784,45.52850826157784 0 0,0 -0.07073266490173752,0.7805290631327709 l -24.408448844473448 -2.4239105893195054" fill="#f1ff19" stroke="none" /><path d="M 120.89721153311464 102.0752229133903 l 8.797546116687082 0.8736509775012921 a29.84081917616942,29.84081917616942 0 0,0 -0.05515961532105589,0.5107095318993399 l -8.781204199864973 -1.0249568312854234" fill="#ff2e04" stroke="none" /><path d="M 120.8583938346157 102.4346265915055 l 11.693709738791997 1.3649093458079518 a32.77309750989062,32.77309750989062 0 0,0 -0.07022571072623608,0.5597680101812263 l -11.668482518818912 -1.565995110276573" fill="#ff5b08" stroke="none" /><path d="M 120.81339534386255 102.79330883721812 l 14.923451490444618 2.0028355893574608 a36.05724924365837,36.05724924365837 0 0,0 -0.08785254168012924,0.6144404718940052 l -14.886764897747888 -2.2594215332318757" fill="#ff8b0c" stroke="none" /><path d="M 120.49622156327973 104.57218783832717 l 14.810511508955921 3.303849950664617 a36.17454037700722,36.17454037700722 0 0,0 -0.14080411705423507,0.6065804510835286 l -14.751446825971133 -3.5582990590967105" fill="#ff8d0d" stroke="none" /><line stroke="#e1ed5e" stroke-width="0.3" x1="174.80103733775053" x2="179.2010983576182" y1="140.37084112569926" y2="142.7455964860345" /><path d="M 175.68104954172406 140.8457921977663 a86.0,86.0 0 0,1 -30.038265399797805,32.042727171017184" fill="none" id="id65" stroke="none" /><text fill="#e1ed5e" style="font-size:6.75px; font-family:Arial;" text-anchor="middle"><textPath startOffset="22.206326154141568" xlink:href="#id65">May</textPath></text><line stroke="#e1ed5e" stroke-width="0.3" x1="143.8653032363475" x2="146.44561519142675" y1="172.8068346515853" y2="177.08958963109032" /><path d="M 144.38136562736335 173.6633856474863 a86.0,86.0 0 0,1 -40.68145358897372,12.25698825130547" fill="none" id="id66" stroke="none" /><text fill="#e1ed5e" style="font-size:6.75px; font-family:Arial;" text-anchor="middle"><textPath startOffset="21.466115282336833" xlink:href="#id66">June</textPath></text><line stroke="#e1ed5e" stroke-width="0.3" x1="102.19456741930631" x2="102.32365962044197" y1="184.97166512339345" y2="189.96999836594603" /><path d="M 102.22038585953345 185.97133177190398 a86.0,86.0 0 0,1 -42.740103519485714,-10.115201625700543" fill="none" id="id67" stroke="none" /><text fill="#e1ed5e" style="font-size:6.75px; font-family:Arial;" text-anchor="middle"><textPath startOffset="22.20632615414155" xlink:href="#id67">July</textPath></text><line stroke="#e1ed5e" stroke-width="0.3" x1="58.666819895761336" x2="56.23545636021788" y1="174.27360380694188" y2="178.64263932499728" /><path d="M 58.180547188652646 175.14741091055294 a86.0,86.0 0 0,1 -31.652253787137756,-30.449443065178592" fill="none" id="id68" stroke="none" /><text fill="#e1ed5e" style="font-size:6.75px; font-family:Arial;" text-anchor="middle"><textPath startOffset="22.20632615414155" xlink:href="#id68">August</textPath></text><line stroke="#e1ed5e" stroke-width="0.3" x1="26.63291911575756" x2="22.317208475507996" y1="142.92168965132927" y2="145.44649492493687" /><path d="M 25.769776987707644 143.4266507060508 a86.0,86.0 0 0,1 -11.730757126820373,-40.83630448921669" fill="none" id="id69" stroke="none" /><text fill="#e1ed5e" style="font-size:6.75px; font-family:Arial;" text-anchor="middle"><textPath startOffset="21.46611528233685" xlink:href="#id69">September</textPath></text><line stroke="#e1ed5e" stroke-width="0.3" x1="15.007084014347285" x2="10.007500721073583" y1="101.09737516637583" y2="101.16192664675087" /><path d="M 14.007167355692545 101.11028546245083 a86.0,86.0 0 0,1 10.666146001902534,-42.60595125391555" fill="none" id="id70" stroke="none" /><text fill="#e1ed5e" style="font-size:6.75px; font-family:Arial;" text-anchor="middle"><textPath startOffset="22.20632615414155" xlink:href="#id70">October</textPath></text><line stroke="#e1ed5e" stroke-width="0.3" x1="26.266209847984243" x2="21.928928074336255" y1="57.711370442889674" y2="55.22380399835377" /><path d="M 25.398753493254645 57.213857153982495 a86.0,86.0 0 0,1 29.58750427330803,-30.492523968695096" fill="none" id="id71" stroke="none" /><text fill="#e1ed5e" style="font-size:6.75px; font-family:Arial;" text-anchor="middle"><textPath startOffset="21.46611528233685" xlink:href="#id71">November</textPath></text><line stroke="#e1ed5e" stroke-width="0.3" x1="56.762969772571076" x2="54.21961505331055" y1="26.818313649435495" y2="22.513508569990535" /><path d="M 56.25429882871897 25.957352633546506 a86.0,86.0 0 0,1 42.265352541879196,-11.944610805530505" fill="none" id="id72" stroke="none" /><text fill="#e1ed5e" style="font-size:6.75px; font-family:Arial;" text-anchor="middle"><textPath startOffset="22.20632615414155" xlink:href="#id72">December</textPath></text></svg>